<svg id="Group_20350" data-name="Group 20350" xmlns="http://www.w3.org/2000/svg" xmlns:xlink="http://www.w3.org/1999/xlink" width="43.785" height="69.96" viewBox="0 0 43.785 69.96">
  <defs>
    <clipPath id="clip-path">
      <rect id="Rectangle_7131" data-name="Rectangle 7131" width="43.785" height="69.96" fill="#fff"/>
    </clipPath>
  </defs>
  <g id="Group_20349" data-name="Group 20349" clip-path="url(#clip-path)">
    <path id="Path_179198" data-name="Path 179198" d="M43.691,14.585h-.167l-.167-1.167h-.167l-.334-1-1.167-1-.167-.334-1-.334v-.167c-2.31-1.008-5.819.952-6.5,2.168a1.765,1.765,0,0,1-1.167-1.167c-.241-.34,1.018-2.468,1.167-3.168h-.334v.334c-.266.075-.64.068-.5.5h.167v.167c-.252-.16-.283-.326-.5-.5V8.748l.334.167.167-.334.834-.5c.1-.655.143-.473,0-1h.334l-.167-.667.334-.167v.167h.167a3.925,3.925,0,0,1,.334-1.334h.167l.167-1h.167V.91L31.851.577V.41h-2V.243H27.015V.077a2.825,2.825,0,0,0-1.167.167V.077a6.61,6.61,0,0,0-2.835.167c-.218-.016-.531-.273-1-.167V.243c-.339.049-.334-.167-.334-.167h-1V.243L20.011.077V.243c-.16-.019-.645-.367-1-.167V.243h-.334l-.334,1-.334.167v.667c-.169-.129-.164-.2-.334-.334V1.577H17.51v.334h-.167V1.577l.5-.167V1.077h.334c.061-.562.122-.619.5-.834V.077a9.326,9.326,0,0,0-2,.167V.577h-.334V.243H15.175V.41h.167V.577l-.5-.167V.243c-.281-.069-.3.159-.334.167H12.84c.189.187,0,.071.334.167-.1.333.023.144-.167.334v.167c-.309.106-.237-.1-.334-.167h-.167l.167-.5H12.34c-.172.658-.061.222-.5.5l-.167.334-.334-.167c-.015.515-.334.335.167.5-.1.333.023.144-.167.334v.167h-.334l.167-.5h-.334v.334c-.481-.121-.553-.179-.667-.667h-.167v.5H9.672c-.078.034-.05.3-.334.334-.182-.15.066-.129-.167-.167v.334h.334a1.119,1.119,0,0,1-.5.5v.5h.167V2.911h.334c.108-.395.047-.312.334-.5V2.078h.167v.667l1-.334v.334h-.667v.167h.167v.167l.5-.167v.167h.167V2.244c.677-.187.362-.406,1.167-.5.1-.333-.023-.144.167-.334V1.244h.167v.5c.187-.189.071,0,.167-.334h.167v.5l-.5.167V1.744H12.34v.334l-.5-.167a1.624,1.624,0,0,0-.167.667H11.34v.5c.187-.189.071,0,.167-.334h.167c-.1.333.023.144-.167.334v.167c-.195.133-.141-.115-.167-.167l-.334.167c-.187-.143.062-.107-.167-.167v.334h-.167c.048.311.279.351,0,.667h-.334v.167h.167v.167l-.334-.167v.167c-.5.206-.2.135-.667,0l-.167.5h.167v.167H9.339v.5c.3-.159.259-.238.667-.334.1-.4.176-.367.334-.667h.167l-.5.834H9.672V5.58h.167v.167L9.505,5.58l.167.834c.187-.189.071,0,.167-.334h.167v.834l.5-.167a1.248,1.248,0,0,1-.5.334v.5c.713-.413.817-1.044,1.334-1.5V5.746h.167v.667h-.334c.13.177.079.271.334.334.147-.184-.066-.13.167-.167-.1.333.023.144-.167.334V7.08c-.262.233-.137-.308-.167-.334h-.167V7.08c-.333.1-.144-.023-.334.167h-.334a.665.665,0,0,0,.334.334v.167h-.667c.189.187,0,.071.334.167-.042.288-.2.687,0,1h.167c.012.09-.1.691.167.5V9.248h.167v.167h-.167v.167h.167v1a3.411,3.411,0,0,1,.334.334h.167l-.167.334h.167c-.039.262-.307.381-.5.5v.334l.5-.167c-.1.333.023.144-.167.334v.167l-.334-.167v.167h-.167V12.25h-.167v.167l-.334.167v.167h.167v.167l.334-.167v.167h-.167v.334h-.167l-.167-.5h-.167v.5h-.167v.167H9.672v.167c.314.11.189-.121.334.167l-.834.667v.167H9v-.167c-.333-.1-.144.023-.334-.167H9c.078-.034.05-.3.334-.334v.167h.167l.167-.5H9.505v-.167h.167l.334-.5-.5-.167c-.1.333.023.144-.167.334v.167H9.172v-.5l-.5.167a1.626,1.626,0,0,0-.334-.334v-.5H8.5v.167h.167v-.167h.167v-.167L8.5,11.75v.167H8.338l.167-.334L8,11.416v.167H7.5v-.167H7.337c-.233-.262.308-.137.334-.167v-.167L7,10.916v.5c-.094.026-.5-.109-.334.167h.167v.167H6.67v.167H6.5l-.167-.5c.187-.189.071,0,.167-.334.333-.1.144.023.334-.167H7v-.167l-.834-.167c-.129.169-.205.164-.334.334-.11.121-.234.007-.167.334h.167v.167H5.67v.334H5.5c-.015-.7-.1-.88.334-1.167v-.167a3.512,3.512,0,0,1-1.334.334c-.121.481-.179.553-.667.667v.167c-.309.106-.237-.1-.334-.167H3.335v-.167h.5v-.334h.334v-.334H5v-.167H4.836v-.167c-.283.117-.736.056-1,.167v.167a1.375,1.375,0,0,1-.667.167v.167h.5v.167h-.5c-.1.333.023.144-.167.334v.167l-.334-.167v.334c.333.1.144-.023.334.167h.167l-.167.5h.167l.167-.5h.334v.5H3.5v.167l-1.167-.167c-.1.333.023.144-.167.334v.334h.167l.167-.5h.334v.667l-.5-.167v.167H2a1.625,1.625,0,0,1,.167.667c-.481.121-.553.179-.667.667a3.512,3.512,0,0,1-.667-.167v.167H.5v-.167l.5-.167.167-.5h.167v-.167H1.5l-.167.5h.334c-.045-.8-.242-.713.334-1-.129-.169-.205-.164-.334-.334-.224.072-.381.068-.167.167l-.167.5H1V12.75H.834v-.167H.667l.167.5H.5v.334c.333.1.144-.023.334.167a1.291,1.291,0,0,0-.5.334H.167c-.233.262.308.137.334.167v.167H.167c-.1.333.023.144-.167.334v1.167l.5-.167v.334H0v.5a1.257,1.257,0,0,0,.667-.5H.834c.142.292-.1.418-.167.5v.167l.5-.167c-.1.333.023.144-.167.334v.167a2.3,2.3,0,0,0-1-.167s.016.645.167.334v-.167h.5c.161.573.214.311.5.667-.4.1-.367.176-.667.334-.17-.489-.179-.341,0-.834H.167v1.167c.508-.156.154-.166.667,0V17.92h.5v-.167H1.5v-.5h.334v-.334h.334v-.334l.667-.167v.167H3v.167H2.335v.167h.5v.167c-.3.152-.522-.115-.667-.167v.167H2c.188.493-.027.186.5.167v.167H2.335v.167H1.668v.167H1.5l.167.5H1.5v.167H1.334v.167H1.167V18.42H.334v.167h.5v.167h-.5v.167l.5.167-.167.334H.834v.5a1.291,1.291,0,0,0,.5-.334H1.5v.5H1.167c.1.333-.023.144.167.334v.167H1.5c.19-.281.1-.232.5-.334l-.334-.5.5-.167c.07.531.165.687-.334,1v.167H2v.167h.167v-.334L3,20.421v.334a6.034,6.034,0,0,1-1.167.334c-.1-.333.023-.144-.167-.334v-.167H1.5c.079.363.107.473.334.667.3.253.532-.024,1.167-.167.1.333-.023.144.167.334.063.067-.04.279.167.167v-.167l1-.834H4.5s-.023-.649-.167-.334v.167H4.169c.065-.539.151-.487.334-.834L4,19.254l-.167.334H4v.167l-.334-.167v.167H3.5l.167.5H3.335v-.167H3.5c.013-.235-.095.058-.167-.167-.111-.348.1-.479.167-.667H3.335v-.167c-.395.108-.312.047-.5.334H2.668v.167H3l.167.667H2.5c.129-.169.2-.164.334-.334-.333-.1-.144.023-.334-.167H2.335c.16-.3.24-.259.334-.667.333-.1.144.023.334-.167h.334v-.167c-.314-.11-.189.121-.334-.167h.334v-.334H3.5v-.167H3.335v-.667a1.119,1.119,0,0,0-.5.5c-.066.017-.3-.031-.167.167H3c-.1.4-.176.367-.334.667-.333-.1-.144.023-.334-.167H2.5l-.167-.5H2.5a1.508,1.508,0,0,0,.167-.834h.667l-.334-1h.167C3.1,16.029,3.1,15.871,3,16.085l-.5-.167c-.129.169-.2.164-.334.334H2v.5a1.381,1.381,0,0,0-.834.5H1c.19-.281.1-.232.5-.334l.167-.834c-.333.1-.144-.023-.334.167H1v-.167h.167A.287.287,0,0,0,1,15.752l.167-.834h.167v-.167H1.5v.167l.334-.167c.187.143-.061.107.167.167.017-.066-.031-.3.167-.167v.334h.167l-.167.5H2.5v-.334c.728-.089.6-.326,1-.667v-.167c.262-.233.137.308.167.334h.167v-.167c.1-.211.2.066.167-.167H3.835c-.117-.326.042-.142-.167-.334v.167H3.5v-.167H3.168l.167-.334-.5.167-.167.5c.333-.1.144.023.334-.167h.334c-.159.3-.238.259-.334.667-.333.1-.144-.023-.334.167H2.5l.167-.667A1.767,1.767,0,0,0,2,14.585v-.167H1.834v-.167h.5a1.942,1.942,0,0,0,.334-.834c.637.051.622.246,1-.167h.167a1.291,1.291,0,0,1-.334.5v.167l.5-.167v.167h.167l-.167.5c1.114-.6,1.267-.4,2.5-.334v-.5l.5.167c-.129.169-.2.164-.334.334.169.129.164.205.334.334v.167h.167v-.334H7.5v.334H7.171c.19.281.1.232.5.334,0,0,.023.649.167.334.232-.04-.069-.158.167-.167-.087.371-.207.325.167.667-.2.352-.384.361-.5.834H8l.167.5-.334-.167-.167.334H7.337v.167a1.357,1.357,0,0,1-.667.334s.023.649.167.334c.232-.04-.069-.158.167-.167l-.167.334-.5.167v.5L6,19.087l-.167.667-.334.167c-.062.164.3.31.167.667H5.5v.334c-.077.127-.449.2-.5.5H5.17v.167H4.836v-.334H4.5c.366.368-.134.407-.334.667H4v.167h.334c-.1.333.023.144-.167.334,0,0,.023.649.167.334v-.167H4.5v.334c.333-.1.144.023.334-.167H5a.779.779,0,0,1-.667.5c-.189-.187,0-.071-.334-.167v.334c.333.1.144-.023.334.167H4v.5l.5-.167V23.59h.167c.181.329-.171.488-.167.667h.167v.334a.324.324,0,0,1-.167-.334c-.163-.1-.449.415-.5.5H3.835v-.5H3.669v.5H3.5s.023.649.167.334v-.167h.167c-.159.3-.238.259-.334.667h.167s-.009.63.167.334v-.334H4v.5l-.5.167v1.834l.334-.167c-.159.3-.238.259-.334.667l1-.334v.167c-.013.016-.58-.078-.334.167h.167v.167L4,28.592c-.155.571-.355.429-.5,1l1-.167c.1.333-.023.144.167.334v-.334c.333.1.144-.023.334.167l-.5.334V29.76h-1c.3.139-.213,1.258,0,2.168h.167v.167H3.5c-.05.376.194.47.167.667a.466.466,0,0,0-.167.5c.171.816.016,5.36,0,7.5l.5.167v-.167h.167v.5l-.5.167c-.1.333.023.144-.167.334v.5h.167c.115-.454.226-.377.334-.834h.334V42.1l.334-.167a.664.664,0,0,1-.334.334v.167H4.169v-.167L3.835,42.1a.664.664,0,0,1-.334.334v.834c.348-.312-.015-.135.167-.5h.167v.167c.221-.184.071.005.167-.334h.334v.167l-.834.667V66.28l.334.167.5.667L5,67.28l.167.334L6,67.781v.167h.334v.167l1,.167v.167H8c3.807,1.412,9.182,1.5,14.341,1.5a30.657,30.657,0,0,0,5-.167c.664-.171,1.768.254,2.168-.167v-.334c.256.17.165.184.334,0h.167c-.19.281-.1.232-.5.334a2.256,2.256,0,0,0,1.334,0c.122-.051.07-.378.334-.334v.334h.167v-.167h.334l.167-.5.334-.167v-.334l.5-.334.167-.667h.167l.334-.5h.167c-.085.162-.315.3-.334.334v.5h-.167l-.167.667-.5.167c-.176.136-.294.5-.5.667v.167l.834-.167c.163-.6.644-.912,1-1.334h.167v-.334h.167l.167-.334h.334l.334-.5h.334c.037-.37.012-.449.167-.667h.167V65.78l.334.167V65.78h.167v-.334c.16-.18.339-.133.667-.167v.667H36.52v-.5h-.167v.334c-.333.1-.144-.023-.334.167h-.167c.16.252.326.283.5.5l-.5.167c-.1-.333.023-.144-.167-.334a1.123,1.123,0,0,1-.834.667l.167.5h-.5v.167h-.167v.5c-.333-.1-.144.023-.334-.167h-.167l.167.5-.334-.167-.167.5h.167v.167h-.167v-.167a3.583,3.583,0,0,1-.667.167v.334h.834v-.167c.454-.127.38-.04.5-.5.395-.108.312-.047.5-.334h.167l-.167.334h.334v-.667h.5v.167h-.334v.667a1.767,1.767,0,0,1-.667-.167c-.1.333.023.144-.167.334v.167l1.834-.334c-.1-.333.023-.144-.167-.334v-.167l.834.167.167-.334c.209.035.3.293.667.167v-.167l1-.167v-.167h-.667c.2-.352.384-.361.5-.834.539-.065.487-.151.834-.334.143.188-.022.026.167.167a1.21,1.21,0,0,1-.5.5v-.167h-.167v.334h-.167v.334a2.939,2.939,0,0,1,.834-.334v-.334h.167v.167h.167v-.167h.167l.167-.5.334.167v-.334c-.538.065-.487.151-.834.334l-.167-.334c-.333-.1-.144.023-.334-.167h.334v-.334l.334.167v.167a2.115,2.115,0,0,0,.834-.167v-.5c-.3.159-.259.238-.667.334v-.5h.5v-.167h.167v-.167c-.352-.188.151-1.06.167-1.834,0,0-.641-.008-.334-.167h.167c-.188-.493.027-.186-.5-.167v-.167l.5-.167.167-.5h-.167l-.167-.5h.334c-.188-.493.027-.186-.5-.167l-.167.5h.167v.167a1.291,1.291,0,0,1-.5-.334h-.167c.3-.359.179.023.5-.167l-.167-.334h.167v.167c.172-.071.14-.409.334-.334v.167h.167a4.946,4.946,0,0,0-.167-.667h.167v-.167h-.334v.334h-.167c-.3.348-.337.1-.5.667,0,0-.649.023-.334.167.04.232.158-.069.167.167h-.667l-.167,1c-.169-.129-.164-.205-.334-.334v.334l-.667-.167v.334h-.167v-.334a1.625,1.625,0,0,1,.667-.167c.079-.363.107-.473.334-.667v-.167h.5a.781.781,0,0,1,.5-.667v-.167l-.5.167.167-.334h.167c.166-.6-.81-.406,0-1.167v-.167l-.5.167-.167.334v.167h.167c-.1.333.023.144-.167.334V60.11l-.334.167c.1-.627.076-.706.167-1.334h.334c.1.333-.023.144.167.334l.167-.5h.5a.664.664,0,0,1-.334.334c.175.218.341.247.5.5-.188-.143-.026.022-.167-.167h-.334v.167h.167l-.167.667c.493.188.186-.027.167.5a1.291,1.291,0,0,0,.5-.334h.167l-.167-.834c.045-.231.208.065.167-.167,0-.016-.277-.067-.167-.334a1.774,1.774,0,0,0,.334-.334l-.334-.167v.167h-.167l.167-.334-.667.167c.175-.218.341-.247.5-.5h-.167v-.167c-.214.137-.183.142-.334.334h-.167l.167-.334-.334-.167c.152-.3.023-.038.334-.167v-.167h-1v-.167h-.167c-.123-.348.187-.4.334-.5v-.334l-.834.5v-.334l.667-.167c.237-.8.329-.159.667-.5l-.167-.334c.177.13.271.079.334.334-.184.147-.13-.066-.167.167h.667l.167-.5h-.167v-.167c.333-.1.144.023.334-.167.447.059.262-.1.5.167h-.167l.167.334h-.167v-.167l-.5.167c.1.333-.023.144.167.334v.167c.3-.16.259-.24.667-.334l.167-1.334h-.334c-.1.333.023.144-.167.334v.167h-.167a1.461,1.461,0,0,1,.334-.667h.167v-.334h.167c.026-.387-.321-.166-.334-.334l.167-.334h-.334l-.167.667h.167v.167h-.334l.167.334h-.334v-.5h-.167v.334h-.167c-.023.388.327.162.5.334v.167a.665.665,0,0,0-.334.334h-.334v-.167h.334c-.216-.563-.628-.063-.834.334h-.167c.23-.344-.011-.45-.167-.834.188-.143.026.022.167-.167h.167l-.167.334h.167v.167h.167v-.167c.146-.109.453-.143.334-.5h-.167v-.167l.334.167V53.94h-.334l.167-.5c.333-.1.144.023.334-.167h.167c-.159.3-.238.259-.334.667h.334s.023-.649.167-.334c.232.04-.069.158.167.167-.061-.562-.122-.619-.5-.834v-.167h-.167v.334c-.185.208-.494.272-.667.5h-.167c.3-.484.294-.144.5-.334l-.167-.334c.164-.168.329-.117.5-.334h.167v-.167h-.334c-.191-.2-.143-.441-.167-.834.333-.1.144.023.334-.167l-.334-.167v.167h-.167l.167-.334h-.167v-.167c.188-.143.026.022.167-.167h.334c-.146.177-.146.373,0,.667h.167c.1.294-.149.275-.167.334l.167.334-.334-.167v.334c.655.1.473.143,1,0l-.334.5c-.188.143-.026-.022-.167.167l.5.167a.665.665,0,0,1,.334-.334V51.438l-.334-.167c.039-.263.321-.3.334-.334v-1h.167v-.167h-.167V49.6h.167v-.167c-.562.061-.619.122-.834.5h-.167V50.1c.395-.108.312-.047.5-.334h.167c-.172.349-.118.15,0,.5l-.334-.167v.167h-.167c-.159.272.236.147.334.167.069.225-.054.031-.167.167v.5h-.167v.167c-.333-.1-.144.023-.334-.167h.167v-.167h-.167c.1-.247.138-.2.334-.334v-.167h-.5V50.6h-.334v-.167h.334c.125-.471.3-.479.5-.834h.167v-.167h-.334V49.27h1v-.334c-.333.1-.144-.023-.334.167h-.167a1.2,1.2,0,0,0,.167-.667c-.433.253-.563.545-1.167.667.147-.528.189-.487.834-.5-.129-.169-.2-.164-.334-.334l.667-.167c.1.333-.023.144.167.334V48.27h.167c-.172-.349-.118-.15,0-.5l-.5.167a.665.665,0,0,1,.334-.334v-.334l-1.167.834V47.77l.667-.167.167-.667h.334a2.022,2.022,0,0,0-.167-.834l.334-.167c.076-.318-.124-.237-.167-.334-.192-.434,0-.368-.5-.5v-.167h.5v-.667h-.334V44.6h-.334c.171-.572.215-.307.5-.667h.167c.174-.347-.181-.476-.167-.667h.167a7.241,7.241,0,0,1,.167-.834h-.167v-.167h-.15l-.016.014v.486h-.167v.167c-.333.1-.144-.023-.334.167h-.167c.138-.556.409-.594.667-.82v-.014h.016a1.009,1.009,0,0,0,.15-.167l-.167-.334h.167v-.334a.664.664,0,0,0-.334.334h-.167v-.334l.5-.167a5.977,5.977,0,0,1,0-2.168h-.5v.167h.167v.167h-.167V39.6l-.5-.167v.334h-.167c.191-.681.117-.173.5-.5V39.1h.167v-.334l.5-.334v-.5a2.219,2.219,0,0,0-.5.667h-.167c.207-.509.3-.5-.167-.834V37.6l.334.167c.156-.508.166-.154,0-.667l.334.167a1.983,1.983,0,0,0,.167-.834c-.333-.1-.144.023-.334-.167h.334a8.378,8.378,0,0,1,.167-2.835h-.167v-.167c-.214.137-.183.142-.334.334h-.167a3.1,3.1,0,0,1,.5-.5V30.427c.022-1.486.362-6.1-.667-7,.121-.413.085-.27.334-.5v-.167h.334l.5-.667h.167v-.334l.667-.5v-.334l.334-.167.167-.667h.167l.334-1h.167l.334-1.668a6.719,6.719,0,0,0,.167-2.835m-10.339-8a2.362,2.362,0,0,0,.834-.5c.4.249-.195.215-.334.334l.167.334h-.667Zm.167,1.167V7.581h.167c-.348.359.127.273,0,.5-.329.071-.214-.085-.334-.167h-.167c-.233-.262.308-.137.334-.167m-22.846-5.5-.5.167V2.078h.5ZM8.838,13.584v-.167H9v.167h.167v.167l-.5.167c.1-.333-.023-.144.167-.334m-8,1.668H.667v.167H.5v-.5H.334v.5H.167v-.667l.5.167v-.167H.834Zm.5,4S.685,19.23,1,19.087c.04-.232.158.069.167-.167H1v-.167h.5l-.167.5M3.5,20.588v-.167l.334.167v-.167H4l-.334.5H3.335c.1-.333-.023-.144.167-.334M1.834,17.753c.333.1.144-.023.334.167H2l.167.5H1.834Zm.5,1.668-.5-.334v.167H1.668v-.167h.167l-.167-.5c.4.1.367.176.667.334ZM3.5,13.084v.167l-.334-.167v.167H3l.334-.5h.334c-.1.333.023.144-.167.334M34.686,67.948v.167h-.167l.167-.5h.167c.106.309-.1.237-.167.334m4.669-12.507c.187.189.071,0,.167.334h-.167Zm.834-4c.237.2.443.188.167.5h-.167v-.167h-.167l.167-.334m0-8.338h.167v.667h-.167V43.6h-.167l.167-.5m-2.835-2.668h.167c.15.069-.321.327-.334.334l.167-.334M37.187,36.6l.167-.334h.167c.15.069-.321.327-.334.334m.5,7.5h.167a1.409,1.409,0,0,1-.334.5v.167l-.334-.167v.167h-.167c.363-.557.3.079.667-.667m.5-6.337h-.167c-.143.188.022.026-.167.167V37.6c.333.1.144-.023.334.167m-.334-1.5c.333.1.144-.023.334.167-.333-.1-.144.023-.334-.167m.167,2.335h.167c.15.069-.321.327-.334.334l.167-.334m1.668-2.335c-.1.333.023.144-.167.334v.167c-.278-.185.01,0,0-.334h-.334v-.167ZM39.355,35.1v-.334c.187.189.071,0,.167.334Zm-.334-1.334c-.143.188.022.026-.167.167V33.6c.333.1.144-.023.334.167Zm0,4.836.167-.334c.237.2.443.188.167.5h-.167V38.6Zm.334,4.5c-.143.188.022.026-.167.167v-.334c.333.1.144-.023.334.167Zm.5.334h-.167c-.143.188.022.026-.167.167v-.334c.333.1.144-.023.334.167m-.167.334c-.185.236-.417.172-.5.5.177.156.134-.067.167.167h-.5V44.6h-.167v-.334l.5-.167v-.334Zm-1.668,3.669.167-.334h.167v-.167h.167V47.1h.334c-.143.188.022.026-.167.167-.1.333.023.144-.167.334-.143.188.022.026-.167.167v-.334Zm-.279,4.64c.1.386.192.321.283.709-.283.085-.122-.02-.283.142H37.6a1.015,1.015,0,0,0,.142-.567c-.16.121-.022-.019-.142.142-.73.459-.059.52-.425.992v.283h-.142c.085-.283-.02-.122.142-.283v-.425a1.839,1.839,0,0,0-.709.567c-.283-.085-.122.02-.283-.142h-.142v-.142l.425.142v-.142s-.29-.007-.142-.142h.283l.283-.425h.283a9.278,9.278,0,0,0,.567-.85h.425v.142l-.283.142v-.142Zm.279,1.03v.334h-.5v-.334c.137-.192.167.167.167.167l.334-.167m-.988,1.334h.142v.283h-.142l-.142-.425h.142v-.142h.283V54.3c-.012.014-.493-.066-.283.142m-1.593,1.3v-.142h.425c-.161-.159,0-.06-.283-.142v-.142l.425.142v-.142l.425-.142-.142.425a2.914,2.914,0,0,0-.709.283v-.142Zm-.321,2.643v-.142c.213.022.186.148.283.283.175-.134.153-.322.283-.425h.283v-.142c.231-.221.233-.114.283-.567H36.4c.121.16-.019.022.142.142l-.142.425h-.283l-.425.709-.85-.142s.009-.546.142-.283c.194.049-.054.183.142.142m.438-.746h.425v.142h-.142v.142H35.7l-.142-.283m.809-.55V56.8c.159.161.06,0,.142.283Zm1.322,3.36s-.023-.649-.167-.334c-.232.04.069.158-.167.167v-.334l.834-.167-.167.667Zm.334.167v.334c-.333-.1-.144.023-.334-.167h.167c.143-.188-.022-.026.167-.167m-1,.463v.142H36.6l.142-.425h.283c.085-.283-.02-.122.142-.283.092.336.04.266.283.425v.142Zm.334.538c-.333-.1-.144.023-.334-.167.333.1.144-.023.334.167m-1.783,2.426h-.142c.055-.458.128-.414.283-.709h.425v-.142h.142c.128.383-.563.648-.709.85m.115.409.167-.334h.167c.15.069-.321.327-.334.334m-.131-1.718v.142h-.142l.142-.283c-.032-.142-.228.039-.142-.142.058-.122.187.011.283-.425h.283V62.3H35.7c.111.151.067.23.283.283.125-.157-.056-.11.142-.142-.291.432-.26.06-.567.283m-2.2,3.385v-.167h-.167V65.78c.469-.34.437.3.667-.5h.167v.5h.334v.167c-.333.1-.144-.023-.334.167h-.167l.167-.334c-.4.1-.367.176-.667.334m-.334.334v.167c-.333.1-.144-.023-.334.167h-.167v-.5c.333-.1.144.023.334-.167h.167l-.167.334Zm-.834-.167a.664.664,0,0,1,.334-.334v-.334a.665.665,0,0,0-.334.334h-.334a2.221,2.221,0,0,1,.834-.834c.143-.188-.022-.026.167-.167v.334h-.334v.334c.333.1.144-.023.334.167a1.121,1.121,0,0,0-.5.5Zm.167.5h-.334v-.334h.334Zm-.834-.667h.334v.334h-.167V66.28c-.188-.143-.026.022-.167-.167m-.834-.334c.143-.188-.022-.026.167-.167.19-.281.1-.232.5-.334a1.767,1.767,0,0,0,.167.667l-.334-.167v-.167l-.5.167m-1.668-.5h-.167a1.766,1.766,0,0,1,.167-.667,1.25,1.25,0,0,1,.334.5h-.167v-.167c-.307-.089-.116.181-.167.334m0,.334h-.167c-.143.188.022.026-.167.167v-.334c.333.1.144-.023.334.167m0,.334h.167c-.154.163-.075.552-.167.667h-.167v-.167h-.167l.334-.5m.667.334v.167c-.292.142-.418-.1-.5-.167Zm-.834.5c.333.1.144-.023.334.167h-.167c-.143.188.022.026-.167.167Zm.834,0h.167c.119.346-.379.635-.5.834h-.167c.2-.352.384-.361.5-.834m.167-.834v-.5h-.167l-.167.334h.167v.167c-.188-.143-.026.022-.167-.167H29.35l.167-.5.5.167c.159-.3.238-.259.334-.667h.334v.334c-.531.132-.613.219-.667.834Zm-2.835,1.167c-.1-.333.023-.144-.167-.334v-.167l.334.167v-.167h.167c.1.333-.023.144.167.334v.167Zm-.334.834.167-.334h.167c.15.069-.321.327-.334.334M25.156,60.66H25.3l-.425.567H24.73l.425-.567m-.283-1.2c.283.085.122-.02.283.142-.283-.085-.122.02-.283-.142m1.438.667h-.283v.283h-.142c.085-.283-.02-.122.142-.283s0-.06.283-.142Zm.206,2.193h.142c.09.263-.083.2-.142.283v.142h-.142l.142-.425m-.965.759.142-.425c.283.085.122-.02.283.142a.564.564,0,0,0-.283.283Zm.117.513h-.142V63.3c.159.161.06,0,.142.283m.2-2.105a1.061,1.061,0,0,1,.283.425c-.238-.162-.2-.086-.283-.425m-.165-.563.142-.283h.142c.127.059-.273.278-.283.283m.269-2.143-.425.142.142-.283h.283Zm-.319,1.309s-.044.021-.283-.283c.038.034.388.146.283.283m-.014,1.564-.283.425c-.138.031-.141-.126,0-.142V61.79c-.124-.157-.063.043-.142-.142Zm-.655.783c-.283-.085-.122.02-.283-.142.283.085.122-.02.283.142m-.119.859v-.142l.283.142v-.142H25.3l-.283.425s-.415-.2-.283-.283Zm-.19,1.655h.167v.334H24.68Zm0,.5c.143.188-.022.026.167.167v.167h-.334c.1-.333-.023-.144.167-.334m0,.834c.225.072.379.064.167.167l.167.334c-.281-.19-.232-.1-.334-.5m.167,1s-.051.025-.334-.334c.044.04.456.171.334.334m0-3c-.143.188.022.026-.167.167v-.334c.333.1.144-.023.334.167Zm.667-.167.334.167v-.167h.167a2.607,2.607,0,0,1-1,.667l.5-.667m0,2.5.5-.167v.334h-.5Zm.334-.667v-.334c.333.1.144-.023.334.167h-.167c-.143.188.022.026-.167.167m.5.834h-.167v-.667h.167Zm-.167.5c.311.279.324.1.167.5-.285.141-.15-.37-.167-.5m0-2.5h.167c.143-.188-.022-.026.167-.167v.334c-.333-.1-.144.023-.334-.167m.194-1.192.142-.283h.142c.127.059-.273.278-.283.283m.165-1.8c.283.085.122-.02.283.142-.283-.085-.122.02-.283-.142m.488-2.977.283.142s-.051.32-.142.142c0,0-.051-.32-.142-.142v.283h-.142l.142-.425m-.167-.229V58.3c.159.161.06,0,.142.283Zm2.18,1.705c.283.085.122-.02.283.142-.283-.085-.122.02-.283-.142m.105.617H29l-.284-.425c.065.04.517.3.425.425m-.026-1.4c-.159.58-.064.165-.425.425-.108.078-.086.184-.283.283-.121.16.019.022-.142.142v-.283a1.292,1.292,0,0,0,.85-.709h.142c-.121.16.019.022-.142.142m-.938-.6-.142-.425c.238.162.2.086.283.425Zm-.013,2.014h-.142v-.283h.142Zm0,.869c.111-.056-.041-.223.142-.142l-.283.425c-.2-.141-.092-.125-.142-.425l.283.142m-.475-2.2V59.3c.159.161.06,0,.142.283Zm-.313,1.643.142-.567c.335.243.308.39-.142.567m.134,1.538v.142h-.142v-.425h.283c-.085.283.02.122-.142.283m.167,2.18v.167c-.292.142-.418-.1-.5-.167Zm-.642-5.12c.4.273.131.139.283.567-.264-.181-.241-.14-.283-.567m.129,2.08h-.142v-.425h.142Zm-.154,2.039v.167l.334-.167v.5h-.167v-.167l-.334.167c.207-.083.065-.323,0-.5Zm.167,1.668v-.167c-.314.018-.1.1-.167.334h-.167l.167-.5h.667v.167l-.5.167m.5.5h.167c.106.309-.1.237-.167.334v.334h-.167l.167-.667m.167-.167.167-.334c.062.061.435.141.334.334Zm.167-.834c-.143.188.022.026-.167.167v-.334c.333.1.144-.023.334.167Zm0-2.643h.142c.127.059-.273.278-.283.283l.142-.283m.167.334h.142c.127.059-.273.278-.283.283l.142-.283m.227-1.384v-.142c.283-.085.122.02.283-.142.336.092.266.04.425.283-.446-.139-.213-.078-.709,0m.617.563h.283V61.7c.283.085.122-.02.283.142a2.039,2.039,0,0,0-.709.85H28.6l.425-.709m1.3-5.4h-.283V56.3h.283ZM30.2,55.3h.142v.283H30.2Zm.3,1.359h.142c-.252.281.127.3-.142.567l-.425-.142v-.142c.336-.091.266-.04.425-.283m2.352-4.722v-.142s.319.049.142.142h-.142c-.186.234-.127.035-.283-.142H32.7v.142Zm.167-1.5v-.142s.319.049.142.142h-.142c-.186.234-.127.035-.283-.142h.142v.142Zm4.51.67a.5.5,0,0,1-.074.1c.006.022-.007.043-.058.059-.024.024-.047.046-.071.067a.223.223,0,0,0,.037-.058.264.264,0,0,0,.034-.01c.02-.02.04-.039.058-.059-.011-.045-.073-.093.074-.1m-.229.771H37.15v.142h-.283c.109-.144.174-.14.283-.283h-.283v-.283h.283v-.142h-.142v-.142l-.425.142v-.283h.567s.015.381.091.349c-.049.042-.091.076-.091.076l.142.425m-1.076-.042.283.142c.158-.123-.059-.136.142-.142.179.316-.212.569-.283.709h-.283l.283-.567c-.039-.2-.105.055-.142-.142m-.158-.767.142-.425c.283.085.122-.02.283.142a.564.564,0,0,0-.283.283Zm.129-5.632c.333.1.144-.023.334.167-.333-.1-.144.023-.334-.167m.131,2.708c-.288.313.11.211,0,.425l-.283-.142c-.083.03.031.243-.142.142l.283-.425Zm-.619-.065v-.283c.159.161.06,0,.142.283Zm.3,1h-.283V48.8h.283Zm-.013.538V49.9l-.283-.142c-.121-.16.019-.022-.142-.142v-.142l.425.142m-.019.8-.283-.142v.142s-.551-.02-.283-.142c.034-.2.134.059.142-.142.336.091.266.04.425.283m-1.932,3.669V53.8c.159.161.061,0,.142.283Zm.154,2.193c.121-.16-.019-.022.142-.142v.283c-.283-.085-.122.02-.283-.142Zm-.308-4.119c.069.065.317.293.284.425h-.142v.142h-.142v-.142h.142l-.142-.425m.321,2.476c.159.161.06,0,.142.283H34.2Zm-.129-2.768h-.142l.709-.85h.142V51.3l-.425.142v.283c-.283.085-.122-.02-.283.142m.413-2.772c-.283.085-.122-.02-.283.142h-.142l.142-.425.283.142Zm.167.886V50.4l-.283-.142c-.084.036.033.239-.142.142l.283-.425Zm.642,2.011v.142h-.283c-.085.283.02.122-.142.283v.142h-.283a.955.955,0,0,1,.709-.567m.1-.359h.142v-.142h.283a1.382,1.382,0,0,0-.142.567h-.142l-.142-.425m.1.809v.142h-.283c.085-.283-.02-.122.142-.283.121.16-.019.022.142.142m-.167-1.526c-.283-.085-.122.02-.283-.142h.142c.121-.16-.019-.022.142-.142Zm-.473,2.18v.142h-.142l.142-.425H35c.09.263-.083.2-.142.283m0,.846c.121-.16-.019-.022.142-.142v.283c-.283-.085-.122.02-.283-.142Zm.038-.484h.425V53.6c-.248.121-.355-.081-.425-.142m.477.343c.052.052.369.12.283.283h-.425l.142-.283m.342.964h.142V54.62h-.142v-.142c.238.162.2.086.283.425-.079-.022-.422.093-.283-.142m.182-.784a1.1,1.1,0,0,1,.425.283h-.142V54.4c-.079.089-.269-.394-.283-.425m-.217-.576h-.142l.142-.283-.425.142.142-.283.425.142v-.142h.142l-.283.425m-.344-3.823s-.044.021-.283-.283c.038.034.388.146.283.283M35,49.746s-.044.021-.283-.283c.038.034.388.146.283.283M34.352,47.6h-.167l.5-.667h.167l-.5.667m-.334-1.167h-.167l.334-.5h.167l-.334.5m-.025,3.156c-.283-.085-.122.02-.283-.142.283.085.122-.02.283.142m-.013,5.054-.283.425c-.276.063-.021-.21,0-.283h-.142v-.142Zm.482,3.426h-.142c-.121.16.019.022-.142.142v-.283s-.545-.007-.283-.142h.142V57.5h.142v.425c.283.085.122-.02.283.142M34.6,59.48l.142-.425h.142v.425l-.709.142c-.106.4-.253.407-.425.709h-.283c-.085-.283.02-.122-.142-.283v-.142l.283.142v-.142c.307-.227.418-.458.85-.567.186.074-.054.1.142.142m.884.936a1.951,1.951,0,0,1,.567.425h-.142v.142h.142c-.086.208-.114.167-.283.283v.142l-.425-.142v.142c-.149.12-.221.064-.283.283.041.054.246-.03.142.142h-.142c-.062.054.035.237-.142.142v-.142c-.294.048-.131.011-.283.142H34.49c.162-.238.086-.2.425-.283.028-.295.148-.762.425-.709v.142h.142c.079-.494.143-.265,0-.709m.063-.332V59.8c.283.085.122-.02.283.142h-.142c-.121.16.019.022-.142.142m-.165,1.834.142-.283h.142c.127.059-.273.278-.283.283m-.665.871v-.425H35a2.445,2.445,0,0,1,0,.992h-.283c.087-.344.15-.312.283-.567Zm-1.339.888h-.283l.142-.709h.283v-.284c.283-.085.122.02.283-.142h.142c-.186.708-.453.411-.709.709l.142.425m.321-1.63h-.425v-.283h.567L33.7,61.34h.567c-.26.281-.157-.015-.425.142.253.253-.012.319-.142.567m-1.563.359v.142l-.425.142.142-.425h-.283v-.283h.283c.085-.283-.02-.122.142-.283v.283h.142v.142h-.283a.565.565,0,0,0,.283.283m.538,1.013h-.142v-.283h.142Zm.179,1.026v.167h-.334c.1-.333-.023-.144.167-.334.143.188-.022.026.167.167m-.167-.834v.5c-.395.108-.312.047-.5.334h-.167a1.766,1.766,0,0,1,.167-.667c.333-.1.144.023.334-.167Zm-.821.129h-.142l.142-.425c.283.085.122-.02.283.142a.564.564,0,0,0-.283.283m-1.18-.129c.333.1.144-.023.334.167-.333-.1-.144.023-.334-.167m.334,1.334H30.85v-.334h.167Zm-.509-1.2s-.427-.146-.142-.283v-.142h.283c-.213.283-.381.046-.142.425m.175.7h-.167c-.143.188.022.026-.167.167v-.334c.333.1.144-.023.334.167M30.1,61.794v-.425c-.283-.085-.122.02-.283-.142H30.1c.094-.355.076-.23.283-.425V60.66h.283c.133-.107.105-.29.283-.425v-.142h.283a.564.564,0,0,1-.283.283v.142h.425v.142h-.142c-.113.076.046.212-.142.142V60.66l-.283-.142-.142.283h.142v.142l-.425-.142v.283l-.283.142a3.232,3.232,0,0,1,.142.567Zm-.088,2.485H29.85v.334h-.167v-.5s.641.008.334.167m.488-2.693h-.142V61.3c.159.161.06,0,.142.283m-.283,1.169h.142c-.152-.325-.063-.1,0-.425h.283v.142h-.283l.142.283h-.142c-.049.074.039.229-.142.142Zm.667.2v-.283l.425.283c-.085.283.02.122-.142.283v.142h-.283v-.142h.283v-.283Zm.129.988h.167c.1.4.176.367.334.667l-.5-.167Zm.334-.334h.167v.334h-.167Zm-.463-1.588V61.74h.283V61.6l-.425-.142v-.142h.425v-.283h.142a1.5,1.5,0,0,0,.142.567l-.567.425m1.1-1.234v.283c-.283.085-.122-.02-.283.142h-.142a1.1,1.1,0,0,1,.283-.425c.085-.283-.02-.122.142-.283l.142.283Zm-.282-.859v.142H31.57c.136-.214.277-.241.425-.425h.142c.128.264-.344.2-.425.283m-.181-3.014v-.283c.159.161.06,0,.142.283Zm.475.9v-.142h.142l-.142.709h-.283c.067-.308.091-.4.283-.567m.2,2.155h.283v.283H32.21Zm.45.8c-.283-.085-.122.02-.283-.142.283.085.122-.02.283.142m.167.667c-.283-.085-.122.02-.283-.142.283.085.122-.02.283.142m-.115-1.013.142-.283H33c.127.059-.273.278-.283.283m.165.229h.283c-.085.283.02.122-.142.283v.142h-.142Zm.321.5c.283.085.122-.02.283.142a.564.564,0,0,0-.283.283h-.142l.142-.425m.682-.563.142-.283h.142c.127.059-.273.278-.283.283m.615,2.847c-.283-.085-.122.02-.283-.142.283.085.122-.02.283.142m.771-2.693c-.631.158-.21.329-.85.142-.121.16.019.022-.142.142.085-.283-.02-.122.142-.283V60.6h.142v.142l.283-.142v.142h.142V60.6h.142v-.142H34.7v-.142h.425v-.283h.142Zm-.9-.488v-.283c.159.161.06,0,.142.283Zm-.55-1.259v-.142l.283.142c-.2.328-.506.4-.709.709h-.283v-.425a.564.564,0,0,0,.283-.283h.142l-.142.425h.142c.154-.25.317-.215.425-.425Zm-1.4-1.22v-.142l.425.142v-.142h.142v-.142h.142c.111.167-.092.121-.142.142l.142.283c-.21.2-.2.088-.425,0v-.142Zm.885-3.949v.283h-.283v.283h-.283v-.142h.142l.142-.425Zm-.258-.717h.142c.121-.16-.019-.022.142-.142v.283c-.283-.085-.122.02-.283-.142m.3,1.809H33.2v-.283c.159.161.06,0,.142.283m.246.434v.142H33.16l-.142.283h-.283v.142h.142v.142h-.142v-.142c-.26-.076-.1.154-.142.283h-.142c.122-.455.363-.5.567-.85Zm-.206,2.4.142-.283h.142c.127.059-.273.278-.283.283m.283.5s-.044.021-.283-.283c.038.034.388.146.283.283m-.348-1.167c-.283.085-.122-.02-.283.142h-.142a1.382,1.382,0,0,0,.142-.567h.283Zm.065-1.167.142-.283h.142c.127.059-.273.278-.283.283m.14-5.145c-.121.16.019.022-.142.142V50.63c.283.085.122-.02.283.142Zm-.179-2.026H33.2v-.283h.142Zm-.513,4.361h-.142c-.121.16.019.022-.142.142v-.283c.283.085.122-.02.283.142m-.154.809h-.142v-.283c.159.161.06,0,.142.283m-.021.73c.164.116-.142.142-.142.142l.142.283-.283-.142v.142h-.142l.142-.425Zm-.263,3.823v.142a1.017,1.017,0,0,0,.283-.283c.283.085.122-.02.283.142h-.142l.142.283h-.142v.142c-.11-.079-.644-.2-.567-.425Zm-.229-1.884h-.283V56.3h.283Zm-.3-.692-.142-.425h.142v-.142c.309.236.337.259,0,.567m-.151-1.438c.283.085.122-.02.283.142-.283-.085-.122.02-.283-.142m.119-2.706s-.044.021-.283-.283c.038.034.388.146.283.283m-.334,1.668s-.044.021-.283-.283c.038.034.388.146.283.283m-.156,2.23h.142l-.283.425h-.142l.283-.425m-.179,2.118c-.283-.085-.122.02-.283-.142.283.085.122-.02.283.142m-.615-1.847.142-.283h.142c.127.059-.273.278-.283.283m.115,2.526h-.142c-.121.16.019.022-.142.142V58.3c.283.085.122-.02.283.142m-.334-.667h-.142c-.121.16.019.022-.142.142v-.283c.283.085.122-.02.283.142m-.092,1.693v-.142l.283.142v-.142a1.546,1.546,0,0,1,.709-.425c-.085.283.02.122-.142.283v.142l-.283-.142v.142l-.283.142c.128.3.152.237-.142.425v.142h-.142v-.142h-.142v.425h-.283a4.879,4.879,0,0,1,.567-.85Zm-.692-.179c.283.085.122-.02.283.142-.283-.085-.122.02-.283-.142M29.4,62.52c.308.067.4.091.567.283h-.142v.142h.142c-.085.283.02.122-.142.283v.142h-.283l.142-.283h.142l-.142-.425H29.4Zm.951,4.594c-.333-.1-.144.023-.334-.167.333.1.144-.023.334.167m-.167-1c.363.079.473.107.667.334l-.5.334a1.624,1.624,0,0,1-.167-.667m1.334-.5v-.334c.454-.127.38-.04.5-.5h.167a1.125,1.125,0,0,1-.667.834m.755-2.576H32.13a8.779,8.779,0,0,0,.567-.85h.142v.142H32.7v.283a.564.564,0,0,0,.283-.283h.425v.142l-.425.142v.142c-.5.208-.37-.2-.709.283m.746,1.576.5-.167v-.5a1.291,1.291,0,0,0,.5-.334h.167l-.167.667h-.334v.5a1.291,1.291,0,0,0-.5.334h-.167Zm1,.334h-.167v-.167h.167v-.334l.5.167c-.1.333.023.144-.167.334v.167c-.309.106-.237-.1-.334-.167m.334-1,.167-.334h.167c.15.069-.321.327-.334.334m.5.167h-.167l.167-.5a2.248,2.248,0,0,1,.5.834,1.291,1.291,0,0,1-.5-.334m.167.667c-.333-.1-.144.023-.334-.167.333.1.144-.023.334.167m1.211-2.86h.142v-.425a.953.953,0,0,1,.425.425l-.283-.142v.283s-.549-.014-.283-.142m.636-2.36v-.142c-.283-.085-.122.02-.283-.142l.567-.283a1.383,1.383,0,0,1,.142.567Zm.233.267c-.085.283.02.122-.142.283v.142h-.142c-.1-.043.037-.232-.142-.142a1.182,1.182,0,0,1-.283.284l-.142-.284h-.142c.109-.144.174-.14.283-.283.416.144.29.153.709,0m-1.13-.384-.283.142-.142-.283-.283.142v-.283c.6.014.737.07.85.567-.255-.188.078-.084-.142-.283M34.334,57.1v.142h-.142V57.1s-.551-.02-.284-.142c.034-.2.134.059.142-.142h.567v.142l-.283.142m.377.038c.283.085.122-.02.283.142h-.142c-.121.16.019.022-.142.142Zm-.025-1.217V56.2h-.142l.142-.425-.283-.142v.142h-.142v-.425h.425v.142c-.173.1-.134-.059-.142.142h.567v.142l-.425.142m.359.229h.283c-.085.283.02.122-.142.283v.142h-.142Zm-.013-.792H34.89a1.5,1.5,0,0,1,.142-.567h-.283c.085-.283-.02-.122.142-.283v-.142h.142v.425h.142v.142l.283-.142-.425.567m1.2-.721H36.8v.142c-.16.121-.022-.019-.142.142-.336-.091-.265-.04-.425-.283m.45-.692c-.121.16.019.022-.142.142V53.8c.283.085.122-.02.283.142Zm1-2.835v-.5h-.167v-.334h.167V50.6h.334c.1.333-.023.144.167.334V51.1Zm.167-.667V50.1c.187.189.071,0,.167.334Zm.079-.642c-.37.086-.92.509-.709.709v.142l-.283-.142c.055-.458.128-.414.283-.709h.283v-.425h.142v-.142h.142l-.142.425h.283ZM37.354,47.1c.106.309-.1.237-.167.334v.334h-.167l.167-.667Zm-.167-.834v-.334c.187.189.071,0,.167.334Zm.167,1.668c-.1.333.023.144-.167.334V48.1c-.188-.143-.026.022-.167-.167Zm0,1-.167-.5c.267.26.028-.013.167.334.088.219.153-.069.167.167h-.167l-.167.334h.167v.167c-.188-.143-.026.022-.167-.167h-.167c.084-.222.3-.269.334-.334m.667-4.5h.167c.15.069-.321.327-.334.334l.167-.334m-.167-.834c.333.1.144-.023.334.167-.333-.1-.144.023-.334-.167m.167,2.335.167-.334h.167c.15.069-.321.327-.334.334m.334-.667v-.334c.187.189.071,0,.167.334Zm0,.834h.334c-.1.333.023.144-.167.334v-.167c-.188-.143-.026.022-.167-.167m-.334,1.668h.167c.069.147-.535.65-.667.667V48.1a1.291,1.291,0,0,0,.5-.334m-.167,1,.167-.334h.167c.15.069-.321.327-.334.334m.667-3h.167c.143-.188-.022-.026.167-.167v.334c-.333-.1-.144.023-.334-.167m.334-2.668v.334c-.333-.1-.144.023-.334-.167h.167c.143-.188-.022-.026.167-.167m-.167-.5c.333.1.144-.023.334.167-.333-.1-.144.023-.334-.167m0,2.5c.333.1.144-.023.334.167-.333-.1-.144.023-.334-.167m.834.334V45.6h-.167v.167h-.167l-.167-.334Zm-.334-.5c.333.1.144-.023.334.167-.333-.1-.144.023-.334-.167m-.334-2.5c-.395-.108-.312-.047-.5-.334.508.156.154.166.667,0l-.167.334m0-1.668h-.167v-.334c.187.189.071,0,.167.334m-.167-2.5v-.334c.187.189.071,0,.167.334ZM38.521,36.1l.167-.334h.167c.15.069-.321.327-.334.334m.167.167c.142.292-.1.418-.167.5v.167h-.167a1.624,1.624,0,0,0,.167-.667Zm0,3c-.333-.1-.144.023-.334-.167.333.1.144-.023.334.167M38.521,40.6c.15.069-.321.327-.334.334l.167-.334Zm-.5,1h.167c.15.069-.321.327-.334.334l.167-.334m0,1.167h-.167c-.143.188.022.026-.167.167V42.6c.333.1.144-.023.334.167M30,58.492c.121.248-.081.355-.142.425v.142h-.142l.142-.567Zm-.454-.692h.142c.121.16-.019.022.142.142v.142h-.283Zm-.165-.667c.038.034.388.146.283.283,0,0-.044.021-.283-.283m.156-.846v-.142h.283c-.213.283-.381.046-.142.425,0,0-.427-.146-.142-.283m-.337.346c.159.161.06,0,.142.283H29.2Zm.3,1.951s-.044.021-.283-.283c.038.034.388.146.283.283m-.369.371L28.7,59.1v.283c-.419-.16-.158.023-.142-.425h.425v-.283h.142Zm-.581-.371.142-.283h.142c.127.059-.273.278-.283.283m.167-.5.142-.283h.142c.127.059-.273.278-.283.283M26.681,36.6h.167c.15.069-.321.327-.334.334l.167-.334m-.334.5s-.051.025-.334-.334c.044.04.456.171.334.334m-.834,5s-.051.025-.334-.334c.044.04.456.171.334.334m-.834-5.17h.167v.334c.333-.1.144.023.334-.167h.167l-.167.334h-.334c-.143-.188.022-.026-.167-.167Zm.167,1.334v.167c-.292.142-.418-.1-.5-.167Zm-.167.5-.334.5H24.18l.334-.5ZM24.013.41h.167c.15.069-.321.327-.334.334L24.013.41m0,59.033c-.333.1-.144-.023-.334.167h-.167a1.121,1.121,0,0,1,.5-.5Zm.167,1.668c-.333-.1-.144.023-.334-.167.333.1.144-.023.334.167m-.5.667c-.1.333.023.144-.167.334v-.167c-.188-.143-.026.022-.167-.167Zm-.167,1s-.051.025-.334-.334c.044.04.456.171.334.334m.334,3.335c-.333-.1-.144.023-.334-.167.333.1.144-.023.334.167m0,1.5c.333.1.144-.023.334.167h-.167c-.143.188.022.026-.167.167Zm0-.5.5.167v.167c-.395-.108-.312-.047-.5-.334m0-2.335.167-.334h.167c.15.069-.321.327-.334.334m.334-.834-.334.167.167-.334c.281.19.232.1.334.5-.3-.225.067-.043-.167-.334m-.167-.334s-.649-.023-.334-.167c.04-.232.158.069.167-.167h.5v.167c-.333.1-.144-.023-.334.167m.167-.667v-.334c.187.189.071,0,.167.334Zm-1.834,4.836.167-.334h.167c.15.069-.321.327-.334.334m.31-61.559s-.044.021-.283-.283c.038.034.388.146.283.283m-.283-1.5.142-.283h.142c.127.059-.273.278-.283.283M23.346.744c-.333-.1-.144.023-.334-.167.333.1.144-.023.334.167m-.167.5c.076.07.419.128.334.334h-.167c-.055-.123.055-.246-.167-.167v.167h-.167l.167-.334m-.334,1.668c.15.069-.321.327-.334.334l.167-.334Zm-.5-1.834c-.215.078-.027-.21-.167-.5.273.269.371.109.167.5m0,1.167c-.168-.336-.133-.163,0-.5h.167l-.167.334h.167c-.044.3-.319.277-.5.5h-.167V2.411l.5-.167m-.667.667h-.167V2.745h.5v.334c-.333-.1-.144.023-.334-.167m.334,62.7h-.167c-.143.188.022.026-.167.167v-.334c.333.1.144-.023.334.167M20.265,5.493l.142-.283c.191.1.25.191.425,0l-.142-.283a3.58,3.58,0,0,0,.425-.425h.142l-.283.425h-.142l.142.283-.425.283c-.075-.027.029-.247-.142-.142s.055.181-.142.142m-.381-1.76V3.591l.283.142V3.449h.142c.09.263-.083.2-.142.283v.142h-.142V3.733ZM18.407,5.325h-.142l.283-.425h.283l.283-.567c.089.18.174-.056.142.142h-.142c-.137.518-.427.517-.709.85m.746-.054v.283c-.283-.085-.122.02-.283-.142h.142V5.271ZM16.49,9.415v.142s-.551-.02-.284-.142h.142V9.273c.283.085.122-.02.284.142Zm.173.642h-.142V9.774c.159.161.06,0,.142.283m-.334.667h-.142v-.283h.142Zm-.976-.013h-.142l.142-.425a.564.564,0,0,1,.283.283H15.5v-.142c-.261-.076-.1.154-.142.283m-.346-.859h-.283V9.711l.425-.283V9.144h.142c-.1.386-.192.32-.283.709m.154,2.372h-.142v-.283h.142Zm-1.322-1.809c.044.04.456.171.334.334,0,0-.051.025-.334-.334m.334,1h-.167v-.334h.167Zm-2,.5c.395.108.312.047.5.334a1.291,1.291,0,0,1-.5-.334m-.167,1.334.167-.334h.167c.15.069-.321.327-.334.334m-.334-1.834c.127-.454.04-.38.5-.5v-.334h.167l-.167.5h.167v.167l-.667.167m.334.834H11.84v-.334c.187.189.071,0,.167.334M11.84,7.08a1.409,1.409,0,0,1,.334-.5V6.413h.167v.334h.334v-.5h.167c.026-.094-.109-.5.167-.334V6.08c.2-.132.017.016.167-.167h.334c-.2.352-.384.361-.5.834l-.667.167V6.747h-.167v.5h-.167V7.08Zm1.834-2.835V3.912h.5c-.182.344-.279.294-.334.834l-.834.167v.334h-.5c.159-.3.238-.259.334-.667.454-.115.377-.226.834-.334m-.5-.167.167-.5h.167c.106.309-.1.237-.167.334v.167Zm2.489.075c.089.18.174-.056.142.142h-.142c.1.282-.063.128.142.283V4.437h.142v.142l.283-.142v.142h.142v.142c-.3.223-.276-.147-.567.283h-.142V4.579a4.187,4.187,0,0,1-.567-.142v.142h-.142V4.437h-.142c.473-.373.418.289.85-.283m-.117-.871h.425v.425h-.425Zm1.3-1.705h-.167V1.411h.5v.167l-.667.5V1.744s.649-.023.334-.167m.63,4.644H17.33v.142h-.142V6.222h-.283l.283-.425h.425v.142H17.33l.142.283M14.508,9.248h-.167v.167c-.079-.022-.514.1-.334-.167,0,0,.331,0,.167-.167h-.334V8.915c.333-.1.144.023.334-.167.333.1.144-.023.334.167h-.167l.167.334m-1.167,2h.167v-.167h.167v.334c-.333-.1-.144.023-.334-.167m.334.334-.167.5h-.167l.167-.5Zm-.334-1,.167-.5h.167c.106.309-.1.237-.167.334v.167Zm.167.167c.333.1.144-.023.334.167-.333-.1-.144.023-.334-.167m.167-1.334c-.1.333.023.144-.167.334v.167h-.334l.5-.667c.1.211.2-.066.167.167Zm-.834-1.5V7.747h-.167V7.581h.334l.5-.667h-.167V6.747h.167V6.58c.395.108.312.047.5.334-.188-.143-.026.022-.167-.167-.1.025-.491-.11-.334.167h.167V7.08h-.167c-.064.332.073.209.167.334v.167l-.334-.167v.334l-.5.167m-.334.5v.167H12.34c.16-.252.326-.283.5-.5h.167c.151.31-.4.24-.5.334m-.167-1V7.08h.5v.167l-.5.167m1.334-2c.232-.04-.069-.158.167-.167V5.58l-.5-.167V5.58h-.167a1.291,1.291,0,0,1,.334-.5c.189-.187,0-.071.334-.167v.167h-.334s.023.649.167.334m-.167,2.5h.5v.334h.334v.167c-.333.1-.144-.023-.334.167-.095-.066-.262.049-.167-.167.042-.095.283.038.167-.167l-.5-.167Zm1.951-.871h-.142c-.115-.215-.112-.048-.425,0l.142-.425c.1.065.477.247.425.425m-.271-.655V6.1c.159.161.06,0,.142.283Zm-.513-.063h-.283s-.014-.367-.087-.35L14.274,6a.186.186,0,0,0-.024.039.2.2,0,0,0-.025.007c-.017.019-.035.038-.051.059.013.036.051.071-.066.076a.94.94,0,0,1,.066-.076c-.008-.022,0-.044.051-.059.015-.017.033-.03.049-.046a.064.064,0,0,1,.03-.028,2.945,2.945,0,0,0,.654-.642h.283c-.152.547-.424.445-.567.992m-.5.588V6.747l.334.167V6.58h.167v.667l-.334-.167V6.914Zm-.334,2.668h.167v.167h.167v.167h-.334Zm.5-2v.167h-.167v-.5c.553.281.172.36.834.167-.367.5-.15.312-.667.167m.809.488c-.283-.085-.122.02-.283-.142.283.085.122-.02.283.142m.346.346V8.273h.283v.142l-.425.142c-.109-.144-.174-.14-.283-.283l.425.142m.267-.755V7.8h-.142V7.376h.142V7.235h.425V6.668h.142V6.526c.283.19.285.092.567,0v.283h-.425a1.292,1.292,0,0,1-.709.85M15.712,6.1c.1-.144.106.006.142-.283.561.433.119.26,0,.709H16v.142c-.16-.121-.022.019-.142-.142h-.142V6.388c.252-.129,0-.022,0-.283M15.7,5.271h.283v.283H15.7Zm.8.131c-.047.043-.127.378-.283.283-.143-.349.185-.549.283-.709.34.249.272.172,0,.425m.318.37c.127.059-.273.278-.283.283l.142-.283Zm.192,1.668h.142c.127.059-.273.278-.283.283l.142-.283m.19-.5h.283v.283H17.2Zm-.063-2.076V5H17V4.721h-.283c-.087-.344-.149-.312-.283-.567h.283l.142.425.283.142V4.437h.283v.142H17.28c-.085.283.02.122-.142.283m.192-1.18h-.283V3.4c.079-.022.422.093.283-.142h-.142V3.116h.142V2.974h.142l-.142.709m-.4-.659c0-.048-.088-.106.075-.112l-.075.112m-.092-.446c-.333-.1-.144.023-.334-.167.333.1.144-.023.334.167m-.186.229s.02.551.142.283a.142.142,0,0,0,.062-.022l-.2.306h-.142l.142-.283h-.283v.425h-.142l.142-.709ZM14.842,5.079v.167a2.939,2.939,0,0,1-.834.334c.1-.333-.023-.144.167-.334V5.079Zm-.334-.5-.5.167V4.412h.5Zm-.334-.834h-.167V3.412h.167ZM12.84,5.413h.167c.127.258-.333.289-.5.334V5.58c.333-.1.144.023.334-.167m-.5,2.168h.167a1.291,1.291,0,0,1-.334.5c-.1.333.023.144-.167.334l-.167-.5c.395-.108.312-.047.5-.334m-.334,1.167c-.333-.1-.144.023-.334-.167.333.1.144-.023.334.167m-.5-.334v.167H11.34v-.5h.334c-.1.333.023.144-.167.334m.334.5v.167a1.12,1.12,0,0,0-.5.5h-.167a1.767,1.767,0,0,1,.167-.667Zm-.167.834a2.325,2.325,0,0,0,.334-.334h.167l-.167.334h.167v.167l-.334-.167c-.033.4.129.352.334.5v.167h-.167v.167h-.334l.167-.5c-.006-.027-.273-.059-.167-.334m.834.334.167-.334H12.34l.167-.334a1.237,1.237,0,0,1,.5.667l-.334-.167v.167Zm.5,2.168H12.84v-.334c.187.189.071,0,.167.334m-.334-1.167c.187.189.071,0,.167.334h-.167Zm.5,3.335c-.333-.1-.144.023-.334-.167.333.1.144-.023.334.167M12.84,9.082v.167h-.334c.24-.408.532-.464.667-1h.334a1.125,1.125,0,0,1-.667.834m.5,4.169h.167c.15.069-.321.327-.334.334l.167-.334m.167-1,.334.167V12.25h.167l-.334.5c-.237-.166-.109-.147-.167-.5m.667-2h.167v.167h.167v-.167s.376.057.167.167h-.167c-.219.276-.15.04-.334-.167m.167,1.668V11.75c.333-.1.144.023.334-.167h.167l-.167.334Zm.334.334c-.333-.1-.144.023-.334-.167.333.1.144-.023.334.167M15.551,9.1h.142v.142h.142V9.1s.319.049.142.142h-.142c-.186.234-.127.035-.283-.142m.008-.226V8.735c.336-.092.266-.04.425-.283h.142c-.185.263-.181.339-.567.425m.821-.642V7.952h.142l.283.425-.425-.142m.926.821a1.1,1.1,0,0,1-.425-.283c.336.092.266.04.425.283m.206.55h.142c.127.059-.273.278-.283.283l.142-.283m.023-3.014c.283.085.122-.02.283.142-.283-.085-.122.02-.283-.142m0-1.051V5.4c-.16-.121-.022.019-.142-.142a1.382,1.382,0,0,1,.567-.142V5.4l-.425.142M18.7,2.951c.265.237.275.084.142.425-.242.12-.127-.315-.142-.425m1.315-.54h-.167c-.176-.287-.16.071-.667.167V2.411h-.334V2.244h.5l.334-.5h.167l-.167.334c.048.114.392.078.334.334M19.665,5.35h-.283a2.914,2.914,0,0,1,.283-.709h.142l-.283.567c.039.2.105-.055.142.142m-.013-1.309v.142c-.238-.162-.2-.086-.283-.425.159-.161.06,0,.142-.283h.142l-.142.567ZM18.679,3.6h.142c.127.059-.273.278-.283.283l.142-.283m-.033.68v.425s-.545-.007-.284-.142H18.5V4.283ZM18.2,3.257c.283.085.122-.02.283.142-.283-.085-.122.02-.283-.142m.1.359v.142h-.142l.142.283h-.142l-.283-.425.283.142V3.616Zm-.167.655v.283c-.283-.085-.122.02-.283-.142h-.142V4.271Zm.05,1.68c.283.085.122-.02.283.142a.564.564,0,0,0-.283.283h-.142l.142-.425m1.18-.013c.283.085.122-.02.283.142h-.142v.142h-.142Zm.154,2h.142v.283h-.142Zm.015-1.217.142-.283h.142c.127.059-.273.278-.283.283m1.784-3.477V3.1h.142c.124.253-.343.263-.567.283V3.245Zm-.31-1.334h.334a1.766,1.766,0,0,0,.167.667,1.237,1.237,0,0,1-.5-.667m-.05,1.718-.142.425c-.283.085-.122-.02-.283.142h-.142V4.054h.142c.108-.386.034-.323.425-.425m-.475,1.1c-.283-.085-.122.02-.283-.142.283.085.122-.02.283.142M21,6.222h-.142V5.938c.159.161.06,0,.142.283m.015,2.385h.142c.127.059-.273.278-.283.283l.142-.283m.165,33.327h-.167v-.167h-.167v.167h-.167l.167-.334c.076.07.419.128.334.334m-.167,2V44.1h-.167l.167-.5h.167c.106.309-.1.237-.167.334m0,.667s-.051.025-.334-.334c.044.04.456.172.334.334m.334-.667h.167c.106.309-.1.237-.167.334v.167h-.167l.167-.5m.68-37.663c.159.161.06,0,.142.283h-.142ZM21.845.577h.167v.5h-.167Zm-.167,1V1.411h.334c-.1.333.023.144-.167.334v.167h-.167l.167-.334Zm-.167-1-.167.5h-.334l.334-.5ZM20.678.41c.076.07.419.128.334.334h-.167C20.79.621,20.9.5,20.678.577V.744h-.167L20.678.41m0,.667c-.333-.1-.144.023-.334-.167.333.1.144-.023.334.167m.167.5V1.411h.334v.167l-.5.167c-.129-.169-.2-.164-.334-.334l.5.167m-.5,1c.225.072.379.064.167.167l.167.334c-.193-.1-.4-.129-.5-.334h.167ZM20.178.91l-.167.5h-.167v.167h-.167l.334-.5h-.167V.91Zm-1-.334h.167V.41h.167V.577h.334l-.167.5c-.079-.022-.514.1-.334-.167,0,0,.331,0,.167-.167h-.334Zm-.334.167V.577h.167V.91c-.333-.1-.144.023-.334-.167Zm0,.667c.333-.1.144.023.334-.167h.334v.167l-.5.167v.334h-.334l.167-.5m-1,.834h.834v.334l-.834-.167Zm.334.5-.334.5c-.163.037-.166-.148,0-.167V2.911h-.167V2.745Zm-.5-.167c-.333-.1-.144.023-.334-.167.333.1.144-.023.334.167m.5-2.168c-.333-.1-.144.023-.334-.167.333.1.144-.023.334.167m-.834,0h.167c.188.493-.027.186.5.167V.744c-.534.076-.3.124-.834,0V.91c-.454.254.162-.489.167-.5m-.5.5v.167c-.292.142-.418-.1-.5-.167Zm-.334.5-.834,1.5h-.334l-.167.334-.667.167.167.334h-.334a1.072,1.072,0,0,1,.667-1V2.578l.5.167V2.578h.167s-.023-.649-.167-.334a.234.234,0,0,0-.051.015c-.014.018-.028.036-.041.054.011.045.072.092-.074.1.022-.038.05-.064.074-.1-.005-.02,0-.039.041-.054.261-.336.612-.52.885-.848Zm-1.834.334c.1-.333-.023-.144.167-.334V1.244h.5v.5h-.167V1.577l-.5.167M15.842.41V.744l.334.167v.167h-.167c-.1.333.023.144-.167.334v.167h-.334c.332-.661.242-.287.167-1.167Zm-.334.667s-.051.025-.334-.334c.044.04.456.172.334.334m-1-.334V.577h.167V.744c.333.1.144-.023.334.167a1.624,1.624,0,0,1-.667.167c.1-.333-.023-.144.167-.334m-.834,0c-.333-.1-.144.023-.334-.167.333.1.144-.023.334.167M13.507.91c.169-.148.1.125.334-.167h.167a.664.664,0,0,1-.334.334c.1.333-.023.144.167.334v.167a1.409,1.409,0,0,0,.5-.334h.167c-.19.281-.1.232-.5.334v.334h-.167l-.167-.5-.5.167L13.507.91M12.84,2.078c.395-.108.312-.047.5-.334h.167c-.232.463-.15.393,0,.834a1.624,1.624,0,0,0-.667-.167Zm.167.5v.334a.781.781,0,0,0-.667.5h-.167a1.624,1.624,0,0,0,.167-.667l.667-.167m-.667-.334v.167h-.167v.167h-.167l-.167-.334Zm-.334.667h.167c-.188.41-.463.81-.667,1.167v.334H11.34l-.334.5h-.334v.5a1.291,1.291,0,0,0-.5.334h-.167l2-2.835m.167,1h-.167V3.578h.167Zm-1.5,2.168.167.334h-.167V6.58c-.313.13-.44-.18-.5-.334h.167V6.08h-.167V5.913h.167c.047.231-.068.148.167.167V5.913h.167V5.746h.334c-.106.2-.274.24-.334.334m.667-.667V5.58h-.5V5.246c.841-.221,1.206-1.052,1.668-1.668.27-.36.7-.321,1-.834h.334c.082-.641.205-.464.334-1h.167c.192.322.445.4.667.667l-.5.167c-.013,0-.068-.274-.334-.167v.167a1.558,1.558,0,0,1-.667.334l.167.5h-.5v.167h-.167v.5h-.334v.167h.167v.167l-.5-.167v.334l-.5.334c.16.252.326.283.5.5h-.334v.334c.333.1.144-.023.334.167a1.121,1.121,0,0,0-.5.5h-.167l.167-1h-.167c-.2-.21-.03-.133-.334,0m.167,2.168V7.414h.5v.167a.665.665,0,0,0-.334.334c-.333-.1-.144.023-.334-.167h-.167c-.233-.262.308-.137.334-.167m-.5.334h.167v.5h-.167Zm.334,2.668v-.167h-.167v-.167h.334v.334Zm.334,2h.5v.167c-.338.254-.373-.21-.667.334H11.34l.334-.5m.334,1.334-.167.5h-.167v.167h-.167a1.624,1.624,0,0,0,.167-.667Zm-.667,1.167.334-.167v.167c.084.069.268-.046.167.167h-.167v-.167h-.167v.167c-.255-.085-.191-.151-.334-.334.217.093-.043.058.167.167m.167,1c-.333-.1-.144.023-.334-.167.333.1.144-.023.334.167m-.667-2.835h.334c-.1.333.023.144-.167.334v-.167h-.167Zm.167,1.334h-.167c-.055-.123.055-.246-.167-.167v.167h-.167l.167-.334c.076.07.419.128.334.334m-.334,2.668c-.333-.1-.144.023-.334-.167.333.1.144-.023.334.167m-.334-1.5v-.334c.333.1.144-.023.334.167h-.167v.167Zm.167,2.335h.167c.15.069-.321.327-.334.334l.167-.334m0-3h.167v-.167h.167v.334c-.333-.1-.144.023-.334-.167m-.334-1.167h.334v-.334h.167c-.187.677-.406.362-.5,1.167h-.167l-.167-.5a.664.664,0,0,0,.334-.334M9,18.42H8.838L9,17.92c.395.108.312.047.5.334H9.339v-.167c-.248,0-.225.192-.334.334m-.5-.834v.167H8.338c.143-.508.281-.45.5-.834H9l-.167-.334c.093.058.592.325.5.5H9.172c-.029.053.029.3-.167.167-.02-.013.012-.321-.167-.167s-.134.363-.334.5m-.334,4.169.167-.334H8.5c.15.069-.321.327-.334.334m.334-6.5v.167H8.171v-.334h.167v.167Zm0,.667v-.167h.167v.5H8.338c.1-.333-.023-.144.167-.334m.667.667v-.167c.454-.115.377-.226.834-.334-.1.333.023.144-.167.334-.207.261,0-.037-.334,0v.167Zm.5.667h.334v.167l-.5.167.167-.334m.334,1.167h.167c.15.069-.321.327-.334.334l.167-.334m-.683-3.335H9.172c.119-.171.106-.064.151,0h.016l0,.01c.028.031.074.045.172-.01l.167-.5h.167l-.167.334h.167c-.044.3-.319.277-.5.5H9.172l.162-.324s-.008-.006-.011-.01m.016.834h-.5L9,15.585c.062.061.435.141.334.334M9,14.751v.334H8.5v-.167l.5-.167m-1-3c.187.189.071,0,.167.334H8Zm-1,.334v-.167h.667v.167l-.5.334v.167H7l-.167-.5Zm-1-1c.187.189.071,0,.167.334H6Zm-1.5.5H5v-.334H4.669v-.334h.167v.167l.5.167-.167.5H4.5Zm.334.834H4.669v-.334h.167Zm-.834.5H3.835v-.5H4Zm-.167-.667v-.5l.5-.167c.067.418.2.915,0,1.167v.167H4.169l.167-.5H4.169v-.334l-.334.167M5,13.584v.167l-.5.167v-.167H4.169c.127-.454.04-.38.5-.5.125-.471.3-.479.5-.834H5.5s-.023-.649-.167-.334v.167H5.17v-.167h.167v-.167l.834-.167v.334h-.5v.334H5.5a3.628,3.628,0,0,1,.167.667H5.336v.334h-1v.167Zm1.167.167H5.336v-.167H5.5V13.25a1.624,1.624,0,0,0,.667.167Zm0-1v.167H6V12.75H5.837v-.167l.5-.167c-.1.333.023.144-.167.334m.167-.5v-.167H6.67c-.1.333.023.144-.167.334V12.25ZM7.5,13.417H7.337l.167.5H7.171v-.5l-.334.167L7,13.25H6.5v-.334h.667L7,13.25h.5l-.167-.334c.073-.154.109.035.167-.334.395-.108.312-.047.5-.334h.167l.167.834c-.561.02-.61-.007-.834.334m.5,1.5c-.128-.484-.092-.036,0-.5H7.671a1.022,1.022,0,0,1,.5-.834v-.167H8.5v.167H8.338s-.023.649-.167.334c-.232-.04.069-.158-.167-.167v.667h.334c-.1.333.023.144-.167.334v.167Zm.334,1.5v.167H8.5v.167H8.171c.1-.333-.023-.144.167-.334m0,2.5c.15.069-.321.327-.334.334l.167-.334Zm-.667-1.334c.333.1.144-.023.334.167H7.838v.167H7.671Zm0,5H7.5v-.167c-.261-.185.023-.226.167-.5h.167c-.3.318.165.383-.167.667m0,.834v.334c-.333-.1-.144.023-.334-.167H7.5c.143-.188-.022-.026.167-.167m0-2.668v.334H7.5c.1-.333-.023-.144.167-.334s0-.071.334-.167v.167Zm.167-2s-.051.025-.334-.334c.044.04.456.172.334.334m0,.667c-.1.4-.176.367-.334.667H7.171c.139-.21.228-.1.334-.334H7.337v-.167l.5-.167m-1.334,0v-.5H6.67v.167h.167V18.92H7l-.167.5c-.333.1-.144-.023-.334.167H6.337c.143-.188-.022-.026.167-.167m0,.667.167-.334h.167c.15.069-.321.327-.334.334m-.334,1.5.167-.334H6.5c.15.069-.321.327-.334.334M6,19.754h.334c-.1.333.023.144-.167.334v.167H6Zm-.5,1.5c.213.1-.032.039.167.167L6,21.255v.5H5.837v-.167l-.334.167c.207-.083.065-.323,0-.5m.334,1.167H6l-.167-.5H6v.334a3.54,3.54,0,0,1,.667.167v-.167h.167c-.31.422-.192.2-.834.167.189.187,0,.071.334.167v.167l-.5.167v-.167c-.314.018-.1.1-.167.334H5.5a1.955,1.955,0,0,1,.334-.667M5.5,28.259v-.334c.187.189.071,0,.167.334Zm.334,1a1.2,1.2,0,0,0-.167.667H5.5a1.766,1.766,0,0,1,.167-.667ZM5.5,27.592c-.236,0,.06-.1-.167-.167-.307-.089-.116.181-.167.334H5c.1-.4.176-.367.334-.667.262.207-.037,0,0,.334H5.5Zm-.5-1v.167l-.834.167v-.334l.5-.167v.167Zm.075-.421v-.142H5.5a1.951,1.951,0,0,1,.425-.992H6.07c-.146.3-.1.128,0,.425l-.283-.142c-.147.184.049.426-.283.709v.142Zm0,.142H4.936V26.17h.142Zm-.242-1.055c.333.1.144-.023.334.167-.333-.1-.144.023-.334-.167m.5,0,.167-.334H5.67c.15.069-.321.327-.334.334m.686.54c.265.237.275.084.142.425-.242.12-.127-.315-.142-.425M6.17,24.09v-.334c.187.189.071,0,.167.334Zm.334.834c.121-.16-.019-.022.142-.142v.283c-.283-.085-.122.02-.283-.142Zm.025.859c.283.085.122-.02.283.142H6.67c-.121.16.019.022-.142.142Zm.154-1.217v-.283c.159.161.06,0,.142.283ZM6.5,23.089c.333.1.144-.023.334.167-.333-.1-.144.023-.334-.167m-1,.834.334.167v-.167c.278.185-.01,0,0,.334H6.17v.167h-.5c-.1-.333.023-.144-.167-.334Zm-.667-1.668v.334H4.669l.167-.5.334-.167v.334Zm0,1.167H5l.334.5-.5-.167Zm0,1.167H5l-.167-.334c.508.156.154.166.667,0l-.334.667H5v.167c-.182-.212-.17,0-.167-.5m-1.167,3v-.334c.187.189.071,0,.167.334Zm.667-1.834H4.5a1.026,1.026,0,0,0-.5-.5V25.09l.667-.167s-.023.649-.167.334V25.09H4.336c.161.573.214.311.5.667A2.221,2.221,0,0,0,4,26.591H3.835l.5-.834m-.167,2.168H4a3.142,3.142,0,0,1,.167-.834h.167l-.167.334h.167v.167H4.169Zm.167.167v-.167c.5.057.458.015.667.334-.218-.091.046-.066-.167-.167Zm.5.5.667.334v.167a.781.781,0,0,1-.667-.5M4,30.26v-.167h.167v.334c-.333-.1-.144.023-.334-.167Zm-.167,2c.395-.108.312-.047.5-.334H4.5v.334l-.5.167v.334H3.835Zm.334,1.167H4v-.334c.187.189.071,0,.167.334M3.835,40.1a1.29,1.29,0,0,1,.5.334c-.395-.108-.312-.047-.5-.334m.667,1c-.215.078-.027-.211-.167-.5.273.269.371.109.167.5M4,31.427c-.4-.217.343-.768.5-1h.167c-.037.218-.491,1.1-.667,1m1,3.335s-.051.025-.334-.334c.044.04.456.171.334.334m.167-1.668H5v-.334H5.17Zm.334.5v-.334c.187.189.071,0,.167.334Zm-.167-1.668.167-.334H5.67c.15.069-.321.327-.334.334m.5-2v-.334c.187.189.071,0,.167.334Zm.642.309H6.2c.085-.283-.02-.122.142-.283.121.16-.019.022.142.142Zm.129-1.309-.283-.142v.142H6.183v.142h.142v.142c-.16-.121-.022.019-.142-.142-.283-.085-.122.02-.283-.142.386-.1.321-.192.709-.283Zm-.567-1.192.142-.283h.283v.142l-.425.142m.488-.63c.283.085.122-.02.283.142-.283-.085-.122.02-.283-.142m-.913-.229v-.425h.142v.283l.425-.142c.084.017-.028.249.142.142v-.142s.551-.02.283-.142c-.034-.2-.134.059-.142-.142l.283.142v-.142h.142c-.314.528-.644.54-1.276.567M7,23.756H6.837v.334H6.67l.167-.5H7Zm-.334-2.5c.333.1.144-.023.334.167-.333-.1-.144.023-.334-.167m0-.834.167-.334H7c.15.069-.321.327-.334.334M7,18.587c.333.1.144-.023.334.167-.333-.1-.144.023-.334-.167m.167,3v-.334c.333.1.144-.023.334.167H7.337c-.143.188.022.026-.167.167m.194,4.978.142-.283h.142c.127.059-.273.278-.283.283M17.343,38.1l.167-.334h.167c.15.069-.321.327-.334.334m.667,6.837s-.051.025-.334-.334c.044.04.456.171.334.334m.334-.334s-.051.025-.334-.334c.044.04.456.172.334.334m-.334-.667.167-.334h.167c.15.069-.321.327-.334.334m.4-36.558c-.11.168.057.115-.142.142l.425-.567h.283l-.142-.283.283.142V6.668h.142l-.283.425H18.69V7.66c-.178-.118-.082-.193-.283-.283m.567,1.563v.142l-.425.142.142-.283Zm-.152.951s-.044.021-.283-.283c.038.034.388.146.283.283m1.524,56.723c.225.072.379.064.167.167l.167.334c-.281-.19-.232-.1-.334-.5m.167-4,.334-.5h.167l-.334.5Zm.834,4.836c-.292.142-.418-.1-.5-.167h.5Zm0-1h-.167v-.5h.167Zm-.167-4.336.167-.334h.167c.15.069-.321.327-.334.334m.334,4.669c.333.1.144-.023.334.167-.333-.1-.144.023-.334-.167m.334-.167.167-.334h.167c.15.069-.321.327-.334.334m.334-.667h.334v.334h-.167v-.167c-.188-.143-.026.022-.167-.167m.667,2.835h-.167v-.167h-.167v.167h-.167l.167-.334c.076.07.419.128.334.334m.167-3.168.167-.334h.167c.15.069-.321.327-.334.334m.5,3.168.334-.5h.167l-.334.5Zm.5.334c-.143.188.022.026-.167.167v-.334c.333.1.144-.023.334.167Zm.5-.834s-.051.025-.334-.334c.044.04.456.171.334.334m-.167,1.334v-.334c.187.189.071,0,.167.334Zm.5-.334s-.051.025-.334-.334c.044.04.456.171.334.334m.167-.5h-.167v-.5h.167Zm-.334-.834v-.167c.333-.1.144.023.334-.167h.167c.127.258-.333.289-.5.334m.667.834h-.167v-.5h.167Zm0-1,.667-.167v.334h-.667Zm.5.834c-.215.078-.027-.21-.167-.5.273.269.371.109.167.5m.667.667c-.188.143-.026-.022-.167.167h-.667v-.167a1.257,1.257,0,0,0,.667-.5h.167c-.172.349-.118.15,0,.5m-.334-1.334c.333.1.144-.023.334.167-.333-.1-.144.023-.334-.167m.334-.667v-.334c.333.1.144-.023.334.167h-.167c-.143.188.022.026-.167.167m.834,2.335h-.5c.188-.493-.027-.186.5-.167Zm1-.5a2.292,2.292,0,0,0-.667.5h-.167c.159-.3.238-.259.334-.667h.5Zm-1-.167v-.5l.334.167c-.143.188.022.026-.167.167v.167Zm.5-.167v-.334c.333.1.144-.023.334.167h-.167c-.143.188.022.026-.167.167m.5-.667h-.334v-.334l-.5-.167-.167.334h.167v.167l-.334-.167-.167.834h-.167v.167h-.167l.334-1h.167l.334-.5h.5v.334h.334Zm0-.834h-.334c.1-.333-.023-.144.167-.334.143.188-.022.026.167.167Zm0-.834h-.167v.334h-.167v-.5s.641.008.334.167m-.233-2.36V63.8l.425.283.425-.709h.283l-.425.567h.142v.142h-.283v.425c-.3-.241-.078-.293-.567-.425m.9,4.861h.167v.167h-.334l.167.334h-.334c.079-.363.107-.473.334-.667.189-.187,0-.071.334-.167-.133.178-.207.148-.334.334m.334-.5h-.167c.143-.188-.022-.026.167-.167v-.167l.5.167v-.167a1.291,1.291,0,0,1-.5-.334h.334c.078.034.05.3.334.334.182-.15-.066-.129.167-.167-.439.7-.53.264-.834.5m1.334,1h-.5v-.167h.334v-.334h.167Zm.834-1c-.457.293-.423-.252-.834.334h-.167v-.5h.167v.167h.167v-.167h.667Zm0-1.668v.334h-.334c-.1.333.023.144-.167.334v.167H30.85l.167-.5-.667.5v-.167h-.167V67.28l.334.167v-.5h.334v-.334a4.446,4.446,0,0,1,.667.167v-.167h.334v.167Zm.667,1.167-.5.167c.057-.637.2-.744,0-1v-.167l.5.334c-.156.508-.166.154,0,.667m.667-.834v.167l-.334-.167v.167h-.167c.143-.188-.022-.026.167-.167v-.167l.334.167V66.78h.167c.106.309-.1.237-.167.334m.5-.5-.167-.334h.5v.167h-.167v.167Zm1,.334a.781.781,0,0,0-.667.5h-.167a1.624,1.624,0,0,0,.167-.667l.667-.167Zm.5-.334a1.624,1.624,0,0,0-.667-.167v-.334c.333-.1.144.023.334-.167h.167v.5h.167Zm.167-1.167c-.333.1-.144-.023-.334.167h-.167a1.291,1.291,0,0,1,.334-.5v-.167h.334l-.167.5m.334.167v.167h-.167c.16-.252.326-.283.5-.5h.167c.151.31-.4.24-.5.334m.334-.5c.1-.333-.023-.144.167-.334v-.167h.167v.167c.333.1.144-.023.334.167a1.624,1.624,0,0,1-.667.167m1.075,1.227c0,.047.082.1-.075.107.022-.039.051-.071.075-.107m.759-1.393v.167h-.334a1.624,1.624,0,0,1-.167-.667l.334.167v-.167h.167l-.167.334v.167Zm-.167.5c-.188.143-.026-.022-.167.167,0,0-.649-.023-.334-.167.04-.232.158.069.167-.167.333.1.144-.023.334.167m-2,2.335v-.334c.187.189.071,0,.167.334Zm.5.834c-.292.142-.418-.1-.5-.167h.5Zm1.167-1.167v.334h-.167a1.767,1.767,0,0,1,.167-.667c.311.213.283.165.334.667-.155-.076-.21-.459-.334-.334m1,0h-.167l.167-.334h-.334v.5h-.167a8.64,8.64,0,0,1,.334-1.167s.641.008.334.167h-.167c.012.09-.1.691.167.5.191-.138-.069-.177.167-.167l-.334.5m0-1.5v.334h-.167v-.5c-.574.342-.466.691-.834,1.167-.116.149-.345.132-.5.334h-.167l.167-.334h-.334l-.167.334c.058.229.246-.056.167.167h-.334v.167h.167v.167l-.334-.167V67.28l.667-.5v-.167l.5.167v-.167h.167s-.023-.649-.167-.334a.244.244,0,0,0-.064.018,2.437,2.437,0,0,1,1.064-.852v.334s.649-.023.334-.167c-.04-.232-.158.069-.167-.167h.5v.167l-.5.334m-.334-.834v-.167l.5-.167v.334Zm1.167-.834c-.1.4-.176.367-.334.667h-.167c.159-.3.238-.259.334-.667Zm-.167-.334c.333.1.144-.023.334.167-.333-.1-.144.023-.334-.167m.5.834v.167h-.334v-.167Zm0-.5h.167v.5h-.167Zm-.5,2.168c.333.1.144-.023.334.167-.333-.1-.144.023-.334-.167m1.834-3h.167c-.091.218-.066-.046-.167.167v.5h-.167c-.19.281-.1.232-.5.334.188.493-.027.186.5.167v.334c-.333.1-.144-.023-.334.167l-.5.167c.1.333-.023.144.167.334v.167h-.167v-.167c-.258.142-.115.162-.167.5-.169-.129-.164-.205-.334-.334v-.167c-.093-.1-.316.463-.334.5h-.167c.143-.188-.022-.026.167-.167.127-.454.04-.38.5-.5v-.334h.334a1.66,1.66,0,0,1,.167-.667h.167l-.167-.334a1.125,1.125,0,0,0,.834-.667m-1.668-.834.5-.167v-.167l.334.167c.091-.038.1-.42.334-.334v.167c.333.1.144-.023.334.167-.508.156-.154.166-.667,0-.1.333.023.144-.167.334v.5l.5-.167v.167h.167v-.167h.167l-.167.5c-.571.155-.429.355-1,.5.1-.333-.023-.144.167-.334v-.167l.334.167v-.334h-.334v-.5h-.167v-.167h-.167v.334h-.167Zm-.167.834c.333.1.144-.023.334.167-.188.143-.026-.022-.167.167h-.667l.167-.5c.333.1.144-.023.334.167m-.834-.5h.334c-.1.333.023.144-.167.334v.167h-.167Zm0,.667c.095.066.262-.049.167.167h-.167v.167l.5.167-.334.5h-.334v-.5c-.333-.1-.144.023-.334-.167.395-.108.312-.047.5-.334m-.167-.334-.5.667h-.334l-.167.334H36.52v.167h.167v.167a1.291,1.291,0,0,1-.5-.334h.167l-.167-.334h.334l-.167-.334a.664.664,0,0,1,.334.334c.188-.147.237-.435.334-.5h.5v-.167Zm.819-2.622v.709h.142v.142a1.8,1.8,0,0,1-.709-.142v.142H37.8c-.2.223.262.117.283.142v.142l-.709.283v.709h-.142v.142h.142v.142c-.151-.111-.23-.067-.283-.283.157-.125.11.056.142-.142h-.425v.142h.142v.142h-.142c-.121.16.019.022-.142.142v-.283s-.549-.014-.283-.142h.142v-.425c.336.092.266.04.425.283h.142v-.425h.142v-.142h-.142V61.79c.476-.255.524.191.709-.567l.567.142v-.283h-.283c.065-.132.39-.179.283-.283h-.283v-.142Zm.015-2.714v-.334h.334c-.1.333.023.144-.167.334v.667l.5-.167v.167l-.5.167a1.291,1.291,0,0,0-.334-.5l-.167.5h-.167l.167.334c-.1.134-.213.1-.334.334-.188.143-.026-.022-.167.167h-.167l.167-.5h.167v-.334h.167v-.334l.334-.167-.167-.334Zm-.625-.684c-.161.159,0,.06-.283.142.136.214.277.241.425.425H37.9v.142c-.219.108-.245-.283-.283-.425h-.142v.425h-.142c.137.487.181.264.425.567a1.382,1.382,0,0,1-.567.142c-.085-.283.02-.122-.142-.283-.179-.477-.219.352-.283.425H36.62c-.121.16.019.022-.142.142a2.664,2.664,0,0,0-.142-.709l.283-.142c.062.043.039.256.283.142v-.142l.425-.283v-.283h.142c.195-.21.072-.186.425-.283m-.438-.342v.142H36.75c.087-.344.15-.312.283-.567h.425a.564.564,0,0,1-.283.283c.161.159,0,.06.283.142M36.9,55.9l-.142.283-.283-.142v.142c-.485.325-.268.64-.425.85-.085.283.02.122-.142.283v-.142h-.142c-.2-.223.262-.117.283-.142v-.142H35.9c-.121-.16.019-.022-.142-.142a1.382,1.382,0,0,0-.142.567h-.283c-.163.116.142.142.142.142l-.142.283-.283.142v-.142h-.142V57.6l.567-.425v-.283h.142a1.546,1.546,0,0,0,.425-.709c.587-.136.713-.373.567-.85l.283.142h.142v-.142h.142c.157.189-.176.2.142.425v-.142h.142c-.3.437-.18.065-.567.283m1.126.042c-.1.333.023.144-.167.334v.167h-.167a1.767,1.767,0,0,1,.167-.667h.334c-.143.188.022.026-.167.167m-.167-.5c.333.1.144-.023.334.167-.333-.1-.144.023-.334-.167m.667.167h-.167V54.94h.167Zm-.334-1.167h-.334c-.145.119.266.17.334.334h-.167v.334h-.5V54.94h.167l-.167-.5c.333-.1.144.023.334-.167.094-.026.5.109.334-.167h-.167V53.94h.167c.189-.187,0-.071.334-.167.143.188-.022.026.167.167-.16.252-.326.283-.5.5m.667-1.334-.334.167v-.167c-.318,0-.1.114-.167.334h-.167l.167-.5h.5Zm0-.5v.167h-.167v-.5h.334c-.1.333.023.144-.167.334m-.167-.667v.167h-.167l.167-.334a1.291,1.291,0,0,1-.5-.334l.5.167v-.167h.167v.167c-.05.119-.273-.044-.167.167a1.391,1.391,0,0,1,.334.334l-.334-.167m0-1.834v.167l-.5.167.167-.334Zm-.167-.5h.334v.334h-.334Zm.334,1.668c-.333-.1-.144.023-.334-.167h-.167v-.334c.169.129.164.2.334.334l.167-.5h.167a1.624,1.624,0,0,0-.167.667m.667-1.668v.167a.781.781,0,0,1-.667-.5h.5l-.167.334Zm-.167-1.5c-.333.1-.144-.023-.334.167h-.334c-.145.119.266.17.334.334h-.167l-.167.5-.334.167V49.1c-.318,0-.1.114-.167.334h-.167l.167-.667.334-.167V48.27h.167c.19-.337.031-.406.334-.667.143.188-.022.026.167.167.143-.188-.022-.026.167-.167Zm0-.834c-.143.188.022.026-.167.167-.1-.333.023-.144-.167-.334.129-.169.205-.164.334-.334h.167c-.137-.214-.142-.183-.334-.334v-.167h.5l-.167,1Zm.667.167s-.641-.008-.334-.167h.167v-.334h.167Zm.5-.667h-.5V46.6c-.188-.143-.026.022-.167-.167h.167c.143-.188-.022-.026.167-.167V46.6h.334Zm-.334-1v-.334h.167v.5c-.333.1-.144-.023-.334.167h-.167a.665.665,0,0,1,.334-.334m-.167-.667c-.333-.1-.144.023-.334-.167.333.1.144-.023.334.167m-.167-4.836s.63.009.334-.167h-.334v-.167h.334V40.1h.167v.167h-.167l.167.5-.5-.167Zm0,.667h.5V41.1l-.5.167Zm.334,1v.334a.781.781,0,0,0-.667.5h-.167v-.5h.167c.12.2-.069.158.167.167v-.667l.5.167m-1-.334a1.766,1.766,0,0,1,.167-.667h.167a1.2,1.2,0,0,0-.167.667Zm.5-1.5-.5-.167V40.1h-.167l.167-.334a1.29,1.29,0,0,1,.5.334m-.5-2.168V37.6c.333-.1.144.023.334-.167h.167a1.119,1.119,0,0,1-.5.5m.5-1c.333.1.144-.023.334.167-.333-.1-.144.023-.334-.167m.167-.667c.333.1.144-.023.334.167-.333-.1-.144.023-.334-.167m.167-1,.167.334h-.334c.1-.52.154-.7.667-.834-.186.683-.283.231-.5.5m.334-1.167v-.167h.167a1.647,1.647,0,0,1-.667.667v-.334s.649-.023.334-.167c-.04-.232-.158.069-.167-.167l.334.167m-.5-.667v-.334c.187.189.071,0,.167.334Zm.167-.667h-.334l.334-.5c.333.1.144-.023.334.167a.665.665,0,0,0-.334.334m.334-.667s-.051.025-.334-.334c.044.04.456.172.334.334m-.5-13.174-.334.167v.334h-.167l-.5.667h-.334a4.391,4.391,0,0,0-.667-1.334V18.42l-.334-.167-.334-1-.334-.167c-.359-.543-.464-1.145-1-1.5v-.334l.834-.667v-.167h.334v-.167h.334v-.167h.5v-.167a1.923,1.923,0,0,1,1.5.334c.67.179.564.433.834,1h.167v.667h.167a6.715,6.715,0,0,1-.667,3" transform="translate(0 0)" fill="#fff" fill-rule="evenodd"/>
    <path id="Path_179199" data-name="Path 179199" d="M60.776,1.029v.334h.167c-.1-.333.023-.144-.167-.334" transform="translate(-48.711 -0.825)" fill="#fff" fill-rule="evenodd"/>
    <path id="Path_179200" data-name="Path 179200" d="M52.876,2.368c-.011.033-.12-.011-.167.334h-.334v.167h.167v.167h.167l.167-.5c.4-.1.367-.176.667-.334V2.035h.167V1.868l-.5.167V1.868s-.793.023-.5.167a.258.258,0,0,1,.167.334" transform="translate(-41.978 -1.497)" fill="#fff" fill-rule="evenodd"/>
    <path id="Path_179201" data-name="Path 179201" d="M45.316,3.208v.334h.167l.167-.334c.5-.2.332-.034.834,0l-.167-.5a7.674,7.674,0,0,0-1.5.167V4.042h.167V3.875h.167a1.2,1.2,0,0,1-.167-.667Z" transform="translate(-35.919 -2.17)" fill="#fff" fill-rule="evenodd"/>
    <path id="Path_179202" data-name="Path 179202" d="M53.216,2.708v.334h.167c-.1-.333.023-.144-.167-.334" transform="translate(-42.651 -2.17)" fill="#fff" fill-rule="evenodd"/>
    <path id="Path_179203" data-name="Path 179203" d="M64.136,2.708c.189.187,0,.071.334.167V2.708Z" transform="translate(-51.404 -2.17)" fill="#fff" fill-rule="evenodd"/>
    <path id="Path_179204" data-name="Path 179204" d="M44.816,10.435h.167V10.6h.167v-.334h-.334Z" transform="translate(-35.919 -8.23)" fill="#fff" fill-rule="evenodd"/>
    <path id="Path_179205" data-name="Path 179205" d="M46.317,14.8V13.629l-.5.167c-.1.333.023.143-.167.333V14.3h-.167a1.2,1.2,0,0,0,.167-.667h-.167c-.1.4-.176.366-.334.667h-.334v.167h.5v.167h-.334v.5l.834-.334v.167h.334V14.8Z" transform="translate(-35.919 -10.923)" fill="#fff" fill-rule="evenodd"/>
    <path id="Path_179206" data-name="Path 179206" d="M75.39,13.795v-.167h-.334c.189.187,0,.071.334.167" transform="translate(-60.156 -10.923)" fill="#fff" fill-rule="evenodd"/>
    <path id="Path_179207" data-name="Path 179207" d="M174.176,31.6h.167c-.1-.333.023-.144-.167-.334Z" transform="translate(-139.598 -25.061)" fill="#fff" fill-rule="evenodd"/>
    <path id="Path_179208" data-name="Path 179208" d="M25.83,50.755v-.167H25.5c.189.187,0,.071.334.167" transform="translate(-20.434 -40.545)" fill="#fff" fill-rule="evenodd"/>
    <path id="Path_179209" data-name="Path 179209" d="M5.163,55.623c.395-.108.312-.047.5-.334H5.83c-.06.607-.131.711-.667.834v.167H5.33v.167c.3-.16.259-.24.667-.334v-.5c.333-.1.144.023.334-.167H6l.167-.667H5.83v.334c-.454.115-.377.226-.834.334a.781.781,0,0,1-.5.667v.167c.481-.121.553-.179.667-.667" transform="translate(-3.603 -43.912)" fill="#fff" fill-rule="evenodd"/>
    <path id="Path_179210" data-name="Path 179210" d="M13.9,59.322v-.167h.167v-.167h-.334c.1.333-.023.144.167.334" transform="translate(-11.009 -47.278)" fill="#fff" fill-rule="evenodd"/>
    <path id="Path_179211" data-name="Path 179211" d="M44.983,60.162v-.167h.167v-.167h-.334c.1.333-.023.144.167.334" transform="translate(-35.919 -47.951)" fill="#fff" fill-rule="evenodd"/>
    <path id="Path_179212" data-name="Path 179212" d="M43.976,61.842h.167c-.1-.333.023-.144-.167-.334Z" transform="translate(-35.246 -49.297)" fill="#fff" fill-rule="evenodd"/>
    <path id="Path_179213" data-name="Path 179213" d="M46.156,61.842v-.334h-.5c.19.281.1.232.5.334" transform="translate(-36.592 -49.297)" fill="#fff" fill-rule="evenodd"/>
    <path id="Path_179214" data-name="Path 179214" d="M27.176,62.348v.334h.167c-.1-.333.023-.144-.167-.334" transform="translate(-21.781 -49.97)" fill="#fff" fill-rule="evenodd"/>
    <rect id="Rectangle_7129" data-name="Rectangle 7129" width="0.334" height="0.334" transform="translate(4.895 12.711)" fill="#fff"/>
    <path id="Path_179215" data-name="Path 179215" d="M9.536,66.548v.334H9.7c-.1-.333.023-.144-.167-.334" transform="translate(-7.643 -53.337)" fill="#fff" fill-rule="evenodd"/>
    <path id="Path_179216" data-name="Path 179216" d="M33.223,70.243c-.1-.333.023-.144-.167-.334v.334Z" transform="translate(-26.494 -56.03)" fill="#fff" fill-rule="evenodd"/>
    <path id="Path_179217" data-name="Path 179217" d="M7.35,74.108a1.289,1.289,0,0,1-.334.5v.334l.5-.167.167-.5H7.516v-.167Z" transform="translate(-5.623 -59.396)" fill="#fff" fill-rule="evenodd"/>
    <path id="Path_179218" data-name="Path 179218" d="M14.576,76.122v.167h.5v-.5a.665.665,0,0,0-.334.334Z" transform="translate(-11.682 -60.742)" fill="#fff" fill-rule="evenodd"/>
    <path id="Path_179219" data-name="Path 179219" d="M9.2,78.023c-.188-.493.027-.186-.5-.167.188.493-.027.186.5.167" transform="translate(-6.97 -62.311)" fill="#fff" fill-rule="evenodd"/>
    <path id="Path_179220" data-name="Path 179220" d="M36.076,82.508c-.2.352-.384.361-.5.834.271-.149.3-.313.5-.5h.334v-.167l-.334-.167" transform="translate(-28.513 -66.128)" fill="#fff" fill-rule="evenodd"/>
    <path id="Path_179221" data-name="Path 179221" d="M5.67,90.068H5.336c.189.187,0,.071.334.167Z" transform="translate(-4.277 -72.187)" fill="#fff" fill-rule="evenodd"/>
    <path id="Path_179222" data-name="Path 179222" d="M18.287,93.544v-.167c-.09.012-.691-.1-.5.167h.167v.167h-.167v.167h.334c.1-.333-.023-.144.167-.334" transform="translate(-14.226 -74.83)" fill="#fff" fill-rule="evenodd"/>
    <path id="Path_179223" data-name="Path 179223" d="M21.29,100.643h.167l-.167-.5a1.625,1.625,0,0,1,.667-.167v-.334c-.3.356-.539-.176-.834-.334v.167h-.167c-.233.262.308.137.334.167v.167c-.352.2-.361.384-.834.5v.167h.167v.167l.667-.167Z" transform="translate(-16.395 -79.594)" fill="#fff" fill-rule="evenodd"/>
    <path id="Path_179224" data-name="Path 179224" d="M15.87,107.7l-.334-.667h-.167v-.167H15.2v.5h-.167V107.2h-.167v-.167h.167c.19-.281.1-.232.5-.334v-.334h.334v-.334h-.5c-.1.333.023.144-.167.334v.167c-.309.106-.237-.1-.334-.167H14.7v.5c-.089.218-.213-.065-.167.167H14.7v.167h-.167v.167l.5.167v.167l.5-.167c.224.161-.146.13.167.334V107.7Z" transform="translate(-11.642 -84.979)" fill="#fff" fill-rule="evenodd"/>
    <path id="Path_179225" data-name="Path 179225" d="M11.383,106.868v.167h-.167c.1.333-.023.144.167.334.211.1-.066.2.167.167v-.167c.281-.19.232-.1.334-.5Z" transform="translate(-8.989 -85.652)" fill="#fff" fill-rule="evenodd"/>
    <path id="Path_179226" data-name="Path 179226" d="M18.27,143.828h-.334c.189.187,0,.071.334.167Z" transform="translate(-14.375 -115.275)" fill="#fff" fill-rule="evenodd"/>
    <path id="Path_179227" data-name="Path 179227" d="M204.583,187v.334h.167v-.667h-.333c.1.333-.023.144.167.333" transform="translate(-163.835 -149.61)" fill="#fff" fill-rule="evenodd"/>
    <path id="Path_179228" data-name="Path 179228" d="M203.576,188.348v.334h.167c-.1-.333.023-.144-.167-.334" transform="translate(-163.161 -150.957)" fill="#fff" fill-rule="evenodd"/>
    <path id="Path_179229" data-name="Path 179229" d="M204.076,193.388c-.333.1-.144-.023-.333.167-.188.143-.026-.022-.167.167.333.1.144-.023.333.167h.167Z" transform="translate(-163.161 -154.996)" fill="#fff" fill-rule="evenodd"/>
    <path id="Path_179230" data-name="Path 179230" d="M205.256,202.121h.167c-.1-.333.023-.143-.167-.333Z" transform="translate(-164.508 -161.728)" fill="#fff" fill-rule="evenodd"/>
    <path id="Path_179231" data-name="Path 179231" d="M18.1,205.316h.167v-.167h-.334c.1.333-.023.144.167.334Z" transform="translate(-14.375 -164.422)" fill="#fff" fill-rule="evenodd"/>
    <path id="Path_179232" data-name="Path 179232" d="M205.423,225.643c-.1-.333.023-.143-.167-.333v.333Z" transform="translate(-164.508 -180.58)" fill="#fff" fill-rule="evenodd"/>
    <path id="Path_179233" data-name="Path 179233" d="M193.5,236.228v.334h.167c-.1-.333.023-.144-.167-.334" transform="translate(-155.083 -189.331)" fill="#fff" fill-rule="evenodd"/>
    <path id="Path_179234" data-name="Path 179234" d="M193.5,244.629v.334h.167c-.1-.333.023-.144-.167-.334" transform="translate(-155.083 -196.065)" fill="#fff" fill-rule="evenodd"/>
    <path id="Path_179235" data-name="Path 179235" d="M205.423,255.882c-.1-.333.023-.144-.167-.334v.334Z" transform="translate(-164.508 -204.816)" fill="#fff" fill-rule="evenodd"/>
    <path id="Path_179236" data-name="Path 179236" d="M194.5,281.922v-.167h.334v-.167h-.5s.008.641.167.333" transform="translate(-155.756 -225.686)" fill="#fff" fill-rule="evenodd"/>
    <path id="Path_179237" data-name="Path 179237" d="M194.663,281.922v.167c-.214-.137-.183-.142-.333-.333h-.167v.5c-.169-.129-.164-.205-.333-.334-.108.395-.047.312-.333.5v.333c.141-.058.551-.108.667-.167l.167-.333.5.167v-.167l.334-.167c-.108-.395-.047-.312-.334-.5-.1.333.023.144-.167.333" transform="translate(-155.083 -225.686)" fill="#fff" fill-rule="evenodd"/>
    <path id="Path_179238" data-name="Path 179238" d="M202.563,283.429v-1H202.4a1.257,1.257,0,0,1-.5.667l.167.667h.5V283.6H202.4v-.167Z" transform="translate(-161.815 -226.36)" fill="#fff" fill-rule="evenodd"/>
    <path id="Path_179239" data-name="Path 179239" d="M197.7,286.121h.167c-.1-.333.023-.143-.167-.333Z" transform="translate(-158.449 -229.053)" fill="#fff" fill-rule="evenodd"/>
    <path id="Path_179240" data-name="Path 179240" d="M199.376,286.121h.334c-.1-.333.023-.143-.167-.333v.167c-.188.143-.026-.022-.167.167" transform="translate(-159.795 -229.053)" fill="#fff" fill-rule="evenodd"/>
    <path id="Path_179241" data-name="Path 179241" d="M199.376,287.3v.167h.5s-.008-.641-.167-.333v.167Z" transform="translate(-159.795 -230.062)" fill="#fff" fill-rule="evenodd"/>
    <path id="Path_179242" data-name="Path 179242" d="M200.216,289.989c.19.28.1.232.5.333v-.167h.334v-.167Z" transform="translate(-160.469 -232.42)" fill="#fff" fill-rule="evenodd"/>
    <path id="Path_179243" data-name="Path 179243" d="M202.563,290.828H202.4c-.129.169-.205.164-.334.334-.188.143-.026-.022-.167.167l.5.167c.052-.151.316-.363.167-.667" transform="translate(-161.815 -233.092)" fill="#fff" fill-rule="evenodd"/>
    <path id="Path_179244" data-name="Path 179244" d="M204.583,294.522v.334h.167v-.667h-.333c.1.333-.023.144.167.333" transform="translate(-163.835 -235.786)" fill="#fff" fill-rule="evenodd"/>
    <path id="Path_179245" data-name="Path 179245" d="M186.2,296.834v.142c-.16.121-.022-.019-.142.142h.283c-.085-.283.02-.122-.142-.284" transform="translate(-149.124 -237.906)" fill="#fff" fill-rule="evenodd"/>
    <path id="Path_179246" data-name="Path 179246" d="M204.416,297.882h.167c-.1-.333.023-.143-.167-.334Z" transform="translate(-163.835 -238.478)" fill="#fff" fill-rule="evenodd"/>
    <path id="Path_179247" data-name="Path 179247" d="M203.576,299.563h.167c-.1-.333.023-.143-.167-.333Z" transform="translate(-163.161 -239.825)" fill="#fff" fill-rule="evenodd"/>
    <rect id="Rectangle_7130" data-name="Rectangle 7130" width="0.167" height="0.5" transform="translate(40.748 59.737)" fill="#fff"/>
    <path id="Path_179248" data-name="Path 179248" d="M184.319,313.634v.284h.142c-.085-.283.02-.122-.142-.284" transform="translate(-147.727 -251.37)" fill="#fff" fill-rule="evenodd"/>
    <path id="Path_179249" data-name="Path 179249" d="M191.31,322.076v-.167h-.334c.189.187,0,.071.334.167" transform="translate(-153.063 -258.003)" fill="#fff" fill-rule="evenodd"/>
    <path id="Path_179250" data-name="Path 179250" d="M171.99,325.435v-.167h-.334c.189.187,0,.071.334.167" transform="translate(-137.578 -260.695)" fill="#fff" fill-rule="evenodd"/>
    <path id="Path_179251" data-name="Path 179251" d="M153.176,332.828v.333h.167c-.1-.333.023-.144-.167-.333" transform="translate(-122.767 -266.754)" fill="#fff" fill-rule="evenodd"/>
    <path id="Path_179252" data-name="Path 179252" d="M156.87,335.515v-.167h-.334c.189.187,0,.071.334.167" transform="translate(-125.46 -268.774)" fill="#fff" fill-rule="evenodd"/>
  </g>
</svg>
