<svg xmlns="http://www.w3.org/2000/svg" width="21.398" height="28.246" viewBox="0 0 21.398 28.246">
  <g id="Group_14552" data-name="Group 14552" transform="translate(1.04 -0.118)">
    <g id="公衆電話のアイコン" transform="translate(0 5.712) rotate(-30)">
      <path id="Path_19991" data-name="Path 19991" d="M1.63-.119,0,0-.475,7.034l1.63-.119A1.491,1.491,0,0,0,2.531,5.607L2.842,1A1.062,1.062,0,0,0,1.63-.119Z" transform="translate(7.214 -0.528)" fill="#2c4198"/>
      <path id="Path_19992" data-name="Path 19992" d="M-.879,13.021c-.443,6.558,1.858,12.821,5,12.591l.45-.033.477-7.066a1.034,1.034,0,0,1-.93-.954,24.973,24.973,0,0,1-.031-4.9,26.906,26.906,0,0,1,.7-4.955A1.5,1.5,0,0,1,5.853,6.6L6.33-.463,5.88-.43C2.737-.2-.436,6.463-.879,13.021Z" transform="translate(0 0)" fill="#2c4198"/>
      <path id="Path_19993" data-name="Path 19993" d="M1.63-.119,0,0-.475,7.034l1.63-.119A1.49,1.49,0,0,0,2.531,5.607L2.842,1A1.062,1.062,0,0,0,1.63-.119Z" transform="translate(5.932 18.481)" fill="#2c4198"/>
    </g>
  </g>
</svg>
