<svg id="Group_20148" data-name="Group 20148" xmlns="http://www.w3.org/2000/svg" xmlns:xlink="http://www.w3.org/1999/xlink" width="37.34" height="27.234" viewBox="0 0 37.34 27.234">
  <defs>
    <clipPath id="clip-path">
      <rect id="Rectangle_7074" data-name="Rectangle 7074" width="37.34" height="27.234" fill="#8b5e3c"/>
    </clipPath>
  </defs>
  <g id="Group_20147" data-name="Group 20147" transform="translate(0 0)" clip-path="url(#clip-path)">
    <path id="Path_167496" data-name="Path 167496" d="M22.724,18.616c.144-.12,3.519-2.981,3.48-6.538a.5.5,0,0,1,.2-.4.954.954,0,0,1,.77-.187L31.923,12.6a.651.651,0,0,0,.547-.12A6.349,6.349,0,0,0,34.6,9.715a.651.651,0,0,0-.306-.77L32.364,7.882,28.943,3.525a.654.654,0,0,0-.12-.118,3.464,3.464,0,0,0-2.092-.537L23.324.142a.651.651,0,0,0-.987.213l-.826,1.625a.65.65,0,0,0-.009.571l.652,1.39L18.662,5.707H5.115A4.579,4.579,0,0,0,1.136,8.033c-1.131,2-2.428,5.954,1.6,9.924l.914-.927C.411,13.837,1.111,10.723,2.27,8.674A3.276,3.276,0,0,1,5.115,7.009h13.7a.654.654,0,0,0,.294-.07l4.2-2.119a.651.651,0,0,0,.3-.858l-.786-1.675.32-.628L26.11,4.04a.65.65,0,0,0,.459.141,2.538,2.538,0,0,1,1.419.237L31.422,8.79a.646.646,0,0,0,.2.168l1.514.833a5.608,5.608,0,0,1-1.227,1.469l-4.451-1.037a2.249,2.249,0,0,0-1.877.453,1.789,1.789,0,0,0-.677,1.415c.032,2.946-2.983,5.5-3.013,5.524Z" transform="translate(2.707 0)" fill="#8b5e3c"/>
    <path id="Path_167497" data-name="Path 167497" d="M79.54,59.975h3.1a.627.627,0,0,0,.493-1.014l-.747-.953.1-3.733,1.754-3.156a.627.627,0,1,0-1.1-.609L81.319,53.8a.627.627,0,0,0-.079.288L81.129,58.2a.625.625,0,0,0,.134.4l.091.117H80.167V50.1a.627.627,0,1,0-1.254,0v9.252a.627.627,0,0,0,.627.627" transform="translate(-73.668 -32.741)" fill="#8b5e3c"/>
    <path id="Path_167498" data-name="Path 167498" d="M35.061,59.975h3.1a.627.627,0,0,0,.493-1.014l-.747-.953.1-3.733,1.754-3.156a.627.627,0,1,0-1.1-.609L36.84,53.8a.626.626,0,0,0-.079.288L36.65,58.2a.625.625,0,0,0,.134.4l.091.117H35.688V50.1a.627.627,0,1,0-1.254,0v9.252a.627.627,0,0,0,.627.627" transform="translate(-14.148 -32.741)" fill="#8b5e3c"/>
    <path id="Path_167499" data-name="Path 167499" d="M49.671,51.484a8.529,8.529,0,0,0,3.823-.8.627.627,0,0,0-.6-1.1,8.135,8.135,0,0,1-4.562.554.627.627,0,1,0-.17,1.242,11.1,11.1,0,0,0,1.506.1" transform="translate(-32.585 -32.767)" fill="#8b5e3c"/>
    <path id="Path_167500" data-name="Path 167500" d="M65.77,54.872a4.509,4.509,0,0,0,4.069-2.389.627.627,0,0,0-1.142-.519c-.058.123-1.381,2.809-5.457,1.057a.627.627,0,0,0-.5,1.152,7.675,7.675,0,0,0,3.024.7" transform="translate(-53.644 -34.149)" fill="#8b5e3c"/>
    <path id="Path_167504" data-name="Path 167504" d="M90.517,27.373l1.3-.082c-.34-5.4.872-7.554,1.948-8.41a3.021,3.021,0,0,1,2.562-.565l.373-1.248a4.347,4.347,0,0,0-3.744.794c-1.919,1.525-2.739,4.725-2.438,9.511" transform="translate(-89.947 -11.209)" fill="#8b5e3c"/>
    <path id="Path_167505" data-name="Path 167505" d="M103.295,46.432c0,.805.539,2.7,1.2,2.7s1.205-1.892,1.205-2.7a1.227,1.227,0,1,0-2.41,0" transform="translate(-103.295 -29.766)" fill="#8b5e3c"/>
    <path id="Path_167506" data-name="Path 167506" d="M11.678,21.179c-.06.043-2-.63-2-.63L8.6,19.615l-3.2-3.3-2.217-.13-.6,3.606L4.126,21.57l6.033,1.412Z" transform="translate(24.787 -10.711)" fill="#8b5e3c"/>
    <path id="Path_167507" data-name="Path 167507" d="M64.859,17.995a4.315,4.315,0,1,1-8.63,0Z" transform="translate(-46.533 -11.91)" fill="#8b5e3c"/>
    <path id="Path_167508" data-name="Path 167508" d="M89.41,26.5a3.343,3.343,0,1,1,0,6.686Z" transform="translate(-85.648 -17.54)" fill="#8b5e3c"/>
    <path id="Path_167509" data-name="Path 167509" d="M27.223,42.541A2.869,2.869,0,1,1,30.35,37.73Z" transform="translate(-1.773 -24.664)" fill="#8b5e3c"/>
    <path id="Path_167510" data-name="Path 167510" d="M59.349,41.678A2.675,2.675,0,1,0,62,39.341a2.511,2.511,0,0,0-2.654,2.337" transform="translate(-47.386 -26.037)" fill="#8b5e3c"/>
    <path id="Path_167511" data-name="Path 167511" d="M38.168,17.79a2.318,2.318,0,0,0,.417,3.193,2.318,2.318,0,0,0,2.974-1.236,2.318,2.318,0,0,0-.417-3.193,2.318,2.318,0,0,0-2.974,1.236" transform="translate(-17.409 -10.819)" fill="#8b5e3c"/>
  </g>
</svg>
