<svg id="Group_20247" data-name="Group 20247" xmlns="http://www.w3.org/2000/svg" xmlns:xlink="http://www.w3.org/1999/xlink" width="113.077" height="188.589" viewBox="0 0 113.077 188.589">
  <defs>
    <clipPath id="clip-path">
      <rect id="Rectangle_7105" data-name="Rectangle 7105" width="113.077" height="188.589" fill="none"/>
    </clipPath>
  </defs>
  <g id="Group_20246" data-name="Group 20246" clip-path="url(#clip-path)">
    <path id="Path_174478" data-name="Path 174478" d="M3.327,16.56c-.227.954.18,1.854.919,1.941l1.67.2c.739.088,1.346-.691,1.348-1.672L7.291,6.346A.752.752,0,0,0,5.8,6.169Z" transform="translate(103.566 -1.778)" fill="#aa998a"/>
    <path id="Path_174479" data-name="Path 174479" d="M15.051,15.169c-.227.954.18,1.854.919,1.941l1.67.2c.739.088,1.346-.691,1.348-1.672l.027-10.681a.752.752,0,0,0-1.49-.177Z" transform="translate(83.864 -1.334)" fill="#aa998a"/>
    <path id="Path_174480" data-name="Path 174480" d="M50.223,11c-.227.954.18,1.854.919,1.941l1.67.2c.739.088,1.346-.691,1.348-1.672L54.187.781A.752.752,0,0,0,52.7.6Z" transform="translate(24.758 0)" fill="#aa998a"/>
    <path id="Path_174481" data-name="Path 174481" d="M38.5,12.386c-.227.954.18,1.854.919,1.941l1.67.2c.739.088,1.346-.691,1.348-1.672l.027-10.681A.752.752,0,0,0,40.973,2Z" transform="translate(44.46 -0.445)" fill="#aa998a"/>
    <path id="Path_174482" data-name="Path 174482" d="M26.775,13.777c-.227.954.18,1.854.919,1.941l1.67.2c.739.088,1.346-.691,1.348-1.672l.027-10.681a.752.752,0,0,0-1.49-.177Z" transform="translate(64.162 -0.889)" fill="#aa998a"/>
    <path id="Path_174483" data-name="Path 174483" d="M.324,15.82A1.092,1.092,0,0,0,1.148,17.7L39.4,22.241c1.108.131,1.667-.6,1.241-1.637l-.866-2.1a3.827,3.827,0,0,0-2.79-2.116L4.865,12.579a3.83,3.83,0,0,0-3.208,1.4Z" transform="translate(72.297 -4.014)" fill="#c86b37"/>
    <path id="Path_174484" data-name="Path 174484" d="M28.315,131.67c-.12,1.013.338,1.909,1.019,1.99l.126.015c.68.08,1.336-.683,1.456-1.7L43.783,23.544c.12-1.013-.338-1.909-1.018-1.989l-.127-.015c-.68-.081-1.335.683-1.456,1.7Z" transform="translate(50.021 -6.881)" fill="#c86b37"/>
    <path id="Path_174485" data-name="Path 174485" d="M100.238,27.024c1.75-1.461,4.445,4.029,3.232,4.789s-1.1.465-1.256,1.228a1.341,1.341,0,0,1-2.279.5,10.123,10.123,0,0,1-1.788-4.387c-.314-1.9,1.407-1.561,2.09-2.131" transform="translate(-57.457 -8.557)" fill="#7194b8"/>
    <path id="Path_174486" data-name="Path 174486" d="M124.383,26.725c-1.47-.8-1.938,1.432-2.918,2.561-.6.691-.868,2.562-.173,2.407s.3.64,1.17.857c.657.164-.377,1.382.752,1.132s1.694-1.2,2.315-2.2c1.59-2.571.407-3.918-1.147-4.759" transform="translate(-95.461 -8.486)" fill="#7194b8"/>
    <path id="Path_174487" data-name="Path 174487" d="M100.1,50.7c-.857-3.8,1.47-6.49,4.041-8.817,1.017-.921.965-3.738,1.043-4.115a14.263,14.263,0,0,0,0-2.644c.195,0,5.206.393,5.449.368.1.439-.022,4.88,1.775,6.368,1.111.919,5.57.146,5.08,5.779.49,9.552-15.675,8.082-17.389,3.061" transform="translate(-72.437 -11.225)" fill="#ffdbb0"/>
    <path id="Path_174488" data-name="Path 174488" d="M101.313,21.535c-.46-5.323,1.125-11.752,7.663-11.913s8.709,6.584,8.512,11.923c.3-.31,1.342-.408,1.364.467a3,3,0,0,1-.663,1.776,3.494,3.494,0,0,1-1.728.922,7.632,7.632,0,0,1-1.809,3.275,9.507,9.507,0,0,1-5.466,2.592c-1.7.088-3.858-1.36-4.993-2.516a11.117,11.117,0,0,1-2.2-3.176,3.7,3.7,0,0,1-1.711-.868c-.536-.563-.925-2.139-.553-2.5a1.251,1.251,0,0,1,1.583.022" transform="translate(-73.538 -3.074)" fill="#ffdbb0"/>
    <path id="Path_174489" data-name="Path 174489" d="M114.137,10.575c3,.834,4.718,7.673,3.966,9.07s-.731,2.035-1.179,2.048.125-.693-.29-.952-.32-4.115-1.035-5.236-1.481-.546-2.313-.227c-1.087.418-2.522-2.148-3.781-.239-.751,1.139-2.415-.019-2.78-.791s-1.14-1.092-1.709-.6a7.208,7.208,0,0,0-1.11,2.459c-.315,1.08-1.681,1.638-2.362,1.975s-.47,1.658-.5,2.324.046,1.944-.8.273-.358-3.423-.121-5.6,3.374-5.195,5.17-5.337a43.6,43.6,0,0,1,8.84.834" transform="translate(-73.092 -3.105)" fill="#6b5136"/>
    <path id="Path_174490" data-name="Path 174490" d="M107.492,4.361a11.054,11.054,0,0,0-7.745,3.364c-1.386,1.442-1.3,2.322-.978,3.845s-.979,2.242-.653,3.844c.3,1.467.326,2.4,1.06,3.044s1.8-3.157,8.234-3.444c5.38-.24,7.092,1.762,8.071,2.883s1.3.561,2.038-.881,1.25-3.054.734-4a10.044,10.044,0,0,1-.9-3.844c-.163-3.444-7.974-4.846-9.865-4.805" transform="translate(-72.114 -1.393)" fill="#7194b8"/>
    <path id="Path_174491" data-name="Path 174491" d="M101.75,16.085a.241.241,0,0,0,.179-.078.245.245,0,0,0-.012-.346l-.378-.354a3.874,3.874,0,0,0-2.25-1.376.245.245,0,1,0-.08.483c.81.135,1.132.438,2,1.249l.38.357a.246.246,0,0,0,.167.065" transform="translate(-56.286 -4.45)" fill="#5d82a3"/>
    <path id="Path_174492" data-name="Path 174492" d="M120.572,17.635a.245.245,0,0,0,.244-.218c0-.022.1-.627,1.027-1.056.745-.344,1.085-.5,1.17-.818a.884.884,0,0,0-.24-.714c.112-.312,1.213-.7,2.32-.78a.245.245,0,1,0-.035-.489c-.608.044-2.417.323-2.741,1.011a.521.521,0,0,0,.056.543c.168.234.167.294.165.3a3.174,3.174,0,0,1-.9.5,2.022,2.022,0,0,0-1.309,1.446.245.245,0,0,0,.217.271h.027" transform="translate(-94.122 -4.333)" fill="#5d82a3"/>
    <path id="Path_174493" data-name="Path 174493" d="M42.206,75.713a33.311,33.311,0,0,0,6.64-1.606c2.172-.835,2.433-3.615,3.259-4.277.411-.6,1.708-1.341,2.19-.533.237.4-.22.63.12.741,0,0,.87-.941,1.539-.865.727.082,1.733.232,1.967.721.367.768.7.606.895,1.783.139.857.392.744.951,1.612.246.38.883,2.428.5,2.963-.338.472-1.518.978-3.1,2.339s-5.131-.252-6.319-.07c-1.659.253-6.19,1.845-9.987,2.7-3.918.735-9.187.335-11.266-.49-3.465-1.375.117-4.4-.184-5.449.934-.283,9.883.726,12.8.429" transform="translate(33.587 -22.029)" fill="#ffdbb0"/>
    <path id="Path_174494" data-name="Path 174494" d="M70.228,58.572C71.9,56.61,81.212,48.409,86.7,45.65c2.067-.918,5.231-2.183,5.281-2.2,1.394-.871,3.1-2.4,4.041-1.974s2.847,3.122,3.719,3.122c1.011,0,2.663-1.148,4.133-2.571.943-.914,2.571.367,3.719,1.424,1.321.613,7.988,4.4,9.72,6.077a60.548,60.548,0,0,1,9.552,12c3.609,5.555,2.43,2.508,5.2,3.918,1.855.717-.237,4.829-2.388,7.286-.857.981-6.935,1.229-10.378-2.281-2.388-2.434-3.828-4.8-4.677-4.578-.712.283.223,4.854.6,6.554,1.347,6.425,4.176,16.24,4.91,20.486,1.577,8.723,3.3,25.509,3.846,27.822.735,3.123,8.266,26.634,1.1,38.023-6.095,9.689-9,5.075-13.042,2.02-8.266-6.245-6.366-20.636-6.734-25.412-.352-4.574-1.034-14.672-2.752-14.427-2.529.361,1.22,32.307-6.128,43.513-1.073,1.637-10.576-.815-12.307-3.123-6.613-8.817-4.156-24.906-3.97-29.521.054-1.336.778-9.563,1.111-21.572a86.077,86.077,0,0,1,2.891-17.679c1.448-4.407.006-9.861,0-11.786-.011-3.47,1.668-16.346-.333-17.124-1.242-.483-6.882,1.77-7.414,3.267-.489,1.377,1.91,3.9,3.123,7.806.394,1.27-7.4,5.5-8.45,4.194-.557-.691-1.755-3.593-4.684-10.807-1.6-3.939,1.707-6.85,3.828-9.534" transform="translate(-64.602 -13.228)" fill="#7194b8"/>
    <path id="Path_174495" data-name="Path 174495" d="M112.054,110.028a.244.244,0,0,0,.245-.245c0-2.1-.4-8.967-.787-15.6-.329-5.622-.638-10.932-.713-13.424-.166-5.459-1.34-25.937-1.5-28.363a.232.232,0,0,0-.261-.229.245.245,0,0,0-.227.261c.161,2.425,1.335,22.891,1.5,28.345.076,2.5.386,7.812.714,13.439.387,6.63.787,13.486.787,15.575a.244.244,0,0,0,.244.245" transform="translate(-73.262 -16.668)" fill="#5d82a3"/>
    <path id="Path_174496" data-name="Path 174496" d="M129.484,135.291a.346.346,0,0,0,.131-.061c2.991-2.25,5.3-7.107,5.75-9.194a.349.349,0,1,0-.683-.148c-.491,2.268-2.872,6.817-5.487,8.784a.349.349,0,0,0,.289.62" transform="translate(-110.114 -40.137)" fill="#5d82a3"/>
    <path id="Path_174497" data-name="Path 174497" d="M88.419,135.639a.36.36,0,0,0,.187-.077.371.371,0,0,0,.065-.522c-2.114-2.7-3.35-6.527-4.254-9.32l-.284-.877a.372.372,0,1,0-.707.232l.284.874c.921,2.846,2.18,6.743,4.375,9.55a.368.368,0,0,0,.333.14" transform="translate(-32.428 -39.81)" fill="#5d82a3"/>
    <path id="Path_174498" data-name="Path 174498" d="M69.846,85.34c-.82.651-1.106.526-1.792-.337s-1.226-1.841-2.246-1.5a1.277,1.277,0,0,1-1.823-.82,2.851,2.851,0,0,1,.13-2.643c.692-.9.722-1.16,1.434-3.366s2.142-4.983,3.117-4.936,1.261.407,1.43,1.211.988.506,1.849.409a2.454,2.454,0,0,1,2.147,1.228c.2.546,1.264,3.219-.031,4.246a7.4,7.4,0,0,0-2.108,3.549,8.806,8.806,0,0,1-2.106,2.961" transform="translate(-4.971 -22.922)" fill="#5d82a3"/>
    <path id="Path_174499" data-name="Path 174499" d="M67.676,246.921c.457-5.3-7.005-30.818-6.43-32.4.754-2.072,13.867-3.306,14.51-2.2,2.94,5.04-.407,30.271.768,32.4a9.184,9.184,0,0,0,1.511,1.705c3.842,2.87,7.367,1.1,7.781,3.391.275,1.534,1,2.6-1.333,3.946-4.378,2.518-16.886.975-17.127-2.063-.059-.723.214-3.527.32-4.776" transform="translate(-14.719 -67.711)" fill="#2f253f"/>
    <path id="Path_174500" data-name="Path 174500" d="M133.59,250.616a16.9,16.9,0,0,1-1.135-3.306c-.455-2.769,4.584-28.307,4.584-30.974.093-1.377-15.153-2.939-15.245.184-.161,5.487,3.4,29.941,1.2,32.745-.473.6-2.667.888-4.056,1.4-2.88,1.057-3.413,2.448-2.112,4.5.653,1.03,4.7,2.675,7.811,1.768,4.409-1.285,10.267-3.681,8.95-6.314" transform="translate(-103.004 -68.604)" fill="#2f253f"/>
    <path id="Path_174501" data-name="Path 174501" d="M125.561,140.5l.763-.267c-.023-.065-2.3-6.567-4.175-11-.679-1.605-.834-2.725-.474-3.421.47-.909,1.858-1.215,3.615-1.6l.139-.031c3.238-.714,18.1-3.613,22.678-4.371a1.468,1.468,0,0,1,1.275.306c1.445,1.249,1.358,5.6,1.281,9.443a33.079,33.079,0,0,0,.179,5.812l.795-.15a32.743,32.743,0,0,1-.165-5.646c.084-4.215.171-8.573-1.56-10.071a2.26,2.26,0,0,0-1.936-.492c-4.584.76-19.476,3.663-22.72,4.379l-.139.031c-1.886.415-3.515.774-4.158,2.02-.484.936-.342,2.241.447,4.107,1.865,4.411,4.133,10.888,4.156,10.953" transform="translate(-120.679 -38.013)" fill="#606060"/>
    <rect id="Rectangle_7101" data-name="Rectangle 7101" width="2.27" height="4.541" transform="translate(4.333 104.099) rotate(-100.656)" fill="#7194b8"/>
    <rect id="Rectangle_7102" data-name="Rectangle 7102" width="2.27" height="4.541" transform="translate(27.862 99.673) rotate(-100.657)" fill="#7194b8"/>
    <rect id="Rectangle_7103" data-name="Rectangle 7103" width="35.707" height="29.102" transform="translate(12.918 151.418) rotate(-100.653)" fill="#9ec3bc"/>
    <path id="Path_174502" data-name="Path 174502" d="M114.861,164.248l28.6-5.38-5-8.9-22.177,4.172Z" transform="translate(-108.543 -47.921)" fill="#9ec3bc"/>
    <path id="Path_174503" data-name="Path 174503" d="M105.164,219.383c.27,1.438,6.9,1.4,14.8-.088s14.09-3.857,13.82-5.295-6.9-1.4-14.8.088-14.09,3.857-13.82,5.295" transform="translate(-92.27 -68.043)" fill="#9ec3bc"/>
    <rect id="Rectangle_7104" data-name="Rectangle 7104" width="7.138" height="22.463" transform="translate(7.793 106.213) rotate(-100.652)" fill="#9ec3bc"/>
    <path id="Path_174504" data-name="Path 174504" d="M132.1,123.492c.284,1.328,4.281,1.6,8.927.6s8.181-2.879,7.9-4.207-4.281-1.6-8.927-.6-8.181,2.879-7.9,4.207" transform="translate(-125.743 -37.923)" fill="#7c6351"/>
    <path id="Path_174505" data-name="Path 174505" d="M142.35,163.9a.305.305,0,0,0-.2-.577c-2.182.754-7.335,2.182-11.528,3.106a73.366,73.366,0,0,1-12.761,1.347.305.305,0,0,0,0,.61,74.1,74.1,0,0,0,12.9-1.362c4.213-.928,9.4-2.365,11.6-3.124" transform="translate(-109.471 -52.181)" fill="#7194b8"/>
    <path id="Path_174506" data-name="Path 174506" d="M140.571,151.126a.305.305,0,0,0-.154-.589l-11.9,2.133a.305.305,0,0,0,.108.6l11.9-2.133.046-.012" transform="translate(-114.979 -48.1)" fill="#7194b8"/>
    <path id="Path_174507" data-name="Path 174507" d="M136.608,93.3c.96,3.648,3.32,11.479,3.226,12.714s-.092,4.593-.084,6.745c0,.874.739,2,2.271,4.186.677.966,1.008-.969,2.207-.273,2.018,1.172,1.871-.4,2.574-.5,1.214-.171,1.559-.189,1.032-1.748a14.18,14.18,0,0,0-1.444-3.127c-.4-.639-.778-1.724.5-1.223s2.018.7,2.856.214.675-1.2-.941-1.63c-1.764-.906-3.268-3.08-4.132-3.824s-1.762-10.349-2.026-12.743-6.921-2.12-6.044,1.212" transform="translate(-130.074 -28.921)" fill="#ffdbb0"/>
    <path id="Path_174508" data-name="Path 174508" d="M155.447,85.875c.9.533.888.844.327,1.794s-1.28,1.8-.6,2.634a1.277,1.277,0,0,1-.112,2,2.852,2.852,0,0,1-2.515.826c-1.089-.324-1.341-.259-3.655-.133s-5.42-.215-5.725-1.143a1.269,1.269,0,0,1,.618-1.769c.69-.446.118-1.1-.28-1.872a2.454,2.454,0,0,1,.377-2.444c.439-.381,2.552-2.333,3.975-1.492a7.4,7.4,0,0,0,4.069.7,8.815,8.815,0,0,1,3.519.906" transform="translate(-140.421 -26.861)" fill="#5d82a3"/>
  </g>
</svg>
