<svg id="Group_427" data-name="Group 427" xmlns="http://www.w3.org/2000/svg" xmlns:xlink="http://www.w3.org/1999/xlink" width="547.638" height="152.539" viewBox="0 0 547.638 152.539">
  <defs>
    <clipPath id="clip-path">
      <rect id="Rectangle_113" data-name="Rectangle 113" width="547.638" height="152.539" fill="#2c4198"/>
    </clipPath>
  </defs>
  <g id="Group_426" data-name="Group 426" transform="translate(0 0)">
    <g id="Group_425" data-name="Group 425" clip-path="url(#clip-path)">
      <path id="Path_133817" data-name="Path 133817" d="M17.8,44.086a3.789,3.789,0,0,1-.6-2.781l.185-.6-.417-4.124.232-4.495-1.205-.417L3.383,32.824l-.973-.139-.834.371L.834,29.118l.6-3.522h3.8l1.992.37a28.84,28.84,0,0,1,5.051-.694,18.082,18.082,0,0,0,5.1-.835l.834-5.7-1.39-.417c-1.761.277-3.522.556-5.237.788a11.989,11.989,0,0,0-4.773,1.807L4.4,23.232l-1.02-1.158c-1.019-.371-2.085-.88-3.2-1.391L0,19.71a53.937,53.937,0,0,0,5.608-8.249A66.93,66.93,0,0,0,9.778,2.61L10.8,2.425l.6.185.6-.185a13.27,13.27,0,0,1,4.959,1.761l.417,1.39c-1.205,2.316-2.456,4.634-3.8,6.859H14.6l3.986-.6a43.332,43.332,0,0,1,1.621-8.8l5.376-.232a2.253,2.253,0,0,1,1.992.835,27.663,27.663,0,0,0-1.39,7.461l5.608.185.556-.185,1.437.185.556-.185,1.02.742v1.39l-.787,3.152-.973.37-.649-.185-1.158.6-.6-.185-6.025.926-.787,6.118,1.019.185a15.127,15.127,0,0,1,5.375-.973,43.669,43.669,0,0,0,5.561-.37l.834.37a3.741,3.741,0,0,1,.6,3.151l-.787,2.364q-3.2.765-6.534,1.252c-2.178.324-4.356.788-6.442,1.3l-1.019,6.859.185,3.939-1.576,1.761H19.973l-.787-.185ZM5.608,14.8l-.788.973.556-.232Zm8.2,12h-.649v.556h.649ZM32.763,13.408h-.556v.6h.556Z" transform="translate(0 -0.664)" fill="#8b5e3c"/>
      <path id="Path_133818" data-name="Path 133818" d="M66.884,35.282a5.586,5.586,0,0,1-.519-3.715,8.61,8.61,0,0,1,2.077-2.876,4.015,4.015,0,0,1,3.435-.878,7.612,7.612,0,0,1,3.755,1.877,7.4,7.4,0,0,1,1.238,4.074A6.7,6.7,0,0,1,74.434,38a5.77,5.77,0,0,1-3.955.68,6.165,6.165,0,0,1-3.595-3.4" transform="translate(-18.129 -7.593)" fill="#333"/>
      <path id="Path_133819" data-name="Path 133819" d="M89.439,41.093v-.556l.372-.973.787-.417a56.443,56.443,0,0,0,5.1-6.905c1.53-2.409,3.013-4.866,4.448-7.322,1.623-3.244,3.105-6.58,4.5-9.917A102.891,102.891,0,0,0,108.3,4.761l.834-.231,6.3,1.2.232,1.159a39.2,39.2,0,0,1-2.5,8.434q-1.669,4.1-3.059,8.2a55.151,55.151,0,0,0,9.036,5.653,63.065,63.065,0,0,0,9.824,3.939l.232.742a13.592,13.592,0,0,0-2.224,6.487l-1.576.6a40.169,40.169,0,0,1-10.242-4.216c-3.243-1.9-6.534-3.708-9.824-5.376-1.345,1.946-2.781,3.893-4.355,5.839a36.517,36.517,0,0,1-7.555,6.071l-1.2.371ZM110.9,7.913l.231-1.02-.834,1.576h.6Z" transform="translate(-24.471 -1.239)" fill="#e67339"/>
      <path id="Path_133820" data-name="Path 133820" d="M155.494,35.282a5.586,5.586,0,0,1-.519-3.715,8.609,8.609,0,0,1,2.077-2.876,4.015,4.015,0,0,1,3.435-.878,7.612,7.612,0,0,1,3.755,1.877,7.4,7.4,0,0,1,1.238,4.074A6.7,6.7,0,0,1,163.044,38a5.77,5.77,0,0,1-3.955.68,6.165,6.165,0,0,1-3.595-3.4" transform="translate(-42.374 -7.593)" fill="#333"/>
      <path id="Path_133821" data-name="Path 133821" d="M191,43.978a2.118,2.118,0,0,1-2.409-1.159,140.66,140.66,0,0,1-.973-21.641c.092-2.225.232-4.448.37-6.673a56.744,56.744,0,0,1,.788-6.442l5.375-.417a28.074,28.074,0,0,0,5.191-.787c.926-2.225,1.761-4.449,2.549-6.673L203.329,0,204.9.371l.649-.185,3.568.973.185,1.39-1.992,4.5,5.792.417.556-.232a35.088,35.088,0,0,1,7,1.206l.37,1.158c-.787,5.006-1.343,10.056-1.714,15.247a97.728,97.728,0,0,1-2.085,14.968L206.2,41.893a88.263,88.263,0,0,1-11.214,1.53l-.649-.232Zm20.3-11.585a3.237,3.237,0,0,0-2.178-.371c-2.41.232-4.82.463-7.276.556a39.03,39.03,0,0,0-7.09,1.019,3.685,3.685,0,0,0-.417,2.318l.417.787.835.185q3.754-.556,7.646-.973a43.344,43.344,0,0,0,7.462-1.39Zm.371-9.222a2.421,2.421,0,0,0-1.808-.417c-2.5.277-4.958.6-7.414.88-2.457.325-4.958.649-7.461.88l-.232,1.761,1.02.417,6.349-.556.788.325c2.919-.232,5.793-.464,8.526-.742Zm.6-9.222-.973-.232-8.759.232a31.06,31.06,0,0,0-6.951.742,4.555,4.555,0,0,0-.417,2.781,2.432,2.432,0,0,0,1.992.371l6.535-.788c1.807.046,3.615.093,5.422.185l2.733-.37Zm-15.524-3.336h-.6v.556h.6Zm16.544,22.568h-.6l-.231,1.345.648-.186Z" transform="translate(-51.315)" fill="#4caf50"/>
      <path id="Path_133822" data-name="Path 133822" d="M263.1,30.025l-1.622-.6-.185-1.159,2.781-2.364c.927-1.436,1.807-2.919,2.781-4.356l-.788-1.343-.787-.418c-1.623,1.576-3.291,3.151-5.1,4.727-1.761,1.53-3.614,3.059-5.468,4.5l-1.159.6a3.541,3.541,0,0,1-3.244.788l-2.178-2.549,5.422-4.31a5.528,5.528,0,0,0-2.6-1.76l-.417-1.576.788-1.761a1.479,1.479,0,0,1-1.576.556l-.6-.973-1.021-.6-1.158-1.946q2.989-3.337,6.256-6.673A83.8,83.8,0,0,0,259.3,1.9V1.34h.973a12.452,12.452,0,0,1,3.569,1.576l.6,1.159-.37,1.02A41.363,41.363,0,0,1,272,9.959l.232,1.39-1.807,2.364.6.185,1.947-.6A35.363,35.363,0,0,0,275.8,4.259l1.39-.37,5,.788.186.741c-.7,2.642-1.483,5.191-2.41,7.693l.6.185,2.595-.371a22.518,22.518,0,0,1,.788-7.507,10.168,10.168,0,0,1,3.985-.741,28.317,28.317,0,0,1,1.807,7.461l-2.409.6V13.3l1.39.185.185,2.178c-.371,1.3-.7,2.688-.973,4.124l-1.019.232a1.879,1.879,0,0,0-2.178-.6,44.8,44.8,0,0,0-8.945,1.205,14.6,14.6,0,0,0,5.191,1.714c1.854.278,3.707.6,5.515.973l.6-.186.834.6v.787a16.628,16.628,0,0,0-2.409,4.681l-.787.232a52.357,52.357,0,0,1-7.044-1.3,24.172,24.172,0,0,1-6.487-2.642l-5.376,5.283-1.576.417ZM248.735,42.77l.418-.788-.186-.788a31.862,31.862,0,0,1,3.152-8.248l3.429-.556.556.139.6-.139.835.556v1.39c-.556,2.733-1.113,5.421-1.669,8.017a6.206,6.206,0,0,1-3.568,1.019l-1.159-.186-1.992.6Zm10.38-25.35-4.587-1.946-1.39,1.205v.556a13.547,13.547,0,0,0,5.746.787Zm5.33-6.256-4.171-1.39-1.39,1.761L263.1,13.3Zm-5.33,30.029,2.364-8.064a11.953,11.953,0,0,1,5.608-.6l.324,1.205a28.618,28.618,0,0,0-1.576,6.673,13.621,13.621,0,0,1-6.535,1.576Zm9.964-2.363,1.576-5.468a9.838,9.838,0,0,1,5.561-.835l.418,1.992a23.994,23.994,0,0,0-1.669,6.256,15.215,15.215,0,0,1-5.144,1.205,3.378,3.378,0,0,1-.742-3.151M280.2,41.61l-2.224-8.248a16.744,16.744,0,0,1,6.58-2.178l.788.6a33.719,33.719,0,0,0,2.78,8.99,60.2,60.2,0,0,1-6.58,1.993Zm6.3-27.11h-.742v.556h.742Z" transform="translate(-67.575 -0.367)" fill="#4caf50"/>
      <path id="Path_133823" data-name="Path 133823" d="M324.558,42.977a12.411,12.411,0,0,1-5.074-3.556,9.281,9.281,0,0,1-2.2-6.75,20.651,20.651,0,0,1,1.918-4.793A19.778,19.778,0,0,1,322.56,23.6a15.689,15.689,0,0,1,4.474-2.916l.2-.638a24.554,24.554,0,0,1-.679-4.554c-.119-1.557-.2-3.156-.2-4.753l.16-.479-.16-.839a33.237,33.237,0,0,1,7.191.159,39.816,39.816,0,0,1,.359,7.591h.479c1.637-.48,3.235-.879,4.833-1.278a28.457,28.457,0,0,1,4.953-.719l1.4.639.32,4.753c-3.2.759-6.391,1.638-9.587,2.6a25.64,25.64,0,0,0-8.749,4.634,6.952,6.952,0,0,0-2.756,5.911,5.587,5.587,0,0,0,1.557,2.677,9.862,9.862,0,0,0,6.511,1.518l8.388-1c-.04,1.758-.04,3.515,0,5.233-1.717.439-3.434.8-5.153,1.158a28.7,28.7,0,0,1-5.273.519,17.408,17.408,0,0,1-6.271-.838m.24-3.915-.161.519.52-.16Zm3.595,1.4h-.519v.479h.519Zm2.557-23.129h-.479v.679h.479Zm13.222,1.558h-.479v.639h.479Z" transform="translate(-86.808 -2.545)" fill="#333"/>
      <path id="Path_133824" data-name="Path 133824" d="M386.664,39.955l.479-.679,3.436-2.237a17.572,17.572,0,0,0,3.954-5.193l.838-3.755a7.289,7.289,0,0,0-2.036-5.752l-.32-.48a14.4,14.4,0,0,0-5.513-1.4l-.36,1.2.2,1.518a29.943,29.943,0,0,1-1.358,7.709,18.038,18.038,0,0,1-3.994,6.671,38.242,38.242,0,0,1-3.556,2.556,9.15,9.15,0,0,1-4.314,1.358,6.21,6.21,0,0,1-4.434-2.4,18.093,18.093,0,0,1-2.437-4.235,10.791,10.791,0,0,1-.639-4.873,49.456,49.456,0,0,1,1.278-5.592,9.544,9.544,0,0,1,3.155-4.753,17.043,17.043,0,0,1,7.39-4.314,25.979,25.979,0,0,1,8.908-.759,17.216,17.216,0,0,1,6.351,1.878,23.24,23.24,0,0,1,5.473,4.035,18.386,18.386,0,0,1,2.317,4.593,11.844,11.844,0,0,1,.4,5.233,28.626,28.626,0,0,1-1.757,4.914,17.691,17.691,0,0,1-3.036,4.393c-1.238,1-2.476,2.038-3.635,3.036a8.309,8.309,0,0,1-4.075,1.878,19.958,19.958,0,0,1-2.717-4.554M376.2,34.522a37.655,37.655,0,0,0,3.435-6.831,34.786,34.786,0,0,0,1.878-7.55l-1.038-.319a9.26,9.26,0,0,0-5.273,3.355,17.077,17.077,0,0,0-2.2,4.234,15.111,15.111,0,0,0-.759,4.714,4.366,4.366,0,0,0,1.517,2.756l.878.161Z" transform="translate(-100.296 -3.956)" fill="#333"/>
      <path id="Path_133825" data-name="Path 133825" d="M426.493,40.642a26.012,26.012,0,0,0,4.958-2.966,36.794,36.794,0,0,0,4.588-3.938l.185-.556L435.437,33c-2.642.231-5.284.463-7.971.742a49.9,49.9,0,0,1,0-6.442l6.581-1.019.185-6.3-5.144.835a3.7,3.7,0,0,1-.788-3.336l.973-3.754h.6l1.021.371,3.336-.973,1.206-8.666h.6l.6.232a8.121,8.121,0,0,1,3.383-.418l2.966.6c-.231,2.317-.509,4.588-.787,6.9l.973.186c2.919-.556,5.839-1.066,8.8-1.576a9.222,9.222,0,0,1,2.549-5.932h2.595l2.966.834.186,1.159a7.488,7.488,0,0,0-1.576,3.939,8.633,8.633,0,0,1,3.2.973l.186.788a12.388,12.388,0,0,1-2.178,4.913,4.634,4.634,0,0,0-3.614.6l-1.762,6.673a25.319,25.319,0,0,1,8.943.788l.232,1.761-1.252,2.5c-3.939.556-7.924,1.02-12,1.437a108.326,108.326,0,0,0-11.818,1.761v.6l1.576.973a6.431,6.431,0,0,1,2.223,4.124,17.569,17.569,0,0,1-3.614,2.549c-1.576.788-3.2,1.576-4.773,2.457a20.135,20.135,0,0,1-4.959,1.854,20.957,20.957,0,0,1-2.595-4.5m21.27-15.71a25.6,25.6,0,0,0,1.808-7.137H446l-4.217.835A48.646,48.646,0,0,0,441,25.118Zm11.956,19.649a61.083,61.083,0,0,0-6.209-3.291,25.454,25.454,0,0,1-5.932-3.846l-.418-1.947,2.178-3.1.973-.417a34.859,34.859,0,0,0,6.812,3.152c2.364.741,4.773,1.529,7.137,2.316l.185.6a16.5,16.5,0,0,1-3.336,6.118ZM456.707,6.21h-.6v.6h.6Z" transform="translate(-116.693 -1.159)" fill="#2c4198"/>
      <path id="Path_133826" data-name="Path 133826" d="M492.216,42.1l-.139-3.151.556-3.29a117.606,117.606,0,0,1,13.393-.232,7.694,7.694,0,0,0,.6-3.893h-1.993l-4.774.371-1.992-1.391v-.787l1.761-6.07,8.157-.6.232-3.939-.788-.37a42.05,42.05,0,0,0-8.8.88,14.2,14.2,0,0,0-7.368,4.217c-.927-.649-1.946-1.3-3.012-1.947l-.185-1.158c2.132-3.429,4.31-6.812,6.488-10.149a63.5,63.5,0,0,1,7.646-9.5h.649L507.787,3.4l.232,1.205c-1.714,2.734-3.522,5.422-5.375,8.064H503.8l5-1.019,1.807-8.388,4.773-.835,1.252.232.6-.232.973.973V4.19l-1.205,7.09,1.622.371,7.971-.371a3.73,3.73,0,0,1,.556,3.151L526,17.536a20.225,20.225,0,0,1-5.1.6,29.924,29.924,0,0,0-5.1.417l-.788,3.938a3.575,3.575,0,0,0,2.364.371l1.251-.185.6.185.788-.185,1.02.185,1.39-.185,1.158.787.418,3.105-.835,2.548a39.207,39.207,0,0,1-8.943,1.808l-.788,3.151.139.556h3.244l3.2-.37.6.185,6.952-.556.417,1.761L526.6,40.1c-3.985.7-8.064,1.344-12.187,1.992a64.588,64.588,0,0,1-12.79.788Zm20.2-10.38h-.6v.6h.6Zm12.6,5.468v.6l.788-.186Z" transform="translate(-133.484 -0.297)" fill="#2c4198"/>
      <path id="Path_133827" data-name="Path 133827" d="M561.558,42.528A9.144,9.144,0,0,1,560,37.974a8.875,8.875,0,0,1,1.119-4.394,16.957,16.957,0,0,1,2.836-3.715l4.674-2.877.121-.519-1-.319c-1.359.319-2.8.718-4.195,1.158a10.88,10.88,0,0,0-3.915,2.2l-2.077,1.878-.519.159-1.717-.839a17.26,17.26,0,0,1-1.878-3.875c1.837-2.038,3.595-4.154,5.312-6.311v-.479l-3.754-.32-2.237.161c-.08-1.6-.16-3.156-.2-4.714l.719-1.4h5.832l4.514.36,1.358-1.039.32-.679h.718a9.757,9.757,0,0,1,2.6-3.556l1.2-.319a13.434,13.434,0,0,1,4.793,2.356l.2.679L573.1,13.926l7.909.72.16,1.158-.36,2.4a63.592,63.592,0,0,1-7.271.919,34.758,34.758,0,0,0-7.151,1.238l-1.917,2.2h.719l4.634-.639a9.485,9.485,0,0,1,5.632,1.678l1.557-1.2a49.107,49.107,0,0,0,6.073-2.038l1.2,1.4,2.077,3.4a31.325,31.325,0,0,1-4.074,1.758q-2.157.778-4.194,1.438a38.3,38.3,0,0,1-1.2,8.468l-5.513.639-.36-1.159a8.186,8.186,0,0,0,.519-3.555l-.16-.519h-.559L566.91,35.3v.84l.84,2.037a6.725,6.725,0,0,0,2.716.8l.719-.16,1.039.16c2.636-.2,5.233-.479,7.749-.8a4.154,4.154,0,0,1,.679,2.317l-.839,2.556a18.312,18.312,0,0,1-5.951,1.438c-2.117.2-4.275.28-6.472.28a8.316,8.316,0,0,1-5.832-2.237M557.4,17.162h-.479v.519h.479Zm2.077.519a1.213,1.213,0,0,0-1.358-.519v.519Zm-.519-3.035v.519l1.039-.2Zm2.956,21.131H561.4V36.3h.519Zm8.269-6.431h-.559l-.32.679.879-.16Z" transform="translate(-151.189 -2.335)" fill="#333"/>
      <path id="Path_133828" data-name="Path 133828" d="M623.3,39.48a19.769,19.769,0,0,0,5.991-3.875,9.29,9.29,0,0,0,2.757-6.272,5.235,5.235,0,0,0-1.2-3.355l-.479-.2a32.315,32.315,0,0,1-3.315,5.153,35.944,35.944,0,0,1-4.275,4.674l-4.474,3.715c-1.4.32-2.756.719-4.154,1.159a9.254,9.254,0,0,1-4.474.36,8.71,8.71,0,0,1-3.436-2.356,12.168,12.168,0,0,1-1.717-7.63,18.105,18.105,0,0,1,1.717-5.073,19.561,19.561,0,0,1,3.076-4.434l.719-.28.159-.519-2.237-5.792c2.277-.759,4.594-1.6,6.911-2.517l1.717,5.073h1.2a34.832,34.832,0,0,1,8.069-1.158l.878.12a8.882,8.882,0,0,0,1.559-4.554l.838-.159a18.67,18.67,0,0,1,6.551,1.837l.16.52c-.8,1.8-1.478,3.635-2.077,5.432A16.269,16.269,0,0,1,638.64,24.1,13.273,13.273,0,0,1,640,30.013a27.743,27.743,0,0,1-2.4,5.473,18.829,18.829,0,0,1-4.154,4.833,17.38,17.38,0,0,1-3.715,2.517,18.335,18.335,0,0,1-4.035,1.558,19.984,19.984,0,0,1-2.4-4.913m-6.912-6.631a35.492,35.492,0,0,0,3.276-3.2c.8-1.319,1.677-2.677,2.676-4.035a28.514,28.514,0,0,0,2.517-4.274h-3.116l-2.956.879-.12.519,1.518,4.034-3.8,3.915-1.717-1.878a5.222,5.222,0,0,0-1.358-2.356l-.719-.2a9.148,9.148,0,0,0-2.556,6.471l.838,1.837a1.638,1.638,0,0,0,1.918.519,11.634,11.634,0,0,0,3.595-2.237m-3.076-17.9h-.719l.719.839ZM626.575,40h-.519v.519h.519Zm3.276-26.6v.52h1Zm8.789,13.9h-.52v.68h.52Z" transform="translate(-165.39 -3.162)" fill="#333"/>
      <path id="Path_133829" data-name="Path 133829" d="M678.548,31.254l-.519-2.517.519-1.158-1.878-3.715c-2.877.24-5.792.479-8.749.679a46.294,46.294,0,0,0-8.229,1.677,24.194,24.194,0,0,1-1.358-5.752c2.516-.479,4.993-.959,7.43-1.478,2.476-.479,4.952-.959,7.469-1.4l.2-.68-2.078-3.755a1.777,1.777,0,0,1-.679-1.518,15.968,15.968,0,0,1,6.511-2.356c1.358,2.356,2.637,4.753,3.8,7.11a10.992,10.992,0,0,1,3.235.519l1.4-.2a6.069,6.069,0,0,1,1,4.913,1.919,1.919,0,0,1-1.718.519l-1-.16-.36.84,1.877,5.752a1.684,1.684,0,0,0-.678,1.358,13.1,13.1,0,0,1-5.473,1.838Zm-3.435,12.9a46.6,46.6,0,0,1-7.27-2.277,28.963,28.963,0,0,1-6.591-3.835l-.2-1,2.077-4.913,1.038-.161a43.814,43.814,0,0,0,6.432,3.556,30.544,30.544,0,0,0,6.951,2.2l.479,1.518a9.117,9.117,0,0,0-1.517,4.594Zm5.872-36.551,3.075-.679c.559,2.477,1,4.953,1.358,7.47l-.359.639a1.856,1.856,0,0,1-1.718.519,59.08,59.08,0,0,1-2.356-7.95m7.35,7.43a33.15,33.15,0,0,1-2.077-8.109,7.842,7.842,0,0,0,2.757-1.2q1.018,3.894,1.916,7.789l-.718.879Z" transform="translate(-180.128 -1.568)" fill="#333"/>
      <path id="Path_133830" data-name="Path 133830" d="M721.364,46.247a1.632,1.632,0,0,1-1.718-.838l-1.558-1.679V43.21l.879-.519.479-.838a29.49,29.49,0,0,0,5.314-6.072,16.468,16.468,0,0,1-6.113,1.158,7.153,7.153,0,0,1-3.435-2.2,9.133,9.133,0,0,1-1.2-4.753,8.23,8.23,0,0,1,2.2-3.875,13.8,13.8,0,0,1,4.114-1.718,28.784,28.784,0,0,1,4.634-.639l.161-1.518-.72-.2-14.3,1.717-.719-.519-.28-5.912a40.96,40.96,0,0,1,7.91-1.358c2.757-.24,5.512-.4,8.268-.519l.2-3.715-.2-1.2a18.024,18.024,0,0,1,7.31.319v.879l-.12.519.32,1.678-.2,1.2.879.319.519-.159,3.555.36.718-.2,3.237,1L741.656,19l-.519,1.2-1,.161-.519-.161c-2.477.44-4.993.759-7.51,1l-.679,4.714a10.19,10.19,0,0,1,1.878,7.47,15.1,15.1,0,0,1-3.076,6.071l-6.471,6.631-1.878.838Zm.839-14.38a8.079,8.079,0,0,0,2.4-3.036l-.838-1.2H722.4l-2.6,1.039a2.393,2.393,0,0,0-.678,2.157l1.038,1.2Z" transform="translate(-194.018 -2.819)" fill="#333"/>
      <path id="Path_133831" data-name="Path 133831" d="M136.089,156.589l-.387-1.312.387-1.312-1.081-2.239.386-1-.386-13.739,1.389-6.947-1.93-.54-2.083.54a54.038,54.038,0,0,0-1.08,9.339,17.715,17.715,0,0,1-2.547,8.722,64.661,64.661,0,0,1-13.585,3.782c-4.631.695-9.416,1.467-14.2,2.084L99.58,147.4l.386-17.367,1-17.907-.386-1,.386-1.621-.695-2.933a48.74,48.74,0,0,1,9.571-1.7l.695-3.937a26.188,26.188,0,0,0-8.567-.54,12.926,12.926,0,0,1-1.389-7.256l.695-1.312,4.94-.385c4.476.308,8.876.54,13.276.926a78.831,78.831,0,0,1,12.89,2.007l.386,5.635-1.312.386-6.329-.386-1.312,4.554a12.034,12.034,0,0,0,4.94,1l1-.309,1.7.618a3.248,3.248,0,0,1,1.312-2.933l1.93-1,1.7-1.93a115.006,115.006,0,0,0,9.571-7.873,59.057,59.057,0,0,1,9.957-7.179l7.641,6.869v1l-3.01,2.238v1l9.34,8.8.926,1-9.263,10.189a43.683,43.683,0,0,0,8.8,2.393,30.823,30.823,0,0,1,8.414,2.778v2.316a29.6,29.6,0,0,0-2.933,7.487l-5.325,1.7a73.534,73.534,0,0,0-2.625,9.8,91.336,91.336,0,0,1-2.7,9.725,25.589,25.589,0,0,1-11.115,4.169c-4.014.54-8.182,1.08-12.427,1.466Zm-11.578-17.6-3.705-.387-14.9,1.622-1,4.245,1,.386q4.631-.695,9.262-1.158a38.917,38.917,0,0,0,8.953-2.161Zm1.93-9.494a15.2,15.2,0,0,0-7.641-3.319l-1.312-6.869.695-7.873-3.628,1.312q-1.042,3.937-1.852,8.336a16.657,16.657,0,0,1-3.165,7.41,2.644,2.644,0,0,1-1.312-2.933c.462-4.168.772-8.49,1-12.813h-1.312c-.463,2.624-.771,5.249-1,7.873l.308,1a61.172,61.172,0,0,0-1,10.805,23.2,23.2,0,0,1,14.974-.385l4.553-.618Zm-7.332-29.485h-3.319l-.54,4.554a3.28,3.28,0,0,0,3.318.309Zm7.024,19.3-.386-8.182h-1.621A15.6,15.6,0,0,0,122.118,120a5.174,5.174,0,0,0,4.014.927Zm15.206-.618.309-1.389-3.32-2.239-.308-1.62,3.318-4.94a14.842,14.842,0,0,1-5.635,1.93l-1.235-.232a43.406,43.406,0,0,0-1.08,12.427l4.014-1.7Zm20.532,9.108c-4.4-1.312-8.8-2.7-13.2-4.245l-9.34,4.554v1l17.29.386,5.249-.695Zm-5.558-21.535v-1a14.57,14.57,0,0,0-6.638-2.315l-7.024,5.249a10.9,10.9,0,0,0,7.333,3.241Zm1.621,31.028-1.621-.694-9.262,1-1.389,9.186,4.323.309,6.329-1Z" transform="translate(-2.607 -12.85)" fill="#333"/>
      <path id="Path_133832" data-name="Path 133832" d="M299.268,163.425a43.07,43.07,0,0,1-14.433-5.866l-.695,1.235c-4.169.695-8.336,1.389-12.659,2.162-4.245.771-8.567,1.389-12.967,1.775l-1.621-1.235v-1a16.107,16.107,0,0,0,1.621-8.567l-2.238-.309-1,.309-1-.309-1,.309L251.954,151v-4.323h-.927a61.563,61.563,0,0,1-4.631,12.813l-1.93.695-2.007-.695-2.624,1-.694-2.316A67.914,67.914,0,0,0,242,141.737c.309-5.712.849-11.347,1.466-17.059l-.385-1a121.745,121.745,0,0,1,27.169-3.474c9.262-.077,18.525-.464,27.71-1.081l1,.309,1.235-.309v2.933l-.927,3.628c-5.48.618-11.115,1.158-16.749,1.62-5.712.463-11.346.927-17.058,1.312a32.71,32.71,0,0,0-9.88.386,119.175,119.175,0,0,1-3.319,13.739h2.007a82.123,82.123,0,0,1,11.037-1.158c3.859-.077,7.642-.385,11.347-.772l1.621.309,18.37-3.319,2.007.695a4.511,4.511,0,0,0,1,2.933l-2.007,3.319-10.189,2.624v1l2.624.54,8.182-2.933a23.467,23.467,0,0,0,6.252,3.628l.309,1.389a9.414,9.414,0,0,0-3.936,1.93l-.309,1,3.937,1.93.694-.695,1,2.7-1.7,4.554-1.93,2.394-2.007.231Zm-54.184-46.312A96.676,96.676,0,0,1,246.7,96.12l-.308-1,1.7-1.93a44.754,44.754,0,0,1,12.813-1.7l1.234.309c.464-2.161.927-4.323,1.312-6.561l1.622-.309,7.95.618.309,1.7-.309,3.319,1.621.618,2.933-.926,1.312-5.326L281.516,84l2.007.54,5.248-.232,1.312.926v1l-.617,3.319,3.242.309,6.947-1a7.019,7.019,0,0,1,1.235,5.944c-.464,3.318-1,6.56-1.622,9.88-.695,3.241-1.312,6.56-2.007,9.8a137.866,137.866,0,0,1-17.984,2.161c-6.175.309-12.2.926-18.061,1.775l-3.937-.308-1.7.308-1.312-.308-8.567,1Zm14.433-9.186h-1.929l-2.007.695-.695,3.242,3.937-.308Zm1.93-8.876-1.543-.695-2.624.695-.695,3.318h3.627ZM259.9,132.628a14.524,14.524,0,0,1,5.558-1l3.627.309c4.091-.463,8.336-.849,12.582-1.158,4.245-.386,8.567-.54,12.967-.54l1.389,1v3.628a58.13,58.13,0,0,1-13.971,2.316c-4.939.232-9.8.54-14.587,1l-2.393-.385-4.864.695ZM276.961,149.3h-2.7l-4.168,1-1.7,4.323h2.316l8.181-1.7Zm-2.933-39.133a5.031,5.031,0,0,0,.618-3.551h-3.937l-1.312.618-.309,2.933Zm1.93-12.119-2.624-.694-1.7.694-.926,3.319,2.316.309,2.238-.695Zm13.507,8.568-.386-1h-1l-3.628,1-.308,2.624a7.1,7.1,0,0,0,4.631.387Zm.926-8.877a3.571,3.571,0,0,0-2.933-.618l-1.312,3.319,3.628.926Zm3.011,35.429H292.09v1H293.4Z" transform="translate(-52.396 -12.508)" fill="#333"/>
      <path id="Path_133833" data-name="Path 133833" d="M374.485,155.786a23.96,23.96,0,0,1-9.8-6.87,17.93,17.93,0,0,1-4.245-13.044,40.005,40.005,0,0,1,3.705-9.263,38.165,38.165,0,0,1,6.483-8.259,30.25,30.25,0,0,1,8.645-5.634l.386-1.235a47.457,47.457,0,0,1-1.312-8.8c-.232-3.01-.387-6.1-.387-9.185l.309-.927-.309-1.62a64.1,64.1,0,0,1,13.894.308,76.979,76.979,0,0,1,.695,14.666h.926c3.165-.926,6.252-1.7,9.34-2.47a55,55,0,0,1,9.571-1.389l2.7,1.235.617,9.185c-6.175,1.467-12.35,3.165-18.525,5.017a49.575,49.575,0,0,0-16.9,8.953,13.442,13.442,0,0,0-5.326,11.424,10.78,10.78,0,0,0,3.01,5.171,19.059,19.059,0,0,0,12.582,2.934l16.209-1.93c-.077,3.4-.077,6.792,0,10.111-3.319.849-6.638,1.544-9.957,2.239a55.612,55.612,0,0,1-10.189,1,33.656,33.656,0,0,1-12.118-1.62m.463-7.565-.309,1,1-.309Zm6.946,2.7h-1v.926h1Zm4.94-44.691h-.926v1.312h.926Zm25.549,3.01h-.926v1.235h.926Z" transform="translate(-95.655 -14.902)" fill="#333"/>
      <path id="Path_133834" data-name="Path 133834" d="M489.916,152.941a2.035,2.035,0,0,1,2.316-1l2.084.309c3.088-1.313,6.175-2.625,9.108-4.014a27.726,27.726,0,0,0,8.1-6.021l.695-1.7-.309-1,.309-2.934a18.882,18.882,0,0,0-11.269-3.627,23.264,23.264,0,0,0-8.181,2.392,36.77,36.77,0,0,0-7.179,4.863l-1.312,2.007h-1.93l-6.406-2.316v-3.319c1.157-3.241,2.315-6.483,3.55-9.648s2.625-6.252,4.168-9.339l-1.081-.309a97.755,97.755,0,0,0-11.27,2.006l-.695-2.7c.695-3.4,1.467-6.793,2.316-10.035a34.1,34.1,0,0,1,8.49-1,38.193,38.193,0,0,0,8.877-1,61.468,61.468,0,0,1,7.332-11.115l1.312-.309c4.168,1.08,8.414,2.084,12.581,2.933l.386,1.235a19.017,19.017,0,0,0-4.631,7.255c4.4,0,8.8.154,13.122.386a81.354,81.354,0,0,1,12.5,1.621l.695,1.93-2.778,7.873-3.551.618a51.48,51.48,0,0,1-9.186-.773,45.192,45.192,0,0,0-9.185-.848l-11.269,1.621-3.7,7.564h1.08a59.971,59.971,0,0,1,14.588-1,16.332,16.332,0,0,1,10.96,3.937l5.017,5.172a21.008,21.008,0,0,1,1.7,9.8,20.215,20.215,0,0,1-6.329,9.263A44.889,44.889,0,0,1,507.9,157.88c-4.631,1.312-9.417,2.393-14.279,3.319a16.75,16.75,0,0,1-3.705-8.259M509.6,148.7l-1,1,1,.309Z" transform="translate(-134.978 -15.761)" fill="#333"/>
      <path id="Path_133835" data-name="Path 133835" d="M625.732,137.4l-1.389-2.933,3.705-1v-1.389l-2.625-5.48-1.081-.385a100.189,100.189,0,0,1-12.89,2.547,72.294,72.294,0,0,0-12.89,2.778l-1-2.393a41.9,41.9,0,0,0,0-8.8l.617-1.235a32.971,32.971,0,0,1,10.652-2.856,69.476,69.476,0,0,0,10.883-1.775v-1.312l-1.312-2.315-3.937-.309c-3.936.695-8.026,1.235-12.117,1.853q-6.137.81-12.041,2.084l-1-2.624a29.333,29.333,0,0,1,1.622-9.8c3.318-.385,6.715-.926,10.11-1.62,3.474-.618,6.793-1.158,10.112-1.622v-1a9.9,9.9,0,0,1-2.007-7.256,65.173,65.173,0,0,1,11.27-2.933l1.312,2.007,5.326,8.49h2.933l6.329-.618v-1.62a61.173,61.173,0,0,0-2.624-9.494,23.77,23.77,0,0,1,6.947-2.316,30.944,30.944,0,0,1,2.316,7.719c.386,2.7.772,5.48,1,8.259a2.388,2.388,0,0,1-2.624,1l-.385,1,1,3.937a20.2,20.2,0,0,1-8.954,2.624l-.385,1.622,1.08,2.007h9.263l1-.387,2.316,2.624.308,7.873-1.929.926-1.081-.309L638,124.277l-.386,1.312a39.606,39.606,0,0,1,2.316,11.809c-3.473.463-7.178.848-10.883,1.235Zm-9.03,19.3a61.852,61.852,0,0,1-13.354-3.474A42.759,42.759,0,0,1,591.23,146.2l-.308-1.622a19.933,19.933,0,0,1,3.936-7.873l1.7-.618a65.206,65.206,0,0,0,12.426,5.248,56.249,56.249,0,0,0,13.816,2.239l.232,1.62L618.4,156.386Zm-1.235-35.969h-1.7v1h1.7Zm1.62-.386h-1.312v1h1.312Zm0-27.093v1.235l1-.308Zm18.834,36.278h-.926v1h.926Zm.385,1.62h-.926v.926h.926Zm11.964-31.106c-.695-2.547-1.312-5.248-1.853-7.95s-1-5.48-1.467-8.336l1.62-.618,2.624.308,4.323-1c.232,2.778.54,5.557.849,8.336.309,2.7.7,5.4,1.158,8.027a13.719,13.719,0,0,1-5.634,2.239Z" transform="translate(-177.318 -11.952)" fill="#333"/>
    </g>
  </g>
</svg>
