<svg xmlns="http://www.w3.org/2000/svg" xmlns:xlink="http://www.w3.org/1999/xlink" width="88.384" height="70.313" viewBox="0 0 88.384 70.313">
  <defs>
    <clipPath id="clip-path">
      <rect id="Rectangle_132" data-name="Rectangle 132" width="77" height="47.851" fill="none"/>
    </clipPath>
  </defs>
  <g id="Group_516" data-name="Group 516" transform="translate(15.579) rotate(19)">
    <g id="Group_516-2" data-name="Group 516" clip-path="url(#clip-path)">
      <path id="Path_146760" data-name="Path 146760" d="M23.676,45.888a2.5,2.5,0,0,1-.267-.128l.005-.017-.351-.12-.374-.086-.107-.065-.261-.06-.224-.078-.182-.091-.082-.029-.16-.1L21.64,45.1l-.107-.024-.107-.035.007-.025-.107-.036.007-.025-.176-.06.012-.057-.394-.087-.2-.027-.081-.041-.418-.143.007-.031-.35-.119-.031-.008-.351-.118-.035-.01.008-.032-.271-.133.01-.045L19,44.022l.014-.063-.391-.09-.146-.021v-.015l-.136-.048,0-.024-.177-.057,0-.019-.314-.107-.218-.074v-.016l-.088-.046.028-.119-.35-.118-.206-.049-.1-.089.027-.116-.351-.12-.227-.053-.019-.012.025-.1-.069-.023,0-.027-.279-.1,0-.007-.208-.072.01-.043-.053-.036-.022-.064-.05-.012.01-.047L15.4,42.1l-.2-.059,0-.024-.3-.1,0-.007-.063-.043-.005-.02.023-.1-.31-.142-.169-.057.038-.164-.2-.069-.011-.04-.024-.011.019-.081-.107-.036.018-.073-.4-.08-.092-.009-.007-.017.008-.038-.047-.041-.046-.092-.092-.022-.021-.08-.09-.053a.8.8,0,0,0-.4-.36l-.281-.113-.037-.128-.157-.126.027.1-.1-.236-.07-.059a.608.608,0,0,0-.089-.063v-.081l-.235-.119-.25-.093.01-.043-.222-.076-.049-.138-.107-.026-.1-.091-.018-.041-.249-.33-.15-.036-.035-.047a.578.578,0,0,1-.122-.145l-.041-.156-.093-.05-.038-.047.078-.33-.107-.024,0-.009-.018-.026-.007-.122-.1-.023-.033-.045a.348.348,0,0,1-.067-.143l0-.222-.2-.1a1.461,1.461,0,0,0-.107-.121.889.889,0,0,0-.057-.147l-.009-.242-.1-.1L9.8,36.6l-.038-.378-.045-.038L9.669,36.1l.016-.065-.1-.129-.023-.267-.012-.013-.064-.089.083-.756-.1-.021c0-.034,0-.07,0-.107l-.005-.075c.01-.021.075-.137.075-.137l.217-1.385-.087-.035.013-.182.064-.273-.05-.017.009-.028.087.021.107-.313h0l.036-.107.024.006.187-.549.043-.076.064.014.024-.069.03.007.059-.175.018.006.037-.107.025.005.025-.069.027.005.036-.1.024,0,.069-.2.1-.025.007-.032.031.007.15-.3.041-.113.094.023.049-.14.02.005.066-.191.091-.169.025-.068.011-.016.034.007.16-.27.028-.063.064.016.025-.068.027.006.068-.2.066-.016.073-.191.088-.132.078.019.027-.053.038-.011.028-.113.031-.057.053.013.06-.174.089.022.09-.267.1-.06.016-.067.062-.068h.009l.126.03.081-.242.176-.087.062-.114.136-.128c.022-.037.044-.076.066-.112l.572-.321.012-.02.053-.007.084-.077h.145l.073-.1.026-.012.207,0,.063-.129.11-.044s.043-.036.046-.037l.046.011.122-.09.126,0,.088-.067.237-.08.049-.041.221-.063.226-.16.2.045.045-.1.192.045.065-.143.046-.009.029-.053.024,0,.167-.127.149-.009s.1-.075.107-.078l.288.067.01-.036.063-.141.066-.038.174-.017.12-.075.053.016a.425.425,0,0,0,.242-.011l.06-.021.053-.043.033.007.131-.087H18.4V25.37l.3.027.021-.087a.449.449,0,0,0,.2-.018l.037-.013.393.093.032-.136H19.4l.127.028.047-.044h.029l.008-.033.048-.043.214,0,.019-.023.193.046.092-.091.164.038.016-.035.238.057.057-.063.356.084.016-.068.079.012a.464.464,0,0,0,.092.03l.061.014.125-.005.045.006,0-.011.1-.012.388.17.025-.107.1.024.01-.036.358.083.015-.057c.789.114,1.573.264,2.333.441,1.089.258,1.829.5,2.107.594.086.029.166.053.166.053l.257.1c.176.072.354.141.391.149a.676.676,0,0,0,.13.073,3.1,3.1,0,0,0,.567.258l.187.044.01-.006v.005l.35.119.082.019.142-.011-.008.03.377.1.4.157.107-.41.15-.7-.053-.011.023-.123-.049-.007.014-.092L30,25.963l.031-.152-.141-.061-.081-.437.025-.107-.068-.032.017-.134h-.009v-.008l-.053-.037.014-.081-.082-.053.03-.181-.085-.02,0-.281-.072-.013.036-.153-.121-.045-.007-.148-.053-.033.041-.481-.05-.029.033-.168-.078-.017a.534.534,0,0,0-.132-.327l-.021-.025a1.457,1.457,0,0,0-.071-.231l-.028-.073v-.352L29,22.268l-.019-.137.009-.276-.079-.021.058-.251-.045-.013v-.009l-.062-.026,0-.019-.117-.081-.007-.214.012-.074-.016-.011V21.1l-.075-.014-.013-.009-.084-.182.022-.17-.061-.027.01-.25-.057-.044.017-.12-.037-.017.029-.177-.053-.012-.018-.01.053-.245-.125-.107.034-.146-.045-.02.041-.175-.049-.011.022-.1-.048-.011.028-.129-.165-.065-.022-.028.026-.149-.069-.034.019-.368-.084-.017.057-.248-.079-.019-.049-.024.028-.31-.113-.1.029-.214-.064-.027.012-.061-.037-.023.029-.121-.027-.012a.624.624,0,0,0,.079-.329l-.01-.112.069-.289-.059-.014.022-.118-.049-.01.018-.113-.035-.007.037-.214-.032-.007.073-.367-.045-.009.029-.149.014-.041.067-.3a1.167,1.167,0,0,0,.236-.748v-.017l.053-.143a2.972,2.972,0,0,1,.329-.968l.033-.053s.05-.214.066-.3l.039-.1.032.005.092-.267.064-.089.117-.229.087.02.073-.214.031.006.063-.2h.009l.095-.248h.01l.121-.332.019-.094.013-.037.029.006.078-.192.018,0,.027-.073.042.01.127-.357.041-.192.053-.085.057-.118.065.013.05-.134.027.007.07-.192.053-.089.086.021.115-.345.049-.126h.019l.04-.107.03.005.05-.132.135-.272.041-.123.029.007.084-.219.018-.017.14.031.075-.214.039.01.034-.118.009,0,.045-.117.03.005L31.429,8l.024.005.13-.347.011-.057.027-.026.039.007.173-.244.046-.094.073.015.029-.076.059.011.037-.126h.011l.041-.107.029.007.042-.114.083.017.076-.354a2.619,2.619,0,0,1,.234-.313l.136-.038.03-.157.048-.066.041-.075a.956.956,0,0,0,.1-.122l.1.017.076-.2.134-.13.038-.075.078.011.064-.169.1-.147c.073-.116.727-.85.852-.962l.061-.053.042-.059.048-.006.025.006.143-.209.072.016.024-.059.036.007.047-.125.039.006.107-.311.116.024.059-.2h.01l.134.03.03-.083.06.013.084-.289.169-.061.074-.157.145-.046.166-.314.281-.09.01-.059h0l.174-.127.284-.084.032-.117.1-.018.073-.118.369-.148.064-.121-.107.03.527-.226.122-.1h.071l.167-.048.293-.169.28.021.41-.231.5-.023.012-.079.547.061L40.295.5h.068l.567.119V.613l.09.03h.053q.251.016.5.057l0,.013.112.038,0,.029.11.035L41.784.84l.231.076.014.05.173.069.152.233.1.022c.053.076.248.347.248.347l.091.026.107.16.053.04v0a.2.2,0,0,1,.02.048.761.761,0,0,0,.283.405,1.556,1.556,0,0,0,.12.3l.044.079.008.238.031.02-.031.119.087.037-.048.679h.005l-.04.164.048.01-.041.172.1.022c0,.026-.093.406-.093.406l.542.174c0,.005.088.151.088.151L44.607,5l.185.053,0,.019.134.045-.007.027.251.079,0,.011.157.087.2.3.068.013.074.128.089.021.016.023.117.114.047.245.152.125a.511.511,0,0,0,.041.125l.026.049.214.226.009.184.091.094.02.16.068.053-.057.284.127.029-.036.151.079.043c-.019.2-.086.83-.086.83l.173.123a.019.019,0,0,0-.009,0c-.014,0,.021.053.084.1l.622.331.023.156.418.138.276.38.118.026a.162.162,0,0,0,.024.019l.081.107-.006.046.083.094-.007.078.1.09-.011.044.081.081-.008.042.076.082-.036.151.107.049v.29l.067.013-.094.481.118.025,0,.192.065.013.067.848.554-.862.107-.045.088-.069h.006l.214-.1.039.009.114-.1.107-.035.214-.136.007-.027.074-.028.022-.053.068-.044a1.684,1.684,0,0,1,.339-.256,1.16,1.16,0,0,0,.233-.134l.177-.1a.379.379,0,0,0,.267-.1l.1-.079,0-.022.014-.006a1.354,1.354,0,0,0,.14-.153.885.885,0,0,1,.092-.1l.236-.006.053-.155.184-.012.092-.194.136-.078.086-.007.244-.2.184-.078.142-.107.076-.006.138-.107h.014l.146-.088a.76.76,0,0,1,.1-.012.846.846,0,0,0,.535-.2,1.313,1.313,0,0,0,.288-.081.93.93,0,0,1,.107-.036h.082L55,8.693l.082-.068.248-.022.15-.058.57-.38.218.006.088.021.1-.089.166.039.015-.036.205.049.034-.141.18.016.053-.039.324.076.034-.143.14.033.017-.033.065.015L57.7,7.9l.029.007.089-.1.083-.046.3.069.2-.165a.61.61,0,0,0,.195.007l.043-.005.41.1.009-.034.143.033.008-.033.311.03.026-.062h.017l.172.04.017-.035.206.048.009-.035.107.025.008-.034.107.025.007-.036.107.023.053-.06.141.032.016-.034.067.016.017-.034.275.065.033-.136h.024l.334.078.01-.037.38.135.018-.076.016-.034.207.049.01-.035.082.019.131-.121.207.005.024-.025.141.032.015-.034.353.084.007-.037.016-.032.206.048.012-.041.691.091.107.027.009-.035.141.032.008-.034.177.042.009-.036.179.042V7.668l.456.142.016-.064.016-.032.171.04.007-.035.107.025.007-.036.144.034V7.734l.455.145.014-.058.275.1.071.016-.014.058.419.07.535.044,0,.011.107.037-.005.024.07.022-.007.03.14.047L67.38,8.3l.351.118.107.025-.03.129.415.071.112.011.19.065.611.143.118.061.086.034.039.107.176.076-.006.037.385.094.149.023,0,.012.315.107h0l.374.127.061.01a.607.607,0,0,0,.146-.007l.153.078.1.036.027.107.174.038.053.038.044.024.077.023a.516.516,0,0,0,.174.007l.112.037.005.018.066.038-.012.05.127.045.251.117.173.059-.022.091.35.121.248.06-.032.14.068.023-.008.029.35.121.321.074.244.083-.026.113.388.094.214.032.045.015.066.036-.015.066.173.059-.005.019.107.033-.005.025.069.025,0,.028.228.078,0,.014.107.06-.01.037.2.069,0,.013-.018.076.1.035-.006.025.28.1v.007l.194.067,0,.018.083.046.035.132.23.053a.388.388,0,0,0,.126.143l.1.225.107.053-.007.03.107.035-.007.025.174.06,0,.017.207.071.07.038-.005.023.3.15.111.041-.022.094.318.107.084.179.374.163.089.206.16.037.1.089a.808.808,0,0,0,.315.261l.214.107.1.059-.033.135.18.063.01.064.145.053.136.267L80,15.2l.07.024-.008.029.264.091.011.025-.022.093.35.12.049.013q.006.017.011.042l-.06.256.152.125c.024.081.087.312.087.312l-.031.129.241.082a.757.757,0,0,0,.03.1l0,.033-.049-.012-.1.278h-.008l-.037.107-.025-.006-.047.14-.02-.005-.06.173-.09-.021-.088.26-.1.06-.014.065-.342.182L80.1,18l-.03.01-.357.258a.29.29,0,0,0-.184.075l-.132.065-.1.087-.175-.041-.039.084-.107,0-.128-.032-.016.036-.2-.049L78.6,18.6h-.022l-.021.022-.14-.034-.017.035-.065-.017-.048.1-.315.012-.149.122-.284.026-.038.05-.408.008-.028.122-.111.014-.1.251-.168.715.107.026-.013.06.01.087.014.07-.011.016a.791.791,0,0,0-.053.126l-.1-.023-.049.139-.02,0-.084.243-.081-.02-.082.234-.066.11-.02.043-.141.063-.107.171-.091.025-.072.132-.058.014-.068.122-.3.157-.042.084-.056.016-.058.1-.018.015-.188.08-.047.036-.187-.044-.047.107-.2.08-.179.129-.053-.012L74.2,22.5l-.189-.007-.107.091-.145-.036-.053.066-.283-.068-.024.1-.058,0-.023.027-.249-.058-.009.036-.06.135-.29-.068-.011.036-.132-.033L72.5,22.8l-.21.167a.484.484,0,0,0-.125.145l-.045-.01-.035.107-.025-.005-.049.138-.021-.005-.071.21h-.014l-.024.068-.029-.007-.119.35-.025.107-.022,0-.154.286-.036.084-.019-.005-.153.229-.076.016-.078.144-.059.017-.051.094-.022.01a1.143,1.143,0,0,0-.136.107H70.9l-.217.172a.661.661,0,0,1-.238.182l-.05.028h-.132l-.1.084-.032-.007L70,25.593l-.311.016-.007.011-.13-.032-.016.035-.066-.016-.017.032-.169-.038-.04.17-.277-.024-.053.062-.282-.022-.1-.024-.027.061-.549-.075-.088.034a.8.8,0,0,0-.292.244l-.083-.022-.048.137-.02,0-.036.1-.022-.005-.119.349-.082.023-.02.087-.074.025-.06.118-.053.014-.037.07-.068-.014-.154.279-.016.033-.119.029-.045.19c-.028.029-.053.059-.08.087l-.048.028-.1-.023-.172.229-.059.094-.272.128-.015.057-.125.053-.009.037-.335.146-.007.035-.029-.006-.174.257-.173.072-.026.111-.086.053-.185-.043-.043.1h-.02l-.281-.065-.007.035-.143-.033-.021.084-.163-.015-.091-.021-.016.035-.208-.049-.025.107-.285-.068-.007.036-.107-.025-.009.035-.107-.025-.009.038-.214-.05-.025.1-.249-.057-.014.059-.545-.088v.01l-.107-.025-.009.034-.249-.058-.008.031h-.008a1.619,1.619,0,0,0-.214-.082l-.214-.063-.157.163-.134-.03-.169.225-.087-.021-.083.242-.172.081-.022.048-.084.026-.086.2-.253.135a.411.411,0,0,0-.245.1l-.058.045-.05.1-.3.153-.014.061-.071.03-.008.009-.107.041-.267.187-.2-.046-.08.175-.214.136-.289.192-.151-.034-.274.2-.193-.044-.053.115-.023,0-.01.012-.058-.015-.172.166-.116.02-.051.018-.091.072-.1-.024-.285.214-.312.026-.074.123-.11.058-.14-.033-.2.207-.443.041-.085.072-.177-.042-.016.035-.14-.034-.053.062-.139-.032-.053.115-.221.019-.02.037-.281-.13-.053.214-.1.107-.038.028-.186-.046-.118.351-.076.33.416.467.107.038-.005.022.235.082.05.114.071.046.026.1.243.118.08.053-.027.093.244.082-.028.119.351.12.033.011-.022.1.208.071-.02.087.488.166-.005.022.349.121.07.016.044.111.107.058.01.036.214.145.2.063.013.047.02.01,0,.014.256.2.578.271.01-.041.138.047,0,.014.1.034L58,36.28l.142.048.321.135.234.071-.006.022.1.036-.006.025.349.117.359.084L59.5,36.8l.413.146L59.905,37l.4.087.16.019a.462.462,0,0,0,.225.122l.053.012h.117l.073,0,.188.042.015-.033.312.074.007-.037.035.009.3.137.053-.123.082.008.223.012.15.069.247-.119.179.041.016-.03.421.1.028-.119.152,0,.008-.032h.027l.01-.011.042.01.027,0,.079.019.015-.032.107-.021.023-.026.041.01a.772.772,0,0,0,.164.061.594.594,0,0,0,.267,0l.122-.027.035-.041.229-.02,0-.02.148,0,.014-.06.024-.026.391.036.009-.038.6-.071L65.89,37l.053-.064.428.1L66.38,37l.064-.14.047-.023.18.042.015-.034.063.014.016-.032.207.048.009-.034.057-.125a.86.86,0,0,1,.091,0l.25.028.053-.1.147.034.058-.063.142.034.015-.034.129.029.186-.144.187.044.015-.034.2.048.009-.036.107.025.009-.033.016-.036.171.04.008-.035.143.035.009-.035.214.049.009-.036.016-.032.244.056.009-.038.177.042.008-.035.107.026.014-.066.321.048.034-.045.127.029.016-.033.171.042.009-.037.064-.136.432.1.009-.036.146.035.008-.036.107.026.01-.038.107.026.032-.142h.005l.081-.056.519.122.094-.091.238.053.137-.117.177.041.014-.024.058.014h.124l.057-.006.192.045.016-.033.066.014.038-.084h.045l.078-.053.359.034.065.016.015-.033.136.03.067-.075.059-.04.3.069.008-.035.025-.053.53.085.028-.119.118.029.371.145.021-.091.142.034.009-.037.321.075.008-.035.144.034.036-.16a.363.363,0,0,0,.057-.026l.3.071.027-.1c.073,0,.16.005.233.01s.138.006.2.005c.035,0,.085.007.133.007l.359.085.05-.152.3.071.027-.029.262.09.089.18.046.01.028.075.154.077.1.2a1.662,1.662,0,0,1,.107.214c.025.053.049.107.075.154l-.007.54.048.01v.026l.014.013-.033.144.077.035v.025l-.114.285a9.02,9.02,0,0,1-.321.936l-.112.071-.007.032-.075.032-.053.1-.084.019-.073.147-.149.152-.016.032-.235.115-.1-.023-.066.078-.2.138-.01.014-.087.006-.093.085a1.089,1.089,0,0,0-.258.709l0,.086-.033.142-.036.1-.025,0-.118.35-.017.072-.073-.019-.07.21-.015,0-.119.351-.026.107-.167.07-.023.1-.073.066-.116.187-.189.075-.018.08-.05.024a1.48,1.48,0,0,0-.511.516l-.094.059c-.021.016-.042.032-.061.049l-.064.014-.388.206-.028.026h-.123l-.305.221-.4-.03-.039.175-.214.107-.083.19-.214.925-.017.13-.057.176-.049.084-.24.509.1.042-.033.147a1.187,1.187,0,0,0-.281.207l-.066-.014-.081.229-.088.173-.033.091-.029.007-.006.009-.016,0-.163.3-.036.028-.02,0-.146.08-.016,0-.214.107-.026.023-.295-.011-.063.154c-.008,0-.16-.037-.16-.037l-.03.016a.607.607,0,0,0-.174-.072l-.053-.013H70.6l-.068.005-.006-.005.007-.031-.081-.029-.014-.012a.506.506,0,0,0-.149-.063l-.019-.069L70.1,47.18a.626.626,0,0,0-.327-.206.711.711,0,0,0-.2-.013l-.069,0-.3-.069-.017.074-.28-.032-.3-.069v.006c-.192-.072-.439-.16-.573-.214l-.4-.153-.012.053-.027-.006a.467.467,0,0,0-.18-.084l-.05-.011h-.167l-.182-.041-.017.036-.562-.133,0,.016-.329-.107-.014.009c-.14-.04-.358-.107-.535-.166l.008-.036-.289-.068-.267-.1c-.084-.03-.579-.176-.716-.21l-.5-.115-.007.037-.249-.059,0,.017-.389-.112-.173.008-.086-.029-.107-.025-.3-.1-.048-.037a.7.7,0,0,0-.191-.075.875.875,0,0,0-.342,0,1.19,1.19,0,0,0-.333-.153A.83.83,0,0,0,61.491,45l.01-.047-.413-.072-.5-.047-.968-.228-.01.035c-.006,0-.107-.025-.107-.025v.012l-.094-.007-.042-.028-.543-.289-.044.187-.415-.152-.019.086-.3-.072L58,44.411l-.523-.122-.009.035-.535-.125-.009.035-.107-.025-.008.035L56.7,44.22l-.007.035-.179-.042-.008.037-.137-.032-.044.063-.011,0a6.549,6.549,0,0,0-3.421.273c-.377.107-.769.221-1.169.336-.753.22-1.525.445-2.235.623-.352.09-.695.192-1.041.295a14.419,14.419,0,0,1-1.858.466c-1.57.249-2.533.36-3.551.478-.85.1-1.742.2-3.055.391a89.736,89.736,0,0,1-9.813-.063l-.124-.036-.926-.157-.006.018L28.7,46.76l-.029.126h-.02a.613.613,0,0,0-.256-.132l-.053-.013h-.128l-.06.005-.191-.045-.016.034-.063-.014-.037.078-.058,0L27.2,46.6l-.011.047-.053-.029-.481-.113h-.258l-.582-.181a1.02,1.02,0,0,0-.206-.078.8.8,0,0,0-.189-.018l-.081,0-.189-.044-.543-.243-.021.09a.01.01,0,0,1-.011,0l-.2-.066-.575-.137-.007.035-.107-.024Z" transform="translate(-4.405 -0.233)" fill="#4eb6bf" fill-rule="evenodd"/>
      <path id="Path_146761" data-name="Path 146761" d="M.122,61.58c.032.075.057.134.064.15.024.016.053.035.078.049a.179.179,0,0,1,.01-.028l.114.027a.041.041,0,0,0-.007.027l.086.021a.147.147,0,0,1-.006.028l.314.074a.17.17,0,0,1-.007.028l.114.027c0,.009,0,.019,0,.029.135.02.267.043.406.065a.235.235,0,0,1-.007.028l.086.021a.123.123,0,0,1-.007.029c.053.034.107.065.16.1a.248.248,0,0,0-.006.027l.432.072a.1.1,0,0,1-.006.028l.136.064a.27.27,0,0,1-.006.028l.053.013a.242.242,0,0,1-.006.028,2.743,2.743,0,0,0,.335.107c.066.029.27.041.338.061a.386.386,0,0,0,.2.034c.053.053.535.347.554.255,0,.008,0,.018-.006.027l.2.048c0,.007,0,.018-.007.027l.089.02c0,.011,0,.02-.006.028.067.015.133.032.2.049A.233.233,0,0,1,4,63.2l.057.014c0,.009,0,.018-.005.029l.256.06c.021.045.178.071.2.116l.084.021a.2.2,0,0,1-.006.027l.027.009a.309.309,0,0,0,.006-.03l.116.027c0-.009,0-.018.006-.029.019,0,.039.01.059.013,0-.009-.136,0-.133-.007.03,0,.06-.007.092-.008a.229.229,0,0,1,.085-.1l.029.005c.047-.079.1-.157.144-.237.053-.178.1-.356.157-.535l.028.007c.007-.029.014-.057.02-.086a.1.1,0,0,1,.029.006c.009-.088.022-.177.03-.267l.031.007c.06-.307.125-.613.185-.922l-.028-.005c.012-.053.027-.116.038-.171l-.029-.006c0-.061.009-.12.013-.18l-.029-.005c0-.021.009-.04.014-.057l-.027-.009c-.006-.074.045-.1.06-.137.013-.053.028-.114.04-.171l-.028-.007c.032-.092.063-.184.094-.277l-.027-.007c0-.12.1-.262.053-.351.04-.17.08-.341.12-.513l-.049-.042c0-.033-.006-.06-.01-.094a1.461,1.461,0,0,0-.539-.005l-.144-.033c-.026.025-.053.048-.078.073-.02-.006-.039-.009-.057-.013l-.072.042-.053-.012c0,.009,0,.021-.009.028L4.7,59.349a.26.26,0,0,1-.006.029c-.018-.005-.038-.01-.059-.014a.119.119,0,0,1-.006.027l-.091.01a.609.609,0,0,1-.045.053l-.053-.013c-.024.022-.053.047-.076.071H4.237a.444.444,0,0,1-.041.053l-.053-.013c0,.01,0,.018-.006.028l-.061-.016a.175.175,0,0,1-.006.03,1.415,1.415,0,0,1-.149-.005c-.06.047-.121.092-.181.139l-.187.017c-.012.016-.027.035-.04.053a.457.457,0,0,0-.06-.012c0,.008-.005.018-.006.027L3.391,59.8,3.1,60l-.364.005c-.005.019-.011.04-.015.053a1.2,1.2,0,0,1-.286.053.257.257,0,0,0-.006.028c-.016,0-.038-.009-.053-.012-.035.033-.076.061-.111.1l-.059-.016a.181.181,0,0,1-.007.029l-.086-.02c-.047.037-.1.076-.145.116-.033,0-.061.006-.095.007a9.774,9.774,0,0,1-.968.374,4.2,4.2,0,0,1-.65.273c-.347.169-.259.273-.129.588" transform="translate(-0.007 -27.572)" fill="#f8c83e" fill-rule="evenodd"/>
      <path id="Path_146762" data-name="Path 146762" d="M13.04,50.407a4.148,4.148,0,0,1,1.982-2.094A1.775,1.775,0,0,1,16,49a1.38,1.38,0,0,0,2.362.017,1.768,1.768,0,0,1,2.043-.714,1.448,1.448,0,0,1-.9-1.841l0-.011a6.61,6.61,0,0,1,3.635-.283,7.165,7.165,0,0,1,2.159.356,3.446,3.446,0,0,1,.2,3.642c-.49.889-.274,1.352.58,1.564.957.24,1.6,1.218,2.7,1.083a.957.957,0,0,1,.345.347,1.249,1.249,0,0,0,1.319.957c.353,0,.7-.007,1.059-.033,3.384-.253,4.142.782,2.656,3.733a2.756,2.756,0,0,0-.369,2.6c.424,1.05-.366,1.555-1.39,1.239-1.484-.458-1.973.033-1.752,1.514a2.309,2.309,0,0,1-1.345,2.3,2.122,2.122,0,0,0-1.248,1.179c-.36,1.1-1.062,1.3-2.052.866-.98-2.352-3.154-2.71-5.27-3.032-2.623-.4-3.044-.9-2.522-3.535a1.3,1.3,0,0,0-.207-1.006,1.181,1.181,0,0,1,.364-1.707,1.289,1.289,0,0,1,.481-.158A3.387,3.387,0,0,0,22.671,56.3c.556-1.274-.491-2.059-1.2-2.88-.342-.4-.923-.5-1.326-.861-1.371-1.22-1.375-1.214-2,.374-.366.934-1.865,1.073-2.887.2a14.873,14.873,0,0,1-2.219-2.732" transform="translate(-6.069 -21.423)" fill="#49b5be" fill-rule="evenodd"/>
      <path id="Path_146763" data-name="Path 146763" d="M110.363,28.707a4.545,4.545,0,0,1-3.788,3.753,1.842,1.842,0,0,0-1.507,1.028,3.554,3.554,0,0,1-3.261,2.106,1.844,1.844,0,0,0-1.571.931,4.166,4.166,0,0,1-1.912,1.538c-.391-.4-.412-.966-.642-1.443-.488-1,.072-1.331.988-1.418a5.011,5.011,0,0,1-3.41-1.117,2.057,2.057,0,0,0-2.6-.238c-.621.425-1.372.226-2.075.253-1.778.073-2.285.943-1.564,2.516A10.132,10.132,0,0,0,91.532,40.4a4.035,4.035,0,0,1-2.058.979c-.15.07-.3.156-.453.218l-.027.013c-.214.188-.53.034-.748.218h.006c-1.359-.436-.9-1.514-.695-2.34a2.551,2.551,0,0,0-.673-2.88c-.842-.767-.141-3.1.8-3.705,1.508-.98,3.3-1.193,4.862-1.989.453-.232.977-.456.407-1-1.433-1.37-1.886-2.8-.512-4.481.135-.164.087-.458-.2-.765-1.052.738-.905,2.638-2.531,2.809-.119-.007-.276.011-.339-.063-1.474-1.679-3.458-1.139-5.3-1.223-2.613.164-4.5-2.269-3.446-4.437a2.864,2.864,0,0,1,1.217-1.287.476.476,0,0,1,.456.143l-.015-.012c.075.16.168.16.278.033l.439-.23c.787.695.1,2.2,1.42,2.631.182-.358-.1-.558-.208-.8-.177-.4-.31-.807.133-1.107a1.1,1.1,0,0,1,1.179.044,3.412,3.412,0,0,1,1.244,1.245A3.374,3.374,0,0,0,88.5,23.581c.821.327,1.471.18,1.643-.721.345-1.8,1.541-2.4,3.183-2.484,2.028.364,2.3.729,2.11,2.816-.011.114-.119.308-.082.33,1.3.72,1.477,2.256,2.339,3.212a5.289,5.289,0,0,0,2.156,1.387,26.581,26.581,0,0,0,6.94,1.408c.621.006,1.157-.555,1.747-.82a1.65,1.65,0,0,1,1.833-.007" transform="translate(-37.385 -9.483)" fill="#47b4bf" fill-rule="evenodd"/>
      <path id="Path_146764" data-name="Path 146764" d="M80.44,30.241a2.994,2.994,0,0,0,1.5-2.192c.214-.788.491-1.337,1.214-1.013a1.227,1.227,0,0,1,.383,1.711,2.92,2.92,0,0,0-.267.455c-.136.535-1.039.695-.83,1.258a4.007,4.007,0,0,0,1.414,2.2c.291.186.562.407.846.615a1.439,1.439,0,0,1-1.288,1.106c-1.155.177-2.008,1.321-3.309.974a.481.481,0,0,0-.538.371.992.992,0,0,1-1.076.687c-.7.024-1.538.145-.441,1.064.379.321-.065.6-.31.843-.385.374-.556.712,0,1.144,1.293,1.012,1.382,1.35.938,2.8-.274.895-.666,1.8.174,2.615a4.617,4.617,0,0,1-.621.267c-.546.137-.609.435-.343.875.045.127.045.306-.034.316a4.683,4.683,0,0,0-3.486,1.744c-.374.5-1.475.535-1.7,1.5-.064.279-.365.591-.628.57-1.783-.141-3.073,1.019-4.564,1.644-.362.151-1.413-.283-.538.772.211.252.013.778-.272.956-1.118.7-1.186,1.785-1.235,2.922a1.982,1.982,0,0,1-.725,1.563c-.662.5-.489,1.128-.333,1.768a3.966,3.966,0,0,1-2.529.169c-.647.014-1.337.078-1.637-.678-.267-.67.174-1.107.618-1.513.623-.566.813-1.127.071-1.762-.707-.6-.359-1.123.17-1.61a.717.717,0,0,0,.267-.727A1.479,1.479,0,0,1,61.289,53c.214-.656.695-.819,1.342-.855,1.8-.1,1.818-.152,1.106-1.762a1.881,1.881,0,0,1-.16-.493,1.18,1.18,0,0,1,.107-.468,2.119,2.119,0,0,1,.3-.374c.053-.06.107-.115.16-.176.151-.187.3-.379.44-.573a2.129,2.129,0,0,1,1.3-.886,1.773,1.773,0,0,0,1.628-1.736c.2-1.23,1.7-1.841,3.7-1.619.867.093,1.38-.1,1.629-.922a1.407,1.407,0,0,0-.071-1.206c-.364-.571-.721-.035-1.066.069-.663.2-1.328.325-1.733-.384a1.344,1.344,0,0,1,.543-1.851c1.312-1,2.673-1.76,4.409-.97,1.016.463,1.618.063,1.633-1.064a2.83,2.83,0,0,1,1.429-2.5c.122-.107.244-.214.369-.321.381-.437.9-.836.389-1.5-.8-1.05-.2-1.648.741-1.985.616-.22.988-.489.953-1.17" transform="translate(-27.981 -12.539)" fill="#4bb6c5" fill-rule="evenodd"/>
      <path id="Path_146765" data-name="Path 146765" d="M52.543,1.239C54.226.04,55.972-.554,57.906.69a2.649,2.649,0,0,0,.155,1.555.933.933,0,0,1-.295,1.286.918.918,0,0,1-.115.061c-.294.169-.784.448-.466.778,1.158,1.2.267,1.481-.659,2.09a4.13,4.13,0,0,0-1.1,5.789,24.821,24.821,0,0,0,2.78,4.058c.3.795-.309,1.2-.728,1.689a4.374,4.374,0,0,1-.343.34,1.231,1.231,0,0,1-.839.417.853.853,0,0,1-.361-.3c-.3-.387-.623-.669-1.233-.326.087.685,1.06.326,1.176.929a1.879,1.879,0,0,1-1.612,1.806c-.531-.261-1.206-.642-1.647-.191-1.662,1.686-3.539.744-5.311.481-1.016-.15-1.959-.754-2.284.833-.053.252-.411.4-.714.451-.6-1.88-1.367-3.727-1.209-5.767.208-2.513,1.237-3.763,3.521-4.289.77-.176,1.41-.148,1.621.824.284,1.312,1.5,1.464,2.468,1.672,1,.211,1.657-.688,1.991-1.472.428-1.009-.621-1.062-1.207-1.319a3.726,3.726,0,0,1-1.93-1.746c-.623-1.233-.217-2.11,1.172-2.188,1.276-.072,1.97-.992,2.9-1.572a.6.6,0,0,0,.024-1.046c-.986-.748.946-1.5-.065-2.293-.588-.466-1.435-.962-1.054-2" transform="translate(-20.051 0)" fill="#33b0bf" fill-rule="evenodd"/>
      <path id="Path_146766" data-name="Path 146766" d="M121.268,26.671a4.934,4.934,0,0,0-2.445.849,3.422,3.422,0,0,1-2.844.6c-.352-.07-.675-.017-.877-.4a1.391,1.391,0,0,0-1.969-.6,2.259,2.259,0,0,1-2.953-.88c-.722-1.065-1.843-1.069-2.962-1.1.682-2.2.682-2.2-1.832-3.065.361-.808,1.117-1.538.558-2.559-.423-.764-1.186-.677-1.833-.9-.411.012-.406-.2-.263-.484a2.754,2.754,0,0,1,3.2,1.276c.5.7.965,1.465,2.048,1.6-.243-.855-1.729-1.088-1.088-2.023.579-.84,1.5-.2,2.257.093,1.325.52,1.6-.654,2.071-1.37.337-.513.145-1.312.8-1.706a10.537,10.537,0,0,1,3.98,1.695c-.628,1.77-2.248,1.624-3.776,2.014,1.846.111,3.069.8,2.921,2.827-.028.372.214.793.574.8a27.158,27.158,0,0,0,4.413.206c.71-.1,1.176-.439.535-1.342-.584-.823-.474-1.521.841-1.1a6.659,6.659,0,0,1,1.95,1.476c1.047,1,.923,2.039-.206,2.965a6.518,6.518,0,0,1-3.1,1.129" transform="translate(-48.29 -7.448)" fill="#34afb9" fill-rule="evenodd"/>
      <path id="Path_146767" data-name="Path 146767" d="M111.388,79.634a.246.246,0,0,0-.14.208c-.157.312-.535.142-.748.339l-.03.009a12.207,12.207,0,0,1-3.007-.565,47.9,47.9,0,0,0-8.51-2.315c-2.929-.518-4.379-2.49-5.469-4.943a.866.866,0,0,1,.1-.679.8.8,0,0,1,.94-.295c1.291.3,2.312.5,3.1-1.161.618-1.3,4.674-.759,5.286.764.428,1.073,1.39,1.361,1.871,2.131,1.534,2.432,3.24,1.982,5.316.744,1.565-.936,2.425-.37,2.28,1.18-1.756,1.062-1.756,1.062-.887,2.912a1.424,1.424,0,0,1,.191.993,1.447,1.447,0,0,1-.291.679" transform="translate(-43.493 -32.344)" fill="#21abb5" fill-rule="evenodd"/>
      <path id="Path_146768" data-name="Path 146768" d="M67.324,76.313c-1.008-.847-1.147-1.387-.281-1.829,1.271-.654,1.02-1.745.954-2.716-.053-.8-.11-1.222.851-1.529.977-.315.909-.946-.019-1.676a1.771,1.771,0,0,1-.385-.352.489.489,0,0,1,0-.648c.168-.181.433-.313.6-.077.79,1.1,1.528.424,2.275-.035a10.616,10.616,0,0,0,1.192-.764,1.189,1.189,0,0,1,1.525-.257c.778.384,1.106.033,1.253-.967s.916-1.15,1.672-1.133c.88.023,1.069-.306.791-1.06-.272-.727.175-.8.714-.8.791.005,1.556.71,2.368.086a.656.656,0,0,1,.285.2,1.1,1.1,0,0,0,.374.369,19.244,19.244,0,0,0,6.9,2.814c-2.081.126-4.09,1.19-6.211.622-.9-.241-1.594-.294-2.166.521-2.218,1.316-4.149,3.06-6.393,4.342a1.438,1.438,0,0,0-.813.892c-.241,1.314-1.1,2.326-1.619,3.5a7.421,7.421,0,0,1-3.02.358c-.276.088-.588-.053-.845.134Z" transform="translate(-30.936 -29.074)" fill="#3cb2c1" fill-rule="evenodd"/>
      <path id="Path_146769" data-name="Path 146769" d="M52.446,2.318c.355,1.137,1.443,1.666,2.105,2.54-.058.351-.362.448-.584.622-.416.326-.472.546.019.938.868.695.825,1.176-.089,1.654a2.811,2.811,0,0,0-1.171.745,2.125,2.125,0,0,1-2.175.839c-.924-.1-1.261.452-.868,1.323a3.017,3.017,0,0,0,2.026,1.846,5.441,5.441,0,0,1,1.024.282,1.037,1.037,0,0,1,.287,1.812,8.867,8.867,0,0,0-.92,1.047,1.631,1.631,0,0,1-2.255.226c-.467-.311-1.032-.285-1.491-.543-.39-.218-.829-.4-.836-1.011-.007-1.058-.02-.954-1.01-.748-1.048.221-1.513,1.373-2.7,1.43-.468.021-.41,1.016-.581,1.573-.09.281-.144.573-.214.86a4.56,4.56,0,0,1,.54-3.224A34.052,34.052,0,0,1,50.6,3.632a4.631,4.631,0,0,1,1.849-1.314" transform="translate(-19.953 -1.079)" fill="#46b5c4" fill-rule="evenodd"/>
      <path id="Path_146770" data-name="Path 146770" d="M74.878,79.848c-.272-.285-.783-.646-.235-.969a2.739,2.739,0,0,0,1.245-2.208,1.931,1.931,0,0,1,1.642-1.811,1.69,1.69,0,0,0,1.337-.757,3.582,3.582,0,0,1,2.459-1.829c.774-.214,1.053-1.363,2.08-1.107a2.356,2.356,0,0,1,1.572,1.1c-.022.117-.053.232-.068.348-.1,1.2,1.5,1.39,1.471,2.787-.02.9,1.492,1.235,2.431,1.729,2.665,1.407,5.648,1.565,8.447,2.406.446.137.952.136,1.244.593a5.666,5.666,0,0,1-3.135-.645,38.446,38.446,0,0,0-5.568-1.3c-.9.174-1.693-.477-2.59-.31-.206-.023-.412-.044-.619-.066-.526.165-1.024-.24-1.547-.081l-.126-.04-.127.034c-.251.156-.555.016-.812.145-1.914.274-3.709,1-5.586,1.42a3.35,3.35,0,0,1-1.363.26c-.22.18-.506.022-.739.14a.483.483,0,0,1-.323.007c-.26.114-.562-.029-.812.134a.393.393,0,0,1-.28.019" transform="translate(-34.625 -33.104)" fill="#12aaba" fill-rule="evenodd"/>
      <path id="Path_146771" data-name="Path 146771" d="M106.021,14.635c.02,1.7-.962,2.914-2.024,4.164-.9-.47-1.633-1.454-2.852-1.093-.209.564.281.714.583.937.277.207.646.293.927.5a.677.677,0,0,1,.223.8c-.122.326-.41.374-.732.335a2.434,2.434,0,0,1-2.06-1.226,3.788,3.788,0,0,0-3.357-2.226,1.043,1.043,0,0,1-1.157-.09c-.259-.136-.668-.422-.8-.239-1.347,1.9-3.087.095-4.608.495-.642.171-1.7.157-1.691-1.089a10.021,10.021,0,0,1,5.111-2.259,22.134,22.134,0,0,1,9.812-.039c.933.237,1.742.715,2.626,1.033" transform="translate(-41.174 -6.081)" fill="#1aabb9" fill-rule="evenodd"/>
      <path id="Path_146772" data-name="Path 146772" d="M92.817,70.447a2.06,2.06,0,0,1-1.572-1.1c.542-1.664.89-1.85,2.352-1.127.919.454,1.764,1,2.587-.2.3-.439.864-.2,1.33-.138.8.1,1.554.656,2.406.267a63.384,63.384,0,0,0,6.3-.867,3.106,3.106,0,0,1,1.574.069c.4-.057.544.221.549.518a1.844,1.844,0,0,0,1.471,1.9c1.614.535,1.614,2.349,2.415,3.528.282.414-.345,1.206-1.21.676.186-.295.481-.588.086-.922a1.16,1.16,0,0,0-1.325-.2,10.974,10.974,0,0,0-2.013,1.114,3.282,3.282,0,0,1-2.357.491c-.34-.006-.745-.1-.855-.509a3.694,3.694,0,0,0-3.172-2.63c.486-1.125.456-1.076-.485-1.673a5.9,5.9,0,0,0-1.992-.709c-1.572-.341-1.972-.078-2.451,1.557-.173.588-.413.975-1.134.607-.777-.4-1.793.043-2.5-.666" transform="translate(-42.465 -31.282)" fill="#31aeb7" fill-rule="evenodd"/>
      <path id="Path_146773" data-name="Path 146773" d="M98.143,51.185c-1.818-.078-1.818-1.823-2.592-2.854-.146-.2-.089-.555-.313-.789-.509-.535-.962-1.158-.5-1.89a2.528,2.528,0,0,1,2.031-1.266c1.109.012,2.144.342,3.084-.676.33-.361,1.155-.012,1.63.35a6.106,6.106,0,0,0,4.154,1.608.691.691,0,0,1,.607.3c.066.088.148.248.111.312a.77.77,0,0,1-.348.345c-.39.155-.618-.347-.972-.3-.456.063-.949.379-.431.769.737.557.358,1.15.337,1.752-.58.946-1.611.772-2.383.687a3.687,3.687,0,0,0-3.034.9,3.07,3.07,0,0,1-1.377.748" transform="translate(-44.001 -20.271)" fill="#38b0bc" fill-rule="evenodd"/>
      <path id="Path_146774" data-name="Path 146774" d="M50.447,75.17c.09.143.178.286.267.428a.492.492,0,0,1-.139.682l-.021.013c-.4.5-1.492.862-.069,1.574.756.378.622,1.31-.05,1.9-1.5,1.3-1.47,1.468.352,2.11a40.219,40.219,0,0,1-14.423-1.247c.015-.3.118-.449.422-.246.934.343,1.568.174,1.692-.949.114-1.056.829-1.265,1.733-1.176a2.851,2.851,0,0,1,3.009-.423,1.579,1.579,0,0,0,2.17-.535,1.621,1.621,0,0,1,1.242-.623c.995-.067,1.557-.384,1.3-1.544-.145-.653.381-.952.952-1.047a1.3,1.3,0,0,1,1.57,1.087" transform="translate(-16.924 -34.466)" fill="#5abbc6" fill-rule="evenodd"/>
      <path id="Path_146775" data-name="Path 146775" d="M67.713,17.131c-1.871-1.078-2.388-3.177-3.542-4.787a3.232,3.232,0,0,1-.2-3.232c.753-1.162,1.266-2.876,3.145-2.991-1.692-1.519-1.677-1.662.321-2.482-.03-.76-1.351-1.623.033-2.352a.453.453,0,0,1,.263.192,1.924,1.924,0,0,1,.283.345l0-.005a1.112,1.112,0,0,0,.306.421l-.014-.022a.7.7,0,0,0,.291.444l-.014-.022a.788.788,0,0,0,.256.463l-.006-.014c.114.253-.015.551.147.794.145.617.289,1.192,1.076,1.339A1.6,1.6,0,0,1,71.28,6.284C70.337,7.61,69.171,8.756,68.132,10c-1.306,1.568-1.186,3.265.616,4.277.452.253,1.021.316,1.351.789-.168,1.414-1.114,1.921-2.384,2.059" transform="translate(-29.614 -0.599)" fill="#00a9bb" fill-rule="evenodd"/>
      <path id="Path_146776" data-name="Path 146776" d="M24.3,76.743c-.141.082-.281.166-.422.246A28.776,28.776,0,0,1,12.2,71.049c-1.182-1-2.378-1.94-2.662-3.585a13.393,13.393,0,0,0,4.728-1.029c1.283-.523,2.142.036,2.641,1.256-.254.606-.855,1.189.206,1.719.473.235.388.83-.014,1.225-.374.368-.972.7-.486,1.3.5.625.656,1.583,1.925,1.49a5.374,5.374,0,0,1,4.16,1.193c.65.6,1.225-.045,1.853.125.286.722-.742,1.283-.251,2" transform="translate(-4.438 -30.828)" fill="#42b3bc" fill-rule="evenodd"/>
      <path id="Path_146777" data-name="Path 146777" d="M11.145,54.183c.343-.021.764-.171.889.311.144.552.6.868.876,1.315a2.111,2.111,0,0,0,2.965,1.038c.156-.293.021-.576-.021-.862-.076-.5-.381-1.132.428-1.265.645-.1,1.436-.453,1.737.612A1.362,1.362,0,0,0,19.1,56.405c.9.132,1.224.846,1.631,1.494,1.189,1.9,1.191,1.9-.486,3.271-.09.075-.188.14-.281.214-.491.4-.357,1.337-1.185,1.429-.695.08-1.112-.659-1.79-.67-1.061-3.173-3.853-3.421-6.525-3.849a8.026,8.026,0,0,1-1.386-.121c-.384-.862.357-1.417.648-2.054a11.483,11.483,0,0,1,1.418-1.938" transform="translate(-4.174 -25.199)" fill="#42b3bc" fill-rule="evenodd"/>
      <path id="Path_146778" data-name="Path 146778" d="M34.426,46.882l-2.473-.612a15.259,15.259,0,0,1,5.977,1.242c.705.239,1.341.784,2.143.321.233-.1.36.053.5.2a1.543,1.543,0,0,0,.468.344c.2.064.407.111.616.157.312.06.621.121.926.208a3.2,3.2,0,0,1,.717.3c1.265.82,2.736,1.381,3.439,2.887.174.367.547.65.267,1.1a1,1,0,0,1-1.225.468c-1.184-.414-2.1.191-3.169.529a4.517,4.517,0,0,1-4.89-.882c-1.2-.322-1.677-.926-1.142-2.229.449-1.091.569-2.108-1.256-2.059-1.471.038-.642-1.277-.894-1.967" transform="translate(-14.871 -21.525)" fill="#60bcc5" fill-rule="evenodd"/>
      <path id="Path_146779" data-name="Path 146779" d="M72.545,19.479a3.608,3.608,0,0,1-3.251-2.566c-.439-1.123-.406-1.756.566-2.446a3.512,3.512,0,0,0,1.361-1.554c.474-1.134,1.585-1.654,2.566-2.272.866.686.659,1.878,1.19,2.641.5.726,1.55,1.046,1.8,2.061a.492.492,0,0,1-.121.677c-.125.606-.74.793-1.056,1.234-.89.919-1.5,2.225-3.058,2.225" transform="translate(-32.123 -4.952)" fill="#00a5b7" fill-rule="evenodd"/>
      <path id="Path_146780" data-name="Path 146780" d="M47.528,44.657l-.679-.16c-.088-.144-.175-.288-.275-.423-.084-.144-.168-.286-.253-.431a.379.379,0,0,1,.019-.267,1.574,1.574,0,0,0-.184-.512l0-.02c.89-1.314.651-2.345-.776-3.078l0,.006c.245-.734,1.317-1.159.726-2.319a43.4,43.4,0,0,0,4.656,1.016c.836.206,1.539.359,2.127-.619.481-.8,1.434-.65,2.245-.424.234.066.18.4.167.642-1.7,2.6-3.357,5.239-6.037,6.994l-.684-.16a.843.843,0,0,0-1.051-.249" transform="translate(-21.118 -17.335)" fill="#19aab7" fill-rule="evenodd"/>
      <path id="Path_146781" data-name="Path 146781" d="M130.12,22.574c-.291,0-.614-.056-.771.279s.009.56.306.71a2.9,2.9,0,0,1,.627.321c.3.256.452.617.036.872-.844.514-1.7,1.219-2.761.83a6.781,6.781,0,0,0-2.785-.2c-1.17.056-1.449-.186-1.547-1.337-.187-2.15-.186-2.149-2.331-2.255-.47-.021-1.064.03-1.022-.654.035-.573.541-.783,1.054-.665,1.521.349,2.62-.414,3.689-1.307a16.03,16.03,0,0,1,5.506,3.4" transform="translate(-55.787 -8.92)" fill="#48b4bd" fill-rule="evenodd"/>
      <path id="Path_146782" data-name="Path 146782" d="M125.419,73.693c1.219-.457,1.283-.576.476-1.212a1.413,1.413,0,0,1-.69-1.283c.009-.895-.674-1.315-1.477-1.492-1.356-.295-1.428-.354-1.367-1.648.018-.356.119-.7-.168-1a16.637,16.637,0,0,1,4.437-.446c.757-.117.995.267.781.917A1.225,1.225,0,0,0,128,69.163l.01,0a2.416,2.416,0,0,1,1.123,3.511,1.174,1.174,0,0,1-.326.709l-.011.013c-.267.107-.267.474-.549.571l.026-.017a3.021,3.021,0,0,1-.409.308l-.012.011a1.046,1.046,0,0,0-.366.275l-.065.038a.917.917,0,0,0-.394.214l-.032.019q-.224.1-.436.227l.007,0-.415.278q-.13.493-.261.986c-.441.347-.214,1.02-.66,1.363l0,0a.237.237,0,0,1-.316.03,6.1,6.1,0,0,0-.978-1.878c-.7-1.223-.638-1.439.635-1.925a6.962,6.962,0,0,1,.858-.214" transform="translate(-56.869 -30.992)" fill="#3db1bb" fill-rule="evenodd"/>
      <path id="Path_146783" data-name="Path 146783" d="M86.992,18.182a1.782,1.782,0,0,0,2.322.594c.744-.28,1.425-.6,1.834.5.165.443.574.293.837-.022.188-.226.339-.481.5-.721.476-.7,1.025-.767,1.569-.107a1.926,1.926,0,0,0,1.191.683l.267.428c-.414.4-1.029.125-1.484.464-.514.387-1.181.634-1.005,1.47.129.61-.367.962-.582,1.426-.126.276-.521.542-.706.406-.919-.671-2.384-.331-2.955-1.647a2.8,2.8,0,0,0-1.283-1.4c-.251-.125-.576-.2-.784.107-.16.243,0,.464.16.625s.423.243.557.422a.848.848,0,0,1-.129,1.192c-.022.018-.044.034-.068.049-.372.325-.646-.012-.918-.214-1.1-.808-1.058-1.987-1.01-3.165a5,5,0,0,1,1.685-1.091" transform="translate(-39.694 -8.361)" fill="#3ab1bc" fill-rule="evenodd"/>
      <path id="Path_146784" data-name="Path 146784" d="M8.9,61.359a3.384,3.384,0,0,1,2.7-.179,22.417,22.417,0,0,0,3.827.962c.315.02.648.214.652.493A2.17,2.17,0,0,0,17.14,64.6c.219.142-.2.481-.329.731-.115-.029-.232-.053-.348-.083a1.9,1.9,0,0,1-.954-.733c-.347-.379-.909-.593-1.264-.3-.732.609-1.737.414-2.414.889a2.36,2.36,0,0,1-2.737-.084C8.245,63.843,8.663,62.6,8.9,61.36" transform="translate(-3.996 -28.383)" fill="#2eaeba" fill-rule="evenodd"/>
      <path id="Path_146785" data-name="Path 146785" d="M132.784,72.585c.009-.058.017-.117.028-.174.392-1.9.33-2.045-1.348-3.093-.2-.122-.481-.156-.619-.318-.443-.53-.7-1.064-.036-1.678.524-.481.013-.676-.358-.863a13.1,13.1,0,0,1,4.125-.087,2.8,2.8,0,0,1,.786,1.3l-.005-.017a3.709,3.709,0,0,1-.548,2.427c-.254.129-.261.488-.543.588l.027-.014a1.154,1.154,0,0,1-.449.28l.02-.012c-.127.1-.257.2-.388.3-.121.435-.246.867-.37,1.3-.082.16-.189.182-.321.056" transform="translate(-60.69 -30.832)" fill="#54b8c0" fill-rule="evenodd"/>
      <path id="Path_146786" data-name="Path 146786" d="M21.237,46.816c.438.827.651,1.841,1.827,1.99-.267.469-.535.452-.816.288-.862-.506-1.417-.122-1.91.6a1.644,1.644,0,0,1-2.879-.013c-.229-.338-.474-.666-.712-1l.428-.249.016-.007a1.4,1.4,0,0,1,.412-.218l.047-.02c.763-.362,2.16.8,2.334-.974v.014a4.363,4.363,0,0,0,.442-.207A.244.244,0,0,1,20.671,47a1.006,1.006,0,0,0,.545-.179Z" transform="translate(-7.794 -21.788)" fill="#42b3bc" fill-rule="evenodd"/>
      <path id="Path_146787" data-name="Path 146787" d="M45.378,41.964c.1.061.228.2.29.172.952-.387,1.176.145,1.528.925.424.941-.057,1.243-.673,1.625a2.4,2.4,0,0,0-.369.356,7.921,7.921,0,0,1-.776-3.078" transform="translate(-21.119 -19.53)" fill="#33b0bf" fill-rule="evenodd"/>
      <path id="Path_146788" data-name="Path 146788" d="M20.768,47.556a5.441,5.441,0,0,1,.247.652c.2.828-.178,1.209-.993,1.011-.569-.137-.962-.679-1.588-.69a7.028,7.028,0,0,1,2.334-.973" transform="translate(-8.579 -22.132)" fill="#49b5be" fill-rule="evenodd"/>
      <path id="Path_146789" data-name="Path 146789" d="M77.942,86.975a.725.725,0,0,1,.742-.14.664.664,0,0,1-.742.14" transform="translate(-36.274 -40.391)" fill="#3cb2c1" fill-rule="evenodd"/>
      <path id="Path_146790" data-name="Path 146790" d="M75.818,87.221a.71.71,0,0,1,.812-.134.793.793,0,0,1-.812.134" transform="translate(-35.285 -40.496)" fill="#3cb2c1" fill-rule="evenodd"/>
      <path id="Path_146791" data-name="Path 146791" d="M68.063,88.166a.7.7,0,0,1,.844-.133.871.871,0,0,1-.844.133" transform="translate(-31.676 -40.93)" fill="#4bb6c5" fill-rule="evenodd"/>
      <path id="Path_146792" data-name="Path 146792" d="M73.45,5.453A.7.7,0,0,1,73.3,4.66a.664.664,0,0,1,.147.793" transform="translate(-34.085 -2.169)" fill="#33b0bf" fill-rule="evenodd"/>
      <path id="Path_146793" data-name="Path 146793" d="M83.307,20.11c.039-.227.079-.452.121-.678a.868.868,0,0,1,.253.731c-.125-.019-.251-.036-.374-.053" transform="translate(-38.771 -9.044)" fill="#63bec7" fill-rule="evenodd"/>
      <path id="Path_146794" data-name="Path 146794" d="M95.134,60.283a.708.708,0,0,1,.748-.218.7.7,0,0,1-.748.218" transform="translate(-44.275 -27.939)" fill="#4bb6c5" fill-rule="evenodd"/>
      <path id="Path_146795" data-name="Path 146795" d="M24.626,46.826a.574.574,0,0,1-.544.177l.544-.177" transform="translate(-11.208 -21.793)" fill="#49b5be" fill-rule="evenodd"/>
      <path id="Path_146796" data-name="Path 146796" d="M94.249,63.378a.512.512,0,0,1-.374-.369c.124.123.247.246.374.369" transform="translate(-43.689 -29.324)" fill="#4bb6c5" fill-rule="evenodd"/>
      <path id="Path_146797" data-name="Path 146797" d="M23.237,47.186l-.442.207a.394.394,0,0,1,.442-.207" transform="translate(-10.609 -21.955)" fill="#49b5be" fill-rule="evenodd"/>
      <path id="Path_146798" data-name="Path 146798" d="M17.988,49.411c-.136.074-.274.144-.412.218a.4.4,0,0,1,.412-.218" transform="translate(-8.18 -22.994)" fill="#49b5be" fill-rule="evenodd"/>
      <path id="Path_146799" data-name="Path 146799" d="M17.175,49.834c-.142.083-.283.166-.428.25a.428.428,0,0,1,.428-.25" transform="translate(-7.794 -23.192)" fill="#49b5be" fill-rule="evenodd"/>
      <path id="Path_146800" data-name="Path 146800" d="M71.585,1.994c-.094-.117-.188-.231-.282-.345a.35.35,0,0,1,.282.345" transform="translate(-33.184 -0.767)" fill="#33b0bf" fill-rule="evenodd"/>
      <path id="Path_146801" data-name="Path 146801" d="M72.134,2.706c-.1-.14-.2-.281-.306-.421a.445.445,0,0,1,.306.421" transform="translate(-33.428 -1.063)" fill="#33b0bf" fill-rule="evenodd"/>
      <path id="Path_146802" data-name="Path 146802" d="M72.664,3.475a.474.474,0,0,1-.292-.444.456.456,0,0,1,.292.444" transform="translate(-33.682 -1.411)" fill="#33b0bf" fill-rule="evenodd"/>
      <path id="Path_146803" data-name="Path 146803" d="M73.145,4.282a.481.481,0,0,1-.256-.462.446.446,0,0,1,.256.462" transform="translate(-33.922 -1.778)" fill="#33b0bf" fill-rule="evenodd"/>
      <path id="Path_146804" data-name="Path 146804" d="M84.256,20.814c-.057.071-.114.143-.173.214-.035-.081-.07-.164-.107-.245a1.523,1.523,0,0,0,.279.033" transform="translate(-39.082 -9.672)" fill="#63bec7" fill-rule="evenodd"/>
      <path id="Path_146805" data-name="Path 146805" d="M46.827,47.759c.062.169.124.339.184.512a.549.549,0,0,1-.184-.512" transform="translate(-21.789 -22.227)" fill="#33b0bf" fill-rule="evenodd"/>
      <path id="Path_146806" data-name="Path 146806" d="M96.58,59.876l.453-.218a.465.465,0,0,1-.453.218" transform="translate(-44.948 -27.765)" fill="#4bb6c5" fill-rule="evenodd"/>
      <path id="Path_146807" data-name="Path 146807" d="M48.03,43.881c2.17-2.2,3.774-4.879,6.037-6.994A3.956,3.956,0,0,0,55.6,35.05c-.007-.333.136-.421.432-.271l0,.019c1.631,2,1.519,5.886-.37,7.63-.962.892-1.069,1.6-.229,2.543.813.905.38,2.031.562,3.042.229,1.28-.385,1.828-1.117,2.685a4.5,4.5,0,0,1-3.076,1.833c1.1,1.264,2.08.369,3,.267a1.171,1.171,0,0,1,.979.225c.013,1,1.126,1.61.949,2.788-.738.189-1.366.892-2.352.321-.49-.284-.807.256-.962.729-.275-.219-.535-.457-.826-.655a1.035,1.035,0,0,0-1.3.132c-.372.3.032.618.138.925.367,1.059.16,1.443-.92,1.45-1,.01-1.838.075-2.278,1.193a.9.9,0,0,1-1.355.374c-1.2-.8-2.437-.553-3.7-.333a3.034,3.034,0,0,0,.781-3.012c-.2-.867.267-1.325,1.153-1.25a4.99,4.99,0,0,1,1.353.387c.3.119.562.179.791-.091a.636.636,0,0,0,.007-.9c-.014-.014-.03-.028-.045-.042a4.991,4.991,0,0,1-.441-.553c-.248-.374-.345-.728.063-1.093A2.534,2.534,0,0,0,47.871,51.1c-.069-.543.611-.675.786-1.107-1.408-1.033-3.01-.762-4.583-.728-1.376.032-1.376,0-1.34-1.5.443.113.9-.032,1.35.276a3.039,3.039,0,0,0,3.849-.06c.814-.6,1.734-1.072,2.754-.28a.853.853,0,0,0,.67.083c.374-.11.713-.5.286-.734a1.688,1.688,0,0,1-.952-1.337.938.938,0,0,0-.948-.68c-.8-.067-1.225-.65-1.715-1.154" transform="translate(-19.884 -16.153)" fill="#55b9c2" fill-rule="evenodd"/>
      <path id="Path_146808" data-name="Path 146808" d="M35.589,47.431c.229.078.509.2.386.467-.54,1.16.2,1.23.992,1.148a4.376,4.376,0,0,1,1.939.321c-.917.969-.428,2.283-1.047,3.33-.279.474.909.386,1.024.991-.748.121-1.581.657-2.013-.535-.142-.391-.583-.287-.941-.263-.841.059-1.047-.653-1.364-1.2-.385-.667.321-.743.6-1.058.224-.252.655-.552.357-.887-.743-.831-.076-1.55.069-2.316" transform="translate(-16.034 -22.074)" fill="#55b9c2" fill-rule="evenodd"/>
      <path id="Path_146809" data-name="Path 146809" d="M62.349,47.765c-.468-.122-.766.232-1.134.392A2.621,2.621,0,0,1,58.988,48a.8.8,0,0,1-.453-.884.782.782,0,0,1,.708-.685c.288-.037.588.035.88.013.623-.046,1.181-.214,1.289-.957a1.115,1.115,0,0,1,1.13-1.1c.593-.057.775-.506.455-1.041a1.311,1.311,0,0,1-.073-1.611,1.625,1.625,0,0,0-.332-1.809c-.2-.284-.494-.508-.695-.8-.65-.922-.684-1.337.188-1.942,2.168-1.5,1.93-3.73,1.971-5.91.016-.748-.968-1.1-.683-1.925l.855-.544c.149.186.047-.072.1.14.571,2.2,2.713,2.769,4.157,4.063a1.111,1.111,0,0,0,1.466.074,2.5,2.5,0,0,1,1.678-.668,2.583,2.583,0,0,1-.943-2.289c-.024-2.094-1.268-2.846-3.162-1.99-1.043.47-2.011,1.375-3.3.675.107-.708,1-.861,1.1-1.569.713-.741,1.852-.986,2.32-2,1.2-.5,1.855-1.74,3.059-2.225.617.777-.66.833-.513,1.555a3.207,3.207,0,0,1,1.405,1.568,1.624,1.624,0,0,0,2.1.93c.032-.012.062-.025.092-.039,1.138-.163,2.26.688,3.43,0,.3-.179.673.16.829.5a.953.953,0,0,1-.368,1.253c-1.665.948-1.827,1.827-.136,2.96A1.13,1.13,0,0,1,77.9,33.3a1.177,1.177,0,0,1-.118.154c-.923.371-2.081.163-2.293,1.791a1.6,1.6,0,0,1-2.556.954,1.9,1.9,0,0,0-2.415.238c-1.26.955-2.314,2.37-4.23,1.833a.992.992,0,0,0,.053.486c.09.131.176.257.277.377.357.4.9.571,1.234,1,.267.338.555.932.267,1.1-1.324.79-1.039,2.649-2.456,3.394-1.364.72-2.049,2.253-3.31,3.137" transform="translate(-27.235 -10.712)" fill="#63bec7" fill-rule="evenodd"/>
      <path id="Path_146810" data-name="Path 146810" d="M91.085,36.755a2.031,2.031,0,0,0-1.29-2.106,2.748,2.748,0,0,1-1.069-.891c-.486-.614-.414-.994.374-1.032.853-.042,1.23-.629,1.774-1.041a.578.578,0,0,0,.233-.77c-.142-.287-.41-.481-.72-.325-1.156.583-2.192-.123-3.28-.259a.868.868,0,0,1,1-.114c.949.476,1.837-.16,2.76-.1,1.079.073.967,1.684,2.138,1.6.053.407.565.394.685.748-.333.577-.951.607-1.494.755-.481.13-.929.346-.959.868-.027.5.486.578.85.744a2.275,2.275,0,0,1,.353.287,6.273,6.273,0,0,1-1.348,1.638" transform="translate(-40.539 -14.013)" fill="#58bac6" fill-rule="evenodd"/>
      <path id="Path_146811" data-name="Path 146811" d="M65.683,56.527a10.289,10.289,0,0,1,3.577-3.853c.508-.284.855-.6.531-1.274-.343-.713-.147-1.052.741-1.1.76-.045.855-.606.406-1.215-.38-.521-1.351-.293-1.409-1.168.086-.049.168-.1.25-.151l.114-.092-.107.1a.858.858,0,0,0-.254.146c-.563-.728-.563-.728-.107-1.946.111-.007.278-.064.326-.012.939,1,.995,1.033,2.08.321,1.016-.665,1.772-1.666,2.925-2.177.428-.191.771-.371,1.088.01.6.728,1.283,1.113,2.128.464.828-.636,1.184-1.451.059-2.733,1.342.481,2.223.15,3.084.374a2.875,2.875,0,0,0-1.531,2.911c.145,1.145-.8,1.7-1.852,1.113-1.876-1.052-3.235.005-4.643.925a.879.879,0,0,0-.3,1.207q.018.029.037.056c.335.538.825.279,1.278.177.543-.119.667-.819,1.277-.909.571,1.073,1.009,2.09.153,3.278-.424.588-.851.884-1.45.535-.9-.526-1.732-.088-2.538.114-.752.191-1.384.669-1.129,1.683.238.933-.214,1.225-1.138,1.262a1.9,1.9,0,0,0-1.968,1.241c-.15.076-.284.177-.428.267a4.579,4.579,0,0,0-.428.267c-.259.062-.519.122-.775.185" transform="translate(-30.569 -19.474)" fill="#58bac6" fill-rule="evenodd"/>
      <path id="Path_146812" data-name="Path 146812" d="M62.9,77.635c.053-.232.107-.461.16-.695q.453.472-.16.695" transform="translate(-29.273 -35.808)" fill="#55b9c2" fill-rule="evenodd"/>
      <path id="Path_146813" data-name="Path 146813" d="M99.944,39.932c-.025.041-.057.117-.073.112a.434.434,0,0,1-.136-.079c.024-.04.053-.114.072-.111a.43.43,0,0,1,.138.078" transform="translate(-46.416 -18.548)" fill="#47b4bf" fill-rule="evenodd"/>
      <path id="Path_146814" data-name="Path 146814" d="M67.93,68.235q.215-.132.428-.267l-.428.267" transform="translate(-31.614 -31.632)" fill="#55b9c2" fill-rule="evenodd"/>
      <path id="Path_146815" data-name="Path 146815" d="M67.132,68.731l.428-.267Z" transform="translate(-31.243 -31.863)" fill="#55b9c2" fill-rule="evenodd"/>
      <path id="Path_146816" data-name="Path 146816" d="M65.613,33.782c-.145.09-.288.181-.432.272-.115.022-.231.048-.347.068-.695.128-1.464.086-1.509-.743-.041-.769.817-.736,1.362-.8.88-.1,1.173.372.926,1.2" transform="translate(-29.471 -15.157)" fill="#00a9bb" fill-rule="evenodd"/>
      <path id="Path_146817" data-name="Path 146817" d="M123.881,74.951a1.114,1.114,0,0,1-1.354.455c-.261-.111-.535-.368-.3-.681a1.056,1.056,0,0,1,1.224-.451.576.576,0,0,1,.434.677" transform="translate(-56.842 -34.543)" fill="#21abb5" fill-rule="evenodd"/>
      <path id="Path_146818" data-name="Path 146818" d="M49.4,50.922q.677-.526,1.051.249L49.4,50.922" transform="translate(-22.991 -23.6)" fill="#55b9c2" fill-rule="evenodd"/>
      <path id="Path_146819" data-name="Path 146819" d="M47.615,50.019c.092.139.184.282.275.423-.091-.141-.183-.284-.275-.423" transform="translate(-22.16 -23.279)" fill="#55b9c2" fill-rule="evenodd"/>
      <path id="Path_146820" data-name="Path 146820" d="M69.154,32.528a6.988,6.988,0,0,0,3.28-1.184,2.614,2.614,0,0,1,3.792,1.5.819.819,0,0,1,0,.516c-.642,1.439-.059,2.313,1.4,2.877a5.152,5.152,0,0,0-2.887,1.2c-.6.566-1.4.249-1.78-.493a1.822,1.822,0,0,0-1.967-1.1c-.686.04-1.361-.351-1.194-1.194.171-.871-.956-1.264-.642-2.122" transform="translate(-32.159 -14.427)" fill="#74c4cd" fill-rule="evenodd"/>
      <path id="Path_146821" data-name="Path 146821" d="M73.683,52.533c.111-.132.387-.255.4-.17.069.434-.26.107-.4.17" transform="translate(-34.292 -24.356)" fill="#63bec7" fill-rule="evenodd"/>
      <path id="Path_146822" data-name="Path 146822" d="M72.879,52.967l.43-.267c-.144.088-.286.177-.43.267" transform="translate(-33.918 -24.526)" fill="#63bec7" fill-rule="evenodd"/>
    </g>
  </g>
</svg>
