<svg xmlns="http://www.w3.org/2000/svg" xmlns:xlink="http://www.w3.org/1999/xlink" width="88.48" height="53.71" viewBox="0 0 88.48 53.71">
  <defs>
    <clipPath id="clip-path">
      <path id="Path_119797" data-name="Path 119797" d="M59.506,3.463a30.049,30.049,0,0,0-3.452,1.475,20.182,20.182,0,0,0-3.472,2.807c-.086.089,0,.253,0,.378q-.471.38-.949.762l-1.712,2.284a3.466,3.466,0,0,1-1.519-.384v-.191H47.64v-.187h-.76v-.193h-.761v-.188h-.76c0-.066,0-.126,0-.19A15.954,15.954,0,0,0,30.393,16.35a11.444,11.444,0,0,0-1.765,5.465l-1.9.379A16.676,16.676,0,0,0,16.57,29.3c-1.326,2.321-2.619,5.892-2.277,8.554a11.878,11.878,0,0,0,.364,1.679,20.067,20.067,0,0,0,2.263,5.048,11.465,11.465,0,0,0,6.956,4.988,7.849,7.849,0,0,0,1.9.461v-.27a8.011,8.011,0,0,0,2.852.081c.824,0,1.647-.461,2.472-.461V49.2h.57V49h.382v-.191c.754-.292,2.058-.242,2.6-.854a7.377,7.377,0,0,0,1.773,2.376q.476.38.951.76a18.853,18.853,0,0,0,6.709,3.7c1.483.375,2.481.681,3.951,1.033a12.574,12.574,0,0,0,4.523.179,19.064,19.064,0,0,0,3.793-.77c.727-.25,1.427-.572,2.127-.893,2.174-1,4.22-1.475,5.882-3.193.442,0,1.093-.97,1.534-.97,1.022,0,2.61,1.549,3.48,2.041a17.949,17.949,0,0,0,6.044,1.758,19.254,19.254,0,0,0,3.436.26c1.134-.024,2.3-.485,3.393-.485h1.33v-.192c.254-.062.507-.124.762-.188v-.19c0,.422,3.583-1.58,3.719-1.667a16.325,16.325,0,0,0,5.5-5.257c.379-.652,2.628-6.767,2.38-6.767h.188v-.38h.189c0-.127,0-.254,0-.383,3.316-2.6,6.325-5.453,6.4-10.029a12.024,12.024,0,0,0-.528-3.188,27.652,27.652,0,0,0-1.664-4.927A12.372,12.372,0,0,0,97.09,16.5a20.528,20.528,0,0,0-7.057-3.49,14.8,14.8,0,0,0-7.025-.325v.188c-.572.131-1.141.254-1.71.381v-.189c-.751-.232-.242-.042-.572-.57h-.19v-.384a13.18,13.18,0,0,0-2.464-3.729c-1.344-1.29-2.277-1.617-3.7-2.826a11.8,11.8,0,0,0-4.7-2.341,16.95,16.95,0,0,0-5.039-.8,12.39,12.39,0,0,0-5.132,1.041" transform="translate(-14.237 -2.422)" fill="#fff"/>
    </clipPath>
  </defs>
  <g id="Group_517" data-name="Group 517" transform="translate(-14.237 -2.422)">
    <g id="Group_281" data-name="Group 281" transform="translate(14.237 2.422)" clip-path="url(#clip-path)">
      <path id="Path_119571" data-name="Path 119571" d="M105.719.373h9.107a5.4,5.4,0,0,0,3.833,2.265c3.278.136,4.256,3.407,5.082,7.024.536,2.342.436,5.046,1.911,6.832a3.062,3.062,0,0,1,.591.639c1.055,1.938.424,4.1.39,6.187-.2,1.941-1.272,2.661-2.292,3.458-1.406,1.247-3.394,1.125-4.083,4.112-.242,1.052-1.158.858-1.724-.11a6.737,6.737,0,0,1-.828-4.231,3.812,3.812,0,0,0-.147-1.855c-.943-2.3-1.463-4.256,1.35-3.661.664.141,1-.418.971-1.329-.036-1.109.1-2.4-.929-2.824-.337-.137-.7.042-1.052-.021-2.829-.51-2.842-.54-2.541-4.942,1.011-3.585,2.643.359,4.136-.617-1.144-1.718-2.635-1.068-3.715-1.972-1.038-1.735-2.326-3.069-3.492-4.752-.2,3.973-.624,4.308-3.364,2.452a26.521,26.521,0,0,0,.357,3.917c1.164-.822,2.455-2.064,3.437.126,1.1,2.444.2,4.382-.939,6.182a2.658,2.658,0,0,0-.354,1c-.2,4.218-1.634,6.742-4.634,7.143-1.247.688-1.995.142-2.162-1.835.167-1.758-.838-3.731.432-5.3a1.872,1.872,0,0,0,.413-1.537c-.454-2.024-1.647-.953-2.5-1.234-.971-.322-2.06-.54-2.246-2.2-.234-2.088,1.008-1.66,1.807-1.758,1.315-.161,1.337-2.748,2.917-2.9-2.116-1.169-4.083,1.571-5.914-.315-1.107-2.1-.8-3.617.9-4.548.6-.317,1.346,1.273,1.726.015.289-.956-.7-1.086-1.122-1.574A1.5,1.5,0,0,1,100.9.373h3.214c.536.6,1.072,1.207,1.607,0" transform="translate(-46.011 -1.653)" fill="#fff"/>
      <path id="Path_119572" data-name="Path 119572" d="M.05,59.537V57.985c.578-1.036,1.111-2.071,0-3.106V48.667c2.347-1.02,6.084.6,7.493,3.231.5.635,1.049.243,1.585.122a2.226,2.226,0,0,1,.727-.071c1.477.327,3.033.44,3.752,2.859-.118,1.186-.466,2.038-1.4,2.018a.756.756,0,0,1-.362-.451c-.039.22.171.246.175.457.822,2.913,2.418,3.867,4.438,3.782a5.147,5.147,0,0,1,.8.042c3.749.429,4.111.93,4.459,6.153-.2,1.317-.785,1.9-1.693,1.85-1.485-1.44-3.075-.672-4.636-.436-1.31-.259-1.178,1.9-1.978,2.49q-2.781-1.378-1.778-6.6c.082-.426.4-.771.2-1.291-.177.288-.263.661-.432.972-1.472,1.77-3.015,2.218-4.677.569-1.067-1.519-2.4-2.763-2.642-5.251.334,1.462.764,2.868-.24,4.092-.695.846-1.424,1.709-2.387,1.35S.473,62.879.335,61.744c-.09-.737.139-1.559-.285-2.207" transform="translate(-8.912 -19.664)" fill="#fff"/>
      <path id="Path_119573" data-name="Path 119573" d="M.05,24.176V3.211C.956,1.912,1.98,1.3,3.241,2.06A3.207,3.207,0,0,1,3.922,3.6,12.921,12.921,0,0,1,4.034,5.33c.212,3.782.212,3.782,3.518,3.221,1.6.14,3.507-1.123,4.462,2.01.121,2.473-1.838,1.171-2.26,2.636a1.084,1.084,0,0,0,.091,1.064c.472.284,1.024.24,1.417.794.843,1.435,1.827,2.675,2.659,4.116.709,1.228,1.255,2.512.1,3.865-.109.547-1.752-.918-.709,1.457a25.412,25.412,0,0,1,2.3,5.985,3.54,3.54,0,0,1-.344,1.578,1.946,1.946,0,0,1-.641.588c-2.175.409-3.173-1.8-3.9-4.089-.54-1.693-1.036-2.6-2.321-1.667-.982.34-1.18,2.2-2.228,2.424-1.563-.683-2.411-2.149-2.384-4.574a2.54,2.54,0,0,1,2.223-1c.889-.319,1.838-.553,1.347-2.472a2.625,2.625,0,0,1,1.113-2.978.93.93,0,0,0-.633-.607c-.647-.291-1.011-1.878-1.794-1.174-.74.665-.241,1.878-.154,2.854.116,1.287.3,2.579-.523,3.576-.894.655-1.419-.614-2.139-.86-1.247-1.865-.453-4.052-.513-6.1-.062,2.153-1.019,4.488.673,6.282,1.245,1.152-.145,1.941-.187,2.92C1.74,27.544.756,26.772.05,24.176" transform="translate(-8.912 -2.161)" fill="#fff"/>
      <path id="Path_119574" data-name="Path 119574" d="M141.679,17.456h-.535c-.955-1.3-.97-2.527.312-3.243,1.722-.961,1.877-2.008.366-3.618a4.6,4.6,0,0,1-1.073-3.005,12.614,12.614,0,0,1,.722-3.058A8.547,8.547,0,0,1,143.822.373h7.5c.343.349-.424,1.491.582,1.472,1.061-.02,2.065.423,2.356,2.259.011,2.786,0,5.567.006,8.342-.289,1.9-1.094,3.808,0,5.721,0,1.664.013,3.325-.007,4.984-1.521,2.191-2.264.274-2.524-1.378a9.841,9.841,0,0,0-1.478-4.39c-.607-1.537-1.915-1.176-2.741-2.11-.469-.409-.933-.851-1.513-.415a6.3,6.3,0,0,1-4.321,2.6" transform="translate(-61.614 -1.653)" fill="#fff"/>
      <path id="Path_119575" data-name="Path 119575" d="M101.251,23.635q0-3.1,0-6.2a3.82,3.82,0,0,1,0-3.89q0-5.048-.007-10.1a3.031,3.031,0,0,1,.034-3.1c.855-.266.523.693.524,1.164.014,18.377-.009,36.754.045,55.13,0,1.668-.223,1.99-1.373,1.988q-49.82-.087-99.641-.064c-.325,0-.986.48-.8-.76a2.422,2.422,0,0,1,2.076-1.144,11.453,11.453,0,0,1,2.242-.076c1.179.13,2.36.017,3.54.064l1.321.011q1.54.012,3.081,0c.59,0,1.179-.012,1.77-.019,1.184.031,2.367.026,3.552.006a5.966,5.966,0,0,1,2.208-.024,10.3,10.3,0,0,1,3.07.025,16.619,16.619,0,0,1,2.21.006c.3,0,.608,0,.913,0a9.406,9.406,0,0,0,1.885-.121c5.527-.75,11.051.346,16.576-.01,5.2-.151,10.392-.043,15.584.123a9.258,9.258,0,0,1,2.347-.041,17.091,17.091,0,0,0,1.78.054q.652-.022,1.306,0c.726.007,1.454,0,2.182,0l2.247-.007c2.023.211,4.042-.585,6.065-.035.789.042,1.578.03,2.367.024,1.738.2,3.472-.545,5.21-.061,4.522-.527,9.042-.015,13.563.049,1.023.014,2.172.45,2.94-1.079.084-.377.178-.748.256-1.126.343-1.362-.026-2.782.159-4.155,0-.414,0-.825,0-1.239-.062-.849,0-1.695,0-2.543a54.769,54.769,0,0,1-.067-7.3,15.265,15.265,0,0,0,.027-2.084c-.017-4.529-.958-9.174.815-13.473" transform="translate(-8.893 -1.625)" fill="#fff"/>
      <path id="Path_119576" data-name="Path 119576" d="M58.824.373H77.038c.483.989,1.886.624,1.817,2.292-.072,1.748-1.322,1.177-1.973,1.789-.45.424-1.74-.161-1.281,1.73-1.43,1.431-2.014,4.779-4.389,4.078-1.5-2.823-3.765-2.437-5.823-2.916-1.3-1.134-2.615-2.066-4.086-.52a1.977,1.977,0,0,1-2.131-1.083A2.113,2.113,0,0,1,59.1,3.967c.875-1.209-.293-.609-.367-.953-.735-.94-.832-1.83.091-2.642" transform="translate(-30.722 -1.653)" fill="#fff"/>
      <path id="Path_119577" data-name="Path 119577" d="M12.364,80.99l-3.213-.022a1,1,0,0,1-.182-.587c0-.224.016-.337.044-.338a6.916,6.916,0,0,1,1.183-1.9c.738-1.151.874-2.48-.212-3.045-.939-.489-1.365.705-1.457,2.042a3.143,3.143,0,0,1-.8,1.938c-1.054.918-2.707-.394-3.394,1.909L2.174,80.97C1.537,80.259.7,80.153.05,79.474V77.144c.7-1.053.876-4.115,2.688-1.108C2.6,72.915.535,71.812.05,69.379V64.721c.575.607.452,1.6.652,2.417s.4,2.109,1.086,1.831a4.549,4.549,0,0,0,2.108-2.087,1.277,1.277,0,0,0-.851-1.813c-.616-.168-.9-.881-.548-1.711A2.144,2.144,0,0,1,3.457,62.2c.6-.2,1.126.648,1.138,1.259.054,2.529,1.537,3.52,2.418,5.15A6.424,6.424,0,0,1,5.57,70.261C7.8,71.225,9.8,71.609,11.3,68.606V66.369c.694,1.128,2.394,1.492.859,3.886-.513.8-.439,4.171,1.282,5.335,1.122,2.916,1.121,2.927-.552,3.767a11.9,11.9,0,0,0-.524,1.633" transform="translate(-8.912 -24.847)" fill="#fff"/>
      <path id="Path_119578" data-name="Path 119578" d="M137.8.373c.039,1.97-1.646,2.69-1.607,4.659-1.112.56-1.611-2.2-2.968-.938.263,1.485,1.573,1.846,1.9,3.268.46,1.211.705,2.682,1.82,3.09a2.168,2.168,0,0,1,1.326,2.464c-.087,1.566-1.073,1.667-1.766,1.885-1.093.344-1.876.711-1.379,2.655-1.108.086-1.655-.627-1.61-2.282.064-2.315-1.077-4.089-1.342-6.392-.3-2.625-1.225-5.482-4.17-4.815-1.129.255-3.19-.722-3.594-3.593Z" transform="translate(-55.588 -1.653)" fill="#fff"/>
      <path id="Path_119579" data-name="Path 119579" d="M13.624,10.47c-1.038-2.782-2.934-.592-4.286-1.556-.584-1.3-2.351-.875-2.223-3.209A2.009,2.009,0,0,1,8.242,4.77c.017-.613-.283-.179-.371-.183-.354-.018.131-.042-.237,0a2.456,2.456,0,0,1-2.575-1.1q0-.781,0-1.563a1.384,1.384,0,0,1,0-1.553H16.838a1.7,1.7,0,0,1-.06,1.888c-.548.805-1.492.913-1.8,2.146-.228,2.091,1.109,4.535-.673,6.269a.53.53,0,0,1-.683-.206" transform="translate(-10.7 -1.653)" fill="#fff"/>
      <path id="Path_119580" data-name="Path 119580" d="M51.767,2.7l2.784.184c-.971,1.068-2.32.322-2.251,2.146-.628,3.114-.9,3.169-4.029.78-.425,1.252.636,3.882-1.508,3.562-1.221-1.2-2.776-.527-4.036-1.505-1.017-1.56-1.474-3.73-2.649-5.123-.327-.726-.973-1.277-.635-2.374h3.214a3,3,0,0,0,3.214,0h.535c1.9.23,3.467,2.065,5.359,2.331" transform="translate(-23.663 -1.653)" fill="#fff"/>
      <path id="Path_119581" data-name="Path 119581" d="M98.208.373l.536,1.553c.583-.174.833.326.752,1.02-.114.969-.522,1.569-1.287,1.311-1.536.61-1.708,2.011-1.073,3.881-.061.152-.121.3-.181.457a10.116,10.116,0,0,0-2.916,4.458c-.515.619-1.061,1.027-1.736.527a5.235,5.235,0,0,1-.227-4.293,7.378,7.378,0,0,0-.032-5c.525-1.4,1.708-2.145,1.878-3.91Z" transform="translate(-43.321 -1.653)" fill="#fff"/>
      <path id="Path_119582" data-name="Path 119582" d="M.05,37.572c.892.986,1.785,3.046,2.678,0,.593-.424.873.065,1.073.779,1.288.719,1.266,3.339,2.677,3.878.926.395,1.822-.418,2.75-.142a2.061,2.061,0,0,1-.136,3.275c-1.735.783-3.376.1-5.01-.668-.768-.176-.976-3.3-2.244-.893-.6.379-1.2.652-1.788-.018Z" transform="translate(-8.912 -15.557)" fill="#fff"/>
      <path id="Path_119583" data-name="Path 119583" d="M23.088,1.927,23.624.373H27.91a6.079,6.079,0,0,1,.4,3.336,2.125,2.125,0,0,1-.409.821c-.276.217-.69.054-.86.344-.18.307.222.445.356.687a1.7,1.7,0,0,1,.154.885c-.661.57-.528,1.893-1.133,2.52-2.805,1.906-3.467,1.276-3.238-3.085a7.807,7.807,0,0,0-.14-1.92,3.175,3.175,0,0,1,.052-2.036" transform="translate(-17.486 -1.653)" fill="#fff"/>
      <path id="Path_119584" data-name="Path 119584" d="M3.8,46.822c1.712,1.339,3.569.574,5.359.777a3.876,3.876,0,0,1,.789,3.464q-.126.21-.254.419H9.154c-.781-.137-1.319,1.137-2.139.776-.569-2.4-1.351-4.285-3.419-2.822C1.961,50.592,1.613,46.653.05,47.6v-.776c.593-.011,1.2.053,1.607-.775.923-.953,1.618-.591,2.142.775" transform="translate(-8.912 -18.596)" fill="#fff"/>
      <path id="Path_119585" data-name="Path 119585" d="M91.689.373c1.226,3.366,1.226,3.366-1.608,3.885-1.09,2.48-2.473,3.261-4.284,1.552-.2-2.3.734-3.189,2.885-2.582C88.872,1.644,87.127,1.858,87.4.373Z" transform="translate(-41.087 -1.653)" fill="#fff"/>
      <path id="Path_119586" data-name="Path 119586" d="M30.79,3.478c-.044-1.035-.477-2.069,0-3.1h5.357l1.073,1.553c-.463,1.558-1.328,2.758-1.813,4.3-.219.656-.53,1.159-1.049,1.308-.848-.167-1.159-1.172-1.545-2.06C32.544,3.948,31.436,4.2,30.79,3.478" transform="translate(-20.367 -1.653)" fill="#fff"/>
      <path id="Path_119587" data-name="Path 119587" d="M56.008,2.7a5.693,5.693,0,0,1-.156.716c-.3.829-1.2,1-1.283.618-.618-2.9-3.46-.62-3.92-3.665h5.358a2.987,2.987,0,0,0,0,2.331" transform="translate(-27.904 -1.653)" fill="#fff"/>
      <path id="Path_119588" data-name="Path 119588" d="M108.858.373c-.154.751.384,2.051-.348,2.151-.37.051-.836-1.386-1.259-2.151Z" transform="translate(-49.15 -1.653)" fill="#fff"/>
      <path id="Path_119589" data-name="Path 119589" d="M107.351,18.187a16.309,16.309,0,0,0,1.069-1.7,3.446,3.446,0,0,0-.377-4.071c-1-.949-1.577.444-2.1,1.485-.241.485-.2,1.269-.957,1.514-.622-3.243-.522-6.56-.718-10.047,1.714.293,1.171,4.8,3.574,3.184-.429-1.181-1.782-2.629-.325-3.855,1.078-.908,1.544.371,2.338,1.621.828,1.3,2.043,2.074,2.312,4.1-.1,1.036-.629,2.071,0,3.106-.265,3.2.566,4.394,2.767,3.288.743-.373,1.524-.077,1.8,1.037a11.9,11.9,0,0,1,.044,5.675c-.227.883-1.261.55-1.942.087-.315-.214-.645-.382-1.014-.6a2.237,2.237,0,0,0,.716,2.605c1.861,1.325.3,1.865-.23,2.658a2.016,2.016,0,0,1-1.866,1.132c-.412.084-.731.293-.617,1.053.88,3.2,1.916,5.46,4.767,3.537,1.008-.68,2.447.1,3.673.462a2.2,2.2,0,0,1,.628.6c.615,1.491.3,3.271-.582,3.6-2.346.882-4.532,4.272-7.237,1.4a4.885,4.885,0,0,0-1.975-1.027c-1.015-.561-1.148-2.233-1.889-3.15-.665-.824-.382.219-.489.512a2.3,2.3,0,0,1-.357.875,11.4,11.4,0,0,1-3.173,1.983c-.387.19-1.089.15-.983.938.483,3.573-1.213,2.98-2.612,3.018-2.3-.941-3.1-3.093-2.291-6.508-1.322-.43-1.98,1.306-2.991,1.46a6.594,6.594,0,0,1-.647.486c-.87.593-1.715,1.365-2.752.954-1.165-.578-1.7-2.271-2.687-3.175a4.385,4.385,0,0,1-.881-.9,2.33,2.33,0,0,1-.385-1.447c1.151-2.35,2.311-.747,3.439-.072.255.46.328-.523.147-.076-.069.171-.214.156-.245-.1-.292-2.341-2.152-3.123-2.533-5.371a5.119,5.119,0,0,1,.016-1.637c.311-1.629,1.3-2.13,2.2-2.769a2.518,2.518,0,0,1,.7-.372c1.046.021,1.928-1.078,3.115-.861-1.126-.922-2.006,1.266-3.023.174a3.212,3.212,0,0,1-.33-1.048,9.927,9.927,0,0,1,.655-4.012c.571-.974,1.238-1.5,2.127-.914.545.39.513,1.514,1.155,2.014-.121-.784-.591-.931-.76-1.437-2.173-2.943-2.013-5.71.462-7.957h0c2.06.146,3.935-1.753,6.08-1.084.484.151.8.191.972.828.152.577-.064,1.187-.41,1.184-1.508-.017-1.919,1.721-2.508,3.145-.79,1.909-1.725.974-2.961-.1.547,2.792,2.2,2.718,2.808,2.3,2.716-1.879,2.138,1.219,2.451,3.038-.22.488-.289,1.086-.536,1.556-1.786.829.344,2.8-.538,3.888-2.649,1.261-3.035.057-.954,7.834-.223-2.964-.452-5.333,1.979-4.689.291.077.642-.812,1.033-1.131a.791.791,0,0,1,.725.09c.633.82,1.191,1.6,2.18,1.745,1.755.262,2.1-.671,1.533-2.835.5-2.529-.2-4.852-.6-7.227" transform="translate(-42.285 -3.163)" fill="#fff"/>
      <path id="Path_119590" data-name="Path 119590" d="M148.172,22.28c.873,1.352,2.782-.3,3.213,2.329-1.374,3.131-3.4,5.358-5.2,7.914a2.96,2.96,0,0,1-3.9-1.7c-.72-1.811.571-3.624,0-5.435l4.283-3.884c.53.289,1,.851,1.61.777" transform="translate(-62.213 -9.584)" fill="#fff"/>
      <path id="Path_119591" data-name="Path 119591" d="M124.618,42.008H127.3c.585,1.277.434,3.129,1.778,4.26-.2-4.492,2.439-3.843,4.114-5.037,1.282-.83,1.6.375,1.821,1.8-.505,2.067-2.153.583-2.877,1.95-.492,1.266.485,1.424.764,2.105a2.1,2.1,0,0,1,.293,1.908c-1.856.4-3.857-1.277-5.62,1.255-.507.728-1.59-.612-2.066-1.763-.673-1.625-1.306-3.284-1.955-4.928a8.361,8.361,0,0,0,1.068-1.548" transform="translate(-55.268 -16.887)" fill="#fff"/>
      <path id="Path_119592" data-name="Path 119592" d="M140.585,41.864c-.37-1.016-.588-2.251-1.6-2.336.679-1.087,2.213-.933,2.144-3.105a8.132,8.132,0,0,0,4.285.776c-.923,2.659,1.021,5.373-.066,8.032-1.118,1.8.814,3.464.117,5.245a1.519,1.519,0,0,1-1.259,1.009c-.879-1.485-3.008-.82-3.07-3.727a18.923,18.923,0,0,1,.209-3.059c.922-1.713-.708-1.1-.822-1.872a1.04,1.04,0,0,1,.065-.962" transform="translate(-61.06 -15.184)" fill="#fff"/>
      <path id="Path_119593" data-name="Path 119593" d="M108.941,38.253c-.562,1.459-.176,5.915-2.46,1.3-.513,1.99.776,3.585-.077,5.211-.272.518-.474,1.147-1.005,1.043-.649-.128-.384-.872-.479-1.455-.28-1.7-.885-3.331-1-5.04-.082-1.2-1.332-2.276-.365-3.49,1.024-1.287,2.171-.653,3.246.1-.067,1.825.37,2.556,1.605,1.553q.468.1.538.78" transform="translate(-47.624 -14.681)" fill="#fff"/>
      <path id="Path_119594" data-name="Path 119594" d="M112.075,35.021l-.538-.78c.156-.307.367-.912.461-.876,2.447.926,2.887-1.469,3.228-4.036.13-.983-.061-2.105.6-2.854,1.873,1.843,1.985,4.253,1.072,6.992-1.922,3.987-1.922,3.987-4.288,1.556-.177,0-.355,0-.533,0" transform="translate(-50.759 -11.45)" fill="#fff"/>
      <path id="Path_119595" data-name="Path 119595" d="M125.3,17.152c-.841-.1-1.315-.926-1.355-1.986-.052-1.362.8-1,1.355-1.12,1.063.011,2.128-.015,3.189.046.773.043,1.4.516,1.507,1.749a3.2,3.2,0,0,1-.712,2.372c-.646.745-1.272.244-1.973-.087-.669-.315-.723-3.55-2.011-.974" transform="translate(-55.416 -6.785)" fill="#fff"/>
      <path id="Path_119596" data-name="Path 119596" d="M102.107,4.895c.584-.581,1.42-1.041.535-2.331,1.317-1.389,1.417.517,1.8,1.462a1.609,1.609,0,0,1-.567,2.15c-.855.462-1.577.3-1.765-1.282" transform="translate(-47.219 -2.291)" fill="#fff"/>
      <path id="Path_119597" data-name="Path 119597" d="M112.688,32.549c-.647.344-.821-.176-.815-.667.012-1.113.581-1.472,1.239-1.568a.844.844,0,0,1,1.075.769c.32,2.377-2.191-1.473-1.5,1.466" transform="translate(-50.885 -12.885)" fill="#fff"/>
      <path id="Path_119598" data-name="Path 119598" d="M109.417,29.043c-.1-.625-1-.759-.571-1.641.295-.607.737-.071,1.107.084.748,1.19.121,1.384-.536,1.557" transform="translate(-49.705 -11.692)" fill="#fff"/>
      <path id="Path_119599" data-name="Path 119599" d="M18.846,60.28c.795.047,1.071-1.033,1.605-1.552.12-.015.239-.029.359-.046,2.134.676,3.724,2.908,5.657,4.157.555.227.726,1.925,1.616.867,1.576.03,1.2-3.49,2.855-3.307a11.389,11.389,0,0,0,1.707.187c.222-.051.444-.086.663-.143.909-.168,1.106-2.572,2.372-1.607a6.159,6.159,0,0,1,.495,2.491c.084.977.308,1.678,1.143,1.488a1.947,1.947,0,0,1,2.468,1.394c-1.419,3.576-2.5,3.932-5.426,1.8-.5-.422-1-.8-1.609-.5-.467.357-1.841.19-.428,1.593a2.725,2.725,0,0,1,.78,1.41,3.847,3.847,0,0,1-.036,1.061,8.236,8.236,0,0,1-1.293,2.53,1.068,1.068,0,0,1-1.068-.121c-.7-.634-1.686-.463-2.215-1.6-.444-.137-1.088-.424-.944-1.062.818-3.608-1.145-3.173-2.434-3.56-1.316-.394-2.672-.285-4.018-.624C18.981,64.6,18.447,63.016,18.846,60.28Z" transform="translate(-15.921 -23.511)" fill="#fff"/>
      <path id="Path_119600" data-name="Path 119600" d="M12.914,40.453c1.435-2.572,2.571-1.759,3.152.888.552,2.512,1.471,4.113,3.281,4.548a9.1,9.1,0,0,1,.436,2.7c0,1.493.405,3.47-1.512,2.735h0l-3.749-2.331h0c1.75-2.048.816-4.056-.076-6.013-.374-.82-1.224-.964-1.485-2-.016-.174-.031-.35-.046-.525" transform="translate(-13.74 -16.11)" fill="#fff"/>
      <path id="Path_119601" data-name="Path 119601" d="M13.819,72.46c-.879,2.669-1.687,5.548-4.291,2.921-.124-.126-.338-.054-.506-.1-.78-.227-2.13,1.921-2.256-.457-.117-2.224,1.451-2.482,2.767-2.363,1.428,2.058,2.857.111,4.286,0" transform="translate(-11.431 -28.701)" fill="#fff"/>
      <path id="Path_119602" data-name="Path 119602" d="M19.764,87.071V83.354c.833.082.255,1.573,1.031,1.57.6-1.084-.17-2.192.045-3.254.315-1.282-.73-4.047,1.617-3.117,0,.164,0,.327,0,.491a8.347,8.347,0,0,0-.182,2.342c.294.806.9.928,1.384,1.3,1.228.657,2.437,1.329,1.538,3.789-1.231.671-2.58-.278-3.8.589H19.764" transform="translate(-16.312 -30.927)" fill="#fff"/>
      <path id="Path_119603" data-name="Path 119603" d="M23.923,78.188c1.607.265,3.438-2.4,4.82.78a1.059,1.059,0,0,1-.035,1.084c-1.466,1.345-2.963.68-4.459.147a1.482,1.482,0,0,1-.334-1.994Z" transform="translate(-17.779 -30.563)" fill="#fff"/>
      <path id="Path_119604" data-name="Path 119604" d="M31.784,79.764q0-.394,0-.788c.761-.016,1.287-.546,1.605-1.536.908.132,1.911-.443,2.673.766-.4,2.822-1.987,2.212-3.3,2.389a1.41,1.41,0,0,1-.979-.831" transform="translate(-20.823 -30.571)" fill="#fff"/>
      <path id="Path_119605" data-name="Path 119605" d="M16.985,63.879c-.989.6-1.287.908-1.37.814a5.458,5.458,0,0,1-.583-1.08c.186-.167.385-.5.555-.465a6.568,6.568,0,0,1,1.4.731" transform="translate(-14.535 -25.215)" fill="#fff"/>
      <path id="Path_119606" data-name="Path 119606" d="M11.2,55.567c.6-.941,1.2-1.8,2.139-.776-.626.761-1.163,2.039-2.139.776" transform="translate(-13.097 -21.904)" fill="#fff"/>
      <path id="Path_119607" data-name="Path 119607" d="M17.858,60.666c-.557-.133-1.178.3-1.764-.491C16.9,59,17.36,60.017,17.858,60.666Z" transform="translate(-14.934 -23.898)" fill="#fff"/>
      <path id="Path_119608" data-name="Path 119608" d="M21.488,39.667q0-.777,0-1.554c.367-.426.168-1.167.414-1.621a.326.326,0,0,0,.285-.32,2.523,2.523,0,0,1-.478.061c-1.638-1.418-.575-4.061-1.294-5.891.647-1.61-.337-2.272-.874-3.216-.83-1.458-2.189-2.347-2.338-4.542.583-.543,1.116-.169,1.653.176.541.6,1.255.731,1.8,1.335a4.972,4.972,0,0,1,.455,2c-.006-.025.182-.117.182-.117a1.418,1.418,0,0,1-.166-.2c-.057-3.93.216-4.138,2.961-2.292a3.321,3.321,0,0,1,.505.86,14.326,14.326,0,0,1,.489,2.665,10,10,0,0,1-.32,3.615c-.4.552-.845,1.1-.047,1.74a2.709,2.709,0,0,1,.417.836c.058,2.96.663,4.89,3.144,4.1.781-.247,1.572.4,1.52,1.963a1.344,1.344,0,0,1-.445.77c-1.167.079-2.011,1.664-3.239,1.485C24.745,40,22.8,41.5,21.488,39.667" transform="translate(-15.351 -9.887)" fill="#fff"/>
      <path id="Path_119609" data-name="Path 119609" d="M23.422,49.857c1.585.664,3.7-2.138,4.822,1.552.062.445.353.613.535.918a4.221,4.221,0,0,1,.464,2.084,4.97,4.97,0,0,0,.359,2.165,4.54,4.54,0,0,1-.288,4.151c-.776.787-1.127-.267-1.6-.776a91.328,91.328,0,0,1-5.353-7.774l.535-2.32h.532" transform="translate(-17.285 -20.077)" fill="#fff"/>
      <path id="Path_119610" data-name="Path 119610" d="M23.133,21.807c-.893.218-1.642-.628-2.678-1.071v4.178A5.356,5.356,0,0,1,19.38,21.8c-.492-.444-1.146-.178-1.6-.772l-1.607-.776c-.358.123-.716.735-1.073,0a1.171,1.171,0,0,1-.536-1.55c-.351-3.785,1.683-1.8,2.679-2.328l.536,0c2.366-.906,4.271.644,6.138,2.419a2.842,2.842,0,0,1-.781,3.017" transform="translate(-14.317 -7.558)" fill="#fff"/>
      <path id="Path_119611" data-name="Path 119611" d="M8.127,30.11a13.223,13.223,0,0,0-.666-4.836A2.891,2.891,0,0,1,8.389,22.1c.89-.916,1.529-.111,1.8,1.134.253,1.138.818.99,1.415,1.226,1,.4.972,1.85.711,2.875-.474,1.862-.773.242-1.129-.259-.251-.352-.522-.136-.615.222a1.763,1.763,0,0,0,.022,1.054c3.01,3.874-.594,2.981-1.395,4.1A4.152,4.152,0,0,1,8.127,30.11" transform="translate(-11.638 -9.66)" fill="#fff"/>
      <path id="Path_119612" data-name="Path 119612" d="M20.3,34.964c1.553,1.184,1.3,3.486,1.6,5.443a.457.457,0,0,1,.2.512q-.093.262-.189.262l-.538,1.554a10.121,10.121,0,0,1-1.868-3.757c-.572-1.595-.359-4.226-2.6-4.181,1.369-.6,2.338.6,3.395.166" transform="translate(-15.24 -14.509)" fill="#fff"/>
      <path id="Path_119613" data-name="Path 119613" d="M14.106,20.265q.268.775.535,1.55c-.467.255-1.021.688-1.311-.219-.324-1.009.255-1.2.775-1.331" transform="translate(-13.862 -9.119)" fill="#fff"/>
      <path id="Path_119614" data-name="Path 119614" d="M147.364,41.207c.121-.605.277-1.2.358-1.817.329-2.495-2.713-.868-2-3.139.286-.915,2.123-.635,2.179-2.808.1-1.625.127-3.325,1.65-3.543,1.542-.221,1.287-3.9,3.171-3.446.567,1.529,2.7,1.843,1.5,4.843-.43,1.071.776,1.943,1.688,2.141q0,7-.007,13.994c-1.3,1.844-2.625-.748-3.928.074a2.438,2.438,0,0,1-1.049.363,1.775,1.775,0,0,1-1.562-1.222c-.072-.859.353-1.91-.84-2.1-1.287-.2-2.12-1.247-1.157-3.341" transform="translate(-63.549 -11.428)" fill="#fff"/>
      <path id="Path_119615" data-name="Path 119615" d="M149.4,10.012c-.592-.755-1.094-1.664-2.036-1.578-.789.071-1.732.127-2-1.3a2.577,2.577,0,0,1,.934-2.546c.821-.612,1.6-1.943,2.662-.921.784.753,1.771,1.369,1.252,3.309a18.134,18.134,0,0,0-.282,3.039c-.177.387-.355.368-.532,0" transform="translate(-63.438 -2.748)" fill="#fff"/>
      <path id="Path_119616" data-name="Path 119616" d="M139.465,8.365a10.192,10.192,0,0,1-1.444-.906c-.8-.693-2.086-.885-2.032-2.67.047-1.63,1.263-1.019,1.928-1.456,1.415-.931,1.875.581,2.273,2.128a2.19,2.19,0,0,0,.347.576c.034,1.153-.712,1.555-1.071,2.329" transform="translate(-59.936 -2.656)" fill="#fff"/>
      <path id="Path_119617" data-name="Path 119617" d="M150.88,22.1c-.891,1.283-1.209.072-1.61-.777.773-.77,1.164.126,1.61.777" transform="translate(-64.922 -9.406)" fill="#fff"/>
      <path id="Path_119618" data-name="Path 119618" d="M155.682,6.117c.791-1.045,1.291-.6,2.006-.749-.69,1.175-1.195.53-2.006.749" transform="translate(-67.328 -3.528)" fill="#fff"/>
      <path id="Path_119619" data-name="Path 119619" d="M151.853,14.051c.177,0,.355,0,.532,0,.072.644.756,1.626-.02,1.828-.637.166-.432-1.129-.512-1.827" transform="translate(-65.891 -6.787)" fill="#fff"/>
      <path id="Path_119620" data-name="Path 119620" d="M126.959,80.226l-5.365-.007a2.9,2.9,0,0,1-.77-1.725c.215-2.388,2.238-1.437,2.8-3.192a2.155,2.155,0,0,1,.968-.605,3.723,3.723,0,0,1,.989-.1c.409-.039.629-.224.291-.852a7.622,7.622,0,0,1-.532-1.131c-.226-.5-.652-1.465-.888-.746-1.036,3.143-2.624,2.292-4.257,1.567-1.121-.76-1.1-1.956-.612-3.332.58-1.573,3-1.962,1.657-4.73-1.219-2.505-2.475-.6-3.655.405-.538.458-1.081,1.046-1.675.2a2.845,2.845,0,0,1-.032-2.831c1.187-2.9,3.233-2.755,5.171-2.963,1.791.986,4.055.447,4.554,4.847.168,1.48,2.449,3.32,3.947,4.612.662.571,1.131-.1,1.372-1.111.247-1.036.647-1.846,1.555-1.49,2.044.543,4.025,1.67,6.159,1.394a3.31,3.31,0,0,1,.73.2c.67.431,1.45.485,2.032,1.221a1.8,1.8,0,0,1,.2.968c-.253.918-1.121,1.2-1.154,2.345a5.962,5.962,0,0,1-.414,1.962c-.353.579-.77.916-1.324.743-.627-.285-.852-2.342-1.986-.376-1.359,2.356-2.039,1.8-2.78-1.711-.061-.245.1-.732-.211-.705-.2.017-.236.532-.376.806a7.221,7.221,0,0,1-3.471,3.3c-1.309.442-2.093,1.74-2.923,3.041" transform="translate(-52.251 -24.101)" fill="#fff"/>
      <path id="Path_119621" data-name="Path 119621" d="M40.475,85.078l-.551-.014c-1.4-1.685-.317-3.192.156-4.749a2.762,2.762,0,0,1,.84-1.068A1.326,1.326,0,0,1,42,79.127c.871.417,1.563,1.39,2.472,1.692.507.083.82-.309,1.051-.906a2.963,2.963,0,0,1,1.359-1.567c1.326-.7,2.788-.789,4-1.95.437-.8.953-1.5,1.34-2.368,1.615-2.3,2.411.116,3.435,1.242a7.626,7.626,0,0,1,1.106,3.344c.159,2.378,1.189,2.629,2.484,2.447a4.586,4.586,0,0,1-.037,4l-17.13.011c-.537-.824-1.073-.58-1.607.005" transform="translate(-23.619 -28.939)" fill="#fff"/>
      <path id="Path_119622" data-name="Path 119622" d="M71,83.3c-.712-1.279-.084-2.551.009-3.825a.387.387,0,0,1,.617-.047,1.616,1.616,0,0,1,.064-.252,1.267,1.267,0,0,1-.186-.114c-.374-.444-.793-1.272-.5-1.6,1.577-1.722.184-3.016-.2-4.456a5.034,5.034,0,0,1-.172-1.088c.156-1.453.034-3.145,1.427-3.557A10.593,10.593,0,0,1,75.66,72.98c.627,1.295.528,2.975,1.1,4.308.735,1.7,1.55,2.931,2.986,1.394,1.293-1.385,2.757-.262,4.118-.617a1.552,1.552,0,0,1,.648.44c.718.506-.391,2.6,1.043,2.494a2.521,2.521,0,0,1,1.575,1.293,1.192,1.192,0,0,1-.066,1.011L71,83.3" transform="translate(-35.403 -27.171)" fill="#fff"/>
      <path id="Path_119623" data-name="Path 119623" d="M141.322,80.386c.033,1.014-.062,2.17.756,2.635.7.4.834-.594,1.132-1.183.46-.908-.107-3.116,1.284-2.72,1.2.343.613,2.452,1.114,3.593-.146,1.628.435,2.148,1.452,1.99a8.986,8.986,0,0,0,1.043-.074,3.256,3.256,0,0,1,3.369.439c.139,2.7-1.206,2.3-2.321,2.3-5.11,0-10.219-.031-15.328-.051-.151-2.429.372-3.94,2.292-3.893,1.715.041,2.5-2.746,4.138-3.042.357-.488.714-.41,1.07,0" transform="translate(-59.114 -31.192)" fill="#fff"/>
      <path id="Path_119624" data-name="Path 119624" d="M104.327,83l-2.169,0c-.655-.988-1.572.057-2.27-.613-1.241-1.659-.6-4.956-2.507-6.019-.351-.056.206-1.45-.613-.864-.759.543-1.422,1.31-2.168,1.9a1.378,1.378,0,0,1-1.816-.6,3.31,3.31,0,0,1-.439-2.068c.412-.82,1.011-1.374,1.458-2.129a1.542,1.542,0,0,1,.239-.083,1.377,1.377,0,0,1,.254,0c-.678-1.723-1.038-3.386.419-4.713a1.61,1.61,0,0,1,.252-.117c1.384-.424,2.057,1.026,2.818,2.245.784-1.186,1.6-2.264,2.845-2.256a1.812,1.812,0,0,1,2.023,1.384c.375,1.317-.578,1.648-1.079,2.262a2.768,2.768,0,0,0-.685,1.57,51.552,51.552,0,0,0,3.5,9.135,1.2,1.2,0,0,1-.064.981" transform="translate(-43.547 -26.89)" fill="#fff"/>
      <path id="Path_119625" data-name="Path 119625" d="M111.446,88q0-.356,0-.713c-.054-.094-.169-.22-.154-.279.622-2.469.625-2.79.014-4.824,2.232-.909,4.489-2.544,6.593.467.136,1.786,1,3.58-.019,5.356L111.446,88" transform="translate(-50.666 -31.886)" fill="#fff"/>
      <path id="Path_119626" data-name="Path 119626" d="M159.187,61.784q0,3.873,0,7.746c-1.225,1.525-2.417,1.68-3.564-.174-2.068-1.028-1.093-2.589-.347-4.118.526-1.177.444-2.814,1.234-3.747.91-1.073,1.874-1.455,2.68.294" transform="translate(-66.839 -24.251)" fill="#fff"/>
      <path id="Path_119627" data-name="Path 119627" d="M98.9,81.136c.918.51,3.5-1.459,1.948,2.858-.181.5,1.629,1.62.732,3.357.2.151.274.307.21.468s-.131.245-.2.245l-1.1,0c-.528-.724-1.055-.726-1.581.006l-2.164,0q.008-.364.007-.728a2.188,2.188,0,0,1,.207-2.464c.152-.234.466-.23.521-.661a1.546,1.546,0,0,1-.5-.189,1.714,1.714,0,0,1-.483-.678,2.475,2.475,0,0,1,.078-1.474c.663-.968,1.494-.838,2.32-.746" transform="translate(-45.088 -31.944)" fill="#fff"/>
      <path id="Path_119628" data-name="Path 119628" d="M13.655,86.907c0,.24,0,.48-.006.72l-1.048.022a3.785,3.785,0,0,1-.552-2.3c.884-1.273-.49-3.269.45-4.182.839-.813,2.026-.873,3.06-1.265.158,1.84,1.036,3.6.538,5.475-.252.951-.9.169-1.371-.024-1.427-1.033-.338,1.58-1.071,1.554" transform="translate(-13.409 -31.504)" fill="#fff"/>
      <path id="Path_119629" data-name="Path 119629" d="M153.721,87.174c-.825-.189-1.867.567-2.425-.728a1.935,1.935,0,0,1,.818-2.381l1.071-.776c2.519-1.232,3.7-.663,4.794,2.3q0,.413,0,.827c-.958,1.184-2.232-.462-3.186.754-.357-.555-.715-.839-1.071,0" transform="translate(-65.62 -32.547)" fill="#fff"/>
      <path id="Path_119630" data-name="Path 119630" d="M27.062,87.621c.337-2.555-1.485-1.982-2.139-3.1,1.806-3.665,3.214-3.61,4.845.185a4.8,4.8,0,0,1-.569,3.645l-2.126-.009q-.507-.345-.01-.718" transform="translate(-18.248 -32.222)" fill="#fff"/>
      <path id="Path_119631" data-name="Path 119631" d="M159.214,84.068c-1.3-2.071-3.146-1.752-4.794-2.3V79.437a3.922,3.922,0,0,1,4.782-.006q.007,2.318.012,4.637" transform="translate(-66.855 -31.023)" fill="#fff"/>
      <path id="Path_119632" data-name="Path 119632" d="M159.08,60.769c-3.307-1.655-2.406,2.7-3.176,4.671-.888.767-1.4.1-1.81-.984a36.657,36.657,0,0,1,.45-4.4,2.307,2.307,0,0,0,.289-1.607c1.6-1.856,2.754,1.425,4.251.789q0,.765,0,1.529" transform="translate(-66.732 -23.236)" fill="#fff"/>
      <path id="Path_119633" data-name="Path 119633" d="M31.73,88.793l.007-3.827a1.608,1.608,0,0,1,.355-1.544c2.66-1.653,2.44,1.915,3.2,3.709a2.6,2.6,0,0,1-.332,1.662H31.73" transform="translate(-20.779 -32.666)" fill="#fff"/>
      <path id="Path_119634" data-name="Path 119634" d="M121.513,88.79q-.271-2.69-.541-5.381a.743.743,0,0,1,1.094-.28c1.02,1.033.8,2.72,1.049,4.163l.528,1.492-2.131.006" transform="translate(-54.3 -32.666)" fill="#fff"/>
      <path id="Path_119635" data-name="Path 119635" d="M36.921,89.335l-.011-1.5c-.222-2.2.956-2.694,1.971-3.389a.77.77,0,0,1,.706.285c.194,1.627-1.137,2.876-.544,4.6l-2.121,0" transform="translate(-22.737 -33.206)" fill="#fff"/>
      <path id="Path_119636" data-name="Path 119636" d="M156.026,77.444c.933,1.327,2.112.566,3.175.783a4.58,4.58,0,0,1,0,.763,6.9,6.9,0,0,1-4.783.006c.1-1.42.1-1.42,1.607-1.552" transform="translate(-66.854 -30.582)" fill="#fff"/>
      <path id="Path_119637" data-name="Path 119637" d="M104.694,91.416c-.007-.238-.011-.475-.012-.713.785-.272,1.766-1.773,2.115.7l-2.1.01" transform="translate(-48.186 -35.296)" fill="#fff"/>
      <path id="Path_119638" data-name="Path 119638" d="M46.865,10.832c1.35-.918-.152-2.56.443-3.744.186-.37-.3-1.293.326-1.552.594-.244.726.437,1.091.988.954,1.443,2.184,3.088,3.5.428.578,1.046,1.4.7,2.143.776-.613,2.113,1.2,1.86,1.459,3.128a4.751,4.751,0,0,1,.268,3.194c-1.963.212-3.481,3.181-5.684,1.942-.379-1.064-.232-2.418-.859-3.37-.419.421-.319,1.1-.444,1.634.074.913.71,1.058,1.049,1.6.432,1.019,1.381,1.265,1.723,2.419a6.022,6.022,0,0,1,.136,2.05c0,1.138-.194,2.118-1.012,2.585-.551.148-.971-.164-1.306-.775a4.891,4.891,0,0,1-.329-.936,6.069,6.069,0,0,0-2.476-3.8c-.444-.049-.7.468-1.036.74-.608.408-1.29.3-1.913.607-1.046.337-2.016,1.05-3.082,1.279a1.366,1.366,0,0,1-1.07-.377c-.482-.66-.9-1.884-.465-2.319,1.6-1.615-.041-2.754-.131-4.086.581-1.882,1.681-1.425,2.743-1.354,1.009.068,2.138.806,2.947-.791a1.608,1.608,0,0,1,.936-.81,1.293,1.293,0,0,1,1.045.538" transform="translate(-23.586 -3.572)" fill="#fff"/>
      <path id="Path_119639" data-name="Path 119639" d="M80.763,8.145c1.544.156,2.913-.7,4.284-1.552,1.315,1.271,2.319,2.566.666,4.783-.9,1.212-.094,3.12-.665,4.532l-.3.354a.942.942,0,0,1-1.093-.177c-1.024-2.048-2.059-1.972-3.069.006-.462.9-.662,2.1-1.43,2.659-1.018.513-1.86.089-2.507-.92.752,1.679,2.228.78,3.276,1.632a2.965,2.965,0,0,1,.254,3.576c-1.22.387-2.439.8-3.657,1.214-.526-.015-1.222-.173-1.162-1,.237-3.21-1.088-.647-1.611-.983-1-.495-1.492-1.464-1.372-3.021a4.281,4.281,0,0,1,.865-1.81c1.2-1.115.907-3.234,1.5-4.75.634-1.073,1.592.166,2.263-.662l.495.207c-.1-3.343,2.262-2.57,3.256-4.087" transform="translate(-36.054 -3.988)" fill="#fff"/>
      <path id="Path_119640" data-name="Path 119640" d="M75.8,13.376c-.322,2.52-1.433.5-2.144.781-2.3,2.259-2.389,2.193-3.262-1.237-.221-.87-1.482-.678-1.234-2.211q.106-.219.212-.437c2.324.244,5.066-1.327,6.427,3.1" transform="translate(-34.84 -5.338)" fill="#fff"/>
      <path id="Path_119641" data-name="Path 119641" d="M64.2,11.639c-1.112-.488-2.588-.714-1.073-3.108,1.359-.848,2.732-1.825,3.752.777h0c-.54.652.019,1.683-.39,2.381-.769.587-1.535.861-2.289-.049" transform="translate(-32.344 -4.375)" fill="#fff"/>
      <path id="Path_119642" data-name="Path 119642" d="M14.326,88.09c-.1-1.609-.976-3.137-.167-5.035,1.066.706.633,2.53,1.238,3.482-.045.969-.4,1.489-1.071,1.553" transform="translate(-14.08 -32.688)" fill="#fff"/>
      <path id="Path_119643" data-name="Path 119643" d="M25.568,14.376c-2.124.074-4.036-.979-5.893-2.329,1.419-2.329-.759-4.659,0-6.988.893.022,1.785-1.081,2.678,0,.561.643.4,1.6.551,2.432.2,1.113-1.313,1.833-.279,2.944.939,1.008,1.574-.666,2.407-.716a5.087,5.087,0,0,1,.536,4.658" transform="translate(-16.216 -3.233)" fill="#fff"/>
      <path id="Path_119644" data-name="Path 119644" d="M22.453,4.412c-.893.17-1.785,1.015-2.678,0A2.855,2.855,0,0,1,21.918,2.86l.535,1.552" transform="translate(-16.316 -2.586)" fill="#fff"/>
      <path id="Path_119645" data-name="Path 119645" d="M37.788,6.742c.505-1.537.206-4.007,2.143-3.885,1.071,1.515,2.537,2.7,2.141,5.434a1.717,1.717,0,0,1,.285.963,1.465,1.465,0,0,1-.409.862c-1.728-.239-3.911.7-4.16-3.374" transform="translate(-23.077 -2.583)" fill="#fff"/>
      <path id="Path_119646" data-name="Path 119646" d="M44.646,12.3v-.778c1.455.362,3.212-1.024,4.284,1.553H47.86c-1.084-.147-2.3.821-3.214-.775" transform="translate(-25.651 -5.818)" fill="#fff"/>
      <path id="Path_119647" data-name="Path 119647" d="M97.827,20.568a2.916,2.916,0,0,0-2.141.778,4.13,4.13,0,0,1-.61-3.369c.023-.171.048-.343.073-.514-.143-3.313,1.231-4.428,3.214-4.659C97.578,15.3,96.346,17.739,97.827,20.568Z" transform="translate(-44.547 -6.319)" fill="#fff"/>
      <path id="Path_119648" data-name="Path 119648" d="M92.3,21.039l1.606-.777h0c.549,2.013-.341,2.5-1.41,2.792-1.084-.46-1.008-1.164-.2-2.018Z" transform="translate(-43.309 -9.118)" fill="#fff"/>
      <path id="Path_119649" data-name="Path 119649" d="M13.449,43.724a3.218,3.218,0,0,1-.535-2.33c2.3,1.3,2.636,5.185,5.01,7.039l-3.4,1.5q-.268-1.941-.535-3.883c.883-1.291.049-1.75-.537-2.329" transform="translate(-13.74 -17.05)" fill="#fff"/>
      <path id="Path_119650" data-name="Path 119650" d="M28.881,14.3a11.5,11.5,0,0,1-.536-4.658c.437-.4.161-1.839,1.072-1.553.72.509.238-.36.317-.594a6.747,6.747,0,0,1,.218-1.735V4.986c1.3-.95,2.342-.979,2.677,1.555.181,3.937,1.155,7.7,1.2,11.669a1.379,1.379,0,0,1-1.372.733c-.923-.157-1.808-.773-2.771-.488a1.209,1.209,0,0,1-1.344-.268q0-.389,0-.777l.536-3.106" transform="translate(-19.529 -3.161)" fill="#fff"/>
      <path id="Path_119651" data-name="Path 119651" d="M29.2,6.294a1,1,0,0,1,0,1.557q-.266.562-.535,0c-.726-.16-1.517.349-2.331-.557.833-1.382,1.691-2,2.864-1" transform="translate(-18.78 -3.692)" fill="#fff"/>
      <path id="Path_119652" data-name="Path 119652" d="M30.067,9.084c.178,0,.357,0,.535,0,.041.114.084.226.121.342.278.857,1.129,1.482.567,2.67-.121.256-.5.527-.657.434-.9-.531-.437-1.748-.569-2.674q0-.384,0-.769" transform="translate(-20.176 -4.921)" fill="#fff"/>
      <path id="Path_119653" data-name="Path 119653" d="M35.767,19.47c-1.8-2.974-.535-7.175-1.925-10.345-.053-.121.553-.848.853-1.292l1.072,2.33c.1.109.194.219.292.327.548.991.3,2.256.556,3.32.255.092.54-.022.761.237a7.7,7.7,0,0,1,1.738,1.59c.463.74,1.254,2.149-.345,2.241-1.434.082-.893,1.34-.855,2.365-.873.66-1.57.3-2.146-.773" transform="translate(-21.595 -4.453)" fill="#fff"/>
      <path id="Path_119654" data-name="Path 119654" d="M38.534,14.515l-1.073,1.555c-.7-1.706.181-3.738-.535-5.441h0l.539-1.552c.856,2.695,2.995,1.665,4.284,3.1,1.024-.685,1.857,0,2.677.783.271,1.071.9,2.2-.771,1.885s-3.387-1.239-5.12-.329" transform="translate(-22.753 -4.921)" fill="#fff"/>
      <path id="Path_119655" data-name="Path 119655" d="M80.6,26.237c.891-1.043.287-2.077-.008-3.113a2.1,2.1,0,0,1-.533-1.55,9.248,9.248,0,0,1,2.534-5.685c.558-.707,1.037-.411,1.314.23a29.348,29.348,0,0,1,.975,3.123c.342,1.5-.613,1.144-1.044,1.539-.524.474-.162,1.371-.472,2.046.359-.642-.034-1.525.44-2.018,1.724-.152,1.891,1.717,2.018,3.447.119,1.636.27,3.177,1.2,4.307-.079,2-1.753.923-2.139,2.331-.718.4-1.563.267-2.575,1.7,1.171-.908,1.9-.805,2.575-.149.617.046.2,2.034,1.206,1.348,1.414-.965,1.794.473,1.273,1.7-1.174,2.757.691,2.027,1.379,2.837-1.63,1.99-3.407-1.95-4.93.33-.874.755-.632-1.954-1.478-1.034-.41.447.074,1.135.065,1.729a3.491,3.491,0,0,1-.471,1.424c-2.3,2.427-3.906,2.62-5.716.5-.8-.941-1.953-2.153-.074-3.287.912-.55.76-1.2.2-1.972a13.973,13.973,0,0,1-1.2-2.521,3.77,3.77,0,0,1,.108-3.441c.328-.284.978.372,1.038-.741,1.043-1.114,1.527.572,2.251.919a2.336,2.336,0,0,1-.939-1.865,2.226,2.226,0,0,1,.311-.923,17.279,17.279,0,0,1,2.7-1.2" transform="translate(-36.958 -7.323)" fill="#fff"/>
      <path id="Path_119656" data-name="Path 119656" d="M118.544,57.658c-1.829,1.107-4.639-.019-5.06,4.875a22.021,22.021,0,0,1,3.382-2.78c1.439-.745,2.417.871,2.882,2.432.892,3-.84,3.851-2.275,4.79-.828,1.3-2.156,1.3-3.041,2.457-1.372-.074-2.211-1.875-3.491-2.261a3.237,3.237,0,0,1-.373-1.479,3.784,3.784,0,0,0-.917-3.213,2.392,2.392,0,0,1-.75-2.493c.768-.136,1.6.342,2.319-.5.177-1.529-1.32-1.206-1.319-2.988,2.088.2,3.81-1.98,5.96-1.944.209-.081.283-.272.206-.565-.039-.15-.116-.216-.2-.216-.228-.819-1.123-.784-1.159-2.125,2.312-.294,3.143,1.951,3.838,4.456a1.441,1.441,0,0,1,0,1.553" transform="translate(-49.729 -20.889)" fill="#fff"/>
      <path id="Path_119657" data-name="Path 119657" d="M124.4,58.361V56.808c1.169-.711,2.013.468,2.9,1.151,1.059.815,2.044,2.013,2.543-.8.194-1.094.765-.838,1.274-.5,2.131,1.408,2.637-.542,2.925-2.955a.584.584,0,0,1,.691-.152c.5,1.806,2.392,2.351,2.093,4.875-.919.711-1.768-1.025-2.676-.181.036.2-.414.225-.092.558.027-.89.479-.733.873-.736,2.589,2.054,2.861,4.829.721,7.28-.4-.533-.686-.255-.748.367-.114,1.132.78,2.963-.551,3.189a2.447,2.447,0,0,1-3.049-1.651,4.978,4.978,0,0,0-3.328-3.426c-.518-.22-1.119-.452-1.142-1.364-.032-1.313,1.021-.7,1.414-1.41-.751-2.57-2.792-1.171-3.848-2.694" transform="translate(-55.588 -21.593)" fill="#fff"/>
      <path id="Path_119658" data-name="Path 119658" d="M102.49,60.783c.389,2.082,3.544,1.873,2.143,5.437a2.471,2.471,0,0,0-1.514.671c-.864.71-1.559,2.083-2.755,1.5a2.958,2.958,0,0,1-.553-.622c-.249-2.359,1.216-2.669,2.811-3.925-2.1-.14-3.627-1.747-4.2,2.048-.2,1.3-1.433.31-1.715-.691-.448-1.59-1.149-2.187-2.251-2.091-1.039,0-2.264-.026-2.65-1.568-.532-2.122,1.369-2.181,1.825-3.569.1-.1.193-.2.29-.3L96.6,56.125c.4.434.593,1.238,1.2,1.442-.367-.617-.892-.842-1.2-1.442,1.563-.347,2.6-4,4.635-1.517.439.535.838.806.374,1.713-1.2,2.347-1.168,2.459.885,4.461" transform="translate(-43.317 -21.687)" fill="#fff"/>
      <path id="Path_119659" data-name="Path 119659" d="M113.252,39.225c1.888,2.141,2.815-1.291,4.288-1.556.269,1.311.538,2.622.953,4.646-1.742-2.173-4.58,2.112-5.241-3.09" transform="translate(-51.402 -15.652)" fill="#fff"/>
      <path id="Path_119660" data-name="Path 119660" d="M89.242,23.057,90.315,21.5h1.069c-.082.519-.5,1.038,0,1.557,1.126,1.444.944,3.7,1.607,5.431v.777a2.14,2.14,0,0,1-.533,1.555h0c-1.291-.027-2.155-.32-1.843-2.855a5.856,5.856,0,0,0-1.369-4.91Z" transform="translate(-42.39 -9.584)" fill="#fff"/>
      <path id="Path_119661" data-name="Path 119661" d="M94.277,28.024c-1.964-.923-1.522-3.34-1.607-5.43.7-.545,1.551-.859,1.607-2.331.837,1.1.434,2.566.538,3.882a9.135,9.135,0,0,1-.538,3.878" transform="translate(-43.677 -9.119)" fill="#fff"/>
      <path id="Path_119662" data-name="Path 119662" d="M94.39,34.537l.533-1.555c1.159-.047,1.893-1.885,3.166-1.536.73.2,1.5.4,1.4,1.72-.073,1.029-.833,1.635-1.376,1.146-1.339-1.207-2.47,1.131-3.724.225" transform="translate(-44.322 -13.299)" fill="#fff"/>
      <path id="Path_119663" data-name="Path 119663" d="M88.359,41.286c-1.519-.338-2.465,1.785-4.328,2.294,1.281-2.637,1.629-6.017,4.328-3.845v1.55" transform="translate(-40.434 -16.167)" fill="#fff"/>
      <path id="Path_119664" data-name="Path 119664" d="M99.02,25.233c.264,0,.529,0,.793.015.836.059,1.615.272,1.739,1.77a1.015,1.015,0,0,1-.55,1.135c-.87.267-1.816.512-2.519-.452C97.634,26.537,98.736,26.019,99.02,25.233Z" transform="translate(-45.74 -10.984)" fill="#fff"/>
      <path id="Path_119665" data-name="Path 119665" d="M85.966,51.656c-.029-.987-1.736-.326-.976-1.958.406-.874.892-1.82,1.888-1.621,1.587.317-.311,2.288.695,2.8l.535.77q-1.069,1.454-2.142.006" transform="translate(-40.721 -19.548)" fill="#fff"/>
      <path id="Path_119666" data-name="Path 119666" d="M139.732,51.556c-.178,0-.357,0-.535,0s-.357,0-.535,0L138.124,50c0-.192,0-.384,0-.577,1-2.628,2.1-1.656,3.213-.2.179.777.76,1.555,0,2.332-.536.669-1.072.57-1.607,0" transform="translate(-60.738 -19.447)" fill="#fff"/>
      <path id="Path_119667" data-name="Path 119667" d="M86.347,53.82l2.142-.006,1.071.008a3.507,3.507,0,0,1,.224,2.22,1.3,1.3,0,0,1-1,.811c-1.1-.021-1.91-.978-2.771-1.778-.067-.157-.132-.316-.2-.476l.537-.779" transform="translate(-41.102 -21.712)" fill="#fff"/>
      <path id="Path_119668" data-name="Path 119668" d="M91.709,56.155q0-1.164,0-2.328l2.144,3.881h0c-.478.831-1.027,1.414-1.78.746a2.072,2.072,0,0,1-.362-2.3" transform="translate(-43.251 -21.717)" fill="#fff"/>
      <path id="Path_119669" data-name="Path 119669" d="M120.112,55.066a1.368,1.368,0,0,1,1.354,1.357c.022.178-.108.547-.208.581-.657.226-.879-.532-1.151-1.157q0-.39,0-.78" transform="translate(-53.976 -22.182)" fill="#fff"/>
      <path id="Path_119670" data-name="Path 119670" d="M124.618,42.639c.922,2.369-.255,1.694-1.068,1.548q.065-1.454,1.068-1.548" transform="translate(-55.268 -17.517)" fill="#fff"/>
      <path id="Path_119671" data-name="Path 119671" d="M136.975,49.472a2.238,2.238,0,0,1-1.888-2.066c-.152-.8.406-.909.817-1.039l.384.048c1.214.555,1.167,1.7.688,3.058Z" transform="translate(-59.589 -18.916)" fill="#fff"/>
      <path id="Path_119672" data-name="Path 119672" d="M139.62,44.859q0,.385.005.77c-1.072,1.906-2.144.252-3.215,0,.892-1.816,2.062-1.2,3.21-.77" transform="translate(-60.095 -18.179)" fill="#fff"/>
      <path id="Path_119673" data-name="Path 119673" d="M139.839,60.152c.892-1.389,1.785-.57,2.677,0,.766.041,1.573.317,2.143-.778l1.073-.775c.091.027.182.053.273.073a4.162,4.162,0,0,0,.816-.4c.217-.048.387.064.518.31l1.608.788c.564-.3.662.078.535.778.073,1.366.979,2.973-.535,3.88-.432-.186-1.011-.507-.648.69a5.433,5.433,0,0,1-.425,3.97,7.618,7.618,0,0,1-6.425-1.552c1.109-4.433.829-5.65-1.612-6.987Z" transform="translate(-61.381 -23.382)" fill="#fff"/>
      <path id="Path_119674" data-name="Path 119674" d="M144.964,57.707c-.174.924.918,2.216-.035,2.668-.837.4-1.647-.663-2.108-1.89-.4-1.859-2.435-2.134-2.14-4.661h1.608c.039.6.115,1.8.3,1.635,1.935-1.646,1.691,1.3,2.371,2.247" transform="translate(-61.687 -21.716)" fill="#fff"/>
      <path id="Path_119675" data-name="Path 119675" d="M149.967,55.518q-.266.012-.532.018c-.359.448-.718.478-1.077,0l0,0c-.4-.988-.781-1.986-1.191-2.963-.527-1.254-.49-2.167.657-2.475-.395,4.15,2.868.924,3.233,3.527l-1.091,1.9" transform="translate(-64.01 -20.316)" fill="#fff"/>
      <path id="Path_119676" data-name="Path 119676" d="M136.41,46.346h3.215c.738.108,1.724-.427,2.115.715s-.925.724-1.044,1.614c-1.089.108-2.352-1.3-3.214.777a4.145,4.145,0,0,0-1.071-3.106" transform="translate(-60.095 -18.896)" fill="#fff"/>
      <path id="Path_119677" data-name="Path 119677" d="M33.936,45.077c-.106-1.322-.721-1.591-1.5-1.532-3.554.27-3.706.019-3.314-5.459.756-2.122,1.781-1.359,2.81-.56.51,1.524.828,3.4,2.471,2.926.24.167.6.422.577.711-.181,2.611.813.217,1.143.577a5.624,5.624,0,0,1,1.841-.026c1.409.9,2.485-.6,3.705-1.085a1.152,1.152,0,0,1,1.067.526c.842,2.3-.082,5.071.945,7.325a11.4,11.4,0,0,1,.047,2.611c-1.216,3.74-1.967,4.165-4.431,2.52v-3.1c-1.093-.455-.979-3.2-2.5-2.779-.343-.254-.026.705-.009.188,2.142,1.324,1.757,3.043.365,4.919H36.62c-.359.377-.607.062-.852-.284-.527-.786-1.331-.532-1.925-1.073a3.5,3.5,0,0,1-.5-1.913,6.483,6.483,0,0,1,.074-1,9.19,9.19,0,0,1,.187-.92,4.447,4.447,0,0,0,.069-1.784,1.229,1.229,0,0,1,.267-.786" transform="translate(-19.768 -15.292)" fill="#fff"/>
      <path id="Path_119678" data-name="Path 119678" d="M39.878,71.984c-.176-2.215-1.745.705-2.116-1.265-.551-2.928,1.086-2.7,2.122-3.387a1.918,1.918,0,0,0,1.6.767c1.919,1.715,3.706,1.512,5.351-.771l.306-.292c1.885,1.934.134,4.392.4,6.59.129,1.074-.648,2.1-1.577,1.981-.649-.081-1.166.432-1.765.5-.8-.409-1.064-2.076-2.332-1.6-1.122.417-1.389-1.54-1.99-2.519" transform="translate(-23.026 -26.675)" fill="#fff"/>
      <path id="Path_119679" data-name="Path 119679" d="M35,57.233c.846-.5,1.627-.628,2.143.779-.224.644-.777.33-1.07.775-.856.114-1.364.926-1.279,2.035.329,4.257-.941,2.072-1.938,1.069-.434-1.222.5-2.836-.529-3.888.485-.781.152-1.555-.009-2.331l-.53-2.322a1.863,1.863,0,0,1,1.957-.718A2.125,2.125,0,0,1,35,54.129q0,.389,0,.778a2,2,0,0,0,0,2.327" transform="translate(-20.823 -21.242)" fill="#fff"/>
      <path id="Path_119680" data-name="Path 119680" d="M22.031,53.81c2.25,1.918,4.652,3.615,5.353,7.774a14.676,14.676,0,0,1-5.894-4.656c1.658-.5.844-1.9.541-3.118" transform="translate(-16.959 -21.71)" fill="#fff"/>
      <path id="Path_119681" data-name="Path 119681" d="M40.939,74.957c1.109.061,1.512,2.659,3.125,1.49.8-.581.64,1.672,1.162,2.394.68.455,1.6-.461,2.141.776L46.288,81.23a1.2,1.2,0,0,1-1.119.551c-.858-.524-1.841-.56-2.623-1.389h-1.07c-1.149-.267-.147-2.159-.968-2.682a2.686,2.686,0,0,1,.431-1.976q0-.389,0-.777" transform="translate(-24.087 -29.648)" fill="#fff"/>
      <path id="Path_119682" data-name="Path 119682" d="M37.3,82.57l-2.144,3.1a3.119,3.119,0,0,1-1.1-2.437c-.176-1.748-.925-1.044-1.573-.675-.647-1.174-.052-1.744.536-2.318,1.078-.481,2.431.218,3.207-1.563l.539.78q.25-.409.6-.2c.67,1.132-.108,2.206-.066,3.313" transform="translate(-20.979 -31.045)" fill="#fff"/>
      <path id="Path_119683" data-name="Path 119683" d="M41.162,57.876c.707-1.447.1-2.853.024-4.566l-1.331,2.53c.042-2.212-.5-3.683.022-5.7,1.023,2.332,3.476,2.075,3.43,5.409-.413.915-.792,1.866-1.246,2.735-.49.939-.791.625-.9-.408" transform="translate(-23.775 -20.333)" fill="#fff"/>
      <path id="Path_119684" data-name="Path 119684" d="M45.4,61.9c1.666.02,3.532.546,3.752-3.105,2.049,1.426,1.464,3.395.533,5.436l0,0a4.917,4.917,0,0,0-2.793-.24c-.685.184-2.158.32-1.49-2.093" transform="translate(-25.871 -23.582)" fill="#fff"/>
      <path id="Path_119685" data-name="Path 119685" d="M20.993,63.113a2.054,2.054,0,0,1,2.492,1.76c-1.2.56-1.434-.717-2.492-1.76" transform="translate(-16.773 -25.199)" fill="#fff"/>
      <path id="Path_119686" data-name="Path 119686" d="M40.031,78.53l-.528,0c-.01-1.13.044-2.2,1.07-2.327q0,1.16,0,2.32-.269.423-.544.009" transform="translate(-23.72 -30.115)" fill="#fff"/>
      <path id="Path_119687" data-name="Path 119687" d="M38.645,62.062l1.069-.775.536.775c-.535,2.712-1.071.232-1.605,0" transform="translate(-23.399 -24.517)" fill="#fff"/>
      <path id="Path_119688" data-name="Path 119688" d="M42.83,68.275c-.886,1.286-1.207.09-1.605-.768.593,0,1.2-.053,1.605.768" transform="translate(-24.367 -26.852)" fill="#fff"/>
      <path id="Path_119689" data-name="Path 119689" d="M29.318,80.981,28.782,83.3l-.542.784c-1.427-3.865-2.855-.9-4.283,0-.782.014-1.519-.071-1.608-1.558a3.406,3.406,0,0,1,1.6-1.546c1.43-.971,2.86.547,4.289,0l1.076.006" transform="translate(-17.282 -31.782)" fill="#fff"/>
      <path id="Path_119690" data-name="Path 119690" d="M23.95,80.243c-.31,1.006-.846,1.518-1.6,1.546-.04-1.321.124-2.492,1.069-3.1l.535,1.55" transform="translate(-17.279 -31.05)" fill="#fff"/>
      <path id="Path_119691" data-name="Path 119691" d="M31.675,33.593c-.892-.162-1.785-1.026-2.676,0l0-.007c-.595-.777-.264-1.553,0-2.329a3.6,3.6,0,0,1,0-3.1.527.527,0,0,1,.646-.137.97.97,0,0,0,.292.428c.021-.262-.154-.388-.209-.618a2.647,2.647,0,0,1-.192-2.779c1.013-.624,1.891-.26,2.678.77,1.191.73.966,3.184,2.228,3.826a2.535,2.535,0,0,1,.673,1.189,3.674,3.674,0,0,1-.753,3.211c-.961.685-1.819.079-2.683-.455" transform="translate(-19.645 -10.801)" fill="#fff"/>
      <path id="Path_119692" data-name="Path 119692" d="M33.818,52.153l-2.141-.006A4.052,4.052,0,0,1,31.5,51.6c-.009-.047.114-.148.176-.224.93-.38,1.223-3.073,2.677-1.55.333,1.024.76,2.093-.535,2.332" transform="translate(-20.716 -20.04)" fill="#fff"/>
      <path id="Path_119693" data-name="Path 119693" d="M28.1,35.172c.542.777-.116,1.553,0,2.329-.818.688-1.647.756-1.809-.828-.237-2.31,1.126-1.177,1.81-1.5" transform="translate(-18.752 -14.715)" fill="#fff"/>
      <path id="Path_119694" data-name="Path 119694" d="M29.426,28.343h-.54a3.219,3.219,0,0,1-.535-2.33l1.071-.776q.268,1.55.535,3.1c-.176.269-.353.284-.532.007" transform="translate(-19.535 -10.985)" fill="#fff"/>
      <path id="Path_119695" data-name="Path 119695" d="M24.919,44.656q0-.387-.009-.774c.765.216,1.578.319,1.9,1.675-1.043,1.348-1.3-.513-1.9-.9" transform="translate(-18.243 -17.984)" fill="#fff"/>
      <path id="Path_119696" data-name="Path 119696" d="M19.777,23.795c.728-.59,1.284-.423,1.6.772-.7.452-1.443,1.119-1.6-.772" transform="translate(-16.317 -10.32)" fill="#fff"/>
      <path id="Path_119697" data-name="Path 119697" d="M24.064,30.208c.561.124,1.05.369.936,1.4-.012.112-.314.3-.4.228A2.156,2.156,0,0,1,24.064,30.208Z" transform="translate(-17.926 -12.851)" fill="#fff"/>
      <path id="Path_119698" data-name="Path 119698" d="M35.211,52.431a3.211,3.211,0,0,0,.535-2.332q.266,0,.532,0c0,.257,0,.513.006.77a2.316,2.316,0,0,1,0,2.331h0l-1.073-.773" transform="translate(-22.11 -20.318)" fill="#fff"/>
      <path id="Path_119699" data-name="Path 119699" d="M32.4,57.54a1.083,1.083,0,0,1,.943,1.343c-.065.767-.516.869-.934.988-.189-.776-.767-1.548-.009-2.331" transform="translate(-20.913 -23.111)" fill="#fff"/>
      <path id="Path_119700" data-name="Path 119700" d="M154.956,60.351l-.535-.778.535-.775c.495.137,1.124.084,1.124,1.1,0,.152-.731.3-1.124.455" transform="translate(-66.855 -23.582)" fill="#fff"/>
      <path id="Path_119701" data-name="Path 119701" d="M105.54,75.177c1.294.939,1.391-2.455,2.675-1.551.8-.067,1.132.9,1.608,1.547,1.794-1.315,2.563.342,3.215,2.333,1.25-1.2,2.5.9,3.75,0,.931-.521,3.433,3.52,2.738-2-.054-.425,1.26-.373,1.927-.227.936.2,1.066,1.089.691,2.227-.454.964-.274,2.388-1.07,3.1l-1.072,0c-1.407,1.334-2.66,1.1-3.751-.778l-1.071,0c-.359-.663-.945-1.022-1.368-.659-1.464,1.257-3.029.342-4.526.658-2.169,0-3.318-1.718-3.747-4.656" transform="translate(-48.508 -29.09)" fill="#fff"/>
      <path id="Path_119702" data-name="Path 119702" d="M151.967,70.433c-.725-1.266.716-3.624-1.186-4.569-.343-.171,1.647-1.044,1.373-2.959,1.193.795.755,1.967.886,2.868q.466,1.509,1.606,1.555c-1.085.776-1.1,1.551,0,2.323l-.006.01a1.793,1.793,0,0,1-2.139.773h-.538" transform="translate(-65.474 -25.124)" fill="#fff"/>
      <path id="Path_119703" data-name="Path 119703" d="M121.293,78.5a2.406,2.406,0,0,1-3.75,0c.084-3.639,2.026-1.891,3.214-2.331.145.792-.78,2.1.535,2.329" transform="translate(-53.013 -30.087)" fill="#fff"/>
      <path id="Path_119704" data-name="Path 119704" d="M122.685,83.661a7.462,7.462,0,0,0,3.751.778c-.189,1.137.542,3.664-1.5,1.961-.556-.463-.9.483-1.176,1.141a5.816,5.816,0,0,1-1.073-3.88" transform="translate(-54.943 -32.915)" fill="#fff"/>
      <path id="Path_119705" data-name="Path 119705" d="M130.407,83.035c.074-1.24-.283-2.792,1.071-3.1q.267.389.535.776a1.631,1.631,0,0,1-.535,2.327h-1.071" transform="translate(-57.841 -31.515)" fill="#fff"/>
      <path id="Path_119706" data-name="Path 119706" d="M144.883,80.147l-1.07,0c-.056-.517-.926-1.026-.3-1.384s1.621-.7,2.089.593c.167.459-.375.692-.715.794" transform="translate(-62.676 -30.954)" fill="#fff"/>
      <path id="Path_119707" data-name="Path 119707" d="M132.121,83.5q.268-1.164.535-2.327c.7.141,1.169.582.924,1.732-.261,1.224-.863.959-1.46.6" transform="translate(-58.485 -31.981)" fill="#fff"/>
      <path id="Path_119708" data-name="Path 119708" d="M153.564,74.482a2.858,2.858,0,0,1,2.139-.773q0,.772,0,1.544c-.746-.065-1.563.285-2.14-.771" transform="translate(-66.533 -29.173)" fill="#fff"/>
      <path id="Path_119709" data-name="Path 119709" d="M50.756,61.682c-.182-1.811.446-3.789-.534-5.435q0-1.167,0-2.332c-.094-.881-.328-1.868.688-1.909a1.689,1.689,0,0,1,.9.9c1.189,1.983,2.76,3.613,2.925,6.557-.3,1.78-2.41,3.232-.465,5.43a5.813,5.813,0,0,1,.23,3.781c-.139,1.712-.142,1.575-1.141,1.622-1.056.049-1.955,1.723-3.145.708-.745-.074-1.563.273-2.141-.776.16-.3.317-.848.481-.853,4.038-.127,1.444-5.26,2.7-7.466l-.5-.225" transform="translate(-26.939 -21.033)" fill="#fff"/>
      <path id="Path_119710" data-name="Path 119710" d="M56.584,66.881c-.628-.127-2.155,1.147-1.264-1.429.482-1.392.43-3.419,1.8-4.007.179-.688.468-1.093,1-.842.194.036.279.192.234.453.137-.442-.294-.461-.284-.829a1.151,1.151,0,0,1,1.132-.965c1.246,1.18.663-1.189,1.227-1.338,1.127-.77,2.074-.172,2.968.815a1.4,1.4,0,0,1,.019,1.379c-1.752,2.874-1.607,4.745.6,6.834.445.42.945.675,1.139,1.472l0,.009c-.436,4.654-2.31,2-3.751,1.55-.789-.023-1.2-.831-1.709-1.554-.643-.908-.841-.009-.971.779-1.369.49-1.146-2.1-2.143-2.328" transform="translate(-29.555 -23.123)" fill="#fff"/>
      <path id="Path_119711" data-name="Path 119711" d="M65.228,76.51c.37-.676.9-.982,1.356-.456,1.227,1.405,1.843.391,2.395-1.094a10.826,10.826,0,0,1,2.3,4.687c-.206,1.271-3.04-1.035-1.229,2.306a.57.57,0,0,1,.134.517c-.046.171-.092.256-.137.256l-1.068-.779c-1.682,1.623-2.636,1.019-2.974-1.908a33.226,33.226,0,0,0-.777-3.528" transform="translate(-33.377 -29.649)" fill="#fff"/>
      <path id="Path_119712" data-name="Path 119712" d="M57.5,72.23c1.936-1.587,1.23,1.936,2.143,2.328-.31,1.006-.847,1.519-1.6,1.553-.832-1.1-.435-2.565-.538-3.881" transform="translate(-30.474 -28.471)" fill="#fff"/>
      <path id="Path_119713" data-name="Path 119713" d="M43.787,83.648c.909.144,1.916-.433,2.679.771.347.9-.244,1.125-.54,1.562-.786-.636-1.73-.969-2.139-2.333" transform="translate(-25.329 -32.904)" fill="#fff"/>
      <path id="Path_119714" data-name="Path 119714" d="M40.137,79.924l.544-.009c1.1.339.368,1.553.533,2.337l-.539.781h-.266l-.267,0c-.868-1.033.126-2.073-.006-3.11" transform="translate(-23.826 -31.509)" fill="#fff"/>
      <path id="Path_119715" data-name="Path 119715" d="M63.59,88.581c-.948,1.064-1.451.766-1.861-.084-.161-.334-.206-.79.127-.9.657-.211,1.107.4,1.734.981" transform="translate(-32.017 -34.378)" fill="#fff"/>
      <path id="Path_119716" data-name="Path 119716" d="M47.211,86.454q.27-.78.54-1.561l1.063.066c.388,2.577-1.029,1.087-1.6,1.5" transform="translate(-26.614 -33.377)" fill="#fff"/>
      <path id="Path_119717" data-name="Path 119717" d="M74.639,43.881c.358.706.618,1.76,1.1,2.041.889.525,1.565.672,1.167,2.573-.461,2.2-1.494,1.067-2.589,1.206,2.033,2.908,3.982,3.627,6.217,1.169h0c.658.695,1.6,1.092,1.365,2.724a1.526,1.526,0,0,1-.39.714.83.83,0,0,0-.129,1c.593,3.992.29,4.8-1.686,4.55-.652-.625-1.056-1.741-2.155-2.086-.737,2.847.631,3.659,1.97,4.492a2.435,2.435,0,0,1,.29.953c-.106,1.22-1.028,2.193-.525,3.608-2.039,1.386-2.5-1.494-3.564-2.757C74.7,62.423,72.9,61.93,72.493,59.408c-.576-1.212.126-2.7-.41-3.917a8.388,8.388,0,0,1-.283-1.478,17.16,17.16,0,0,1-.053-2.036c0-.5,0-1.006.014-1.509,0-.335.013-.669.033-1a12.692,12.692,0,0,1,.177-1.484,7.694,7.694,0,0,1,.216-.956,5.591,5.591,0,0,1,1.454-2.768,1.418,1.418,0,0,1,1-.377" transform="translate(-35.822 -17.984)" fill="#fff"/>
      <path id="Path_119718" data-name="Path 119718" d="M69.334,56.072l0,2.336a4.691,4.691,0,0,0-.5,1.281c-.064.256-.445.48-.127.766.067.06.391-.4.639-.508,1.412,1.3.213,2.593,0,3.888l-1.073,3.877c-2.1.285-2.936-3.179-4.924-3.231-.07-1.393,2.667-1.331.708-3.64-.355-.419,1.8-1.346,2.61-2.438.029-.174.059-.347.087-.522.64-1.268,1.131-2.988,2.586-1.811" transform="translate(-32.669 -22.412)" fill="#fff"/>
      <path id="Path_119719" data-name="Path 119719" d="M78.088,76.2c1.444.126,2.024,3.169,3.752,2.331.548-.077,1.1-.071,1.648-.1a3.318,3.318,0,0,1,1.021.049,5.2,5.2,0,0,1,1.971.988,2.051,2.051,0,0,1,.453.774,1.731,1.731,0,0,1-.269,1.389c-1.529,1.036-3.353-.021-4.88,2.119-.919,1.289-3.2-1.94-3.5-4.907-.09-.876-.13-1.762-.192-2.644" transform="translate(-38.204 -30.115)" fill="#fff"/>
      <path id="Path_119720" data-name="Path 119720" d="M96.245,86.129q-.268,1.165-.537,2.331L94.1,87.682a3.47,3.47,0,0,1-.155-3.207c.6-.657,1.189-.544,1.76.1v.006a8.084,8.084,0,0,1,.536,1.552" transform="translate(-44.036 -33.055)" fill="#fff"/>
      <path id="Path_119721" data-name="Path 119721" d="M95.028,83.417l-1.613.016q-.531.676-1.062,0l-.537-.013q0-.773,0-1.547c.2-.725.5-1.139,1.071-.778.4.833,1.015.765,1.608.771q.27-.4.532.012,0,.771,0,1.542" transform="translate(-43.356 -31.901)" fill="#fff"/>
      <path id="Path_119722" data-name="Path 119722" d="M92.464,84.916l1.062,0q0,1.548.007,3.1c-2.6.6-.775-2.019-1.069-3.1" transform="translate(-43.468 -33.386)" fill="#fff"/>
      <path id="Path_119723" data-name="Path 119723" d="M72.942,86.928q0-.387,0-.773a1.212,1.212,0,0,1,1.257,1,1.078,1.078,0,0,1-.354.806c-.517.151-.709-.483-.908-1.028" transform="translate(-36.272 -33.851)" fill="#fff"/>
      <path id="Path_119724" data-name="Path 119724" d="M154.789,88.61c-.238-.616-.475-1.232-.812-2.105a1.963,1.963,0,0,1,1.883,2.1h-1.071" transform="translate(-66.688 -33.983)" fill="#fff"/>
      <path id="Path_119725" data-name="Path 119725" d="M84.522,64.541c.833-.4,1.106-2.377.536-3.882a1.167,1.167,0,0,1,.535-1.553h.536c1.432,1.431,1.191-.775,1.607-1.553h1.071c.23,1.918,1.044,2.15,2.143,1.554,1.233,3.176-1.563,1.742-1.806,3.562.349,1.435,2.307-.5,2.342,1.873-1.422,3.053.714,3.63,1.856,4.884-1.173,1.127-2-.271-2.927-.225-.739.54-1.451-.416-2.188-.071a5.022,5.022,0,0,1-2.282-.85,3.831,3.831,0,0,1-1.219-.97,3.924,3.924,0,0,1-.922-2.139c.112-.513.254-.961.719-.63" transform="translate(-40.349 -23.116)" fill="#fff"/>
      <path id="Path_119726" data-name="Path 119726" d="M105.217,76.2c1.086,1.828,2.076,3.817,3.747,4.656,1,.579,1.473,2.65,2.95,1.773-.423,2.656-2.545.739-2.95,2.887-.437-.089-1.247-.132-1.256-.275-.214-3.593-2.942-5.4-3.03-9.042h.538" transform="translate(-48.184 -30.115)" fill="#fff"/>
      <path id="Path_119727" data-name="Path 119727" d="M96.637,81.022l-.531-.011c.367-2.227,1.629-2.539,2.8-2.22,1,.272-.122.929-.122,1.449-.453,1.772-1.378.823-2.146.782" transform="translate(-44.967 -31.047)" fill="#fff"/>
      <path id="Path_119728" data-name="Path 119728" d="M90.47,74.758c.918-.926,1.463.316,2.143.775.527,1.8-.392,1.5-1.071,1.555a1,1,0,0,1-1.058.553,1.4,1.4,0,0,1-.811-1.117,1.909,1.909,0,0,1,.8-1.767" transform="translate(-42.547 -29.448)" fill="#fff"/>
      <path id="Path_119729" data-name="Path 119729" d="M90.789,78.69l1.074,0q.267.777.535,1.552l-1.071.778,0,0c-.582-.579-1.171-1.154-.535-2.323" transform="translate(-42.868 -31.048)" fill="#fff"/>
      <path id="Path_119730" data-name="Path 119730" d="M97.388,86.455c-.877-.01-.8-.711-.536-1.552,1.106.007,2.252-.132,2.98,1.557-.894,1.4-1.655-.2-2.444,0" transform="translate(-45.18 -33.381)" fill="#fff"/>
      <path id="Path_119731" data-name="Path 119731" d="M54.336,29.693a3.022,3.022,0,0,0,0-2.34,1.636,1.636,0,0,1,2.244-.394c1.537.836.034-1.166.564-1.287a2.226,2.226,0,0,1,.427-.941c1.952-.374,2.48,1.138,2.287,3.612a2.416,2.416,0,0,1-1.016,1.712c-.853.447-3.1-.721-1.424,2.652a1.313,1.313,0,0,1-.552,1.807c-1.42.6-1.544,2.687-2.354,3.968a1.74,1.74,0,0,1-.7.437,1.33,1.33,0,0,1-1.106-.324,31.91,31.91,0,0,1-1.95-4.451c-.307-1.655-1.307-1.77-2.218-2.084a1.921,1.921,0,0,1-.872-2.12,19.439,19.439,0,0,0,2.946-3.606c1.106-.091,1.873.871,2.652,1.8v.779c-.211.37-.56.8-.22,1.246.52.683.947.211,1.292-.462" transform="translate(-26.771 -10.774)" fill="#fff"/>
      <path id="Path_119732" data-name="Path 119732" d="M43.7,29.673q.074,1.45,1.075,1.54a.955.955,0,0,1,.142.646c-.032.224-.068.336-.106.337a1.446,1.446,0,0,1-1.4.55c-.567-.049-1.111-.5-1.7-.2-1.123.47-.927,2.1-1.331,3.194C40,36.7,39.236,37.182,38.888,38.2c-1.347,1.256-1.615.151-1.61-1.548a1.853,1.853,0,0,1,0-3.106l.536-2.328a2.862,2.862,0,0,1,1.112-1.184c1.061-.435.753-2.266,1.471-3.051.923-.665,2.111-.542,2.772-1.975.536-.788,1.073.166,1.61,0a.72.72,0,0,1,1.082-.235,1.929,1.929,0,0,1,.259,1.508c-.5,1.59-1.191,2.893-2.417,3.4" transform="translate(-22.57 -10.752)" fill="#fff"/>
      <path id="Path_119733" data-name="Path 119733" d="M60.828,19.637q0,.39,0,.779c-.893,1.105-1.785,1.051-2.676,0a4.609,4.609,0,0,1-1.608-2.328.674.674,0,0,1-.179-.528c.019-.2.049-.3.088-.3a.438.438,0,0,1,.627.054c1.836-.154,3.333-2.763,5.357-1.554.566-1,.571-2.614,1.607-3.1a3.213,3.213,0,0,1,.537-2.329c.375,3,1.93.169,2.727,1.131a2.778,2.778,0,0,1-.119.677c-.377.765-1.563.886-1.194,2.136.4,1.352,1.2.126,1.825.061.349-.036.7-.078,1.045-.118a5.259,5.259,0,0,1-1.073,5.429c-3.463-3.06-4.962-3.059-6.962,0" transform="translate(-30.048 -5.386)" fill="#fff"/>
      <path id="Path_119734" data-name="Path 119734" d="M39.721,28.036c-.206,1.381.552,3.327-1.081,3.872-.612-.851-1.14-2.186-2.141-.775-2.389.061-1.544-3-2.146-4.666l1.607,0,2.147.773,1.068.006c.563-.287.668.089.547.793" transform="translate(-21.788 -11.446)" fill="#fff"/>
      <path id="Path_119735" data-name="Path 119735" d="M51.309,25.387l0-1.563a2.21,2.21,0,0,1,0-2.317c1.008,1.89,2.952,2.617,3.213,5.434-1.1.245-1.985-.321-2.684-1.547q-.267.4-.529-.006" transform="translate(-28.029 -9.585)" fill="#fff"/>
      <path id="Path_119736" data-name="Path 119736" d="M55.9,18.829l-.535,0a2.423,2.423,0,0,1-2.142-.769c.08-.362.112-.993.247-1.043.974-.364.164-3.178,1.4-2.549s1.574,2.457,1.033,4.363" transform="translate(-28.872 -6.909)" fill="#fff"/>
      <path id="Path_119737" data-name="Path 119737" d="M56.694,32.232c.418,1.36.68,2.674-.906,1.968a2.787,2.787,0,0,1-1.876-2.275c.509-.768,1.143-.367,1.711-.477l1.071.784" transform="translate(-29.129 -13.313)" fill="#fff"/>
      <path id="Path_119738" data-name="Path 119738" d="M58.9,26.477l2.677,0c.478,1.474.812,2.808-.969,2.226-.745-.244-1.5-.452-2.244-.676l.536-1.552" transform="translate(-30.802 -11.451)" fill="#fff"/>
      <path id="Path_119739" data-name="Path 119739" d="M67.366,13.853c-.425,1.155-.007,3.226-1.607,3.1a7.454,7.454,0,0,1-.535-3.1c.713-.068,1.427-.7,2.141,0" transform="translate(-33.371 -6.591)" fill="#fff"/>
      <path id="Path_119740" data-name="Path 119740" d="M42.619,27.576l-.547-.793a4.249,4.249,0,0,1,3.214-1.544c.065,3.066-1.533,2.146-2.667,2.337" transform="translate(-24.685 -10.986)" fill="#fff"/>
      <path id="Path_119741" data-name="Path 119741" d="M47.324,14.338l-2.677-.783q0-.385,0-.771c1.078.207,2.266-.555,3.214.775l-.537.779" transform="translate(-25.651 -6.299)" fill="#fff"/>
      <path id="Path_119742" data-name="Path 119742" d="M53.226,20.268c.747.062,1.562-.276,2.142.769l0,.78a1.872,1.872,0,0,1-2.14-1.549" transform="translate(-28.872 -9.118)" fill="#fff"/>
      <path id="Path_119743" data-name="Path 119743" d="M50.863,21.506q0,1.159,0,2.318l-1.068.01c-.012-1.133.044-2.2,1.071-2.328" transform="translate(-27.582 -9.585)" fill="#fff"/>
      <path id="Path_119744" data-name="Path 119744" d="M63.266,23.117c-.717-1.941-.6-3.007,1.2-3.156,2.3-.191,4.823-1.7,5.766,3.153l-1.068.783c-.661,1.652-.7,4.1-2.57,4.2-.793-.2-1.181-1.181-1.716-1.877.6-2.274-.47-2.726-1.609-3.1" transform="translate(-32.486 -8.866)" fill="#fff"/>
      <path id="Path_119745" data-name="Path 119745" d="M71.5,38.541l-1.608,3.1a1.572,1.572,0,0,1-.528-.813c-.452-2.557-.6-5.369-3.3-5.01-.693.092-1.388-1.031-1.228-2.462.673-1.67,1.855-1.276,2.883-1.491a4.52,4.52,0,0,1,1.384-.059c.691-.232.916-1.336,1.522-1.722.112-.034.224-.064.336-.1.4-1.276.607-3.086,2.042-2.154,1.578,1.024.284,2.153,0,3.251a5.852,5.852,0,0,0,.639.458c.562-.3.652.087.533.774l-.006.015c-1.683,1.351-3.842,2.272-2.674,6.205" transform="translate(-33.223 -11.865)" fill="#fff"/>
      <path id="Path_119746" data-name="Path 119746" d="M70.781,32.691l-1.073-.775c-.905.276-1.212-.313-1.068-1.553,1.325-.667,1.471-3.043,2.679-3.88-.037,1.318.741,2.044,1.07,3.1v.006c-1.04.487-1.176,1.958-1.608,3.105" transform="translate(-34.645 -11.453)" fill="#fff"/>
      <path id="Path_119747" data-name="Path 119747" d="M79.49,33.87l-.534-.774c1-.858,1.955-2.182,3.216-.768-.39,2.359-1.72,1.279-2.682,1.542" transform="translate(-38.529 -13.414)" fill="#fff"/>
      <path id="Path_119748" data-name="Path 119748" d="M81.549,24.9l.533,1.55c-1.224-.142-2.682.575-3.344-1.916,1.029-.7,1.869.727,2.81.365" transform="translate(-38.448 -10.647)" fill="#fff"/>
      <path id="Path_119749" data-name="Path 119749" d="M36.883,11.562c.985,1.647.354,3.627.535,5.44-1.143-1.613-.269-3.645-.535-5.44" transform="translate(-22.71 -5.853)" fill="#fff"/>
      <path id="Path_119750" data-name="Path 119750" d="M75.186,41.4c-1.063-4.228-.823-4.787,2.674-6.206.221,2.354,1.852,1.848,2.916,2.924-1.042,1.345-1.9,1.083-2.8-.054-.487-.616-.939-1.738-1.721-.557-.174.27-.351.287-.53.01-.908,1.034-.3,2.069,0,3.1l-.537.778" transform="translate(-36.905 -14.722)" fill="#fff"/>
      <path id="Path_119751" data-name="Path 119751" d="M88.519,23.991a1.6,1.6,0,0,1,0,.384c-.362,1.319.985,3.091-.5,4.075-.168.111-.461-.178-.7-.282.49-1.339,0-3.271,1.2-4.178Z" transform="translate(-41.667 -10.518)" fill="#fff"/>
      <path id="Path_119752" data-name="Path 119752" d="M81.524,46.367c.677.161,1.409.243,1.682,1.351.033.136-.463.78-.723.791C81.432,48.558,81.586,47.333,81.524,46.367Z" transform="translate(-39.493 -18.917)" fill="#fff"/>
      <path id="Path_119753" data-name="Path 119753" d="M80.665,45.123c-.629-.134-1.49.2-1.425-1.372.01-.255.3-.678.478-.694C80.8,42.963,80.572,44.211,80.665,45.123Z" transform="translate(-38.635 -17.672)" fill="#fff"/>
      <path id="Path_119754" data-name="Path 119754" d="M76.381,38.907l.531-.01c.217.329.44.65.638,1,.011.02-.182.41-.288.419-.67.051-.806-.652-.881-1.411" transform="translate(-37.563 -16.113)" fill="#fff"/>
      <path id="Path_119755" data-name="Path 119755" d="M111.429,74.588c-.761-.025-1.293-.549-1.608-1.547.535-1.5,1.072-1.51,1.609,0q0,.775,0,1.55" transform="translate(-50.115 -28.505)" fill="#fff"/>
      <path id="Path_119756" data-name="Path 119756" d="M123.549,68.387a6.2,6.2,0,0,1,.193,1.235c-.013.534-.278,1.054-.654.681a2.6,2.6,0,0,1-.229-1.363c0-.374.177-.722.69-.553" transform="translate(-55.008 -27.165)" fill="#fff"/>
      <path id="Path_119757" data-name="Path 119757" d="M139.39,61.285a4.631,4.631,0,0,1,.254,3.406c-1.334-1-1.244-2.107-.254-3.4Z" transform="translate(-60.934 -24.516)" fill="#fff"/>
      <path id="Path_119758" data-name="Path 119758" d="M99.438,57.544c.176,0,.352.009.528,0,1.1-.061,2.324-.039,2.395,2.012.051,1.485-1.013,1.024-1.65,1.065C99.026,60.728,99.183,59.162,99.438,57.544Z" transform="translate(-46.158 -23.106)" fill="#fff"/>
      <path id="Path_119759" data-name="Path 119759" d="M88.489,56.6q.076.559.151,1.119c.146,1.1,1.312,2.408.034,3.241-1.487.97-.422-2.176-1.452-2.254-.12-.009-.227-.361-.34-.554.036-1.321-.743-2.049-1.072-3.1,1.111-.274,1.843.83,2.679,1.552" transform="translate(-41.102 -22.158)" fill="#fff"/>
      <path id="Path_119760" data-name="Path 119760" d="M149.17,58.8l1.077,0c-.082.743-.225,1.548-.866,1.4s-.289-.876-.211-1.4" transform="translate(-64.822 -23.585)" fill="#fff"/>
      <path id="Path_119761" data-name="Path 119761" d="M46.14,36.419h1.605c.8.195,1.156,1.114,1.535,1.992.328.925.7,1.852,0,2.776-.346.232-.67-.016-1-.1l-1.07,0c-.88.909-1.7.509-2.515-.217-.7-1.1-.209-1.94.278-2.785a5.9,5.9,0,0,1,.518-.618c.231-.325.427-.7.651-1.041" transform="translate(-25.537 -15.183)" fill="#fff"/>
      <path id="Path_119762" data-name="Path 119762" d="M50.483,43.711c.181-.391.362-.395.543,0,.971.585,1.257,1.74,1.247,3.143a3.426,3.426,0,0,1-.714,2.288q-.265.775-.532,1.55c-1.507-2.109-.427-4.643-.545-6.98" transform="translate(-27.742 -17.809)" fill="#fff"/>
      <path id="Path_119763" data-name="Path 119763" d="M44,38.551l-1.069,2.336a1.634,1.634,0,0,1-.534,2.319l-2.144,0c-.6-1.7.483-1.77,1.069-2.324.82-.952.665-4.261,2.678-2.329" transform="translate(-23.937 -15.76)" fill="#fff"/>
      <path id="Path_119764" data-name="Path 119764" d="M36.175,38.72a3.606,3.606,0,0,0,0,3.107c-1.893.777-2.355-1.039-2.679-3.105.893-.8,1.786.2,2.679,0" transform="translate(-21.466 -15.929)" fill="#fff"/>
      <path id="Path_119765" data-name="Path 119765" d="M43.795,44.967l.534-2.319,2.673.77c-.8,1.7-1.757,2.69-3.207,1.549" transform="translate(-25.332 -17.521)" fill="#fff"/>
      <path id="Path_119766" data-name="Path 119766" d="M36.373,58.642c-1.565-.775-.837-1.551,0-2.327q0,1.164,0,2.327" transform="translate(-22.2 -22.651)" fill="#fff"/>
      <path id="Path_119767" data-name="Path 119767" d="M32.214,44.011l-.495.856A4.941,4.941,0,0,1,31.438,44c-.047-.34-.081-.858.284-.81.164.021.3.487.492.826" transform="translate(-20.683 -17.721)" fill="#fff"/>
      <path id="Path_119768" data-name="Path 119768" d="M36.929,53.669q0-1.166,0-2.331c1.572.776.832,1.554,0,2.331" transform="translate(-22.754 -20.783)" fill="#fff"/>
      <path id="Path_119769" data-name="Path 119769" d="M37.788,32.609c.019-1.174.092-2.411,1.2-2.185,1.256.255.83,1.83.941,2.96H38.322l-.534-.775" transform="translate(-23.077 -12.922)" fill="#fff"/>
      <path id="Path_119770" data-name="Path 119770" d="M30.072,29.9c.177,0,.355,0,.532-.007.52-.143,1.154-1.23,1.485.281a1.441,1.441,0,0,1-.55,1.568c-1.152.582-1.311-.665-1.467-1.843" transform="translate(-20.181 -12.541)" fill="#fff"/>
      <path id="Path_119771" data-name="Path 119771" d="M57.506,57.907l-1.071.779c-.83-2.333-2.651-3.589-3.213-6.213a5.673,5.673,0,0,1,1.757-1.938,2.008,2.008,0,0,1,.7-.31c.436-.026,1.164.1,1.131.526-.211,2.661,1.329,1.181,1.941,1.84a4.876,4.876,0,0,1-.172,4.539l-1.071.775Z" transform="translate(-28.87 -20.364)" fill="#fff"/>
      <path id="Path_119772" data-name="Path 119772" d="M55.044,50.069A1.872,1.872,0,0,1,52.9,51.621l-.535-.777v-2.33c1.382-1.254,2.146-.268,2.678,1.555" transform="translate(-28.548 -19.512)" fill="#fff"/>
      <path id="Path_119773" data-name="Path 119773" d="M61.387,56.756c-.144-1.562.385-3.285-.533-4.66a2.512,2.512,0,0,1,.553-2.589c1.135-.623,2.061-.226,2.77,1.206a11.2,11.2,0,0,1-.373,2.431c-.141,1.106-.916,1.339-1.342,2.056-.039.981.167,2.318-1.074,1.555" transform="translate(-31.679 -19.989)" fill="#fff"/>
      <path id="Path_119774" data-name="Path 119774" d="M63.514,57.34c-.037-1.151.707-1.551,1.064-2.323,1.725-.435,2.426.621,2.151,3.1l0,0-3.211-.78" transform="translate(-32.733 -22.128)" fill="#fff"/>
      <path id="Path_119775" data-name="Path 119775" d="M60.082,62.523c1.058.261,1.388,1.212,1.376,2.807-1.134-.507-.886-2.007-1.377-2.806h0" transform="translate(-31.445 -24.981)" fill="#fff"/>
      <path id="Path_119776" data-name="Path 119776" d="M63.142,44.536A4.7,4.7,0,0,0,60.476,43s-.181-.177-.18-.173a1.1,1.1,0,0,1-.069-.6c-.277.094-.456.465-.757.483-.794-.209-1.419-.6-1.142-2.047.419-1.741-.3-4.65,2.145-4.343.186.023,1-.271.16-1.107-.732-.728-1.372-2.4-.862-3.261.691-1.169,1.914-.937,2.843.171a2.2,2.2,0,0,1,0,2.332c.066,1.306.78,1.783,1.453,1.8,3.248.079,3.344,3.347,3.367,6.741h0c-.631.511-1.163-.369-2.019-.212.9.44,1.689.635,2.019,1.768q0,.388,0,.777c-1.631,2.028-3.125,2.5-4.29-.79" transform="translate(-30.761 -13.215)" fill="#fff"/>
      <path id="Path_119777" data-name="Path 119777" d="M82.6,66.848l-.536.776c-.4.374-.4.374.663,1.587-.024.615-.182.979-.66.743-1.821.121-3.938-3.145-3.246-5.434.473-1.565,1.83-.475,2.665-.127.492.2.75,1.6,1.113,2.454" transform="translate(-38.429 -25.423)" fill="#fff"/>
      <path id="Path_119778" data-name="Path 119778" d="M65.3,52.564c1.289,1.878,2.764,1.621,4.29.79q0,.775-.006,1.549c-1.291-.189-1.476,2.282-2.668,2.331a4.507,4.507,0,0,0-2.151-3.1c-.34-.091-.817-.2-.752-.774.119-1.061.814-.654,1.287-.795" transform="translate(-32.918 -21.243)" fill="#fff"/>
      <path id="Path_119779" data-name="Path 119779" d="M70.957,50.768c-.5-.212-1.114-.789-1.484-.557-.713.447-1.227.959-1.64-.461-.142-.491-.348-.951.04-1.325.525-.507,1.1-.959,1.742-.465.468.36.9.831,1.342,1.252v1.555" transform="translate(-34.285 -19.435)" fill="#fff"/>
      <path id="Path_119780" data-name="Path 119780" d="M71.478,61.588A9.623,9.623,0,0,1,70.768,64c-.623.947-1.105-.011-1.494-.676a1.148,1.148,0,0,1,.372-1.746c.631-.44,1.217-1.017,1.823-1.534q0,.77.009,1.54" transform="translate(-34.802 -24.052)" fill="#fff"/>
      <path id="Path_119781" data-name="Path 119781" d="M85.175,78.8c-.729.583-1.287.42-1.608-.776-1.743-1.039-.429-2.074,0-3.11,1.016-.342,1.505.6,1.948,1.67a2.792,2.792,0,0,1-.342,2.215" transform="translate(-39.93 -29.604)" fill="#fff"/>
      <path id="Path_119782" data-name="Path 119782" d="M85.7,75.423c-.8.049-1.073-1.033-1.606-1.556,0-.258,0-.517,0-.774l.535-.773q.263-.516.531-.006l1.069.781a1.6,1.6,0,0,1-.53,2.327" transform="translate(-40.459 -28.561)" fill="#fff"/>
      <path id="Path_119783" data-name="Path 119783" d="M85.826,59.615q-.268.777-.535,1.553c-.464-.455-1.2-.858-.706-1.87.366-.756.88-.275,1.241.317" transform="translate(-40.581 -23.625)" fill="#fff"/>
      <path id="Path_119784" data-name="Path 119784" d="M86.669,75.925,87.2,73.6c.9-.821,1.321,1.166,2.149.775q-.27.777-.538,1.555a4.162,4.162,0,0,1-1.069,2.326H86.67q0-1.165,0-2.329" transform="translate(-41.424 -29.062)" fill="#fff"/>
      <path id="Path_119785" data-name="Path 119785" d="M88.384,79.774a2.626,2.626,0,0,1,1.069-2.326l.536.776q.268,1.162.535,2.323a2.9,2.9,0,0,1-2.141-.773" transform="translate(-42.068 -30.583)" fill="#fff"/>
      <path id="Path_119786" data-name="Path 119786" d="M84.554,71.535l-.531.006c-.608-.11-1.409-.2-1.544-1.057-.109-.69.637-.38,1.006-.5l1.069,1.551" transform="translate(-39.848 -27.781)" fill="#fff"/>
      <path id="Path_119787" data-name="Path 119787" d="M54.592,46.04c-1-.131-1.527-1.974-2.678-1.555a7.646,7.646,0,0,0-.533-3.1c.753-.78.178-1.556,0-2.333-.342-.77-.312-1.472.334-1.766.5-.229.82.137.741.983.645,1.474,2.058,2.389,1.608,4.657.59.89,1.259,1.753.532,3.116Z" transform="translate(-28.097 -15.483)" fill="#fff"/>
      <path id="Path_119788" data-name="Path 119788" d="M56.335,49.468q-.266-1.557-.531-3.116l1.066.011a3.091,3.091,0,0,0,2.677,2.327l.006.009-.54,2.321c-.838.38-.427,2.586-1.113,2.344-1.025-.36-.881-1.648-.473-3.073.306-1.069-.669-.639-1.093-.822" transform="translate(-29.839 -18.911)" fill="#fff"/>
      <path id="Path_119789" data-name="Path 119789" d="M65.23,34.089q0-1.167,0-2.332.268-.777.537-1.552c.78-.013,1.515.072,1.607,1.555l1.068,1.553c-.947,1.332-2.135.565-3.211.776" transform="translate(-33.377 -12.85)" fill="#fff"/>
      <path id="Path_119790" data-name="Path 119790" d="M50.217,27.719l.529.006c-.257,2.183-.481,4.428-2.676,3.113.712-1.046,1.027-2.665,2.147-3.119" transform="translate(-26.936 -11.917)" fill="#fff"/>
      <path id="Path_119791" data-name="Path 119791" d="M51.939,37.5c-.834-1.11-.939-.118-1.075.783l-1.073-2.331q0-.388,0-.776c.864.487,2.568-.658,2.148,2.323" transform="translate(-27.582 -14.717)" fill="#fff"/>
      <path id="Path_119792" data-name="Path 119792" d="M60.188,48.694c-1.519.739-2.379-.116-2.677-2.327l.534,0c.312,1.007.848,1.527,1.61,1.552.179-.275.357-.26.532.007q0,.387,0,.773" transform="translate(-30.48 -18.915)" fill="#fff"/>
      <path id="Path_119793" data-name="Path 119793" d="M44.732,37.51c-1.618-.978-1.263,2.816-2.678,2.329-.1-2.013-.08-3.941,1.608-4.657.308.823,1.492.8,1.071,2.328Z" transform="translate(-24.666 -14.718)" fill="#fff"/>
      <path id="Path_119794" data-name="Path 119794" d="M45.717,37.508c-.359-.775-1.105-1.174-1.071-2.328.593.007,1.2-.057,1.607.774.267.569.847,1.39.743,1.661-.335.875-.84.043-1.28-.107" transform="translate(-25.651 -14.718)" fill="#fff"/>
      <path id="Path_119795" data-name="Path 119795" d="M71.98,34.541c-.462-2.12-.073-3.316,1.608-3.105-.6.969-.412,2.788-1.608,3.105" transform="translate(-35.843 -13.303)" fill="#fff"/>
      <path id="Path_119796" data-name="Path 119796" d="M61.476,47.673l-.532-.007c.079-.889.183-1.77.934-1.96.123-.031.376.159.4.3.152.95-.366,1.274-.8,1.663" transform="translate(-31.769 -18.667)" fill="#fff"/>
    </g>
  </g>
</svg>
