<svg id="Group_20353" data-name="Group 20353" xmlns="http://www.w3.org/2000/svg" xmlns:xlink="http://www.w3.org/1999/xlink" width="124.811" height="79" viewBox="0 0 124.811 79">
  <defs>
    <clipPath id="clip-path">
      <rect id="Rectangle_7133" data-name="Rectangle 7133" width="124.811" height="79" fill="#fff"/>
    </clipPath>
  </defs>
  <g id="Group_20352" data-name="Group 20352" clip-path="url(#clip-path)">
    <path id="Path_179253" data-name="Path 179253" d="M124.494,43.65c-.177-.775-.162-.513-.615-.922V42.42h-.615c-.259-.166-.4-1.012-1.23-.615v.307h-.307l.307-.615h-.307s.016-1.162-.307-.615V41.5h-.308a8.64,8.64,0,0,0-.922-5.84l.307-.615h-.307c-.021-.167.179-1.273-.307-.922-.352.254.127.326-.307.307a2.471,2.471,0,0,0,0-2.152h-.307l.307-.922h-.615v.615c-.614.185-.265-.043-.615.307h-.307v-.615l.922-.307.307-.922-.615-.307v.307h-.307l.615-.922h-.307s-.043-1.2-.307-.615c-.428.074.127.291-.307.307V28.28h.307v-.615l-.922.307a3.253,3.253,0,0,1-.307,1.23l-.615.307V29.2h-.307l-.307.615h.307c0,.587-.21.176-.615.307v.307c-.57.195-.437-.179-.615-.307h-.307v-.307c1.057-.839,1.588.118,1.844-1.844h.307v.922c.619-.617.392-1.285,1.23-1.844-.074-.683-.021-.825-.307-1.23h-.308v-.615h-.307V24.9l.615.307v-.615h-.615v-.307c.324,0,.5-.268.307-.615h-.307V22.132l-.615.307c.683-1.906-.4-2.2-.615-4l-.922-.307v.307h-.307l.307-1.537c-.312-.237-.3-.378-.615-.615l-.307.615h.307v.307l-.615-.307-.308.615h.308v.307h-.308v.307h-.307v-.307h.307v-.307h-.307c-.044-.739.151-.777.307-1.23-.346-.263-.048.041-.307-.307-.745.189-.676.324-1.23.615,0,0,.043,1.2.307.615.428-.075-.127-.291.307-.307v.307H112.2c-.077.476.346.172.615.615-.346.263-.048-.041-.307.307h-.922c.237-.312.378-.3.615-.615h-.615l.307-1.537c.669-.145.872-.2,1.23-.615h.307c-.565-1.092.13-.723,0-1.23h-.307a2.3,2.3,0,0,0-.615-.922V12.91H112.2v.922h-.307V12.3h-.615c-.185.614.043.265-.307.615v.307h-.922v.307h-.308V12.6l.922-.307v.615h.307V12.3h.307a6.684,6.684,0,0,1-.307-1.23h-.922c.349.344,0,.131.614.307v.307c-.727.2-.576.087-.922.615h-.615v-.307h.615l.308-1.537c-.614.185-.265-.043-.615.307h-.307V9.837h-.307V9.529h-.307v.307H108.2l.307-.615a9.815,9.815,0,0,1-2.152-.922v.615h.615v.307h-.922V8.3h-.308l-.307.922c-1.037.112-1.142.225-1.537.922h-.307q-.153-.768-.307-1.537h-.922c.349.344,0,.131.614.307v.307h-.922c-.185-.614.043-.265-.307-.615V8.3H103.9c-.593-.544-2.581-.344-3.689-.307V8.3h1.23c-.185.614.043.265-.307.615-.21.224-.185.282-.307,0-.455.178-.36.255-.615.615H99.9l.615-.922h-.307V8.3H99.9q-.153.768-.307,1.537h.922v.307l-.922.307a2.378,2.378,0,0,0-.615-.922l-.307.922h-.307l.307.615c-.185.247-.392.18-.615.615-.346.263-.048-.041-.307.307h-.307l.307-.922h.307v-.615h.308V9.837l.614-.307-.307-.615h.615V8.3c-1.365.34-.687,1.035-1.537,0-.344.349-.131,0-.307.615h-.307c-.349,1.017.653.665.922.922v.307a3,3,0,0,1-1.23.307c-.185-.614.043-.265-.307-.615-.389-1.035-.475.763-.615.922H95.6v.307h-.307l-.307-.922h.307V9.837h-.307V9.529h.307V9.222l.922.307V8.914c.614-.185.265.043.615-.307h.307V8.3l-.922.307V8.3h-.307v.307l-.922.307-.922,1.537h-1.23v1.23A2.017,2.017,0,0,0,91.3,12.6h-.307l.307.922h-.307c-.028.03.021.592-.307.307v-.615l-.922.307V12.91c-.727.2-.576.087-.922.615h-.307a1.226,1.226,0,0,1,.615-.615V12.6c-.836.235-.7.073-.922.922A17.013,17.013,0,0,0,86.07,12.6l-.307.615h-.307v.307h.922v.307H86.07c-.245.164.1.46-.307.307v-.307l-.615-.307-.307.615h.307v.307l-.922-.307c-.587,1.361-.39.566-.307,2.152h-.307V15.37c-.614-.185-.264.043-.614-.307h.614c.453-1.578.971-.763,1.537-1.537l-.307-.615A7.31,7.31,0,0,1,87.3,12.3v-.922h.615a2.38,2.38,0,0,1-.615.922v.615l.922-.615V12.6h.307v-.922c.836-.235.7-.073.922-.922.614-.185.265.043.615-.307h.307l-.307.922c.346-.263.048.041.307-.307a2.466,2.466,0,0,0,.719-.121c-.351.623-.886.678-1.334,1.35h-.615a2.3,2.3,0,0,0,.922.615l1.23-1.537.922.307c.145-.669.2-.871.615-1.23v-.307l-.922.307v-.307h.307V9.222h.307V8.914c-.887.223-1.019.33-1.23,1.23h-.307l.307-.922a8.431,8.431,0,0,0-1.23.307V9.222h-.922v1.23h-.307v.307l-.922-.307v.615H87.3l.307-.615h.307v-.307c-.57-.195-.437.179-.615.307h-.307l.307-.615h-.615V9.222h-1.23v.615h-.307V9.222c-.908.346-.342-.049-.307.922h-.922a2.99,2.99,0,0,0,.307-1.23H83.3v.307l-1.844-.307v.307s-1.2-.043-.615-.307h.307V8.607H79.307l.307.615h-.922a1.225,1.225,0,0,1,.615-.615V8.3h-1.23v.922H77.77V8.3h-1.23v.615h-.615V8.3h.615V7.992h-.922c-.185.614.043.265-.307.615v.307H75l.308-.922c-2.5-.089-1.376-.366-3.074.615V7.992h.615V7.685l-3.074-.307v.307h-.307V7.377h-.307v.307h-.307V7.07c-.918.105-.843.028-1.229.615h-.308V6.763a2.3,2.3,0,0,0-.615.922H66.4l.307-.922c-.727.2-.576.087-.922.615h-.307l.307-.615H64.86v.615c-.613.185-.265-.043-.615.307h-.307l.307-.922h.615V6.455A3.966,3.966,0,0,0,62.4,7.07V6.455c-2.932-.3-8.473-1.029-10.144-.615l-.615-.307v.615c-.465.188-.616-1.053-1.537-.615V5.84H47.646v.307h.307v.307c-1.861-.646-5.3.69-7.07,1.23H39.039v.307c-1.218.345-2.892-.386-3.689.307h-.307a4.233,4.233,0,0,1,.922-1.23,3.964,3.964,0,0,0-.615-2.459H31.661a8.505,8.505,0,0,1-2.4.61,2.855,2.855,0,0,1-1.151.205,7.105,7.105,0,0,1-2.924-.842c-.976-.473-1.953-.964-2.92-1.457a11.148,11.148,0,0,1-1.542-.963c-.066-.037-.131-.075-.2-.11a.248.248,0,0,1-.044-.026l-.051-.012c-.073-.019-.143-.039-.217-.054a.6.6,0,0,1-.281-.15c-.309-.193-.424-.495-.566-.583h-.615V.922h-.922V.615L15.062,0V.307h-.307l-.307.922h.615v.307h-.307a3.484,3.484,0,0,0,1.23,2.152c-.223.887-.33,1.019-1.23,1.23a1.225,1.225,0,0,0,.615.615c-.185.614.043.265-.307.615v.307c-.117-.134-.513.075-.307-.307h.307c-.1-.638-.024-.284-.307-.615V5.226h-.307V5.84c-1.871.5-.517,1.054-1.23,1.537H12.3l-.922,1.23h-.307v.615l-.922.615v.615l-.615.307L8.914,12.6,8.3,12.91v.615H7.992a2.329,2.329,0,0,0-.615,1.23h.615c.185-.614-.042-.265.307-.615v-.307h.615l-.307.922c-.614.185-.264-.043-.615.307-.352.1-1.1.1-.922.615h.307v.307H7.07v.307l-.615.307v-.615H7.07v-.307H6.148c-.2.728-.087.576-.615.922.349.344,0,.131.615.307v.307l-.922-.307-.615,1.23h.307v.307L4,18.136v.615c.614.185.265-.043.615.307l-.922-.307v.307c-.215.133-1.042.547-.922.922h.307v.307l-.614-.307-.308.615h.308v.615H2.152V20.6c-.868.23-.883.55-1.537.922l-.307.922H.615v.307L0,22.44v2.152l.615.307v.922H.922q.154.615.307,1.23h.615v1.23h.307v.307c.673-.456.706-.12,1.537,0-.349.344,0,.131-.615.307V29.2H4.3v.307H3.381v.307h.307v.307a2.2,2.2,0,0,1,1.23-.307c-.185.614.043.265-.307.615v.307c.614-.185.265.043.615-.307h.307v-.307H5.226c.121-.175-.09-.484.307-.307.174.077-.07.523.307.307l.308-.922h.307a2.317,2.317,0,0,1-.922,1.23v.615l.615-.307c.432.048-.038.043.307.307h.307l-.307-.922a2.378,2.378,0,0,0,.922-.615h.307c-.351.517-.186.428-.922.615v.307H7.07v.307c.281.13,1.268-1.6,2.152-2.152V29.2H8.607v.922a3,3,0,0,1,1.23-.307,3.6,3.6,0,0,1,1.844-2.152v-.307a2.3,2.3,0,0,1,.615.922h-.307v-.307h-.615c.637.527-.143.941-.615,1.23l.307.615.922.307a5.414,5.414,0,0,0,.615-1.537c.728-.2.576-.087.922-.615h.308l-.308.615.922-.307c-.33.462-.17.526-.922.615-.034-.061.034-.576-.307-.307-.537.422.27.241-.307.615v.615l.922-.307V29.2h.307v.307a10.854,10.854,0,0,0,3.689-.922h1.844l-.307-.922h.307v.615a5.8,5.8,0,0,0,2.767-.615h1.23l-.307-.615c.418.171.709.11,1.23.307v.307l.615-.307.308.615h.615v.307a3.239,3.239,0,0,0,1.537.922,6.468,6.468,0,0,0,1.844,2.459l.615.307.307.922.922.615,4.3,8.914.615-.307v.307h-.307c.118.486.427.319.615.615v.615h.308l.614.922h.615v.307h.615l.307.615h.307v.615l.615.307.307.922h.307v.922h.308v.922h.307V50.1H41.5l.307,1.537.615-.307c-.55,1.573.29,2.137.615,3.689h.615c-.343,1-.2.771,0,1.844h.615c-.386.261-.046,2.366.615,3.074v.307l.615-.307a9.826,9.826,0,0,0-.615,3.381h.307v.307h-.307v.615a1.223,1.223,0,0,0,.615-.615H45.8a2.064,2.064,0,0,1-.922.922v1.23h.307v-.615l.615-.307v-.307c.683-.465.8.019,1.23,0v-.307h.307l-.615.922L45.8,64.86v.615l-.615.307v.307l-.614-.307V66.4c.613.185.264-.043.614.307h-.614v2.459h-.308c.021.167-.178,1.273.308.922v-.307h.307a3.743,3.743,0,0,1-.615.615c-.449,1.08.727.952,0,1.844.179,1.363.164.864,1.23.615-.2.728-.086.576-.615.922v.307c-.482.43-.253-.568-.307-.615h-.308v-.307a5,5,0,0,0-1.844,1.23c-.344.349-.131,0-.307.615-1.316.169-1.279.713-2.152,1.23l-.307.922h.307v.307c-.077.331-.485-.089-.307.307h.307c.263.346-.041.048.307.307l.307-.922h.615c-.235.836-.073.7-.922.922v.615a11.964,11.964,0,0,1,2.152-.307v.307H41.5V79h1.23c.185-.614-.043-.265.307-.615V79h1.23l-.307-.615a3,3,0,0,0,1.23.307,1.225,1.225,0,0,0-.614-.615c.237-.312.378-.3.614-.615H45.8a1.223,1.223,0,0,1-.615.615c.868,1.208,1.213.2,1.844.615,0,0,1.2-.043.615-.307-.074-.428-.291.127-.307-.307a3,3,0,0,0,1.23.307l.614-3.689h.307c.2-.708-.377-.855-.307-1.23,0,0,1-.39.615-1.23H49.49V71.93l.615.307v-.922H49.8v-.307H50.1V69.471H49.8l.307-.922H49.49v-.307l.615-.307V66.4h.307v-.922H50.1L49.8,67.011s-1.2.043-.615.307c.075.428.291-.127.307.307l-.922.307.307-.922h.307V66.4l.615-.307v-.615l.615-.307v-1.23H50.1l.307-.922H50.1v-.307h.307l.307-3.689h.307l.615-4c.69.764.228,1.986.615,3.074h.307v.615h.307c.1.424-.065-.018-.307.307l.307,1.844h.307v.615h.307l-.307.922h.307v.922h.307v1.23H54.1l.615,4.611h.307v.307h-.307l-.307,1.537-1.537.922v.615c-.057.141-.494.054-.307.615h.307v.307l-.614-.307a10.646,10.646,0,0,1-.308,2.152c2.156.034,6.253.517,7.377-.615,1.536-1.031.766-3.049.307-4.611V68.241h-.307V66.4h-.307V63.63h-.307V62.4H58.4c-.03-.249.508-.788.307-1.537H58.4c-.4-1.464.252-3.959.615-4.918h.307q.461-2,.922-4h.307v-.922h.307V50.1h.307v-.922h.307l.307-1.537h.307v-.307H62.4l.307.615,1.537.307v.307h.922v.307H66.4v.307h1.537v.307l6.455.307V49.49c1.568-.457,2.419.178,3.381-.922l.922.307v.307h.615l.307.615,1.23.307.307.615,1.23.307.307.615a14.421,14.421,0,0,0,8.3,1.23v-.307H91.3v.307a4.4,4.4,0,0,0,2.767-.307h.307c.428,2.225,1.257,4.434,1.844,6.455.309,1.063-.674,4.751-.922,5.533v1.23h-.307v1.537h-.307v1.23h-.308v1.23h-.307V70.7h-.307v.922h-.307v.615H93.14v.615l-4,3.074c.12.993.279.9.615,1.537,1.163.237,4.309,1.253,6.148.615V77.77l1.23-.307.615-3.074h.307v-.615h.308v-.922h.307v-.615h.307v-.615h.307v-.615h.307v-.922H99.9l.307-1.23h.307l.307-1.23h.307l.307-1.23h.307v-1.23h.307v-.922h.308v-.922h.307V62.4h.307v-.922h.307q.154-.922.307-1.844h.307V58.4h.307v-.922h.307V56.56h.307v-.922h.307v-.922h.307v-.922h.307l.308-1.537h.307c.263-.346-.041-.048.307-.307l2.767,6.763v2.152l1.537,8.3a5.547,5.547,0,0,0-3.074,4.3l1.23.307v.307l3.689.307v-.307h2.152v-.307l.922-.307c.575-3.224-.109-7.584-.922-10.451v-5.84c-1.335-4.782.493-12.181,1.23-16.292h-.615v-.307h.615q.154-1.537.307-3.074c-.038-.129-.417-.061-.307-.615h.307V34.735h.307v-.307l-.922-.615v-.307a1.223,1.223,0,0,1,.615.615h.307a8.462,8.462,0,0,0-.307-1.23h.307v-1.23h-.615v-.307l.615-.307v-1.23h.307c.263-.346-.041-.048.307-.307v.615c.614.185.265-.043.615.307h-.615c0,.987.159,2.587.615,3.074v.615a1.223,1.223,0,0,0,.615-.615h.922v.307l-1.23.922v-.307h-.307l.307,1.537.615.307c-.03.295-.652.912-.307,1.537h.307v1.844h.307v-.307c.638.1.284.024.615.307h-.615a2.58,2.58,0,0,0,.307,1.23h.307l-.922,3.074h.922v.307l-.615.307v-.307h-.307v.922h.307a6.117,6.117,0,0,0,4,5.533v.307h.307c.369-1.736,1.89-6.313.922-7.377m-33.813-33.2H91.3a2.253,2.253,0,0,1-.163.426c-.008-.034-.042-.071-.144-.118h-.307Zm-.308-.615v.307c-.538.262-.771-.176-.922-.307Zm-1.537,1.537c-.614-.185-.265.043-.615-.307.614.185.265-.043.615.307M1.23,21.825h.307c.276.127-.592.6-.615.615l.307-.615M.922,23.362H1.23v-.307h.307v.615c-.613-.185-.264.043-.615-.307m.922,2.767H1.23c.185-.614-.043-.265.307-.615v.307h.307ZM15.37,1.844V1.537h.615l.307.922h-.307V1.844Zm.922,23.362h.615v.307c-.862.226-.894.539-1.537.922l.922-1.23m-2.459.307v-.307h.614v.307c-.025.03-1.069-.143-.614.307h.307v.615h-.307l-.308-.922Zm-.615-.922c-.614-.185-.264.043-.615-.307.614.185.265-.043.615.307m-.307.922H12.6V24.9c.344.349.131,0,.307.615M12.3,7.992H12.6v.615H12.3Zm-.615,3.074H12.3v.307l-.922.307.307-.615m-.307,0c-.614-.185-.265.043-.615-.307.614.185.265-.043.615.307m-.922.307c.614.185.265-.043.615.307h-.307l.307.615h-.615Zm.307,2.767c-.614-.185-.264.043-.614-.307.613.185.264-.043.614.307m-.614,9.837h.307c-.294.55-.443.477-.615,1.23H9.529c.189-.746.324-.676.615-1.23m0,2.152H9.837c-.25-.562-.078.268-.615,0l.307-.615c.139.13.772.235.615.615M9.222,12.91V12.6h.307v.615c-.614-.185-.265.043-.615-.307Zm-.307,4.3c.276.127-.592.6-.615.615l.307-.615Zm-.922,2.152.307-.615h.307c.276.127-.592.6-.615.615M8.3,16.907s-.095.046-.615-.615c.082.075.841.316.615.615m-1.23,7.07c.344.349.131,0,.307.615H7.07Zm.922.922-.615.922c-.365-.133-.067-.333-.307-.922.827.407.405-.251.922,0m-1.537.307h.307l-.614,1.23-.615.307v-.307H5.226v-.307l.615.307v-.922c.614-.185.265.043.615-.307m-.922-4L5.84,20.6h.308c.276.127-.592.6-.615.615m-.307-3.689h.307v.615H5.226Zm.307,1.23H5.84c-.649.655.227.555,0,.922l-.615-.307.307-.615m.615,5.84a2.38,2.38,0,0,1-.922-.615c.728.2.576.087.922.615m-.308.615s-.095.046-.615-.615c.082.075.841.316.615.615m-.307.615c-.614-.185-.264.043-.615-.307.614.185.265-.043.615.307m-.922,0H4.3v-.615c.344.349.131,0,.307.615M4.3,24.591c-.614-.185-.265.043-.615-.307.614.185.265-.043.615.307m0,1.537v.307l-.922.307.307-.615Zm0,1.23c-.614-.185-.265.043-.615-.307.614.185.265-.043.615.307m-1.537-5.84h.307v.922H2.767Zm.307,1.537c-.614-.185-.264.043-.614-.307.613.185.264-.043.614.307m-.307.922h.307c-.649.655.227.555,0,.922l-.614-.307.307-.615m.307,3.074-.614-.307c-.18.065.068.527-.308.307l.615-.922h.307c-.625.679.25.437,0,.922m-.307-1.23.307-.615h.307c.276.127-.592.6-.615.615m.922,2.152v.307H3.381l.307-.615a2.381,2.381,0,0,1,.922.615l-.922-.307m1.537-.307H4.611v-.307c.614-.185.265.043.615-.307h.307l-.307.615m1.537.307v.307c-.541.275-.68.859-1.23.307l.307-.615c.59.446.556.194.922-.307a2.378,2.378,0,0,1,.922.615l-.922-.307m2.152-.615-.922.307v-.922c.614.185.265-.043.615.307h.307Zm0-.922H8.607c-.25-.562-.083.266-.615,0l.307-.615c.139.13.772.235.615.615m-.307-1.23c.185-.614-.043-.265.307-.615V24.9h.307v.307Zm1.844,2.459H9.837l.308.615H9.837c-.263.346.042.048-.307.307V28.28H9.222a4.019,4.019,0,0,1,1.23-1.537v-.615h.307l-.307,1.537m.922-2.767s-.095.046-.615-.615c.082.075.841.316.615.615m-.307-11.681.922-1.23c.174.151.731.208.615.615l-.615-.307c-.161.129-.545,1.1-.922.922M12.91,27.05H12.6v-.307l-.615.307.615-.922c.13.162.555.369.307.922m.307.615.307-.615h.308c.276.127-.592.6-.615.615m.922.307.307-.615h.307c.276.127-.592.6-.615.615m1.537.615H15.37c-.4.508-.276.075-.615-.307.385.2-.069.091.307.307h.307V28.28s.692.105.307.307m.615-.615c.669.145.872.2,1.23.615-.669-.145-.871-.2-1.23-.615m4-1.537c.614.185.265-.043.615.307-.614-.185-.264.043-.615-.307m9.837,4.611c.614.185.265-.043.615.307-.614-.185-.265.043-.615-.307m2.152,2.767c-.613-.185-.264.043-.615-.307h.307V33.2h.307Zm12.6,19.366h.615v.307l-.922.307.307-.615m-.307,3.381c.613-.185.264.043.614-.307h.307l-.307.615h-.614Zm.922,1.844h-.307v.615l-.614-.307.307-.615s1.181.015.615.307m-.615,10.759h.307v-.615h.307v.922s-1.181-.015-.615-.307m.307,1.23h.307c-.649.655.227.555,0,.922l-.615-.307.307-.615m0,2.152V71.93c.344.349.131,0,.307.615Zm-4.3,4h-.308c-.43-.482.568-.253.615-.307v-.307H41.5c-.317.644-.218.277,0,.922-.614-.185-.264.043-.615-.307m.615,1.23v-.615h.615l.307.922L41.5,77.77m1.23-1.537h-.615v-.922h.922l-.307-.615h.615v-.307c.642-.227.74.344.922.615-.346-.263-.048.041-.307-.307-.13.035-.966-.177-.615.307,0,0,.623.008.307.307-.613.582-.61-.344-.922.922m1.537,1.844-1.23-.307c.235-.836.073-.7.922-.922,0,0,.043,1.2.307.615.428-.074-.127-.291.308-.307l-.308.922m1.23-2.152h-.922l.307.922h-.307l-.308-.922h.308c.008-.026-.1-1.084.307-.615v.307c.544-.331.409-.208.615-.922H45.8l-.307,1.23m0-7.685h-.307v-.922l.615.307v-.307h.307l-.615.922m.615,8.914c.614.185.265-.043.615.307-.614-.185-.265.043-.615-.307M46.724,75h-.615c.185-.614-.042-.265.307-.615.263.346-.041.048.307.307Zm0-3.074c-.614-.185-.265.043-.615-.307h.307c.263-.346-.041-.048.307-.307ZM49.49,8.607l.307-.615H50.1c.276.127-.592.6-.615.615M49.8,58.4h.615v.615H50.1v-.307c-.346-.263-.048.041-.307-.307m-.307-4.611.307-.615H50.1c.276.127-.592.6-.615.615M49.183,7.07a2.378,2.378,0,0,1,.922.615l-.922-.307v.307h-.307l.307-.615m-.307,49.49c.114.112.8.26.615.615h-.922l.307-.615m-.922,2.767h.307v-.307l.615.307v-.307h.307c-.351.517-.186.428-.922.615v.615h-.307Zm-.615-.615.307-.615h.307c.276.127-.592.6-.615.615m1.844,2.459h.307l-.307.922h-.614c-.185.614.042.265-.308.615v.307h-.307c.361-.761.849-1.166,1.23-1.844m-.307-.615c.185-.614-.043-.265.307-.615.263.346-.041.048.307.307v.307Zm-.922-3.689v.307h-.615v-.307h.307l-.307-.922.922.615c-.263.346.042.048-.307.307m0-2.767-.615-.307.307-.615h.307c-.649.655.31.421,0,.922m-.615-2.459h.615v.307l-.922.307.307-.615m-1.537.615h.307v.615H45.8Zm0,2.152h.922v.307l-.922.307Zm0,6.148c.344.349.131,0,.307.615H45.8Zm.615,3.381v-.615c.344.349.131,0,.307.615Zm.307-1.537c-.614.185-.265-.043-.615.307H45.8l.307-.922h.615Zm-.615-2.152v-.615h.307l.615.922-.922-.307m.922,2.152v-.615c.614-.185.265.043.615-.307h.307a2.064,2.064,0,0,1-.922.922m.615,2.767c.139.13.772.235.615.615h-.307v-.307h-.307v.307h-.307l.307-.615m0,1.23c.263-.346-.041-.048.307-.307.263.346-.041.048.307.307V66.7l-.922.307c.185-.614-.043-.265.307-.615m.615,3.689c.276.127-.592.6-.615.615l.307-.615Zm-.615,2.152c-.613-.185-.264.043-.615-.307.614.185.265-.043.615.307m-.307.922h.307c.276.127-.592.6-.615.615l.307-.615m-.307,2.459h.307v-.307a2.3,2.3,0,0,1,.615.922c-.356-.184-.737-.238-.922-.615m1.23-3.074c-.263.346.042.048-.307.307v-.615c.614.185.265-.043.615.307Zm.615-1.844c.614.185.265-.043.615.307-.613-.185-.265.043-.615-.307m.307-1.844c.344.349.131,0,.307.615h-.307Zm-.307.307v.615c-.614-.185-.264.043-.615-.307h.308c.262-.346-.042-.048.307-.307m-.307-4.611h-.615c.185-.614-.042-.265.307-.615.263.346-.041.048.308.307Zm0-1.23.307-.615h.307c.276.127-.592.6-.614.615m.922,2.152s-.095.046-.615-.615c.082.074.841.316.615.615m.307-1.537h-.615v.615h-.307l.307-.922.615-.307Zm.615-3.074H50.1v.615H49.8v-.922s1.181.015.615.307m-.307-4,.307-.615h.307c.276.127-.592.6-.615.615m.615.615v-.615c.344.349.131,0,.307.615Zm.307-1.844c-.538.262-.771-.176-.922-.307h.922ZM50.72,7.685V7.07c.344.349.131,0,.307.615Zm.307-.922h-.615c.185-.614-.043-.265.307-.615v.307h.307Zm2.152.922h.307V8.3h-.307Zm-1.23,44.264s-.095.046-.615-.615c.082.074.841.316.615.615m.308-44.572-.308-1.23a1.667,1.667,0,0,1,.615,1.23Zm.307,46.416c.614.185.265-.043.615.307-.614-.185-.264.043-.615-.307m.307,3.074.307-.615h.307c.276.127-.592.6-.615.615m.922,3.074h-.615v-.615h.615Zm0-2.459-.615.307V58.1h.307s-.106.693-.307.307V58.1c-.5-.4.012-.307.307-.922h.307ZM55.638,9.222h.307c.195.57-.179.437-.307.615v.307h-.307l.307-.922m0,55.023s-.095.046-.615-.615c.082.074.841.316.615.615m-.307-2.767h-.307v-.615c.344.349.131,0,.307.615m-.615-7.992c.344.349.131,0,.307.615h-.307ZM54.1,59.019c.344.349.131,0,.307.615H54.1Zm0,4.611c.614.185.265-.043.615.307-.614-.185-.264.043-.615-.307m2.152,1.23c-.863.226-.895.539-1.537.922l.922-1.23h.615Zm0-2.459s-.1.046-.615-.615c.082.074.841.316.615.615m0-2.767c-.263.346.041.048-.308.307v-.615c.614.185.265-.043.615.307Zm.922,3.689c.614.185.265-.043.615.307-.614-.185-.265.043-.615-.307M59.634,9.529l.308-.615h.307c.276.127-.592.6-.615.615M61.171,8.3c.614.185.265-.043.615.307-.614-.185-.265.043-.615-.307m4.3,0V7.992h.615c-.462.615-.826.1-.307.922-.007.007-.926-.316-.307-.615m-2.152,2.459v-.615c.344.349.131,0,.307.615ZM63.63,8.3h.308v.307h.307V8.3s.692.105.307.307h-.307c-.4.508-.276.075-.615-.307m.615,1.537.615-.922h.307l-.615.922Zm.922.615h.307V9.837h.307v.922s-1.181-.015-.615-.307m.572,2.72s-.081.04-.523-.523c.07.063.715.269.523.523m.612,1.537c-.521-.157-.225.036-.523-.261h.261v-.261h.261ZM66.4,12.3l-.615-.307.307-.615H66.4c-.649.655.227.555,0,.922m.615-.615v-.615c.344.349.131,0,.307.615Zm16.507,6.194h-.261l.261.523h-.261v.523h-.523L83,18.4h.261L83,17.614h-.523v-.261c.568.123.741.167,1.045.523m-.569,8.538c-.522-.157-.225.036-.523-.261.522.157.225-.036.523.261m4.042-14.732h-.615v-.922h.307v.615c.346.263.048-.041.308.307m-3.074-.922,1.23.307.922-1.23c.344.349.131,0,.307.615-.312.237-.3.378-.615.615v.307l-.615-.307v.615H84.84l-.307-.615h-.615Zm0,.776.784.523c-.132.215-.434.847-.784.784V12.58h-.261v.784h-.523c.181-.712.354-.591.523-1.306,0,0,1.016-.037.523-.261h-.261Zm-.615-1.7h.307c.262.538-.176.771-.307.922v.307H83a3.254,3.254,0,0,1,.307-1.23m-.231,1.947c-.521-.157-.225.036-.523-.261h-.261l.261.784-.523-.261v.261c-.64.316-1,.708-1.568,1.045v-.523h.523c.2-.711.062-.595.784-.784v-.523c.815-.1.724-.372,1.306.261m-.784,1.481v.261H81.5v.261h-.261l.261-.523Zm-.215-3.427V9.529h.307v.307h.307c-.549.946-1.489,1.353-2.152,2.152h-.307c.293-.552.438-.478.615-1.23,1.056-.3.574-.394,1.23-.922m-2.152,0,.922.307V9.529h.615v.615c-.728.2-.576.087-.922.615h-.307c-.185-.614.043-.265-.307-.615Zm-.273,5.913c.488.438.507.154.261.784-.446.221-.235-.581-.261-.784m-.342-5.913c-.614-.185-.265.043-.615-.307.614.185.265-.043.615.307m-2.459-.922h.615c.021.167-.179,1.273.307.922V9.529h.307v.615l-1.23-.307Zm-.615.922h.307c.14.681-.671.344-.922.615l.307.615h-.307v.307h-.307c.237-.891.168-.066,0-.922a2.38,2.38,0,0,0,.922-.615m.83,3.358-.784-.261v.523h-.261c.157-.521-.036-.225.261-.523v-.261c.619.168.49.073.784.523m-1.512-.33H75.29c-.086-.193.087-.386-.261-.261v.261h-.261l.261-.523c.118.11.656.2.523.523M74.389,9.837c.552-.293.478-.438,1.23-.615v.307c-.025.03-1.069-.143-.615.307h.308v.307c-.848-.273-.69-.227-1.537,0l.307-.922c.344.349.131,0,.307.615M73.467,8.3h.615v.615h-.615ZM70.7,9.529l.615-.307L71.008,8.3l.615.307-.308,1.23H70.7ZM67.934,7.992c.746.189.676.324,1.23.615v.307h-.307v.307h-.307l.307-.615L68.241,8.3v.307h-.307Zm.876,5.464h-.261l-.261-.784c.44.3.364.159.523.784m-.569-3.927h.307c.276.127-.592.6-.615.615l.307-.615m.264,6.409s-.081.04-.522-.523c.069.063.715.269.522.523m-.214-1.23.261-.523h.261c.235.108-.5.512-.522.523m.872-2.72.307-.922h.307l-.307.922Zm.945,2.72v-.523c.293.3.111,0,.261.523Zm-.33-2.72c.614.185.265-.043.615.307-.614-.185-.264.043-.615-.307m.615-.307v-.615c.344.349.131,0,.307.615Zm.922-.615-1.23-.922v.307h-.307l.307-.615h-.615L69.778,8.3h.615c-.2.728-.086.576-.615.922a2.066,2.066,0,0,0,.922.922c.518.363,1.345-.281,1.537-1.23h.307c-.373,1.387-.713.841-1.537,1.537v.307h.307Zm1.23.307v.307H71.93v.307h.307c-.046.067.04.568-.307.307v-.307c-.506-.443.021-.268.307-.922.728.2.576.087.922.615l-.615-.307m.922-.615c.614.185.265-.043.615.307h-.307v.307h-.307Zm.33,1.583h.523V12.6l-.784.261.261-.523m.284,2.413v.261H73.82v-.523c.522.157.225-.036.523.261Zm-.257-.968.261-.523h.261c.235.108-.5.512-.523.523m.257-1.8v-.307c.614-.185.265.043.615-.307H75l-.307.615Zm.684,3.718h.784v.261c-.457.223-.655-.15-.784-.261M76.151,20.6c-.243.433-.588-.063-.784,0v.261h-.261l.261-.523h.261V20.6h.261v-.261s.62.171.261.261m-.482-2.505.261-.523h.261c.235.108-.5.512-.523.523m.3-2.651a1.952,1.952,0,0,1,.523.784c-.439-.3-.364-.159-.523-.784m.569-1.3V14.4l-.523-.261V14.4h-.261l.261-.523h.261v.261c.338.119.325-.54,1.045.261H76.8V14.14Zm.661,1.867c.522.157.225-.036.523.261-.521-.157-.225.036-.523-.261m-.046-4.634.307.922h-.307l-.307-.922,1.23-.615v-.307h.307c.293.552.438.478.615,1.23-.4-.322-.456-.629-.922-.922v.615Zm.975.968h.261v-.261h.261a.751.751,0,0,1-.523,1.045v-.261h.261V12.6c-.165-.331-.236.107-.261-.261m-.049,10.144h.261c.235.108-.5.512-.522.523l.261-.523m.3,2.482h.261l-.261.523h.261v.261h-.523l.261-.784m.572,2.628-.523-.261.261-.523h.261c-.551.557.193.472,0,.784M79,17.806v.261h-.261v-.784l.523.261c-.223.294.035.041-.262.261m0-3.051c-.223.294.035.041-.261.261v-.523c.522.157.225-.036.523.261Zm.023-.661v-.523c.293.3.112,0,.262.523Zm.285-2.106V12.3H79l.308-.922h.307c.195.57-.179.437-.307.615M79.879,27s-.081.04-.523-.523c.07.063.715.269.523.523m.089-7c.522.157.225-.036.523.261-.521-.157-.225.036-.523-.261m.615-4.918c.522.157.225-.036.523.261-.522-.157-.225.036-.523-.261m.592,6.033h-.261V20.073H81.7v.261h-.523Zm.546,3.427c-.521-.157-.225.036-.523-.261h.261c.223-.294-.035-.041.261-.261Zm.023-2.175h-.261v-.784h.261Zm.569-3.289h-.523V19.6h-.261c.157-.522-.036-.225.261-.523s0-.111.523-.261Zm-.765-1.414h-.261l.261-.523c-.041-.173-.449.057-.261-.261h.261c.451-.554.537-.149.784-1.045.522.157.225-.036.523.261a3.758,3.758,0,0,0-1.306,1.568M83,50.72s-.1.046-.615-.615c.082.074.841.316.615.615m.023-24.945v-.523c.293.3.112,0,.262.523Zm-.28-2.767L83,22.486h.261c.234.108-.5.512-.523.523m.838-2.39h-.261v.523h-.261v-.784s1,.013.523.261m31.7,12.58c-.614-.185-.265.043-.615-.307.614.185.265-.043.615.307m0,1.23c-.517-.351-.428-.187-.615-.922a2.3,2.3,0,0,1,.615.922m-.307-2.767h-.307v-.307h-.307l.307-.615c.033.043.661.415.307.922m-4.611,7.377c.5.495.685.2.307.922-.4.145-.05-.388-.307-.922m-.922-7.685h-.307c-.262.346.041.048-.307.307v-.615c.614.185.265-.043.615.307m-.307-1.537V29.2c.344.349.131,0,.307.615Zm.307,2.459c-.614-.185-.265.043-.615-.307.614.185.265-.043.615.307m0,3.381h.307a2.064,2.064,0,0,1-.922.922v-.615c.614-.185.265.043.615-.307m0-6.763s-1.2-.043-.615-.307c.075-.428.291.127.307-.307.614.185.265-.043.615.307-.346.263-.048-.041-.307.307M106.314,27v.261c-.294-.223-.041.035-.261-.261h-.261l.261-.784c.172.19.367.011.261.523h-.261V27Zm-.118-6.832-1.306.261v-.523h-.261c-.172.493.19.3-.261.523v-.261h-.261c-.085-.072.58-.462.784-.784h.261l-.261.523h.261v.261h.261v-.261c.711-.2.595-.062.784-.784h-.523V18.6l.784.261-.261,1.306m.139,1.3h-.262v-.523c.293.3.112,0,.262.523m-.638,1.56c-.521-.157-.225.036-.523-.261.522.157.225-.036.523.261m-2.413-4.588c.223-.294-.035-.041.261-.261V18.7c-.521-.157-.225.036-.523-.261Zm-.261-2.72h.523v.523h-.523Zm.423,1.921c.148-1.084.545-.911.784-1.829l1.045-.261-.261,1.306c-.895.244-.672.556-1.568.784m2.367-1.475.784.261v-.523h-.523v-.261l1.045.261v-.261a1.907,1.907,0,0,1,1.045-.261v.261h-.784a1.955,1.955,0,0,0,.784.523c-.223.294.035.041-.261.261v.261h-.523c.3-.293,0-.111.523-.261v-.261h-.784c-.157.522.036.225-.261.523v.261h-.784c-.245,1.091-.842,1.294-1.306,2.09h-.523c.3-1.03,1.068-1.278,1.568-2.09h.261l-.261-.784m2.7-2.644H108.2v.307h-.307c-.313-.9-.331-.629,0-1.537h-.615v.922h-.307V12.3h.307v-.307h.922l.307.922H108.2v.307c.077.331.485-.089.307.307m4.611,10.759h.307v-.615h.308c-.035.715-.239.785-.308,1.23h.308v.307h-.308v.307h.308v.307h-.308c-.185.614.043.265-.307.615l-.307-1.23h.615V24.9c-.324,0-.5-.268-.307-.615m.307,2.767v-.307c.614.185.265-.043.615.307l-.922.615v-.307h-.307c-.43-.482.568-.253.615-.307m2.459-.922c.574.515.6.181.307.922-.525.26-.276-.683-.307-.922m0-2.152h.307v1.23h-.307Zm-.615-.307v-.615c.614-.185.265.043.615-.307h.307a2.064,2.064,0,0,1-.922.922m-.307-.307h-.615l.615-.922h.307l-.307.922m-.307,2.152V24.9h.615v-.615h.307c.333.607-.315.9-.307,1.23h.307v.615a.6.6,0,0,1-.307-.615c-.3-.182-.827.765-.922.922h-.307v-.922Zm-.922-2.152v-.615c.344.349.131,0,.307.615Zm-.615,5.226v.307c-.739.631.307-.922.307-.922h.308V29.2h-.308v-.615Zm.615,2.459h.307v.615h-.307Zm-.922-3.074s-.095.046-.615-.615c.082.074.841.316.615.615m-2.766-4.918a2.573,2.573,0,0,1-.615.615v-.615c.746-.189.676-.324,1.23-.615.263.346-.041.048.307.307-.262.346.041.048-.307.307-.134.18.093.477-.307.307-.219-.093.081-.5-.307-.307m.922,1.23v-.615c.614.185.265-.043.615.307h-.307c-.263.346.041.048-.307.307m.307.922h-.307v-.615c.344.349.131,0,.307.615m-.307,1.844v.615c-.613.185-.265-.043-.615.307h-.307a2.064,2.064,0,0,1,.922-.922m.615.922c.159.138.752.224.615.615l-.615-.307c-.139.075-.223.8-.615.615l.615-.922m0,1.23c.614.185.265-.043.615.307h-.307c-.263.346.042.048-.307.307Zm.922,2.767c-.614-.185-.264.043-.615-.307.614.185.265-.043.615.307m0-4.918-.922.307.307-.615h-.307v-.307h.307l-.307-.615.922.307c-.349.344,0,.131-.615.307.237.312.378.3.615.615m-.922-5.226h.922v.307c-.538.262-.771-.176-.922-.307m.307-.307h-.307c.293-.552.439-.478.615-1.23h-.922V20.6h-.307a2.279,2.279,0,0,1,1.23-.922,3.648,3.648,0,0,1,.307,1.537c-.614.185-.264-.043-.615.307m-1.537-2.152c.614.185.265-.043.615.307-.613-.185-.265.043-.615-.307m.307-1.23h.307c.235.475-.613.532-.922.615v-.307c.613-.185.264.043.614-.307m-.307-1.23h.615c.185.614-.043.265.307.615v.307h-.615l-.307-.922m0,4.3c.185-.614-.043-.265.307-.615l.307.922h-.307v.615c-.4-.523-.893-.06-1.23.307h-.307c.351-.517.187-.428.922-.615.185-.614-.043-.265.307-.615m-1.844,0c.614.185.265-.043.615.307-.613-.185-.264.043-.615-.307m1.23-.307v-.615c.344.349.131,0,.308.615Zm-.307-4h.307v.922c-.346-.263-.048.041-.307-.307-.614-.185-.265.043-.615-.307.614-.185.265.043.615-.307m-.307-1.537h.615l-.307.922c-.908-.346-.342.049-.307-.922m0,3.074h.307c.276.127-.592.6-.615.615l.307-.615m0,1.23h.307c.195.57-.179.437-.307.615V20.6h-.615l.615-.922m-.922-1.844c-.349.344,0,.131-.615.307v-.307c-.614-.185-.265.043-.615-.307.669-.145.871-.2,1.23-.615h.307c.262.538-.176.771-.307.922m-.615-3.689h.615v.615h-.615Zm0-2.459h-.922c-.392.186.1.149-.307.307l-.307-.922,1.537.307Zm-.945,1.96c.169.618.073.49.523.784v.261H106.9c-.3.293,0,.111-.523.261l-.261-.523.261-.523h-.523v-.261Zm0,4.142h-.261V17.26h.261Zm-1.271-3.028v.261h-.784v.261h-.261c.3-.5.7-.623,1.045-1.045h.261c.165.484-.153.371-.261.523m1.01,7.731h.261v.523h-.261Zm.046-.423V21.8h.523v-.523h.261c-.157.522.036.225-.261.523v.261Zm.546-3v-.615l.922.307v.307Zm.307,1.23.922-.307V20.6h-.922Zm.922.922v.922h-.307l-.307-.922Zm.615,2.152h.307c.322.572-.209,1.29-.307,1.537h-.922l.922-1.537m.615,3.381c-.614-.185-.265.043-.615-.307.614.185.265-.043.615.307m-.615.307h.307c.276.127-.592.6-.615.615l.307-.615m.307-.922v-.307l.922-.615c.262-.346-.042-.048.307-.307v.615h-.615v.615Zm.922,8.914c.344.349.131,0,.307.615h-.307Zm.307,2.459c.574.515.6.181.307.922-.525.26-.276-.683-.307-.922m0-3.689.307-.615c.114.112.8.26.615.615Zm.922-2.459v.615h-.307v-.922s1.181.015.615.307Zm.922,2.152v.615h-.307v-.307c-.346-.263-.048.041-.307-.307Zm0,4c.112.151.576.268.307.922l-.615-.307v.615h-.307c.189-.746.324-.676.615-1.23m.615,1.844h.307c-.293.552-.438.478-.615,1.23h-.615V41.5h-.307c.169-1.316.713-1.279,1.23-2.152m-.307-8.914c.185-.614-.043-.265.307-.615.185-.614-.043-.265.307-.615l.307.922h-.307v.307h.307v.307l-.922-.307m1.23,2.459c-.614-.185-.265.043-.615-.307.614.185.265-.043.615.307m0,1.23v.615h-.308v-1.23c.614-.185.265.043.615-.307h.307c-.2.728-.086.576-.615.922m.307,1.537c-.614-.185-.265.043-.615-.307.614.185.265-.043.615.307m0-7.685h.307v.922h-.307Zm.922,1.23h-.307c.313-1.247,1.054-1.029-.307-1.844V27.05l1.23-.307s-.043,1.2-.307.615c-.428-.075.127-.291-.307-.307.3,1.055.394.573.922,1.23a2.064,2.064,0,0,0-.922.922m.922-1.844c.614.185.265-.043.615.307-.614-.185-.264.043-.615-.307m1.537-.615c.276.127-.592.6-.615.615l.307-.615Zm-.307-.922h-.307c-.262.346.041.048-.307.307v-.615c.614.185.265-.043.615.307M116.5,21.21v.615h-.615v.615h-.307l.307-.922.615-.307m-1.844-2.459c.614.185.265-.043.615.307h-.307c-.262.346.041.048-.307.307Zm0,1.23,1.23-.307c-.256.387-.419.178-.615.615h.307V20.6a5.41,5.41,0,0,1-1.537.615v.615c.614-.185.265.043.615-.307h.307c-.262.346.041.048-.307.307-.185.614.043.265-.307.615l-.307-.615h-.307c.286-1.053.654-.791.922-1.844m-1.537-1.23c.071-.429.266.126.307-.307l.615.307v-.307h.307l-.615.922s-.9-.432-.615-.615m1.23.922v.307h-.615c-.185.614.042.265-.308.615V20.9h-.615a2.071,2.071,0,0,1,1.537-1.23m-.922,2.152c-.185.614.043.265-.307.615v-.307c-.346-.263-.048.041-.307-.307Zm-.615,1.23v-.307l.615.307c.031.328-.627.89-.922.922v-.307h.307v-.307h-.307v-.307Zm-.307-4.611v.615l-1.23.307v-.615l1.23-.307m-.922-3.689h-.307c.132-.412.126-.7.307-.307l.922-.307c-.189.746-.324.676-.615,1.23h-.922v-.307c.025-.03,1.069.143.615-.307m-1.23-1.23h.307l.307,1.23h-.615Zm.307,1.844h-.307c.331.544.208.409.922.615V16.6h-.307l-.307-.615-.614.307v-.307h.307l-.307-.922c.025.008,1.083-.1.614.307m-.922-1.537v.307h.308a1.225,1.225,0,0,1-.615.615v.307a2.3,2.3,0,0,1-.615-.922c-.346-.263-.048.042-.307-.307h.615v.615c.312-.237.3-.378.615-.615m-.922-2.152v-.615h.307c.195.57-.179.437-.307.615v.307h-.307v-.307h-.615v-.307l.922.307m-.615-1.537h.307v.922h-1.23v-.307c.728-.2.576-.087.922-.615m-1.23-.307.922-.307v.615h-.922Zm-7.155,1.222h.523c.157.521-.036.225.261.523l.261-.784h.523l-.261-.523h.523v-.261l1.045.261v.261l.523-.261V10.8h.523l-.261.784h-.523V12.1c1.055-.259,1.385-1.172,1.568-2.09l.784.523v-.523h.784s-.037,1.016-.261.523c-.364-.063.108-.247-.261-.261V10.8c-.651.18-.424.135-.784.523h-.262v.523l-1.306,1.045v.523c.293.3.111,0,.261.523.294-.223.041.035.261-.261.522-.157.225.036.523-.261h-.523v-.523h.523c.18-.712.354-.591.523-1.306h.522v.784h-.522v.523a2.767,2.767,0,0,0,1.045-.261l.261.523h-.261v-.261a5.592,5.592,0,0,1-1.045.261v.523c-.9.253-.488.334-1.045.784v.261h-.261v-.523c-.054-.123-.47-.078-.523-.523.235-.285.2.1.261-.261h-.523c-.225.847-.583.985-1.568,1.045v.261h.784v.261h-.784V15.5H100.6a1.9,1.9,0,0,1,.523-1.306h.261c-.073-.313-.694-.225-.523-.523h.261s-.036-1.016-.261-.523c-.364.063.108.247-.261.261v-.261h.261v-.261H100.6a1.257,1.257,0,0,1,.523-1.045v-.261c-.634.161-.574.276-1.045.523.157.522-.036.225.261.523v.523c-.243-.12-.329-.718-.523-.523v.523h-.261c.155-.982.118-1.107.261-2.09M101.37,27.6h-.261l-.523-.784.523.261v-.261h.261v.261h-.261l.261.523m-1.114-2.344h.523c-.157.522.036.225-.261.523v-.261c-.294-.223-.041.035-.261-.261M99.026,31.4h.523c-.157.522.036.225-.261.523v-.261c-.294-.223-.041.035-.261-.261m-.161-5.859c-.143.189-.1.157-.117.165,0,.038-.019.075-.145.1a.809.809,0,0,1,.145-.1c-.009-.073-.125-.155.117-.165M98.7,23.6c-.509.116-.039-.387,0-.523h-.261v-.261h.784L98.7,23.6m-2.129,2.573h.523V26.7h-.261v-.261c-.294-.223-.041.035-.261-.261m0,2.982.261-.523h.262c.235.108-.5.512-.523.523m.518.945c-.521-.157-.225.036-.523-.261.522.157.225-.036.523.261M96.9,24.453l-.261-.784c.827-.339.537.259,1.045-.784.163.331.32-.1.261.261h-.261a2.163,2.163,0,0,1-.784,1.306m1.381-4.119h-.261l.261.784h-.523v-.784h-.523v-.261c.1,0,1.429-.055,1.045.261m-.813-2.766h.261v.523h-.261ZM99.4,21.737h-.261a1.042,1.042,0,0,1,.523-.523v-.261c.41-.365.215.483.261.523h.261l.261-.784c.522.157.225-.036.523.261l-.784.523c-.114.1.064.437-.261.261v-.261c-.542.088-.241.02-.523.261m-.069,4.084h.261c.223-.294-.035-.041.261-.261v.523c-.521-.157-.225.036-.523-.261M99.549,27h-.523v-.523h.523Zm.069-3.381V23.1c.293.3.112,0,.261.523ZM99.641,20c.522.157.225-.036.523.261-.522-.157-.225.036-.523-.261m.453-.661c-.294.223-.041-.035-.261.261H98.788l.261-.784h.261v.523l.784-.261Zm-.33-2.72H99.5v1.045h-.261v-.523a5.489,5.489,0,0,1-1.045.261v-.261h.523c.163-.814.241-1.1,1.045-1.306Zm-1.137,1.583c-.157.522.036.225-.261.523v.261H98.1v-.784Zm-.807,7.858h-.261l.261-.784h.523s.033.908.227.588c-.034.131.046.343-.227.2V25.8c-.543.088-.241.02-.523.261m.284-4.216c.522.157.225-.036.523.261-.522-.157-.225.036-.523-.261m-.73.215h-.523l-.261-.784c.342.213.658.359.784.784m.161,8.584v-.523c.618-.168.49-.073.784-.523h.261a2.581,2.581,0,0,1-1.045,1.045m.476,2.221c-.521-.157-.225.036-.523-.261.522.157.225-.036.523.261m1.3-3.735h-.261l.261-.784c.522.157.225-.036.523.261a1.041,1.041,0,0,0-.523.523m.377.684c.522-.157.225.036.523-.261h.523v.261c-.522.157-.225-.036-.523.261h-.523Zm.876-5.51c.522.157.225-.036.523.261-.521-.157-.225.036-.523-.261m.284-1.844v1.306h-.261v-.523h-.261l.261-1.045h.523v-.784h.523q-.13.523-.261,1.045Zm.33-2.323h-.523c.223-.294-.035-.041.261-.261v-.523l.523.261v-.523h-.523s-.052-.957.261-.523v.261h.261c.3-.092-.082-.4.261-.261v.261c.522.157.225-.036.523.261a2.583,2.583,0,0,0-1.045,1.045m1.007-2.861v.261l-.784-.261V17.8c-.464.418-.576.128-1.045,0v.523c-.772-.294-.291.042-.261-.784l.784-.261v-.261c.316-.191.163.183.261.261h.261v-.261h1.045v.261Zm.177-1.84c-.063-.364-.247.108-.262-.261l.523.261v-.261h.261c-.15.295-.7.537-.522,1.045h.261v.261l-.784-.261V15.7s1.016-.037.523-.261m.311,2.152h.261c.165.484-.153.371-.261.523v.261h-.261l.261-.784m-4.093-3.719h.784v1.306h.261v.261a3.317,3.317,0,0,1-1.306-.261v.261h-.261c-.365.41.483.215.523.261v.261c-1.157.461-1.31.165-1.306,1.829-.294-.223-.041.035-.261-.261H96.49c.129-.3.1-.706.261-1.045h.261l-.261-.523c.879-.488.94.378,1.306-1.045l1.045.261v-.523h-.523c-.42-.3.5-.264.523-.261.277-.423-.394-.226-.523-.261ZM97.09,18.728c-.521-.157-.225.036-.523-.261.522.157.225-.036.523.261M97.8,14.14h.261v-.261h.261V14.4c-.522-.157-.225.036-.523-.261m.761-1.752L98.3,13.433h-.523s-.036-1.016-.261-.523c-.364.063.108.247-.262.261v-.523l1.306-.261M95.6,11.374l.615-.307c.349-.344,0-.131.615-.307.349.344,0,.131.615.307l-.307.922h-.922v-.307H95.6Zm-.238,1.014c.91.145.489.264,1.306,0-.157.522.036.225-.261.523-.114.153.079.405-.261.261-.186-.079.069-.428-.261-.261a2.182,2.182,0,0,1-.523.523L95.1,12.91h-.261c.2-.265.321-.257.522-.523m.215,5.441h.261v.784h-.261V18.09h-.523a2.546,2.546,0,0,0,.261-1.045h.523v.261c-.276,0-.429.228-.261.523m-1.752,6.978h-.261l.261-1.045h.523c.161.634.276.574.523,1.045l-.523-.261v-.261c-.335.215-.287.222-.523.523M93.8,28.849l.261-.523h.261c.235.108-.5.512-.522.523m.518.707v.523c-.522-.157-.225.036-.523-.261h.261c.223-.294-.035-.041.261-.261m.065-7.493V21.8h-.261l.261-.523c.371.31.694.294.261.784Zm-.541-1.914h-.261c.089-.78.024-.717.523-1.045v-.261l.784.261v-.523h.261c-.264.966-.843.871-1.306,1.568m.215-2.674c.2-.311-.19-.175-.261-.261v-.261h.261a1.041,1.041,0,0,1,.523-.523v.523c-.772.294-.291-.042-.261.784-.521.157-.225-.036-.523.261H93.54c.167-.32.428-.375.522-.523m-.564-1.23.261-.523h.261c.234.108-.5.512-.523.523M93.278,11.2l1.568.261v.784l-.523-.261v.523h-.261v.261H93.8l.261-.784-.784-.261Zm-.707.945h.784v.261h-.523c-.157.522.036.225-.261.523.3.293,0,.111.523.261v-.523h.261v1.306h-.261v-.523H92.31q.131-.653.261-1.306m-.945.5c.293.3.111,0,.261.523h-.261Zm.02,1.521v-.261l.523.261v-.261h.261v.261c.077.073.461-.05.261.261-.086.133-.923.5-1.306.261v-.261h-.261c-.366-.41.483-.215.523-.261m.9,11.651h.261v.523h-.261l-.261-.784h.261V25.3h.523v.261c-.021.025-.909-.122-.523.261m.261-3.143h-.523c.157-.522-.036-.225.261-.523v-.261h.523l-.261.784m-.546-1.445c.522.157.225-.036.523.261-.522-.157-.225.036-.523-.261m.261-3.735v.261h-.261v-.784h.523c-.157.522.036.225-.262.523m.284.423h.261l-.261,1.045h-.523l.261-.784c.294-.223.041.035.261-.261m-2.082,4.918c.128.12.584.54.523.784h-.261v.261h-.261v-.261h.261l-.261-.784m.829-1.033v-.523h.261c-.157.522.036.225-.261.523v.261c-.484.165-.371-.153-.523-.261-.294-.223-.041.035-.261-.262.294-.223.041.035.261-.261.435.289-.015,0,0,.523Zm.307-2.771c-.521-.157-.225.036-.523-.261.522.157.225-.036.523.261m-.238-2.482V16.03c.293.3.111,0,.261.523Zm-.615,9.906c.294-.223.041.035.261-.261h.261v.784H90.75l.261-.523m.023-1.23c.522.157.225-.036.523.261-.521-.157-.225.036-.523-.261m.33-.4v-.523l.784-.261v.523c-.521.157-.225-.036-.523.261Zm.077-9.652c-.479.519-.29-.027-.784.261.465.466-.023.588-.262,1.045h-.784v-.523h1.045l-.262-.784ZM89.8,19.489h-.522l.261-1.306h.523V17.66c.522-.157.225.036.523-.261h.261c-.383,1.341-.819.646-1.306,1.306l.261.784m-.349,2.029v.523h-.261a2.765,2.765,0,0,1,.261-1.045h.261c.165.484-.153.371-.261.523M90,15.085a1.041,1.041,0,0,0-.523.523h-.261l.261-.784c.522.157.225-.036.523.261M88.882,13.9H89.4c-.157.522.036.225-.261.523v.261h-.261Zm.192,3.111h.784v.261l-.523.261v-.261h-.261V17.8H88.029v.523h-.523v-.261l.784-.523v-.523c.324-.4.263.493.261.523.326.107.415-.372.523-.523M88.437,20l-.784.261v.523h-.261V20h.261v-.261l.523.261v-.523h.261Zm.092.638c.223.294-.035.041.261.261v.261h-.523c.157-.521-.036-.225.261-.523M87.015,19.6h-.261l.261-.784c.522.157.225-.036.523.261a1.041,1.041,0,0,0-.523.523m.238,2.313h.261a2.582,2.582,0,0,1-1.045,1.045V22.44c.619-.168.49-.073.784-.523m.424,1.614h-.261c.307-.647.722-.991,1.045-1.568.163.331.321-.1.261.261h-.261c-.2.738-.467.751-.784,1.306m.191,1.368v.261h-.523c.157-.522-.036-.225.261-.523.223.294-.035.041.261.261m.358-1.491h.261c.235.108-.5.512-.523.523l.261-.523m.326,1.183v.523h-.261l.261-.784.523-.261v.523Zm.241,1.491s-.081.04-.523-.523c.07.063.715.269.523.523m0-10.736c-.522-.157-.225.036-.523-.261.522.157.225-.036.523.261m-.307-1.23c-.521-.157-.225.036-.523-.261.522.157.225-.036.523.261m-.968,3.028c-.223.294.035.041-.261.261v.261h-.523l.262-.784h-.523l.261-.784c.295-.223.041.035.262-.261h.261c.617,1.117-.794.493.261,1.306m-2.467-2.083h.784c.294-.772-.042-.291.784-.261.157-.522-.036-.225.261-.523.157-.522-.036-.225.261-.523l.261.523h-.261V14.8c-.521.157-.225-.036-.523.261h-.523c.541.448-.122.8-.522,1.045-.223.294.035.041-.261.261v-.523h.522v-.261l-.784-.261Zm.123,6.194h.261v.523h-.261Zm-.284-1.867c.522.157.225-.036.523.261-.521-.157-.225.036-.523-.261m.592,3.12H86v.523c-.521.157-.225-.036-.523.261h-.261l.261-.784m.307,1.514h.261v.523h-.261Zm-.261-3.166v-.784h.261c.161.634.276.574.523,1.045l-.784-.261m.261-2.152v-.523c.293.3.111,0,.261.523Zm-1,.377h-.262V19.6L84,19.343l.261-.523s1,.013.523.261m.011,1.821h-.261c-.223.294.035.041-.261.261v-.523c.522.157.225-.036.523.261m-.546-5.794c.293.3.112,0,.261.523h-.261Zm-.261,2.679h.261c-.28-.6-.117-.192,0-.784h.523v.261h-.523l.261.523h-.261c-.091.137.072.422-.261.261Zm.5,6.474c-.521-.157-.225.036-.523-.261.522.157.225-.036.523.261m.3.082c.478.29-.309.954-.784.523.382-.533.327.3.784-.523m.079,4.483H84.6l.523-.784h.261l-.523.784m1.091-3-.784-.261c-.244.144-.227.716-.784,1.045v-.261h-.261v-.261l.523.261v-.523c.246-.311.779-.44,1.045-.784.473.225.316.281.784,0l-.523.784m1.3,1.775h-.523c.157-.522-.036-.225.262-.523v-.261h.261Zm.286-1.2h-.261v-.261h-.261c-.2.073.069.426-.261.261l.261-.522c.118.11.656.2.523.522m.118,3.992.261-.523h.261c.235.108-.5.512-.522.523m.634-1.983v-.261h-.261a3.416,3.416,0,0,1,1.045-1.306v-.523h.261l-.261,1.306c-.147.04-.778-.171-.523.261h.262c-.207.307.024.027-.262.261-.223.294.035.041-.261.261m.569,3.919c.293.3.112,0,.261.523h-.261Zm-.307-2.767h.261v.523h-.261Zm.564,5.11h-.261V34.4h-.261l.261-.523c.371.31.694.294.261.784m.619-3.358h-.261v-.523h.261Zm.238-2.409c-.461.074-.559.657-1.045,0h.261v-.261l.523.261v-.261h.261Zm.049-4.046s-.081.04-.523-.523c.07.063.715.269.523.523m.281-1.183h-.261v.261h-.261l-.261-.523H90.3Zm.118-2.6h-.261c.073-1.415.19-.841.784-1.568h.262c.205.565-.515.9-.784,1.045Zm.266,6.617.261.523c-.44-.3-.364-.159-.523-.784h.523c.3.214-.261.261-.261.261m.9,4.522c-.446.221-.235-.581-.261-.784.488.437.507.154.261.784m.6-3.843c-.2.738-.467.751-.784,1.306H91.15l.261-1.045.784-.261v-.261c.316-.191.163.183.261.261h.261v-.261h.261c-.223.295.035.041-.261.261v.523h-.261c-.172-.492.19-.3-.261-.523m.334.881h.262c.234.108-.5.512-.523.523l.261-.523m.042.9c.522.157.225-.036.523.261-.521-.157-.225.036-.523-.261m0-9.883H92.31l.261-.784a3.519,3.519,0,0,1,.784,1.306,2.022,2.022,0,0,1-.784-.523m.9-4.964c-.275.221-.408.118-.523.523.077.1.453-.055.261.261h-.261c-.223.294.035.041-.261.261v-.261h-.261l.523-1.306.523-.261v.261h.261l.261-.784h-.261v-.523a3.591,3.591,0,0,1,1.045.784h-.261v.261h.261c-.158.383-.21.309-.523.523V15.3l-.784-.261Zm.546,7.731c-.521-.157-.225.036-.523-.261.522.157.225-.036.523.261M93.5,34.382l.261-.523h.261c.234.108-.5.512-.523.523m.864-2.48c-.336.123-.043-.33-.261-.784.427.421.582.17.261.784m.887-.9s-.081.04-.523-.523c.07.063.715.269.523.523m.235-5.441h-.523v.523c-.521.157-.225-.036-.523.261h-.261a1.755,1.755,0,0,1,.784-.784c.3-.293,0-.111.523-.261Zm.071-2.262v-.261h-.261V23.3h-.523l.261-.784c.521.157.225-.036.523.261h.261c-.04.146.171.778-.261.523m.044-2.749v.261h-.261c-.157-.522.036-.225-.261-.523.2-.265.321-.257.523-.523l.523.261a1.04,1.04,0,0,1-.523.523m0-4.565v.523h-.523l.261-1.045H95.6l.523.784-.523-.261m.138-1.037L96,14.163h.523v-.523h.261c.169.618.073.49.523.784v.261h-.784v.261Zm.564,4.442h.261v-.261h.784l-.523.784s-.769-.4-.523-.523m.242,3.1h.523v.261l-.784.261.261-.523m.9,40.53h-.307l-.615-.922c.14.087,1.12.644.922.922m0-6.763v.307h-.307v-.615a1.44,1.44,0,0,1,1.23.922l-.922-.615m.922,7.685h-.308v-.615h.308Zm0-2.459h-.308l.615-.922h.307l-.614.922m.307-5.84c.728.2.576.087.922.615a2.38,2.38,0,0,1-.922-.615m1.844,6.148-.922.307.307-.615h.615Zm.307-1.23c-.614.185-.264-.043-.615.307h-.615v-.307c.614-.185.265.043.615-.307h.615Zm.247-32.282h-.261c-.343.432-.235.063-.523-.261h.261v.261h.261v-.261s.588.089.261.261m.106,2.818c.522.157.225-.036.523.261h-.261c-.223.294.035.041-.261.261Zm.284,2.959H101.2l.523-.784h.261l-.523.784m.307-5.2v-.523c.293.3.112,0,.261.523Zm-.28-4,.261-.523h.261c.235.108-.5.512-.522.523m.864,1.516c-.336.123-.043-.33-.261-.784.428.421.582.17.261.784m.269-3.03V23.6H102.1l.262-.784h.261l-.261.523Zm0-1.56c-.521-.157-.225.036-.523-.261h.262c.223-.294-.035-.041.261-.261Zm-.475-.991h-.261c.2-.738.467-.75.784-1.306.151.1.919.494.784.784h-.261V20a5.091,5.091,0,0,0-1.045.784m.875,1.7c.522.157.225-.036.523.261h-.261c-.223.294.035.041-.261.261Zm-.33,7.9v-.523c.293.3.111,0,.261.523Zm.569-5.794v.261H103l-.261-.523h.784v.261Zm.595,5.464-.523-.261.261-.523h.261c-.551.557.193.472,0,.784m0-2.152-.523-.261.261-.523h.261c-.551.557.193.472,0,.784m-.264-5.864h-.261l.261-.523h-.523l.261-.523.784.261v.261a1.04,1.04,0,0,0-.523.523m.374.651c.07-.173.621-.126.523-.523h-.261v-.261h.523l-.261.784h-.261a.223.223,0,0,0-.049.155c-.112-.12-.33.134-.212-.155m.241.924h-.261l.261-.523a.247.247,0,0,0-.034-.09c.05.069.241.021.3.09-.039.367,0,0-.261.261Zm.6,3.43c-.343.432-.235.063-.523-.261h.261v.261h.261v-.261s.588.089.261.261Zm.345,8.851h-.261l.523-.784h.261l-.523.784m.027-7.969.261-.523h.261c.234.108-.5.512-.523.523m.242-2.7.261.523c-.3-.156-.627-.2-.784-.523h.261v-.261h.523c.3.214-.261.261-.261.261m.891,3.335c-.522-.157-.225.036-.523-.261.522.157.225-.036.523.261m-.519,8.277.262-.523h.261c.234.108-.5.512-.523.523m0-7.377.262-.523h.261c.234.108-.5.512-.523.523m.419-5.533v-.261h1.045l.261-.784h.523v.523c-.973.261-.707.544-1.306,1.045V23.93Zm.453,1.89h.307v.615h-.307Zm.307,4,.307-.615h.307c.276.127-.592.6-.615.615m.922-3.689v-.615h-.615v-.307h.615l.307.922Zm.922,15.37h-.307l.615-.922h.307l-.615.922m.615-3.074h-.307v-.615h.307Zm1.23,4c-.614.185-.264-.043-.614.307h-.308l.922-1.23h.307l-.307.922m.615-5.84v.307h-.307v-.922h.615c-.185.614.043.265-.307.615m.307,7.377c.614.185.265-.043.615.307-.614-.185-.264.043-.615-.307m.307,1.23c.614.185.265-.043.615.307-.614-.185-.264.043-.615-.307M112.2,41.5l.307-.615h.307c.276.127-.592.6-.615.615m.615,1.23c.614.185.265-.043.615.307-.614-.185-.265.043-.615-.307m.307,2.152c.614.185.265-.043.615.307-.614-.185-.265.043-.615-.307m1.23,1.537s-.095.046-.615-.615c.082.074.841.316.615.615m.615-4h-.615v-.615h.615Zm0-1.844h-.615v.615h-.307c.23-.868.55-.883.922-1.537h.307l-.307.922m.615-3.074h-.615v.922h-.307v-.307h-.307v.307h-.307a3.039,3.039,0,0,1,1.23-1.23c.263-.346-.041-.048.307-.307Zm.615-2.152-.615.307v.307l-.922-.307v-.615h.615c.185.614-.042.265.307.615v-.615c.614.185.265-.043.615.307m4.3,7.377.307-.615h.307c.276.127-.592.6-.615.615m0-3.074v-.615c.344.349.131,0,.307.615Zm0-1.844c.263.346-.041.048.307.307v.307h-.615c.185-.614-.043-.265.307-.615m-1.23.922v-.615c.344.349.131,0,.307.615Zm0-1.844c.082.074.841.316.615.615,0,0-.095.046-.615-.615m.615,7.685h.615l.307.922a2.063,2.063,0,0,1-.922-.922m1.537,1.844V45.8c.344.349.131,0,.307.615Zm.307-2.459c-.614.185-.265-.043-.615.307h-.307l.307-.615c-.346-.263-.048.041-.307-.307h.922Zm1.537-.615h.307v.615h-.307Zm-.922,2.459c-.007.007-.926-.316-.307-.615v-.307h.615c-.462.615-.826.1-.307.922m0-3.074h.615v.615h-.307v-.307c-.346-.263-.048.041-.307-.307m.615,2.459h.615V45.8h-.615Zm.615.922c.614.185.265-.043.615.307-.614-.185-.264.043-.615-.307m.615-1.537h-.307v-.615h.307Z" fill="#fff" fill-rule="evenodd"/>
    <path id="Path_179254" data-name="Path 179254" d="M348.84,28.08c.349.344,0,.131.615.307V28.08Z" transform="translate(-249.552 -20.088)" fill="#fff" fill-rule="evenodd"/>
    <path id="Path_179255" data-name="Path 179255" d="M363.96,29.467v.615l.922-.307V29.16c-.614.185-.265-.043-.615.307Z" transform="translate(-260.369 -20.86)" fill="#fff" fill-rule="evenodd"/>
    <path id="Path_179256" data-name="Path 179256" d="M368.28,29.16v.615h.307c-.185-.614.043-.265-.307-.615" transform="translate(-263.459 -20.86)" fill="#fff" fill-rule="evenodd"/>
    <path id="Path_179257" data-name="Path 179257" d="M326.775,32.242v.307a1.669,1.669,0,0,0,.615-1.23h-1.23c.2.728.087.576.615.922" transform="translate(-233.328 -22.406)" fill="#fff" fill-rule="evenodd"/>
    <path id="Path_179258" data-name="Path 179258" d="M308.257,32.707V32.4H306.72v.615l.922.307a1.223,1.223,0,0,1,.615-.615" transform="translate(-219.421 -23.178)" fill="#fff" fill-rule="evenodd"/>
    <path id="Path_179259" data-name="Path 179259" d="M354.726,36.478a1.041,1.041,0,0,0,.523.523c-.461.668-.346.447-.523,1.568.772.294.291-.042.261.784a2.02,2.02,0,0,0,.784-.523h.261l-.261-1.306h.261v-.261h-.261v-.523h-.261v-.261l.523.261v-.261c.294-.223.041.035.261-.261l-.523-.261v.261c-.5,0-.15-.178-.261-.523h-.261v.784Z" transform="translate(-253.763 -25.535)" fill="#fff" fill-rule="evenodd"/>
    <path id="Path_179260" data-name="Path 179260" d="M338.347,38.88v.307c-.346.263-.048-.041-.307.307h.615c-.185-.614.043-.265-.307-.615" transform="translate(-241.826 -27.814)" fill="#fff" fill-rule="evenodd"/>
    <path id="Path_179261" data-name="Path 179261" d="M360.8,42.282V42.8h.261c-.157-.522.036-.225-.261-.523" transform="translate(-258.109 -30.248)" fill="#fff" fill-rule="evenodd"/>
    <path id="Path_179262" data-name="Path 179262" d="M367.281,45.522v.523h.261c-.157-.522.036-.225-.261-.523" transform="translate(-262.745 -32.565)" fill="#fff" fill-rule="evenodd"/>
    <rect id="Rectangle_7132" data-name="Rectangle 7132" width="0.615" height="0.307" transform="translate(6.455 15.062)" fill="#fff"/>
    <path id="Path_179263" data-name="Path 179263" d="M398.735,54s-1.2.043-.615.307c.074.428.291-.127.307.307-.346.263-.048-.041-.307.307h.922L398.735,54" transform="translate(-284.692 -38.63)" fill="#fff" fill-rule="evenodd"/>
    <path id="Path_179264" data-name="Path 179264" d="M8.64,100.44c.185.614-.043.265.307.615v-.307h.307v-.307Z" transform="translate(-6.181 -71.853)" fill="#fff" fill-rule="evenodd"/>
    <path id="Path_179265" data-name="Path 179265" d="M35.64,103.522h.307v-.307h.307v-.307l-.615-.307Z" transform="translate(-25.496 -73.398)" fill="#fff" fill-rule="evenodd"/>
    <path id="Path_179266" data-name="Path 179266" d="M28.695,106.147v-.307H28.08c.349.344,0,.131.615.307" transform="translate(-20.088 -75.716)" fill="#fff" fill-rule="evenodd"/>
  </g>
</svg>
