<svg xmlns="http://www.w3.org/2000/svg" xmlns:xlink="http://www.w3.org/1999/xlink" width="33.092" height="33.092" viewBox="0 0 33.092 33.092">
  <defs>
    <clipPath id="clip-path">
      <rect id="Rectangle_57" data-name="Rectangle 57" width="33.092" height="33.092" fill="none"/>
    </clipPath>
  </defs>
  <g id="Group_267" data-name="Group 267" clip-path="url(#clip-path)">
    <path id="Path_119349" data-name="Path 119349" d="M9.131,28.556c-3.6,2.364-5.858,2.569-7.091,2.261a16.35,16.35,0,0,0,14.593,9.044,15.874,15.874,0,0,0,11.1-4.419,7.97,7.97,0,0,1-1.85.514c-4.522.514-11.1-2.364-16.752-7.4" transform="translate(-0.293 -7.282)" fill="#00adef"/>
    <path id="Path_119350" data-name="Path 119350" d="M.925,22.355c.719-.514,3.6-1.85,7.913,1.336.719-.514,1.439-1.13,2.261-1.85,3.8-3.6,8.633-8.941,11.613-12.23-7.5,3.494-13.155,2.775-16.238-2.055A16.4,16.4,0,0,0,0,20.608a16.805,16.805,0,0,0,.206,2.261,1.843,1.843,0,0,1,.719-.514" transform="translate(0 -4.267)" fill="#00adef"/>
    <path id="Path_119351" data-name="Path 119351" d="M15.886,9.779c2.878,0,6.372-1.233,10.38-3.494a15.511,15.511,0,0,0-8.633-2.569A16.3,16.3,0,0,0,9,6.182a7.285,7.285,0,0,0,6.886,3.6" transform="translate(-1.292 -3.716)" fill="#00adef"/>
    <path id="Path_119352" data-name="Path 119352" d="M23.993,19.7c5.755-.206,8.119,2.98,8.941,4.316a8.079,8.079,0,0,1,.822,2.672,16.741,16.741,0,0,0,1.13-6.063A16.474,16.474,0,0,0,28.618,7.676C28.1,8.293,21.527,15.9,16.08,21.344A24.445,24.445,0,0,1,23.993,19.7" transform="translate(-2.309 -4.284)" fill="#00adef"/>
    <path id="Path_119353" data-name="Path 119353" d="M27.073,33.775C23.065,34.289,17,31.514,11.76,26.992a25.789,25.789,0,0,1,11.716-3.6c4.933-.1,6.886,2.466,7.5,3.6a4.352,4.352,0,0,1,.206,4.316,5.281,5.281,0,0,1-4.111,2.466" transform="translate(-1.688 -6.541)" fill="#30b441"/>
    <path id="Path_119354" data-name="Path 119354" d="M1.779,26.2A1.588,1.588,0,0,0,.957,27.84a1.431,1.431,0,0,0,1.028,1.13c.514.206,2.364.411,5.755-1.747-2.672-1.85-4.83-1.747-5.961-1.028" transform="translate(-0.135 -6.874)" fill="#00adef"/>
  </g>
</svg>
