<svg id="Group_20361" data-name="Group 20361" xmlns="http://www.w3.org/2000/svg" xmlns:xlink="http://www.w3.org/1999/xlink" width="34.424" height="80" viewBox="0 0 34.424 80">
  <defs>
    <clipPath id="clip-path">
      <rect id="Rectangle_7138" data-name="Rectangle 7138" width="34.424" height="80" fill="#2c4198"/>
    </clipPath>
  </defs>
  <g id="Group_20361-2" data-name="Group 20361" clip-path="url(#clip-path)">
    <path id="Path_179277" data-name="Path 179277" d="M64.93,17.43a6.215,6.215,0,1,0-6.215-6.215A6.215,6.215,0,0,0,64.93,17.43" transform="translate(-47.718 -4.064)" fill="#fff"/>
    <path id="Path_179278" data-name="Path 179278" d="M60.866,14.3a7.151,7.151,0,1,1,7.151-7.151A7.159,7.159,0,0,1,60.866,14.3m0-12.43a5.278,5.278,0,1,0,5.279,5.279,5.285,5.285,0,0,0-5.279-5.279" transform="translate(-43.655 0.001)" fill="#2c4198"/>
    <path id="Path_179279" data-name="Path 179279" d="M37.516,91.43a6.9,6.9,0,0,0-6.9-6.9H11.946a6.9,6.9,0,0,0-6.9,6.828C5.017,91.517,5,112.828,5,112.828a2.809,2.809,0,0,0,5.619,0V94.391h2.362L12.969,144.2a3.558,3.558,0,1,0,7.117,0V114.825h2.436V144.2a3.559,3.559,0,1,0,7.117,0l-.109-49.811h2.4v18.437a2.809,2.809,0,0,0,5.619,0Z" transform="translate(-4.064 -68.697)" fill="#fff"/>
    <path id="Path_179280" data-name="Path 179280" d="M22.018,144.633a4.5,4.5,0,0,1-4.495-4.495V111.7h-.563v28.44a4.495,4.495,0,0,1-8.99,0l.012-48.874H7.492v17.5a3.746,3.746,0,1,1-7.492,0C.015,90.943.034,87.873.051,87.283h0a7.863,7.863,0,0,1,7.836-7.755H26.551a7.847,7.847,0,0,1,7.838,7.838l.035,21.4a3.746,3.746,0,1,1-7.492,0v-17.5h-.526l.107,48.872a4.5,4.5,0,0,1-4.495,4.5m-5.995-34.808h2.436a.937.937,0,0,1,.936.936v29.376a2.622,2.622,0,1,0,5.244,0L24.531,90.33a.936.936,0,0,1,.936-.938h2.4a.936.936,0,0,1,.936.936v18.437a1.873,1.873,0,0,0,3.746,0l-.035-21.4h0A5.972,5.972,0,0,0,26.551,81.4H7.883a5.984,5.984,0,0,0-5.963,5.9c0,.018,0,.037,0,.055-.022.708-.04,15.672-.044,21.408a1.873,1.873,0,0,0,3.746,0V90.328a.936.936,0,0,1,.936-.936H8.917a.936.936,0,0,1,.936.937l-.012,49.811a2.622,2.622,0,0,0,5.244,0V110.762a.937.937,0,0,1,.936-.936" transform="translate(0 -64.633)" fill="#2c4198"/>
  </g>
</svg>
