<svg xmlns="http://www.w3.org/2000/svg" xmlns:xlink="http://www.w3.org/1999/xlink" width="79.728" height="72.902" viewBox="0 0 79.728 72.902">
  <defs>
    <clipPath id="clip-path">
      <rect id="Rectangle_7767" data-name="Rectangle 7767" width="27.978" height="43.406" fill="#2c4198"/>
    </clipPath>
  </defs>
  <g id="Group_23085" data-name="Group 23085" transform="translate(-1272.896 -5849.321)">
    <g id="Group_23083" data-name="Group 23083" transform="translate(1272.896 5878.816)">
      <g id="Group_22906" data-name="Group 22906" transform="translate(0 0.001)" clip-path="url(#clip-path)">
        <path id="Path_212979" data-name="Path 212979" d="M25.432,37.688V18.631c-1.595.673-5.2,1.8-11.434,1.8H13.99c-6.222,0-9.832-1.119-11.442-1.791V37.686A2.274,2.274,0,0,0,1.4,39.533a2.479,2.479,0,0,0,1.483,2.059c2.149,1.174,6.23,1.793,11.105,1.815a37.615,37.615,0,0,0,8.357-.83,10.809,10.809,0,0,0,2.748-.985,2.478,2.478,0,0,0,1.482-2.059h0a2.269,2.269,0,0,0-1.145-1.845M27.978,7.663a2.352,2.352,0,0,0-4-1.681L22.243,7.674,22,7.089V4.767a2.028,2.028,0,0,0,1.145-1.7,2.076,2.076,0,0,0-1.213-1.744C20.3.437,17.444.024,13.99,0A26.548,26.548,0,0,0,8.06.595a7.907,7.907,0,0,0-2.016.726A2.076,2.076,0,0,0,4.836,3.065a2.027,2.027,0,0,0,1.146,1.7v2.32l-.244.585L4,5.979A2.352,2.352,0,0,0,.67,6.021a2.352,2.352,0,0,0,.042,3.33l3.075,3-.327.781c-.182.071-.357.145-.52.226a3.533,3.533,0,0,0-.979.674,1.751,1.751,0,0,0,0,2.566c1,.933,2.474,1.293,4.557,1.689.6.1,1.259.194,1.947.272a40.966,40.966,0,0,0,5.524.349,41.2,41.2,0,0,0,5.413-.336c1.068-.116,2.048-.266,2.913-.445a11.757,11.757,0,0,0,2.725-.855,3.594,3.594,0,0,0,.977-.673,1.749,1.749,0,0,0,0-2.566,4.682,4.682,0,0,0-1.5-.9l-.325-.779L27.268,9.35a2.357,2.357,0,0,0,.71-1.687M4.948,9.567l-.371.885L2.044,7.985a.454.454,0,0,1-.135-.32.433.433,0,0,1,.122-.307.442.442,0,0,1,.324-.138M13.99,3.839a24.426,24.426,0,0,1-5.4-.531,8.265,8.265,0,0,1-.848-.245,21.365,21.365,0,0,1,6.244-.77,24.483,24.483,0,0,1,5.4.529,8.191,8.191,0,0,1,.848.245,21.342,21.342,0,0,1-6.244.772M25.935,7.985,23.4,10.45l-.369-.883,2.28-2.221a.422.422,0,0,1,.309-.126.441.441,0,0,1,.444.443.449.449,0,0,1-.134.321" transform="translate(0 -0.001)" fill="#2c4198"/>
      </g>
    </g>
    <g id="Group_23084" data-name="Group 23084">
      <path id="Path_218123" data-name="Path 218123" d="M25.553,42.281H24.087c-.014.2-.037.389-.035.579q.042,7.337.091,14.676c.016,3.013.042,6.029.033,9.045a3.475,3.475,0,0,1-6.862.768,4.432,4.432,0,0,1-.1-1.008q-.063-9.466-.114-18.93c-.019-2.795-.051-5.589-.058-8.384q-.017-7.368,0-14.736a1.739,1.739,0,0,0-.493-1.273Q8.919,14.649,1.32,6.255a3.436,3.436,0,0,1-.149-4.682,3.448,3.448,0,0,1,5.061-.221c.791.789,1.519,1.64,2.271,2.469Q14.381,10.3,20.252,16.78a2.556,2.556,0,0,0,2.057.9c1.617-.023,3.237-.042,4.852.007a2.654,2.654,0,0,0,2.2-.982c1.417-1.6,2.864-3.172,4.3-4.754q4.709-5.19,9.422-10.378a3.463,3.463,0,0,1,5.3,4.458C47.526,7.056,46.6,8.024,45.7,9.015q-6.457,7.124-12.919,14.243a1.166,1.166,0,0,0-.309.861c.04,6.848.051,13.7.109,20.544.063,7.188.172,14.376.254,21.564a4.954,4.954,0,0,1-.088,1.189,3.442,3.442,0,0,1-3.576,2.667,3.5,3.5,0,0,1-3.288-3.3c-.007-.1,0-.2-.007-.3l-.161-13.955q-.059-4.82-.123-9.643C25.59,42.7,25.567,42.5,25.553,42.281Z" transform="translate(1302.427 5850.132)" fill="none" stroke="#2c4198" stroke-linecap="round" stroke-linejoin="round" stroke-width="2"/>
      <path id="Path_218124" data-name="Path 218124" d="M7.322,8.38a8.074,8.074,0,1,1,8.06,8.091A8.076,8.076,0,0,1,7.322,8.38Z" transform="translate(1311.716 5850.092)" fill="none" stroke="#2c4198" stroke-linecap="round" stroke-linejoin="round" stroke-width="2"/>
    </g>
  </g>
</svg>
