<svg id="Group_20360" data-name="Group 20360" xmlns="http://www.w3.org/2000/svg" xmlns:xlink="http://www.w3.org/1999/xlink" width="47.156" height="55" viewBox="0 0 47.156 55">
  <defs>
    <clipPath id="clip-path">
      <rect id="Rectangle_7137" data-name="Rectangle 7137" width="47.156" height="55" fill="#2c4198"/>
    </clipPath>
  </defs>
  <g id="Group_20359" data-name="Group 20359" clip-path="url(#clip-path)">
    <path id="Path_179271" data-name="Path 179271" d="M45.843,55H1.313A1.313,1.313,0,0,1,0,53.687V1.313A1.313,1.313,0,0,1,1.313,0h44.53a1.313,1.313,0,0,1,1.313,1.313V53.687A1.313,1.313,0,0,1,45.843,55M2.626,52.374h41.9V2.626H2.626Z" fill="#2c4198"/>
    <path id="Path_179272" data-name="Path 179272" d="M39.621,79.324h-8.56a1.05,1.05,0,0,1-1.05-1.05V70.833a1.05,1.05,0,0,1,1.05-1.05h8.56a1.05,1.05,0,0,1,1.05,1.05v7.441a1.05,1.05,0,0,1-1.05,1.05m-7.51-2.1h6.46V71.883h-6.46Z" transform="translate(-19.507 -45.358)" fill="#2c4198"/>
    <path id="Path_179273" data-name="Path 179273" d="M83.869,79.324h-8.56a1.05,1.05,0,0,1-1.05-1.05V70.833a1.05,1.05,0,0,1,1.05-1.05h8.56a1.05,1.05,0,0,1,1.05,1.05v7.441a1.05,1.05,0,0,1-1.05,1.05m-7.51-2.1h6.46V71.883h-6.46Z" transform="translate(-48.268 -45.358)" fill="#2c4198"/>
    <path id="Path_179274" data-name="Path 179274" d="M54.792,128.8H30.006a1.05,1.05,0,0,1-1.05-1.05V114.993a1.05,1.05,0,0,1,1.05-1.05H54.792a1.05,1.05,0,0,1,1.05,1.05v12.756a1.05,1.05,0,0,1-1.05,1.05m-23.736-2.1H53.742V116.043H31.056Z" transform="translate(-18.821 -74.062)" fill="#2c4198"/>
    <path id="Path_179275" data-name="Path 179275" d="M39.621,36.321h-8.56a1.05,1.05,0,0,1-1.05-1.05V27.83a1.05,1.05,0,0,1,1.05-1.05h8.56a1.05,1.05,0,0,1,1.05,1.05v7.441a1.05,1.05,0,0,1-1.05,1.05m-7.51-2.1h6.46V28.88h-6.46Z" transform="translate(-19.507 -17.407)" fill="#2c4198"/>
    <path id="Path_179276" data-name="Path 179276" d="M83.869,36.321h-8.56a1.05,1.05,0,0,1-1.05-1.05V27.83a1.05,1.05,0,0,1,1.05-1.05h8.56a1.05,1.05,0,0,1,1.05,1.05v7.441a1.05,1.05,0,0,1-1.05,1.05m-7.51-2.1h6.46V28.88h-6.46Z" transform="translate(-48.268 -17.407)" fill="#2c4198"/>
  </g>
</svg>
