<svg xmlns="http://www.w3.org/2000/svg" xmlns:xlink="http://www.w3.org/1999/xlink" width="51.934" height="27.292" viewBox="0 0 51.934 27.292">
  <defs>
    <clipPath id="clip-path">
      <rect id="Rectangle_7072" data-name="Rectangle 7072" width="25.995" height="20.699" transform="translate(0 0)" fill="#2c4198"/>
    </clipPath>
    <clipPath id="clip-path-2">
      <rect id="Rectangle_7073" data-name="Rectangle 7073" width="24.191" height="22.348" transform="translate(0 0)" fill="#2c4198"/>
    </clipPath>
  </defs>
  <g id="Group_20162" data-name="Group 20162" transform="translate(-788 -3318.766)">
    <g id="Group_20146" data-name="Group 20146">
      <g id="Group_20142" data-name="Group 20142" transform="translate(813.939 3325.359)">
        <g id="Group_20141" data-name="Group 20141" transform="translate(0 0)" clip-path="url(#clip-path)">
          <path id="Path_167490" data-name="Path 167490" d="M.543,10.47H16.267V2.313a.543.543,0,0,1,.543-.543h5.866a.543.543,0,0,1,.51.357l2.777,7.629a.541.541,0,0,1,.033.186V18.16a.543.543,0,0,1-.543.543h-2.5a.543.543,0,0,1-.542-.514,2.912,2.912,0,0,0-5.817,0,.543.543,0,0,1-.542.514h-6.1a.543.543,0,0,1-.542-.514,2.913,2.913,0,0,0-5.817,0,.543.543,0,0,1-.542.514H.543A.543.543,0,0,1,0,18.16V11.013a.543.543,0,0,1,.543-.543m.543,7.147H2.563a4,4,0,0,1,7.864,0h5.142a4,4,0,0,1,7.864,0h1.477V10.038L22.295,2.856H17.352v8.157a.543.543,0,0,1-.543.543H1.085Zm5.409-1.623a2.352,2.352,0,1,1-2.352,2.352,2.355,2.355,0,0,1,2.352-2.352m0,3.618a1.266,1.266,0,1,0-1.266-1.266,1.268,1.268,0,0,0,1.266,1.266M19.5,15.994a2.352,2.352,0,1,1-2.352,2.352A2.354,2.354,0,0,1,19.5,15.994m0,3.618a1.266,1.266,0,1,0-1.266-1.266A1.268,1.268,0,0,0,19.5,19.613M.543,0H14.406a.543.543,0,0,1,.543.543v8.3a.543.543,0,0,1-.543.543H.543A.543.543,0,0,1,0,8.842V.542A.543.543,0,0,1,.543,0m.543,8.3H13.863V1.084H1.085Z" transform="translate(0 0.001)" fill="#2c4198"/>
        </g>
      </g>
      <g id="Group_20145" data-name="Group 20145" transform="translate(788 3318.766)">
        <g id="Group_20144" data-name="Group 20144" transform="translate(0 0)" clip-path="url(#clip-path-2)">
          <path id="Path_167491" data-name="Path 167491" d="M23.592,22.348H.6a.6.6,0,0,1-.6-.6V.6A.6.6,0,0,1,.6,0H23.592a.6.6,0,0,1,.6.6v21.15a.6.6,0,0,1-.6.6M1.2,21.15h21.8V1.2H1.2Z" transform="translate(0 0)" fill="#2c4198"/>
          <path id="Path_167492" data-name="Path 167492" d="M30.5,30.777H25.614a.6.6,0,0,1-.6-.6V25.934a.6.6,0,0,1,.6-.6H30.5a.6.6,0,0,1,.6.6v4.244a.6.6,0,0,1-.6.6m-4.284-1.2H29.9V26.533H26.213Z" transform="translate(-20.021 -20.277)" fill="#2c4198"/>
          <path id="Path_167493" data-name="Path 167493" d="M74.745,30.777H69.862a.6.6,0,0,1-.6-.6V25.934a.6.6,0,0,1,.6-.6h4.883a.6.6,0,0,1,.6.6v4.244a.6.6,0,0,1-.6.6m-4.284-1.2h3.685V26.533H70.461Z" transform="translate(-55.435 -20.277)" fill="#2c4198"/>
          <path id="Path_167494" data-name="Path 167494" d="M74.745,73.809H69.862a.6.6,0,0,1-.6-.6V68.966a.6.6,0,0,1,.6-.6h4.883a.6.6,0,0,1,.6.6V73.21a.6.6,0,0,1-.6.6m-4.284-1.2h3.685V69.565H70.461Z" transform="translate(-55.435 -54.718)" fill="#2c4198"/>
          <path id="Path_167495" data-name="Path 167495" d="M30.525,77.97H25.614a.6.6,0,0,1-.6-.6V70.095a.6.6,0,0,1,.6-.6h4.911a.6.6,0,0,1,.6.6v7.276a.6.6,0,0,1-.6.6m-4.312-1.2h3.714V70.694H26.213Z" transform="translate(-20.021 -55.621)" fill="#2c4198"/>
        </g>
      </g>
    </g>
  </g>
</svg>
