<svg xmlns="http://www.w3.org/2000/svg" xmlns:xlink="http://www.w3.org/1999/xlink" width="40.301" height="80" viewBox="0 0 40.301 80">
  <defs>
    <clipPath id="clip-path">
      <rect id="Rectangle_7139" data-name="Rectangle 7139" width="40.301" height="80" fill="#2c4198"/>
    </clipPath>
  </defs>
  <g id="Group_20362" data-name="Group 20362" transform="translate(-616 -5417)">
    <g id="Group_20363" data-name="Group 20363" transform="translate(616 5417)">
      <g id="Group_20362-2" data-name="Group 20362" clip-path="url(#clip-path)">
        <path id="Path_179281" data-name="Path 179281" d="M76.346,14.333a7.167,7.167,0,1,1,7.167-7.166,7.175,7.175,0,0,1-7.167,7.166m0-12.456a5.29,5.29,0,1,0,5.29,5.29,5.3,5.3,0,0,0-5.29-5.29" transform="translate(-56.195)" fill="#2c4198"/>
        <path id="Path_179282" data-name="Path 179282" d="M24.537,144.234A4.04,4.04,0,0,1,20.5,140.2V118.991h-.609V140.2a4.035,4.035,0,0,1-8.071,0V118.991H5.115a.938.938,0,0,1-.9-1.194l7.958-28.057H11.7l-4.9,16.439a3.472,3.472,0,0,1-6.389.612,3.449,3.449,0,0,1-.25-2.645L5.7,86.078c1.345-4.577,4.37-7,8.744-7H25.722c4.452,0,7.687,2.62,8.879,7.188l5.542,17.872a3.472,3.472,0,1,1-6.633,2.057l-4.9-16.454h-.545l8.11,28.053a.938.938,0,0,1-.9,1.2h-6.7V140.2a4.04,4.04,0,0,1-4.035,4.035m-5.583-27.121H21.44a.939.939,0,0,1,.938.938V140.2a2.158,2.158,0,0,0,4.317,0V118.052a.939.939,0,0,1,.938-.938h6.392l-8.11-28.053a.938.938,0,0,1,.9-1.2H29.31a.939.939,0,0,1,.9.67l5.1,17.115a1.6,1.6,0,0,0,3.044-.956L32.8,86.8c0-.014-.008-.028-.012-.042-.97-3.742-3.48-5.8-7.068-5.8H14.445c-3.5,0-5.841,1.906-6.946,5.665l-5.55,18.077a1.6,1.6,0,1,0,3.05.938l5.1-17.1a.938.938,0,0,1,.9-.67h2.414a.939.939,0,0,1,.9,1.194L6.357,117.114h6.4a.939.939,0,0,1,.938.938V140.2a2.158,2.158,0,0,0,4.317,0V118.052a.939.939,0,0,1,.938-.938" transform="translate(0 -64.235)" fill="#2c4198"/>
      </g>
    </g>
  </g>
</svg>
