<svg id="Group_20129" data-name="Group 20129" xmlns="http://www.w3.org/2000/svg" xmlns:xlink="http://www.w3.org/1999/xlink" width="51.878" height="27.234" viewBox="0 0 51.878 27.234">
  <defs>
    <clipPath id="clip-path">
      <rect id="Rectangle_7068" data-name="Rectangle 7068" width="51.878" height="27.234" fill="#e67339"/>
    </clipPath>
  </defs>
  <g id="Group_20131" data-name="Group 20131" clip-path="url(#clip-path)">
    <path id="Path_162806" data-name="Path 162806" d="M51.148,27.234H.73A.73.73,0,0,1,0,26.5V.73A.73.73,0,0,1,.73,0H51.148a.73.73,0,0,1,.73.73V26.5a.73.73,0,0,1-.73.73M1.46,25.775H50.418V1.46H1.46Z" fill="#e67339"/>
    <path id="Path_162807" data-name="Path 162807" d="M31.7,31.968h-5.95a.73.73,0,0,1-.73-.73V26.066a.73.73,0,0,1,.73-.73H31.7a.73.73,0,0,1,.73.73v5.172a.73.73,0,0,1-.73.73m-5.22-1.46h4.49V26.8h-4.49Z" transform="translate(-18.929 -19.172)" fill="#e67339"/>
    <path id="Path_162808" data-name="Path 162808" d="M75.943,31.968h-5.95a.73.73,0,0,1-.73-.73V26.066a.73.73,0,0,1,.73-.73h5.95a.73.73,0,0,1,.73.73v5.172a.73.73,0,0,1-.73.73m-5.22-1.46h4.49V26.8h-4.49Z" transform="translate(-52.412 -19.172)" fill="#e67339"/>
    <path id="Path_162809" data-name="Path 162809" d="M120.191,31.968h-5.95a.73.73,0,0,1-.73-.73V26.066a.73.73,0,0,1,.73-.73h5.95a.73.73,0,0,1,.73.73v5.172a.73.73,0,0,1-.73.73m-5.22-1.46h4.49V26.8h-4.49Z" transform="translate(-85.894 -19.172)" fill="#e67339"/>
    <path id="Path_162810" data-name="Path 162810" d="M164.439,31.968h-5.95a.73.73,0,0,1-.73-.73V26.066a.73.73,0,0,1,.73-.73h5.95a.73.73,0,0,1,.73.73v5.172a.73.73,0,0,1-.73.73m-5.22-1.46h4.49V26.8h-4.49Z" transform="translate(-119.377 -19.172)" fill="#e67339"/>
    <path id="Path_162811" data-name="Path 162811" d="M31.7,75h-5.95a.73.73,0,0,1-.73-.73V69.1a.73.73,0,0,1,.73-.73H31.7a.73.73,0,0,1,.73.73V74.27a.73.73,0,0,1-.73.73m-5.22-1.46h4.49V69.827h-4.49Z" transform="translate(-18.929 -51.734)" fill="#e67339"/>
    <path id="Path_162812" data-name="Path 162812" d="M164.439,75h-5.95a.73.73,0,0,1-.73-.73V69.1a.73.73,0,0,1,.73-.73h5.95a.73.73,0,0,1,.73.73V74.27a.73.73,0,0,1-.73.73m-5.22-1.46h4.49V69.827h-4.49Z" transform="translate(-119.377 -51.734)" fill="#e67339"/>
    <path id="Path_162813" data-name="Path 162813" d="M86.167,79.822H68.938a.73.73,0,0,1-.73-.73V70.226a.73.73,0,0,1,.73-.73H86.167a.73.73,0,0,1,.73.73v8.867a.73.73,0,0,1-.73.73m-16.5-1.46H85.437V70.956H69.668Z" transform="translate(-51.613 -52.588)" fill="#e67339"/>
  </g>
</svg>
