<svg xmlns="http://www.w3.org/2000/svg" xmlns:xlink="http://www.w3.org/1999/xlink" width="83.156" height="60.65" viewBox="0 0 83.156 60.65">
  <defs>
    <clipPath id="clip-path">
      <rect id="Rectangle_7091" data-name="Rectangle 7091" width="83.156" height="60.651" fill="#2c4198"/>
    </clipPath>
  </defs>
  <g id="Group_20211" data-name="Group 20211" clip-path="url(#clip-path)">
    <path id="Path_173100" data-name="Path 173100" d="M50.607,41.458c.32-.267,7.837-6.638,7.75-14.56a1.106,1.106,0,0,1,.454-.883,2.125,2.125,0,0,1,1.715-.416l10.568,2.463a1.45,1.45,0,0,0,1.218-.268,14.14,14.14,0,0,0,4.747-6.159,1.45,1.45,0,0,0-.681-1.716l-4.3-2.366-7.618-9.7a1.457,1.457,0,0,0-.268-.264,7.715,7.715,0,0,0-4.659-1.2L51.944.318a1.449,1.449,0,0,0-2.2.475L47.906,4.412a1.447,1.447,0,0,0-.02,1.273l1.453,3.1-7.78,3.929H11.39a10.2,10.2,0,0,0-8.86,5.18c-2.52,4.46-5.406,13.26,3.564,22.1L8.13,37.926C.916,30.816,2.475,23.881,5.055,19.317a7.3,7.3,0,0,1,6.336-3.708H41.9a1.457,1.457,0,0,0,.654-.155l9.346-4.72a1.45,1.45,0,0,0,.658-1.911l-1.751-3.73.712-1.4L58.148,9a1.449,1.449,0,0,0,1.022.313,5.653,5.653,0,0,1,3.161.527l7.647,9.738a1.439,1.439,0,0,0,.441.375l3.372,1.855a12.488,12.488,0,0,1-2.733,3.271l-9.911-2.309a5.008,5.008,0,0,0-4.18,1.01,3.984,3.984,0,0,0-1.508,3.152c.072,6.561-6.642,12.247-6.71,12.3Z" transform="translate(6.028 0)" fill="#2c4198"/>
    <path id="Path_173101" data-name="Path 173101" d="M80.31,72.866h6.909a1.4,1.4,0,0,0,1.1-2.258l-1.664-2.122.224-8.312,3.906-7.028a1.4,1.4,0,1,0-2.441-1.356L84.27,59.115a1.4,1.4,0,0,0-.175.641l-.246,9.157a1.391,1.391,0,0,0,.3.9l.2.261H81.706V50.865a1.4,1.4,0,0,0-2.792,0v20.6a1.4,1.4,0,0,0,1.4,1.4" transform="translate(-67.231 -12.215)" fill="#2c4198"/>
    <path id="Path_173102" data-name="Path 173102" d="M35.831,72.866h6.909a1.4,1.4,0,0,0,1.1-2.258l-1.664-2.122.224-8.312L46.3,53.146a1.4,1.4,0,1,0-2.441-1.356l-4.071,7.325a1.394,1.394,0,0,0-.175.641l-.247,9.157a1.391,1.391,0,0,0,.3.9l.2.261H37.227V50.865a1.4,1.4,0,1,0-2.792,0v20.6a1.4,1.4,0,0,0,1.4,1.4" transform="translate(10.744 -12.215)" fill="#2c4198"/>
    <path id="Path_173103" data-name="Path 173103" d="M52.184,53.908A18.994,18.994,0,0,0,60.7,52.133a1.4,1.4,0,0,0-1.328-2.457,18.116,18.116,0,0,1-10.16,1.234,1.4,1.4,0,1,0-.38,2.766,24.708,24.708,0,0,0,3.354.232" transform="translate(-14.134 -12.225)" fill="#2c4198"/>
    <path id="Path_173104" data-name="Path 173104" d="M69.946,58.89a10.041,10.041,0,0,0,9.062-5.321,1.4,1.4,0,0,0-2.542-1.157c-.129.274-3.076,6.256-12.152,2.353a1.4,1.4,0,0,0-1.1,2.566,17.091,17.091,0,0,0,6.735,1.559" transform="translate(-42.942 -12.74)" fill="#2c4198"/>
    <path id="Path_173105" data-name="Path 173105" d="M90.591,40.178,93.485,40c-.756-12.028,1.943-16.824,4.339-18.728a6.729,6.729,0,0,1,5.7-1.259l.831-2.779A9.681,9.681,0,0,0,96.021,19c-4.274,3.4-6.1,10.523-5.43,21.181" transform="translate(-89.323 -4.182)" fill="#2c4198"/>
    <path id="Path_173106" data-name="Path 173106" d="M103.295,48.221c0,1.793,1.2,6.007,2.683,6.007s2.684-4.214,2.684-6.007a2.732,2.732,0,1,0-5.367,0" transform="translate(-103.295 -11.105)" fill="#2c4198"/>
    <path id="Path_173107" data-name="Path 173107" d="M22.831,27.309c-.133.1-4.449-1.4-4.449-1.4l-2.4-2.08L8.861,16.473l-4.938-.29-1.335,8.03L6.014,28.18l13.436,3.144Z" transform="translate(58.377 -3.996)" fill="#2c4198"/>
    <path id="Path_173108" data-name="Path 173108" d="M75.448,18a9.61,9.61,0,1,1-19.219,0Z" transform="translate(-34.637 -4.443)" fill="#2c4198"/>
    <path id="Path_173109" data-name="Path 173109" d="M89.41,26.5a7.445,7.445,0,1,1,0,14.889Z" transform="translate(-81.031 -6.544)" fill="#2c4198"/>
    <path id="Path_173110" data-name="Path 173110" d="M28.826,49.014A6.389,6.389,0,1,1,35.788,38.3Z" transform="translate(27.851 -9.202)" fill="#2c4198"/>
    <path id="Path_173111" data-name="Path 173111" d="M59.349,44.546c0,2.874,2.646,5.205,5.91,5.205s5.91-2.331,5.91-5.205-2.646-5.205-5.91-5.205-5.91,2.331-5.91,5.205" transform="translate(-32.707 -9.714)" fill="#2c4198"/>
    <path id="Path_173112" data-name="Path 173112" d="M38.693,19.56c-1.572,2.724-1.157,5.908.929,7.111s5.051-.028,6.623-2.752,1.157-5.907-.929-7.111-5.051.028-6.623,2.752" transform="translate(7.536 -4.036)" fill="#2c4198"/>
  </g>
</svg>
