<svg xmlns="http://www.w3.org/2000/svg" xmlns:xlink="http://www.w3.org/1999/xlink" width="167.95" height="101.95" viewBox="0 0 167.95 101.95">
  <defs>
    <clipPath id="clip-path">
      <path id="Path_119797" data-name="Path 119797" d="M100.165,4.4c-2.574,1.17-4.135,1.374-6.552,2.8a38.308,38.308,0,0,0-6.59,5.329c-.164.168,0,.48,0,.717q-.895.722-1.8,1.447l-3.249,4.335A6.579,6.579,0,0,1,79.09,18.3v-.362H77.642V17.58H76.2v-.366H74.754v-.357H73.312c0-.124,0-.24,0-.36C61.677,14.879,50.255,20.842,44.9,28.859a21.722,21.722,0,0,0-3.351,10.374c-1.2.238-2.406.481-3.608.72-7.114,1.412-15.637,7.131-19.279,13.5-2.516,4.4-4.972,11.185-4.323,16.237a22.546,22.546,0,0,0,.69,3.187,38.091,38.091,0,0,0,4.3,9.582,21.763,21.763,0,0,0,13.2,9.468,14.9,14.9,0,0,0,3.607.875v-.513a15.206,15.206,0,0,0,5.414.154c1.564,0,3.127-.875,4.692-.875v-.358h1.081v-.364h.724V90.48c1.431-.555,3.906-.459,4.934-1.621.2,1.01,1.883,3.028,3.365,4.509q.9.722,1.806,1.443c3.686,2.926,8.115,5.862,12.734,7.029,2.815.711,4.71,1.292,7.5,1.96a23.867,23.867,0,0,0,8.586.34,36.187,36.187,0,0,0,7.2-1.462c1.38-.474,2.708-1.085,4.037-1.7,4.126-1.9,8.009-2.8,11.166-6.061.838,0,2.074-1.841,2.912-1.841,1.94,0,4.955,2.939,6.605,3.875,3.466,1.966,7.581,2.714,11.473,3.338a36.547,36.547,0,0,0,6.523.494c2.152-.045,4.365-.921,6.441-.921h2.524V99.5c.481-.119.962-.235,1.447-.357v-.36c0,.8,6.8-3,7.06-3.165,3.99-2.55,7.975-5.743,10.436-9.979.72-1.238,4.988-12.845,4.518-12.845h.357v-.722h.359c0-.241,0-.483,0-.727C176.33,66.4,182.04,61,182.186,52.31a22.822,22.822,0,0,0-1-6.052,52.489,52.489,0,0,0-3.159-9.352,23.485,23.485,0,0,0-6.519-7.754c-3.877-3.192-8.643-5.151-13.4-6.624-4.721-1.462-8.545-1.3-13.335-.618v.357c-1.086.248-2.166.483-3.246.723v-.359c-1.425-.441-.459-.081-1.086-1.081h-.36v-.728a25.017,25.017,0,0,0-4.676-7.079c-2.55-2.448-4.322-3.07-7.015-5.364-2.92-2.489-5.428-3.341-8.919-4.443a32.175,32.175,0,0,0-9.565-1.514A23.519,23.519,0,0,0,100.165,4.4" transform="translate(-14.237 -2.422)" fill="#fff"/>
    </clipPath>
  </defs>
  <g id="Group_296" data-name="Group 296" transform="translate(-14.237 -2.422)">
    <g id="Group_281" data-name="Group 281" transform="translate(14.237 2.422)" clip-path="url(#clip-path)">
      <path id="Path_119571" data-name="Path 119571" d="M111.855.373h17.286c2.088,2.644,4.727,4.193,7.277,4.3,6.221.257,8.078,6.468,9.647,13.332,1.017,4.446.828,9.578,3.628,12.968a5.812,5.812,0,0,1,1.122,1.213c2,3.679.805,7.781.741,11.744-.378,3.684-2.414,5.051-4.35,6.564-2.669,2.367-6.442,2.135-7.75,7.805-.46,2-2.2,1.628-3.273-.209a12.789,12.789,0,0,1-1.571-8.031,7.236,7.236,0,0,0-.28-3.52c-1.79-4.357-2.777-8.079,2.563-6.949,1.26.268,1.9-.793,1.844-2.522-.068-2.1.187-4.563-1.764-5.361-.639-.261-1.335.079-2-.04-5.37-.969-5.394-1.024-4.823-9.38,1.918-6.806,5.017.682,7.852-1.17-2.171-3.262-5-2.026-7.051-3.743-1.969-3.293-4.416-5.825-6.628-9.02-.376,7.542-1.185,8.177-6.386,4.654a50.343,50.343,0,0,0,.677,7.434c2.209-1.56,4.661-3.919,6.525.238,2.081,4.638.383,8.318-1.782,11.734a5.045,5.045,0,0,0-.672,1.9c-.388,8.007-3.1,12.8-8.8,13.558-2.367,1.305-3.786.269-4.1-3.484.317-3.337-1.591-7.082.821-10.059a3.553,3.553,0,0,0,.784-2.918c-.862-3.843-3.125-1.808-4.744-2.343-1.843-.611-3.91-1.024-4.264-4.174-.445-3.964,1.913-3.152,3.43-3.337,2.5-.3,2.539-5.217,5.537-5.5-4.016-2.22-7.751,2.982-11.226-.6-2.1-3.991-1.522-6.865,1.707-8.633,1.134-.6,2.555,2.416,3.276.028.548-1.815-1.322-2.061-2.13-2.988A2.851,2.851,0,0,1,102.7.373h6.1c1.017,1.144,2.035,2.292,3.051,0" transform="translate(1.482 -2.802)" fill="#fff"/>
      <path id="Path_119572" data-name="Path 119572" d="M.05,69.578V66.631c1.1-1.966,2.108-3.931,0-5.9V48.944c4.456-1.936,11.549,1.139,14.222,6.132.956,1.2,1.992.461,3.009.231a4.226,4.226,0,0,1,1.38-.134c2.8.62,5.758.835,7.122,5.427-.224,2.252-.885,3.868-2.65,3.831a1.435,1.435,0,0,1-.687-.856c-.074.417.325.467.332.867,1.56,5.529,4.59,7.341,8.424,7.178a9.769,9.769,0,0,1,1.511.081c7.115.815,7.8,1.765,8.465,11.68-.382,2.5-1.489,3.6-3.214,3.512-2.818-2.734-5.836-1.276-8.8-.828-2.486-.491-2.236,3.6-3.754,4.727q-5.279-2.616-3.374-12.522c.155-.809.767-1.464.383-2.45-.336.547-.5,1.254-.82,1.845-2.795,3.36-5.723,4.21-8.877,1.08C10.7,75.863,8.167,73.5,7.707,68.779c.633,2.775,1.45,5.445-.455,7.767-1.318,1.605-2.7,3.244-4.532,2.563C.91,78.437.853,75.921.591,73.767c-.171-1.4.264-2.959-.541-4.189" transform="translate(-16.872 6.108)" fill="#fff"/>
      <path id="Path_119573" data-name="Path 119573" d="M.05,44.338V4.543C1.77,2.077,3.714.916,6.107,2.358A6.087,6.087,0,0,1,7.4,5.29a24.527,24.527,0,0,1,.212,3.275c.4,7.179.4,7.179,6.678,6.113,3.039.266,6.656-2.132,8.471,3.816.229,4.694-3.488,2.222-4.29,5a2.057,2.057,0,0,0,.173,2.02c.9.539,1.945.455,2.69,1.507,1.6,2.725,3.468,5.077,5.047,7.813,1.346,2.331,2.382,4.769.191,7.337-.207,1.039-3.325-1.742-1.346,2.765,1.564,3.563,3.6,7.03,4.357,11.36a6.72,6.72,0,0,1-.652,3,3.693,3.693,0,0,1-1.217,1.116C23.587,61.188,21.694,57,20.3,52.65c-1.026-3.213-1.966-4.928-4.406-3.163-1.864.646-2.24,4.184-4.228,4.6-2.967-1.3-4.576-4.08-4.525-8.683,1.176-1.712,2.71-1.754,4.22-1.894,1.687-.6,3.488-1.051,2.556-4.692-.77-3,.663-4.381,2.113-5.652a1.766,1.766,0,0,0-1.2-1.151c-1.227-.553-1.918-3.565-3.405-2.228-1.4,1.263-.458,3.565-.292,5.417.219,2.444.566,4.9-.992,6.788-1.7,1.243-2.694-1.166-4.061-1.633-2.368-3.539-.86-7.692-.975-11.583C4.99,32.864,3.173,37.3,6.384,40.7c2.363,2.186-.275,3.685-.355,5.543C3.257,50.732,1.39,49.266.05,44.338" transform="translate(-16.872 -2.551)" fill="#fff"/>
      <path id="Path_119574" data-name="Path 119574" d="M142.776,32.8l-1.016,0c-1.813-2.463-1.841-4.8.593-6.156,3.269-1.824,3.563-3.812.695-6.868a8.723,8.723,0,0,1-2.037-5.7c.059-2.132.854-3.9,1.371-5.8.691-3.577,2.591-5.717,4.463-7.892h14.237c.651.662-.8,2.83,1.105,2.795,2.013-.038,3.92.8,4.472,4.289.02,5.288,0,10.567.012,15.835-.549,3.609-2.077,7.229-.008,10.86,0,3.159.025,6.311-.014,9.461-2.887,4.159-4.3.519-4.79-2.616-.511-3.255-1.15-6.055-2.805-8.333-1.151-2.917-3.635-2.231-5.2-4.005-.89-.775-1.77-1.615-2.872-.787-2.4,2.853-5.062,4.724-8.2,4.929" transform="translate(9.201 -2.802)" fill="#fff"/>
      <path id="Path_119575" data-name="Path 119575" d="M192.193,44.594q.005-5.889.009-11.775a7.25,7.25,0,0,1-.008-7.383q-.005-9.583-.013-19.167a5.754,5.754,0,0,1,.065-5.882c1.623-.505.994,1.316.995,2.21.026,34.882-.017,69.765.085,104.647.01,3.166-.423,3.778-2.606,3.774q-94.567-.165-189.136-.121c-.617,0-1.872.911-1.525-1.442A4.6,4.6,0,0,1,4,107.283c1.419.088,2.831-.51,4.255-.143,2.237.247,4.48.032,6.719.122q1.254.012,2.508.021,2.924.023,5.848,0c1.119,0,2.239-.023,3.359-.036,2.247.058,4.494.049,6.742.012a11.324,11.324,0,0,1,4.191-.045,19.556,19.556,0,0,1,5.828.047,31.546,31.546,0,0,1,4.195.012c.579,0,1.154,0,1.732,0a17.855,17.855,0,0,0,3.578-.23c10.491-1.423,20.977.657,31.464-.019,9.864-.286,19.725-.082,29.581.234,1.484.077,2.968-.534,4.456-.078a32.44,32.44,0,0,0,3.378.1q1.238-.041,2.479,0c1.379.014,2.759.009,4.142,0q2.132-.007,4.265-.013c3.839.4,7.673-1.11,11.512-.066,1.5.079,3,.057,4.493.046,3.3.378,6.59-1.034,9.89-.115,8.583-1,17.163-.028,25.745.092,1.942.027,4.123.854,5.58-2.048.16-.716.338-1.42.486-2.138.651-2.585-.05-5.28.3-7.887,0-.785,0-1.566-.006-2.351-.117-1.611,0-3.217,0-4.827a103.961,103.961,0,0,1-.128-13.86,28.977,28.977,0,0,0,.051-3.957c-.032-8.6-1.818-17.414,1.546-25.574" transform="translate(-16.881 -2.816)" fill="#fff"/>
      <path id="Path_119576" data-name="Path 119576" d="M59.423.373H94c.918,1.877,3.58,1.185,3.449,4.35-.138,3.318-2.51,2.235-3.744,3.4-.855.805-3.3-.3-2.431,3.284-2.715,2.716-3.823,9.072-8.332,7.74-2.846-5.359-7.147-4.627-11.053-5.535-2.47-2.152-4.964-3.922-7.756-.988a3.753,3.753,0,0,1-4.046-2.055c-.4-1.1-.735-2.546-.139-3.371,1.66-2.294-.556-1.156-.7-1.808C57.856,3.6,57.671,1.913,59.423.373" transform="translate(-6.082 -2.802)" fill="#fff"/>
      <path id="Path_119577" data-name="Path 119577" d="M23.425,97.9l-6.1-.042a1.892,1.892,0,0,1-.346-1.115c0-.426.031-.639.084-.641a13.128,13.128,0,0,1,2.246-3.615c1.4-2.184,1.659-4.707-.4-5.78-1.783-.928-2.592,1.339-2.766,3.876a5.965,5.965,0,0,1-1.514,3.679c-2,1.743-5.138-.748-6.442,3.623l-4.1-.024C2.873,96.51,1.278,96.309.05,95.019V90.6c1.326-2,1.662-7.811,5.1-2.1C4.89,82.569.971,80.476.05,75.858V67.016C1.142,68.168.908,70.05,1.287,71.6c.373,1.537.76,4,2.061,3.476a8.634,8.634,0,0,0,4-3.961,2.424,2.424,0,0,0-1.615-3.441c-1.169-.319-1.706-1.672-1.041-3.248a4.07,4.07,0,0,1,1.826-2.208c1.137-.377,2.137,1.231,2.16,2.389.1,4.8,2.917,6.681,4.59,9.776a12.194,12.194,0,0,1-2.74,3.144c4.225,1.83,8.031,2.559,10.875-3.141V70.145c1.317,2.141,4.544,2.831,1.63,7.376-.973,1.518-.834,7.917,2.433,10.126C27.6,93.183,27.594,93.2,24.42,94.8a22.583,22.583,0,0,0-.995,3.1" transform="translate(-16.872 8.672)" fill="#fff"/>
      <path id="Path_119578" data-name="Path 119578" d="M149.824.373c.075,3.738-3.124,5.106-3.051,8.843-2.111,1.062-3.058-4.176-5.634-1.78.5,2.82,2.986,3.5,3.6,6.2.873,2.3,1.339,5.091,3.455,5.864,1.667.608,2.661,2.051,2.516,4.678-.165,2.973-2.037,3.165-3.352,3.577-2.075.652-3.561,1.351-2.618,5.04-2.1.164-3.142-1.189-3.056-4.331.121-4.394-2.044-7.762-2.547-12.133-.574-4.983-2.325-10.406-7.914-9.141-2.144.485-6.055-1.371-6.821-6.82Z" transform="translate(6.22 -2.802)" fill="#fff"/>
      <path id="Path_119579" data-name="Path 119579" d="M21.536,19.54c-1.969-5.281-5.569-1.123-8.135-2.954-1.109-2.46-4.462-1.661-4.219-6.091A3.813,3.813,0,0,1,11.32,8.719c.032-1.164-.537-.339-.7-.347-.672-.034.249-.081-.451.008A4.662,4.662,0,0,1,5.276,6.287Q5.271,4.8,5.267,3.321a2.628,2.628,0,0,1,0-2.948h22.37a3.232,3.232,0,0,1-.114,3.583C26.482,5.485,24.692,5.69,24.11,8.03c-.433,3.97,2.106,8.608-1.277,11.9a1.006,1.006,0,0,1-1.3-.39" transform="translate(-15.987 -2.802)" fill="#fff"/>
      <path id="Path_119580" data-name="Path 119580" d="M62.921,4.8l5.285.349c-1.844,2.028-4.4.612-4.273,4.073-1.192,5.911-1.7,6.015-7.648,1.481-.806,2.376,1.207,7.368-2.862,6.761-2.317-2.277-5.269-1-7.661-2.858-1.93-2.961-2.8-7.08-5.027-9.724C40.114,3.5,38.888,2.454,39.528.372h6.1a5.7,5.7,0,0,0,6.1,0h1.016c3.606.436,6.582,3.92,10.173,4.425" transform="translate(-9.574 -2.803)" fill="#fff"/>
      <path id="Path_119581" data-name="Path 119581" d="M104.034.373l1.017,2.948c1.107-.331,1.582.619,1.428,1.936-.216,1.839-.99,2.978-2.444,2.488C101.12,8.9,100.794,11.561,102,15.111c-.115.288-.23.576-.343.868a19.2,19.2,0,0,0-5.536,8.462c-.978,1.175-2.014,1.949-3.3,1a9.937,9.937,0,0,1-.432-8.148c1.388-3.441.761-6.351-.06-9.5,1-2.664,3.243-4.072,3.565-7.422Z" transform="translate(0.151 -2.802)" fill="#fff"/>
      <path id="Path_119582" data-name="Path 119582" d="M.05,37.711c1.693,1.871,3.388,5.781,5.083,0,1.126-.8,1.656.123,2.037,1.479,2.445,1.365,2.4,6.338,5.082,7.362,1.757.749,3.459-.793,5.219-.27,2.005,2.258,1.83,4.317-.258,6.217-3.293,1.487-6.409.186-9.509-1.269-1.458-.333-1.853-6.27-4.259-1.7-1.138.72-2.272,1.237-3.395-.034Z" transform="translate(-16.872 4.076)" fill="#fff"/>
      <path id="Path_119583" data-name="Path 119583" d="M23.263,3.322,24.28.373h8.135A11.54,11.54,0,0,1,33.167,6.7a4.034,4.034,0,0,1-.777,1.559c-.524.413-1.31.1-1.633.653-.341.582.421.844.676,1.3a3.219,3.219,0,0,1,.293,1.679c-1.254,1.083-1,3.593-2.151,4.784-5.325,3.619-6.582,2.421-6.147-5.855a14.819,14.819,0,0,0-.266-3.644,6.027,6.027,0,0,1,.1-3.864" transform="translate(-12.63 -2.802)" fill="#fff"/>
      <path id="Path_119584" data-name="Path 119584" d="M7.165,48c3.25,2.541,6.774,1.09,10.173,1.475a7.358,7.358,0,0,1,1.5,6.575q-.238.4-.483.794H17.33c-1.483-.261-2.5,2.159-4.061,1.474-1.08-4.547-2.565-8.134-6.49-5.357-3.1,2.194-3.761-5.283-6.729-3.487V48c1.125-.02,2.281.1,3.05-1.471C4.851,44.718,6.172,45.4,7.165,48" transform="translate(-16.872 5.58)" fill="#fff"/>
      <path id="Path_119585" data-name="Path 119585" d="M97,.373c2.328,6.389,2.328,6.389-3.052,7.375-2.069,4.707-4.694,6.189-8.133,2.945-.372-4.357,1.393-6.053,5.476-4.9.362-3.007-2.951-2.6-2.426-5.419Z" transform="translate(-0.954 -2.802)" fill="#fff"/>
      <path id="Path_119586" data-name="Path 119586" d="M30.99,6.266c-.084-1.965-.906-3.928,0-5.893H41.159Q42.178,1.846,43.2,3.321c-.88,2.957-2.521,5.236-3.442,8.159-.415,1.245-1.005,2.2-1.992,2.483-1.61-.317-2.2-2.226-2.932-3.91-.51-2.893-2.614-2.409-3.839-3.786" transform="translate(-11.205 -2.802)" fill="#fff"/>
      <path id="Path_119587" data-name="Path 119587" d="M60.822,4.8a10.806,10.806,0,0,1-.3,1.36C59.952,7.73,58.249,8.064,58.09,7.33c-1.173-5.5-6.568-1.177-7.441-6.958h10.17a5.67,5.67,0,0,0,0,4.425" transform="translate(-7.476 -2.803)" fill="#fff"/>
      <path id="Path_119588" data-name="Path 119588" d="M110.3.373c-.293,1.426.729,3.894-.66,4.082-.7.1-1.588-2.631-2.39-4.082Z" transform="translate(3.035 -2.802)" fill="#fff"/>
      <path id="Path_119589" data-name="Path 119589" d="M123.867,30.575a30.959,30.959,0,0,0,2.03-3.218c1.375-2.843,1.218-5.885-.715-7.727-1.891-1.8-2.993.843-3.978,2.82-.458.92-.381,2.408-1.816,2.873-1.181-6.155-.991-12.452-1.364-19.071,3.254.556,2.223,9.113,6.783,6.043-.813-2.242-3.382-4.991-.617-7.318,2.045-1.723,2.93.7,4.438,3.077,1.572,2.471,3.877,3.938,4.389,7.784-.2,1.966-1.194,3.931,0,5.9-.5,6.065,1.074,8.34,5.253,6.241,1.41-.708,2.893-.147,3.42,1.968a22.59,22.59,0,0,1,.083,10.772c-.43,1.677-2.393,1.045-3.686.166-.6-.407-1.225-.726-1.924-1.135-.724,2.536.244,4.152,1.359,4.946,3.532,2.515.569,3.54-.436,5.045-.877,1.789-2.214,1.974-3.543,2.148-.783.16-1.388.556-1.171,2,1.669,6.07,3.638,10.364,9.048,6.715,1.914-1.291,4.646.193,6.972.877a4.185,4.185,0,0,1,1.193,1.134c1.167,2.83.573,6.209-1.1,6.839-4.453,1.674-8.6,8.109-13.737,2.66-1.094-1.162-2.465-1.422-3.748-1.949-1.927-1.065-2.179-4.239-3.586-5.979-1.263-1.564-.724.416-.928.972a4.366,4.366,0,0,1-.677,1.661,21.636,21.636,0,0,1-6.023,3.763c-.735.36-2.068.285-1.866,1.78.917,6.782-2.3,5.657-4.959,5.728-4.366-1.786-5.88-5.87-4.348-12.353-2.509-.816-3.759,2.479-5.678,2.771a12.519,12.519,0,0,1-1.227.922c-1.652,1.126-3.255,2.591-5.223,1.811-2.211-1.1-3.232-4.31-5.1-6.027a8.324,8.324,0,0,1-1.673-1.717,4.422,4.422,0,0,1-.732-2.747c2.184-4.461,4.387-1.418,6.527-.138.484.873.622-.992.28-.145-.132.325-.406.3-.465-.181-.555-4.444-4.085-5.928-4.808-10.195a9.717,9.717,0,0,1,.031-3.107c.59-3.092,2.46-4.043,4.18-5.256a4.78,4.78,0,0,1,1.336-.707c1.985.039,3.659-2.045,5.913-1.634-2.137-1.75-3.808,2.4-5.738.33a6.1,6.1,0,0,1-.626-1.988,18.844,18.844,0,0,1,1.244-7.616c1.084-1.85,2.35-2.843,4.037-1.735,1.034.74.973,2.874,2.192,3.823-.23-1.488-1.122-1.768-1.442-2.728-4.125-5.587-3.82-10.838.877-15.1h0c3.91.276,7.469-3.327,11.542-2.057.919.287,1.526.362,1.845,1.572.289,1.1-.122,2.254-.778,2.247-2.862-.032-3.642,3.267-4.761,5.97-1.5,3.623-3.275,1.848-5.621-.184,1.037,5.3,4.169,5.16,5.33,4.357,5.155-3.567,4.057,2.313,4.653,5.766-.417.927-.549,2.062-1.017,2.954-3.391,1.573.653,5.308-1.022,7.381-5.029,2.393-5.76.109-1.812,14.87-.423-5.626-.858-10.122,3.756-8.9.553.147,1.218-1.541,1.96-2.147a1.5,1.5,0,0,1,1.375.171c1.2,1.556,2.26,3.032,4.138,3.313,3.331.5,3.979-1.273,2.91-5.382.943-4.8-.389-9.209-1.142-13.718" transform="translate(-0.361 -2.056)" fill="#fff"/>
      <path id="Path_119590" data-name="Path 119590" d="M153.667,22.978c1.656,2.566,5.28-.568,6.1,4.421-2.609,5.943-6.458,10.171-9.877,15.022-2.873.855-5.484.458-7.408-3.229-1.366-3.439,1.084-6.878,0-10.317q4.064-3.687,8.13-7.373c1.005.548,1.892,1.616,3.057,1.475" transform="translate(9.498 1.121)" fill="#fff"/>
      <path id="Path_119591" data-name="Path 119591" d="M125.578,42.951l5.085,0c1.11,2.424.824,5.939,3.376,8.086-.375-8.528,4.629-7.294,7.809-9.561,2.434-1.575,3.044.713,3.457,3.416-.959,3.923-4.087,1.107-5.46,3.7-.933,2.4.921,2.7,1.45,4,.569,1.087,1.136,2.173.556,3.621-3.523.755-7.322-2.425-10.668,2.382-.963,1.381-3.018-1.161-3.922-3.346-1.277-3.084-2.478-6.233-3.711-9.355a15.87,15.87,0,0,0,2.028-2.938" transform="translate(6.062 4.734)" fill="#fff"/>
      <path id="Path_119592" data-name="Path 119592" d="M142.026,46.752c-.7-1.928-1.117-4.272-3.044-4.434,1.289-2.063,4.2-1.77,4.069-5.894a15.437,15.437,0,0,0,8.134,1.473c-1.752,5.046,1.937,10.2-.126,15.247-2.121,3.416,1.545,6.575.223,9.955a2.883,2.883,0,0,1-2.389,1.915c-1.668-2.818-5.709-1.556-5.828-7.075a35.918,35.918,0,0,1,.4-5.806c1.75-3.252-1.345-2.092-1.56-3.554a1.974,1.974,0,0,1,.123-1.826" transform="translate(8.927 3.892)" fill="#fff"/>
      <path id="Path_119593" data-name="Path 119593" d="M114.11,41.1c-1.067,2.769-.333,11.227-4.669,2.467-.973,3.776,1.473,6.806-.147,9.892-.516.984-.9,2.177-1.908,1.979-1.232-.243-.728-1.655-.909-2.761-.531-3.232-1.68-6.322-1.9-9.566-.155-2.273-2.529-4.319-.694-6.624,1.945-2.444,4.12-1.239,6.161.186-.127,3.463.7,4.852,3.047,2.948q.887.194,1.022,1.48" transform="translate(2.28 3.643)" fill="#fff"/>
      <path id="Path_119594" data-name="Path 119594" d="M112.559,42.7l-1.022-1.48c.3-.582.7-1.731.875-1.664,4.646,1.757,5.48-2.789,6.126-7.662.247-1.866-.115-4,1.137-5.417,3.555,3.5,3.767,8.072,2.035,13.273-3.648,7.567-3.648,7.567-8.14,2.954-.337,0-.675,0-1.011,0" transform="translate(3.831 2.044)" fill="#fff"/>
      <path id="Path_119595" data-name="Path 119595" d="M126.523,19.942c-1.6-.2-2.5-1.757-2.573-3.771-.1-2.586,1.512-1.892,2.573-2.126,2.018.021,4.038-.028,6.054.087,1.467.082,2.66.979,2.86,3.32a6.068,6.068,0,0,1-1.352,4.5c-1.226,1.413-2.415.462-3.744-.165-1.27-.6-1.373-6.738-3.818-1.848" transform="translate(6.135 -0.264)" fill="#fff"/>
      <path id="Path_119596" data-name="Path 119596" d="M102.107,7.429c1.109-1.1,2.7-1.975,1.015-4.424,2.5-2.637,2.689.981,3.411,2.776s.226,3.377-1.075,4.081c-1.622.877-2.993.567-3.351-2.433" transform="translate(2.08 -2.487)" fill="#fff"/>
      <path id="Path_119597" data-name="Path 119597" d="M113.42,34.571c-1.227.652-1.558-.334-1.547-1.265.024-2.113,1.1-2.795,2.352-2.977a1.6,1.6,0,0,1,2.041,1.46c.607,4.512-4.158-2.8-2.846,2.783" transform="translate(3.893 2.754)" fill="#fff"/>
      <path id="Path_119598" data-name="Path 119598" d="M110.033,30.771c-.193-1.187-1.9-1.441-1.084-3.115.56-1.152,1.4-.135,2.1.16,1.419,2.259.229,2.626-1.017,2.955" transform="translate(3.31 2.164)" fill="#fff"/>
      <path id="Path_119599" data-name="Path 119599" d="M18.955,61.781c1.508.089,2.033-1.961,3.047-2.945.228-.028.454-.056.682-.088,4.052,1.283,7.069,5.519,10.738,7.891,1.053.432,1.379,3.654,3.067,1.646,2.992.057,2.277-6.624,5.419-6.277,1.085-.019,2.143.537,3.24.355.422-.1.843-.164,1.258-.272,1.726-.319,2.1-4.883,4.5-3.05a11.692,11.692,0,0,1,.939,4.729c.159,1.854.585,3.186,2.17,2.824,1.891-.432,3.593.009,4.685,2.645-2.693,6.788-4.738,7.463-10.3,3.424-.944-.8-1.9-1.509-3.054-.956-.886.678-3.494.36-.812,3.024a5.172,5.172,0,0,1,1.481,2.677,7.3,7.3,0,0,1-.069,2.015,15.634,15.634,0,0,1-2.454,4.8A2.026,2.026,0,0,1,41.469,84c-1.334-1.2-3.2-.879-4.2-3.042-.842-.26-2.065-.805-1.792-2.016,1.552-6.849-2.173-6.023-4.621-6.757-2.5-.748-5.071-.541-7.628-1.185C19.213,69.988,18.2,66.975,18.955,61.781Z" transform="translate(-13.404 8.011)" fill="#fff"/>
      <path id="Path_119600" data-name="Path 119600" d="M12.914,41.858c2.724-4.882,4.88-3.339,5.983,1.685,1.047,4.768,2.792,7.808,6.227,8.633.784,1.538.547,3.417.828,5.132,0,2.834.77,6.587-2.869,5.191v0l-7.115-4.425h0c3.321-3.888,1.549-7.7-.145-11.413-.71-1.557-2.323-1.831-2.82-3.8-.031-.331-.058-.664-.087-1" transform="translate(-14.483 4.35)" fill="#fff"/>
      <path id="Path_119601" data-name="Path 119601" d="M20.158,72.484c-1.668,5.066-3.2,10.53-8.145,5.544-.236-.238-.641-.1-.96-.2-1.481-.43-4.043,3.647-4.282-.867-.223-4.221,2.754-4.712,5.251-4.485,2.71,3.907,5.423.211,8.135,0" transform="translate(-15.626 10.579)" fill="#fff"/>
      <path id="Path_119602" data-name="Path 119602" d="M19.764,94.89V87.835c1.582.157.485,2.986,1.956,2.981,1.142-2.058-.323-4.161.085-6.177.6-2.434-1.385-7.682,3.069-5.917,0,.311,0,.621,0,.932-.065,1.5-.7,2.894-.345,4.446.558,1.53,1.7,1.761,2.627,2.477,2.331,1.246,4.625,2.522,2.919,7.192-2.336,1.275-4.9-.528-7.205,1.118l-3.109,0" transform="translate(-13.211 11.68)" fill="#fff"/>
      <path id="Path_119603" data-name="Path 119603" d="M24.148,78.9c3.05.5,6.526-4.549,9.15,1.48a2.011,2.011,0,0,1-.066,2.058c-2.783,2.554-5.624,1.29-8.465.28a2.813,2.813,0,0,1-.634-3.785Z" transform="translate(-12.485 11.5)" fill="#fff"/>
      <path id="Path_119604" data-name="Path 119604" d="M31.784,81.873q0-.747.008-1.5c1.444-.03,2.444-1.036,3.047-2.916,1.723.25,3.628-.842,5.074,1.455-.768,5.357-3.772,4.2-6.271,4.534a2.676,2.676,0,0,1-1.858-1.577" transform="translate(-10.979 11.504)" fill="#fff"/>
      <path id="Path_119605" data-name="Path 119605" d="M18.738,64.538c-1.877,1.147-2.444,1.723-2.6,1.545a10.36,10.36,0,0,1-1.106-2.05c.352-.317.732-.941,1.053-.883a12.466,12.466,0,0,1,2.654,1.388" transform="translate(-14.089 8.854)" fill="#fff"/>
      <path id="Path_119606" data-name="Path 119606" d="M11.2,56.681c1.13-1.786,2.286-3.42,4.06-1.474-1.188,1.445-2.208,3.871-4.06,1.474" transform="translate(-14.801 7.216)" fill="#fff"/>
      <path id="Path_119607" data-name="Path 119607" d="M19.442,61.59c-1.058-.253-2.236.576-3.348-.932C17.628,58.432,18.5,60.359,19.442,61.59Z" transform="translate(-13.892 8.202)" fill="#fff"/>
      <path id="Path_119608" data-name="Path 119608" d="M25.337,55.257q0-1.474,0-2.95c.7-.809.319-2.216.786-3.077a.619.619,0,0,0,.542-.608,4.789,4.789,0,0,1-.908.116c-3.11-2.692-1.091-7.708-2.457-11.182,1.227-3.057-.64-4.312-1.659-6.1C20.067,28.684,17.486,27,17.2,22.83c1.106-1.03,2.119-.32,3.137.333,1.027,1.148,2.382,1.388,3.417,2.535a9.438,9.438,0,0,1,.863,3.8c-.012-.047.346-.222.346-.222a2.692,2.692,0,0,1-.314-.383c-.109-7.459.41-7.854,5.621-4.35a6.3,6.3,0,0,1,.959,1.632,27.192,27.192,0,0,1,.928,5.059c0,2.323.218,4.693-.607,6.862-.752,1.048-1.6,2.088-.089,3.3a5.143,5.143,0,0,1,.792,1.586c.11,5.618,1.258,9.282,5.969,7.79,1.482-.468,2.984.756,2.885,3.727a2.551,2.551,0,0,1-.845,1.461c-2.215.151-3.817,3.159-6.149,2.818-2.6-2.89-6.3-.045-8.781-3.523" transform="translate(-13.686 1.271)" fill="#fff"/>
      <path id="Path_119609" data-name="Path 119609" d="M24.38,50.216c3.008,1.26,7.023-4.057,9.152,2.945.119.844.67,1.163,1.016,1.742a8.012,8.012,0,0,1,.881,3.955,9.435,9.435,0,0,0,.681,4.11,8.618,8.618,0,0,1-.547,7.879c-1.473,1.494-2.14-.506-3.046-1.473A173.356,173.356,0,0,1,22.356,54.618q.507-2.2,1.015-4.4H24.38" transform="translate(-12.729 6.312)" fill="#fff"/>
      <path id="Path_119610" data-name="Path 119610" d="M30.932,26.929c-1.694.414-3.117-1.192-5.083-2.033v7.931a10.166,10.166,0,0,1-2.042-5.9c-.933-.842-2.175-.338-3.041-1.466l-3.051-1.474c-.679.234-1.36,1.394-2.037,0-.812-.638-1.622-1.277-1.017-2.943-.666-7.184,3.2-3.418,5.085-4.419l1.017-.007c4.491-1.72,8.108,1.222,11.651,4.591.547,2.478.091,4.407-1.482,5.727" transform="translate(-14.197 0.119)" fill="#fff"/>
      <path id="Path_119611" data-name="Path 119611" d="M8.859,37.66A25.1,25.1,0,0,0,7.6,28.48c-.88-3.108.453-4.68,1.761-6.028,1.69-1.738,2.9-.21,3.425,2.152.48,2.16,1.553,1.879,2.687,2.328,1.9.755,1.845,3.511,1.349,5.458-.9,3.535-1.468.459-2.144-.491-.477-.669-.991-.258-1.167.422a3.347,3.347,0,0,0,.043,2c5.713,7.354-1.128,5.659-2.648,7.773-.838-1.326-1.99-2.35-2.043-4.436" transform="translate(-15.523 1.159)" fill="#fff"/>
      <path id="Path_119612" data-name="Path 119612" d="M23.354,35.269c2.948,2.248,2.466,6.617,3.04,10.332a.868.868,0,0,1,.376.971q-.176.5-.358.5l-1.021,2.95c-1.755-1.792-2.58-4.431-3.546-7.131-1.085-3.027-.681-8.022-4.935-7.936,2.6-1.148,4.438,1.13,6.444.315" transform="translate(-13.741 3.558)" fill="#fff"/>
      <path id="Path_119613" data-name="Path 119613" d="M14.886,20.265q.509,1.471,1.016,2.942c-.887.485-1.937,1.305-2.488-.416-.614-1.916.484-2.277,1.471-2.526" transform="translate(-14.423 0.891)" fill="#fff"/>
      <path id="Path_119614" data-name="Path 119614" d="M148.937,54.492c.23-1.149.525-2.28.679-3.449.624-4.736-5.149-1.647-3.8-5.959.543-1.737,4.029-1.2,4.136-5.33.184-3.084.241-6.311,3.131-6.725,2.927-.419,2.443-7.4,6.02-6.54,1.077,2.9,5.13,3.5,2.844,9.193-.816,2.033,1.473,3.688,3.2,4.063q-.007,13.282-.014,26.563c-2.46,3.5-4.982-1.419-7.456.14a4.628,4.628,0,0,1-1.992.689,3.369,3.369,0,0,1-2.965-2.319c-.136-1.63.67-3.626-1.594-3.984-2.444-.387-4.024-2.368-2.2-6.341" transform="translate(10.158 2.033)" fill="#fff"/>
      <path id="Path_119615" data-name="Path 119615" d="M153.066,16.05c-1.124-1.434-2.076-3.159-3.865-3-1.5.135-3.288.242-3.792-2.473a4.893,4.893,0,0,1,1.774-4.833c1.559-1.162,3.033-3.689,5.052-1.748,1.488,1.43,3.361,2.6,2.376,6.281a34.424,34.424,0,0,0-.535,5.768c-.337.734-.673.7-1.01,0" transform="translate(10.104 -2.261)" fill="#fff"/>
      <path id="Path_119616" data-name="Path 119616" d="M142.589,13.142a19.345,19.345,0,0,1-2.741-1.72c-1.526-1.315-3.959-1.68-3.857-5.069.09-3.093,2.4-1.934,3.659-2.764,2.687-1.768,3.559,1.1,4.315,4.038a4.156,4.156,0,0,0,.658,1.093c.064,2.189-1.352,2.951-2.033,4.421" transform="translate(8.371 -2.306)" fill="#fff"/>
      <path id="Path_119617" data-name="Path 119617" d="M152.327,23.066c-1.691,2.435-2.3.136-3.057-1.475,1.468-1.461,2.209.238,3.057,1.475" transform="translate(10.838 1.033)" fill="#fff"/>
      <path id="Path_119618" data-name="Path 119618" d="M155.682,6.79c1.5-1.984,2.451-1.139,3.807-1.422-1.31,2.23-2.268,1.007-3.807,1.422" transform="translate(12.028 -1.875)" fill="#fff"/>
      <path id="Path_119619" data-name="Path 119619" d="M151.853,14.052c.337,0,.673,0,1.01,0,.138,1.222,1.436,3.086-.038,3.469-1.209.314-.819-2.144-.972-3.468" transform="translate(11.317 -0.263)" fill="#fff"/>
      <path id="Path_119620" data-name="Path 119620" d="M137.24,98.233l-10.183-.014a5.5,5.5,0,0,1-1.462-3.274c.408-4.533,4.248-2.727,5.317-6.059a4.091,4.091,0,0,1,1.837-1.149,7.067,7.067,0,0,1,1.877-.2c.775-.075,1.194-.426.553-1.617a14.472,14.472,0,0,1-1.01-2.147c-.428-.94-1.237-2.78-1.686-1.417-1.966,5.966-4.981,4.35-8.08,2.975-2.128-1.442-2.081-3.714-1.161-6.324,1.1-2.986,5.7-3.724,3.144-8.978-2.314-4.756-4.7-1.138-6.939.77-1.022.87-2.052,1.985-3.18.375-1.208-1.723-.761-3.661-.06-5.374,2.254-5.5,6.136-5.229,9.815-5.625,3.4,1.872,7.7.849,8.645,9.2.319,2.81,4.648,6.3,7.491,8.754,1.257,1.084,2.147-.19,2.6-2.109.47-1.967,1.228-3.5,2.951-2.828,3.881,1.03,7.641,3.171,11.691,2.645a6.282,6.282,0,0,1,1.386.383c1.271.818,2.752.921,3.857,2.318a3.411,3.411,0,0,1,.379,1.838c-.48,1.743-2.127,2.271-2.191,4.451a11.319,11.319,0,0,1-.786,3.724c-.67,1.1-1.462,1.739-2.513,1.41-1.19-.542-1.617-4.445-3.769-.714-2.58,4.471-3.871,3.423-5.278-3.248-.116-.465.2-1.39-.4-1.339-.373.032-.448,1.009-.714,1.531-1.818,2.949-3.942,5.372-6.589,6.266-2.485.839-3.972,3.3-5.548,5.772" transform="translate(4.569 8.303)" fill="#fff"/>
      <path id="Path_119621" data-name="Path 119621" d="M41.591,95.867l-1.046-.026c-2.661-3.2-.6-6.059.3-9.014A5.242,5.242,0,0,1,42.436,84.8a2.516,2.516,0,0,1,2.051-.23c1.654.792,2.968,2.638,4.693,3.211.962.158,1.557-.586,1.994-1.72a5.624,5.624,0,0,1,2.58-2.975c2.516-1.321,5.292-1.5,7.6-3.7.829-1.526,1.809-2.856,2.543-4.495,3.066-4.372,4.576.221,6.52,2.358a14.476,14.476,0,0,1,2.1,6.347c.3,4.514,2.256,4.991,4.714,4.644,1.352,2.559.9,5.083-.071,7.6l-32.515.021c-1.019-1.564-2.036-1.1-3.051.009" transform="translate(-9.596 10.696)" fill="#fff"/>
      <path id="Path_119622" data-name="Path 119622" d="M71.329,96.71c-1.352-2.427-.16-4.842.017-7.261a.734.734,0,0,1,1.171-.09,3.068,3.068,0,0,1,.122-.479,2.4,2.4,0,0,1-.353-.217c-.709-.843-1.506-2.414-.943-3.028,2.994-3.269.349-5.725-.389-8.459a9.556,9.556,0,0,1-.326-2.064c.3-2.758.065-5.97,2.708-6.753A20.107,20.107,0,0,1,80.18,77.13c1.189,2.458,1,5.646,2.1,8.178,1.394,3.226,2.943,5.564,5.668,2.645,2.454-2.629,5.232-.5,7.817-1.171a2.946,2.946,0,0,1,1.23.836c1.362.96-.742,4.94,1.979,4.734a4.785,4.785,0,0,1,2.989,2.454,2.264,2.264,0,0,1-.126,1.92l-30.5-.015" transform="translate(-3.766 9.822)" fill="#fff"/>
      <path id="Path_119623" data-name="Path 119623" d="M148.08,81.567c.063,1.926-.119,4.119,1.435,5,1.321.753,1.583-1.128,2.148-2.246.874-1.723-.2-5.914,2.437-5.164,2.287.651,1.164,4.655,2.115,6.82-.276,3.091.825,4.076,2.756,3.778a17.06,17.06,0,0,0,1.98-.141,6.181,6.181,0,0,1,6.4.832c.264,5.122-2.288,4.374-4.406,4.373-9.7-.006-19.4-.059-29.1-.1-.287-4.61.707-7.479,4.35-7.39,3.255.078,4.75-5.212,7.854-5.774.678-.927,1.355-.779,2.031.006" transform="translate(7.965 11.811)" fill="#fff"/>
      <path id="Path_119624" data-name="Path 119624" d="M115.109,96.833l-4.117-.009c-1.244-1.876-2.984.108-4.309-1.163-2.355-3.149-1.148-9.407-4.759-11.425-.666-.106.391-2.752-1.163-1.64-1.441,1.03-2.7,2.486-4.114,3.6A2.616,2.616,0,0,1,93.2,85.048a6.283,6.283,0,0,1-.832-3.926c.783-1.556,1.918-2.609,2.767-4.042a2.923,2.923,0,0,1,.454-.158,2.611,2.611,0,0,1,.481,0c-1.286-3.27-1.969-6.426.8-8.946a3.055,3.055,0,0,1,.479-.222c2.626-.805,3.9,1.947,5.349,4.261,1.488-2.252,3.035-4.3,5.4-4.282,1.592.012,3.192.349,3.84,2.626.713,2.5-1.1,3.129-2.048,4.295a5.254,5.254,0,0,0-1.3,2.98c1.464,6.386,4.218,11.73,6.645,17.34a2.268,2.268,0,0,1-.122,1.862" transform="translate(0.263 9.683)" fill="#fff"/>
      <path id="Path_119625" data-name="Path 119625" d="M111.586,94.361q0-.676,0-1.353c-.1-.179-.32-.419-.293-.529,1.18-4.687,1.186-5.3.026-9.156,4.238-1.725,8.522-4.828,12.515.887.257,3.39,1.9,6.8-.037,10.167l-12.21-.017" transform="translate(3.785 12.154)" fill="#fff"/>
      <path id="Path_119626" data-name="Path 119626" d="M163.505,62.866q0,7.351,0,14.7c-2.325,2.894-4.589,3.188-6.766-.33-3.926-1.95-2.075-4.915-.659-7.817,1-2.234.842-5.342,2.343-7.113,1.726-2.037,3.557-2.763,5.087.557" transform="translate(11.786 8.377)" fill="#fff"/>
      <path id="Path_119627" data-name="Path 119627" d="M101.127,81.193c1.743.968,6.647-2.769,3.7,5.425-.343.951,3.092,3.076,1.39,6.372.389.287.521.583.4.889s-.248.465-.376.465l-2.087.008c-1-1.374-2-1.378-3,.011l-4.107,0q.014-.692.014-1.381a4.153,4.153,0,0,1,.392-4.678c.288-.445.885-.438.989-1.254a2.934,2.934,0,0,1-.946-.359,3.253,3.253,0,0,1-.917-1.286,4.7,4.7,0,0,1,.148-2.8c1.259-1.837,2.836-1.591,4.4-1.416" transform="translate(1.025 12.183)" fill="#fff"/>
      <path id="Path_119628" data-name="Path 119628" d="M15.112,93.2c0,.455,0,.912-.011,1.366-.664.013-1.327.028-1.99.043a7.185,7.185,0,0,1-1.047-4.366c1.678-2.416-.931-6.206.854-7.938,1.592-1.544,3.845-1.656,5.808-2.4.3,3.493,1.967,6.826,1.022,10.393-.478,1.8-1.715.32-2.6-.045-2.708-1.96-.641,3-2.033,2.949" transform="translate(-14.647 11.966)" fill="#fff"/>
      <path id="Path_119629" data-name="Path 119629" d="M156.047,91.211c-1.565-.358-3.544,1.075-4.6-1.383-.921-2.143.368-3.474,1.553-4.519l2.033-1.473c4.782-2.338,7.029-1.259,9.1,4.372q0,.784,0,1.57c-1.818,2.247-4.238-.876-6.048,1.431-.677-1.053-1.356-1.592-2.033,0" transform="translate(11.183 12.481)" fill="#fff"/>
      <path id="Path_119630" data-name="Path 119630" d="M28.984,92.838c.639-4.849-2.82-3.762-4.061-5.888,3.429-6.956,6.1-6.853,9.2.351a9.1,9.1,0,0,1-1.08,6.919L29,94.2q-.962-.655-.019-1.364" transform="translate(-12.253 12.32)" fill="#fff"/>
      <path id="Path_119631" data-name="Path 119631" d="M163.52,88.962c-2.467-3.931-5.972-3.326-9.1-4.372V80.171c3.025-1.926,6.051-2.2,9.078-.011q.012,4.4.023,8.8" transform="translate(11.794 11.727)" fill="#fff"/>
      <path id="Path_119632" data-name="Path 119632" d="M163.558,63.368c-6.277-3.142-4.567,5.126-6.028,8.865-1.686,1.456-2.662.184-3.436-1.869a69.578,69.578,0,0,1,.855-8.346,4.378,4.378,0,0,0,.548-3.051c3.045-3.523,5.228,2.7,8.069,1.5q-.005,1.451-.007,2.9" transform="translate(11.733 7.875)" fill="#fff"/>
      <path id="Path_119633" data-name="Path 119633" d="M31.787,94l.014-7.265a3.052,3.052,0,0,1,.673-2.93c5.05-3.137,4.631,3.635,6.079,7.041A4.926,4.926,0,0,1,37.924,94H31.787" transform="translate(-11.001 12.54)" fill="#fff"/>
      <path id="Path_119634" data-name="Path 119634" d="M122,93.993q-.514-5.106-1.027-10.214a1.411,1.411,0,0,1,2.076-.532c1.936,1.96,1.525,5.164,1.992,7.9l1,2.833q-2.022,0-4.044.011" transform="translate(5.583 12.54)" fill="#fff"/>
      <path id="Path_119635" data-name="Path 119635" d="M36.955,93.734l-.021-2.847c-.422-4.183,1.815-5.114,3.741-6.434a1.463,1.463,0,0,1,1.34.542c.369,3.089-2.159,5.459-1.033,8.735l-4.027,0" transform="translate(-10.032 12.808)" fill="#fff"/>
      <path id="Path_119636" data-name="Path 119636" d="M157.47,77.444c1.771,2.518,4.009,1.074,6.027,1.486a8.694,8.694,0,0,1,0,1.449,13.1,13.1,0,0,1-9.079.011c.2-2.7.2-2.7,3.051-2.945" transform="translate(11.794 11.509)" fill="#fff"/>
      <path id="Path_119637" data-name="Path 119637" d="M104.7,92.685c-.014-.452-.021-.9-.023-1.354,1.49-.516,3.352-3.366,4.015,1.335l-3.992.019" transform="translate(2.558 13.841)" fill="#fff"/>
      <path id="Path_119638" data-name="Path 119638" d="M53.8,15.635c2.562-1.743-.289-4.86.841-7.107.353-.7-.574-2.454.619-2.945,1.128-.464,1.379.829,2.07,1.875,1.812,2.739,4.146,5.862,6.64.812,1.1,1.985,2.651,1.333,4.067,1.473-1.164,4.01,2.279,3.531,2.769,5.938a9.019,9.019,0,0,1,.509,6.064c-3.727.4-6.608,6.038-10.79,3.686-.719-2.019-.441-4.59-1.63-6.4-.794.8-.6,2.086-.843,3.1.141,1.732,1.347,2.007,1.992,3.046.821,1.934,2.622,2.4,3.27,4.592a11.431,11.431,0,0,1,.258,3.891c0,2.16-.369,4.02-1.921,4.906-1.046.281-1.843-.311-2.478-1.471a9.284,9.284,0,0,1-.625-1.777,11.52,11.52,0,0,0-4.7-7.209c-.843-.092-1.326.889-1.966,1.4-1.155.774-2.448.569-3.631,1.152-1.985.639-3.826,1.993-5.85,2.427a2.593,2.593,0,0,1-2.031-.716c-.915-1.252-1.7-3.576-.883-4.4,3.029-3.066-.078-5.228-.248-7.757,1.1-3.572,3.191-2.706,5.208-2.569,1.915.129,4.057,1.53,5.594-1.5a3.051,3.051,0,0,1,1.776-1.537A2.454,2.454,0,0,1,53.8,15.635" transform="translate(-9.612 -1.853)" fill="#fff"/>
      <path id="Path_119639" data-name="Path 119639" d="M88.308,9.538c2.931.3,5.53-1.335,8.133-2.945,2.5,2.413,4.4,4.871,1.265,9.079-1.716,2.3-.179,5.923-1.262,8.6l-.566.671a1.787,1.787,0,0,1-2.075-.336c-1.943-3.887-3.908-3.743-5.825.012-.876,1.716-1.256,3.985-2.715,5.047-1.931.973-3.53.17-4.759-1.747,1.428,3.187,4.229,1.48,6.218,3.1,1.471,2.068,2.037,4.272.481,6.788-2.316.735-4.63,1.514-6.941,2.3-1-.028-2.32-.328-2.205-1.9.451-6.093-2.065-1.227-3.058-1.866-1.891-.939-2.831-2.779-2.6-5.734a8.127,8.127,0,0,1,1.642-3.435c2.285-2.116,1.722-6.138,2.856-9.017,1.2-2.036,3.021.314,4.3-1.256l.939.392c-.186-6.346,4.295-4.879,6.18-7.758" transform="translate(-3.444 -1.647)" fill="#fff"/>
      <path id="Path_119640" data-name="Path 119640" d="M81.791,16.236c-.612,4.784-2.72.95-4.069,1.483-4.36,4.287-4.535,4.162-6.192-2.349-.42-1.65-2.812-1.286-2.342-4.2q.2-.416.4-.83c4.411.462,9.616-2.52,12.2,5.893" transform="translate(-4.044 -0.979)" fill="#fff"/>
      <path id="Path_119641" data-name="Path 119641" d="M65.741,15.244c-2.111-.927-4.912-1.355-2.036-5.9,2.58-1.61,5.185-3.463,7.121,1.475h0c-1.026,1.237.037,3.194-.74,4.52-1.46,1.115-2.913,1.634-4.344-.094" transform="translate(-5.279 -1.456)" fill="#fff"/>
      <path id="Path_119642" data-name="Path 119642" d="M14.781,92.613c-.185-3.054-1.853-5.955-.317-9.558,2.024,1.341,1.2,4.8,2.35,6.61-.085,1.84-.761,2.827-2.033,2.948" transform="translate(-14.315 12.551)" fill="#fff"/>
      <path id="Path_119643" data-name="Path 119643" d="M31.01,23.171c-4.031.14-7.662-1.859-11.186-4.421,2.693-4.421-1.441-8.843,0-13.264,1.694.043,3.389-2.051,5.083,0,1.065,1.22.759,3.031,1.046,4.616.382,2.112-2.492,3.48-.529,5.588,1.782,1.913,2.988-1.264,4.568-1.359a9.657,9.657,0,0,1,1.017,8.842" transform="translate(-13.258 -2.021)" fill="#fff"/>
      <path id="Path_119644" data-name="Path 119644" d="M24.858,5.805c-1.694.323-3.389,1.927-5.083,0A5.419,5.419,0,0,1,23.842,2.86q.509,1.473,1.016,2.945" transform="translate(-13.209 -2.341)" fill="#fff"/>
      <path id="Path_119645" data-name="Path 119645" d="M37.788,10.235c.959-2.918.39-7.606,4.067-7.375,2.033,2.876,4.815,5.134,4.065,10.316A3.259,3.259,0,0,1,46.46,15a2.78,2.78,0,0,1-.775,1.636c-3.28-.453-7.424,1.323-7.9-6.405" transform="translate(-9.864 -2.342)" fill="#fff"/>
      <path id="Path_119646" data-name="Path 119646" d="M44.646,13.052V11.575c2.761.688,6.1-1.945,8.133,2.948H50.748c-2.058-.279-4.359,1.558-6.1-1.47" transform="translate(-8.59 -0.742)" fill="#fff"/>
      <path id="Path_119647" data-name="Path 119647" d="M100.376,27.541a5.536,5.536,0,0,0-4.065,1.476c-1.479-1.716-1.463-4-1.157-6.394.044-.325.091-.651.139-.976-.272-6.289,2.337-8.4,6.1-8.843C99.9,17.549,97.566,22.171,100.376,27.541Z" transform="translate(0.758 -0.494)" fill="#fff"/>
      <path id="Path_119648" data-name="Path 119648" d="M92.857,21.737l3.048-1.475h0c1.042,3.82-.647,4.738-2.676,5.3-2.058-.874-1.913-2.209-.376-3.831Z" transform="translate(0.145 0.891)" fill="#fff"/>
      <path id="Path_119649" data-name="Path 119649" d="M13.93,45.817c-1.088-1.112-1-2.791-1.016-4.423,4.363,2.461,5,9.842,9.509,13.36l-6.458,2.853q-.509-3.685-1.015-7.37c1.677-2.451.092-3.321-1.02-4.42" transform="translate(-14.483 4.815)" fill="#fff"/>
      <path id="Path_119650" data-name="Path 119650" d="M29.371,23.207c-1.169-2.747-1.046-5.806-1.017-8.842.83-.764.3-3.491,2.035-2.948,1.366.966.452-.683.6-1.128A12.808,12.808,0,0,1,31.4,7V5.52c2.465-1.8,4.445-1.858,5.081,2.952.343,7.473,2.192,14.62,2.285,22.15a2.617,2.617,0,0,1-2.6,1.392c-1.751-.3-3.431-1.467-5.26-.927a2.3,2.3,0,0,1-2.55-.509q0-.738,0-1.475l1.017-5.9" transform="translate(-11.619 -2.056)" fill="#fff"/>
      <path id="Path_119651" data-name="Path 119651" d="M31.775,6.734a1.9,1.9,0,0,1,0,2.956q-.505,1.067-1.016.006c-1.379-.3-2.88.662-4.425-1.058,1.582-2.624,3.21-3.793,5.436-1.9" transform="translate(-11.99 -1.794)" fill="#fff"/>
      <path id="Path_119652" data-name="Path 119652" d="M30.073,9.087c.338-.008.677-.009,1.016-.006.077.217.159.429.23.649.528,1.627,2.143,2.814,1.075,5.069-.23.486-.945,1-1.246.823-1.7-1.008-.829-3.318-1.08-5.075q0-.729,0-1.46" transform="translate(-11.299 -1.186)" fill="#fff"/>
      <path id="Path_119653" data-name="Path 119653" d="M37.5,29.922c-3.424-5.645-1.016-13.62-3.653-19.636-.1-.229,1.051-1.609,1.618-2.453L37.5,12.256c.184.207.368.415.554.62,1.041,1.882.57,4.282,1.055,6.3.484.175,1.024-.043,1.445.451,1.119.979,2.458,1.672,3.3,3.018.88,1.405,2.381,4.08-.656,4.254-2.721.155-1.7,2.543-1.623,4.489-1.656,1.253-2.981.564-4.074-1.467" transform="translate(-10.597 -1.417)" fill="#fff"/>
      <path id="Path_119654" data-name="Path 119654" d="M39.979,19.4,37.942,22.35c-1.328-3.238.343-7.1-1.016-10.327h0q.512-1.473,1.023-2.945c1.624,5.115,5.684,3.16,8.133,5.881,1.943-1.3,3.525,0,5.082,1.486.515,2.033,1.717,4.167-1.464,3.577s-6.43-2.351-9.719-.625" transform="translate(-10.024 -1.186)" fill="#fff"/>
      <path id="Path_119655" data-name="Path 119655" d="M85.839,35.9c1.692-1.979.544-3.942-.015-5.91a3.977,3.977,0,0,1-1.013-2.943c.219-4.9,2.479-7.842,4.809-10.791,1.06-1.342,1.968-.78,2.495.436a55.71,55.71,0,0,1,1.851,5.927c.649,2.841-1.164,2.171-1.981,2.92-.995.9-.307,2.6-.9,3.883.681-1.219-.065-2.894.836-3.83,3.273-.288,3.59,3.259,3.83,6.543.225,3.105.512,6.03,2.273,8.175-.151,3.8-3.328,1.752-4.061,4.424-1.364.751-2.967.506-4.887,3.226,2.222-1.723,3.606-1.528,4.887-.283,1.17.087.379,3.862,2.288,2.559,2.683-1.832,3.405.9,2.416,3.223-2.228,5.234,1.311,3.848,2.617,5.385-3.095,3.776-6.468-3.7-9.359.627-1.659,1.434-1.2-3.709-2.805-1.962-.779.848.141,2.154.123,3.282a6.627,6.627,0,0,1-.894,2.7c-4.366,4.608-7.414,4.974-10.85.945-1.521-1.786-3.708-4.086-.14-6.239,1.731-1.045,1.442-2.272.379-3.743a26.523,26.523,0,0,1-2.285-4.785c-.692-2.228-1.2-4.451.205-6.531.622-.538,1.857.705,1.969-1.407,1.979-2.115,2.9,1.086,4.273,1.744a4.435,4.435,0,0,1-1.783-3.54,4.225,4.225,0,0,1,.59-1.751c1.615-1.19,3.439-1.416,5.126-2.287" transform="translate(-2.997 0.003)" fill="#fff"/>
      <path id="Path_119656" data-name="Path 119656" d="M127.3,63.078c-3.472,2.1-8.806-.036-9.605,9.253,2.352-1.986,4.257-4.157,6.421-5.276,2.732-1.415,4.589,1.654,5.47,4.616,1.693,5.7-1.594,7.31-4.318,9.093-1.571,2.471-4.092,2.469-5.772,4.663-2.6-.14-4.2-3.558-6.626-4.292a6.144,6.144,0,0,1-.708-2.807,7.182,7.182,0,0,0-1.741-6.1c-.975-1.075-2.1-2.439-1.424-4.732,1.457-.257,3.037.65,4.4-.947.337-2.9-2.505-2.29-2.5-5.672,3.964.382,7.232-3.757,11.313-3.69.4-.154.537-.517.391-1.072-.074-.285-.221-.41-.383-.41-.433-1.554-2.132-1.488-2.2-4.034,4.388-.557,5.966,3.7,7.285,8.459a2.736,2.736,0,0,1,0,2.948" transform="translate(3.321 6.714)" fill="#fff"/>
      <path id="Path_119657" data-name="Path 119657" d="M124.4,62.73V59.782c2.22-1.349,3.821.888,5.508,2.184,2.011,1.546,3.88,3.821,4.827-1.515.368-2.077,1.451-1.59,2.419-.951,4.044,2.673,5-1.028,5.551-5.608a1.108,1.108,0,0,1,1.313-.288c.94,3.429,4.541,4.462,3.973,9.254-1.744,1.349-3.357-1.946-5.079-.344.069.373-.786.427-.175,1.06.051-1.69.909-1.392,1.656-1.4,4.913,3.9,5.43,9.167,1.368,13.818-.765-1.013-1.3-.485-1.42.7-.216,2.15,1.481,5.624-1.046,6.054-1.933.33-4.745.158-5.787-3.134-1.317-4.159-3.7-5.394-6.317-6.5-.984-.417-2.125-.858-2.169-2.59-.062-2.492,1.939-1.327,2.683-2.676-1.426-4.878-5.3-2.223-7.3-5.114" transform="translate(6.22 7.062)" fill="#fff"/>
      <path id="Path_119658" data-name="Path 119658" d="M112.172,67.1c.737,3.952,6.726,3.555,4.068,10.32a4.69,4.69,0,0,0-2.874,1.273c-1.64,1.347-2.958,3.953-5.229,2.854a5.616,5.616,0,0,1-1.049-1.181c-.472-4.478,2.309-5.066,5.336-7.45-3.989-.266-6.885-3.315-7.977,3.888-.373,2.464-2.72.589-3.256-1.313-.85-3.018-2.182-4.151-4.272-3.97-1.973-.008-4.3-.049-5.031-2.976-1.009-4.028,2.6-4.139,3.463-6.774.183-.193.366-.381.551-.568l5.084-2.946c.765.824,1.125,2.35,2.277,2.737-.7-1.171-1.693-1.6-2.277-2.737,2.967-.659,4.927-7.6,8.8-2.879.834,1.015,1.59,1.531.709,3.252-2.28,4.455-2.217,4.668,1.679,8.468" transform="translate(0.149 7.109)" fill="#fff"/>
      <path id="Path_119659" data-name="Path 119659" d="M113.252,40.623c3.584,4.063,5.344-2.45,8.14-2.954.511,2.489,1.022,4.978,1.809,8.819-3.307-4.125-8.693,4.009-9.949-5.866" transform="translate(4.149 4.123)" fill="#fff"/>
      <path id="Path_119660" data-name="Path 119660" d="M89.242,24.453,91.278,21.5h2.029c-.155.985-.958,1.971,0,2.955,2.137,2.74,1.792,7.023,3.05,10.308V36.24a4.061,4.061,0,0,1-1.011,2.951l-.006,0c-2.45-.052-4.091-.608-3.5-5.419.415-3.378-.264-7.076-2.6-9.321Z" transform="translate(-0.309 1.121)" fill="#fff"/>
      <path id="Path_119661" data-name="Path 119661" d="M95.72,34.994c-3.728-1.751-2.89-6.34-3.05-10.307,1.32-1.035,2.944-1.63,3.051-4.424,1.589,2.093.824,4.871,1.021,7.369a17.339,17.339,0,0,1-1.022,7.362" transform="translate(0.327 0.891)" fill="#fff"/>
      <path id="Path_119662" data-name="Path 119662" d="M94.39,37.353Q94.9,35.877,95.4,34.4c2.2-.089,3.593-3.578,6.009-2.916,1.386.379,2.839.752,2.661,3.265-.139,1.954-1.581,3.1-2.612,2.176-2.542-2.291-4.689,2.147-7.069.427" transform="translate(0.647 2.959)" fill="#fff"/>
      <path id="Path_119663" data-name="Path 119663" d="M92.247,43.3c-2.884-.641-4.679,3.388-8.216,4.355,2.431-5,3.092-11.421,8.216-7.3V43.3" transform="translate(-1.277 4.378)" fill="#fff"/>
      <path id="Path_119664" data-name="Path 119664" d="M99.785,25.233c.5.008,1-.007,1.506.028,1.586.113,3.066.517,3.3,3.36a1.926,1.926,0,0,1-1.045,2.154c-1.652.506-3.447.972-4.781-.858C97.155,27.709,99.246,26.725,99.785,25.233Z" transform="translate(1.348 1.814)" fill="#fff"/>
      <path id="Path_119665" data-name="Path 119665" d="M87.018,54.9c-.055-1.873-3.3-.619-1.853-3.717.771-1.659,1.693-3.455,3.584-3.077,3.012.6-.59,4.343,1.318,5.323q.509.731,1.016,1.461-2.029,2.76-4.066.011" transform="translate(-1.135 6.051)" fill="#fff"/>
      <path id="Path_119666" data-name="Path 119666" d="M141.176,54.946c-.338,0-.677,0-1.016.006s-.677-.008-1.016-.009L138.124,52c0-.365,0-.729,0-1.1,1.889-4.988,3.98-3.143,6.1-.379.34,1.475,1.443,2.951,0,4.426-1.017,1.27-2.035,1.083-3.051,0" transform="translate(8.768 6.001)" fill="#fff"/>
      <path id="Path_119667" data-name="Path 119667" d="M86.83,53.825l4.066-.011,2.032.015a6.657,6.657,0,0,1,.424,4.214,2.471,2.471,0,0,1-1.907,1.539c-2.082-.039-3.625-1.856-5.26-3.376-.127-.3-.251-.6-.376-.9q.51-.738,1.02-1.479" transform="translate(-0.946 7.121)" fill="#fff"/>
      <path id="Path_119668" data-name="Path 119668" d="M91.866,58.246q0-2.209,0-4.419l4.069,7.367h0c-.907,1.577-1.949,2.683-3.379,1.417-1.2-1.064-1.213-2.66-.688-4.366" transform="translate(0.117 7.124)" fill="#fff"/>
      <path id="Path_119669" data-name="Path 119669" d="M120.116,55.066c1.166.219,2.319.51,2.571,2.575.042.338-.205,1.039-.395,1.1-1.246.428-1.668-1.009-2.184-2.2q0-.74.008-1.481" transform="translate(5.422 7.354)" fill="#fff"/>
      <path id="Path_119670" data-name="Path 119670" d="M125.578,42.639c1.75,4.5-.485,3.216-2.028,2.938q.123-2.76,2.028-2.938" transform="translate(6.062 5.046)" fill="#fff"/>
      <path id="Path_119671" data-name="Path 119671" d="M138.694,52.261c-1.757-.232-3.112-1.45-3.583-3.922-.289-1.514.771-1.726,1.551-1.973l.728.091c2.3,1.053,2.216,3.233,1.305,5.8Z" transform="translate(8.199 5.738)" fill="#fff"/>
      <path id="Path_119672" data-name="Path 119672" d="M142.5,45.27q.005.731.009,1.461c-2.035,3.618-4.069.478-6.1,0,1.693-3.447,3.914-2.274,6.093-1.461" transform="translate(8.45 5.373)" fill="#fff"/>
      <path id="Path_119673" data-name="Path 119673" d="M139.839,61.849c1.693-2.637,3.388-1.081,5.081,0,1.455.078,2.986.6,4.068-1.476l2.036-1.471c.173.051.345.1.518.139a7.9,7.9,0,0,0,1.549-.754c.413-.091.735.121.984.589l3.053,1.5c1.071-.564,1.257.148,1.016,1.477.139,2.593,1.859,5.644-1.015,7.366-.819-.353-1.918-.962-1.23,1.31.864,2.853.206,5.193-.807,7.535-4.257.681-8.377.191-12.195-2.946,2.106-8.415,1.573-10.725-3.059-13.263Z" transform="translate(9.086 7.947)" fill="#fff"/>
      <path id="Path_119674" data-name="Path 119674" d="M148.837,61.194c-.331,1.754,1.743,4.207-.066,5.064-1.589.752-3.127-1.259-4-3.588-.752-3.529-4.622-4.05-4.062-8.846l3.052,0c.074,1.143.218,3.409.579,3.1,3.672-3.124,3.21,2.464,4.5,4.265" transform="translate(9.237 7.123)" fill="#fff"/>
      <path id="Path_119675" data-name="Path 119675" d="M152.774,60.389q-.505.023-1.01.034c-.682.85-1.364.907-2.044,0l0,0c-.752-1.876-1.482-3.771-2.261-5.624-1-2.381-.931-4.113,1.246-4.7-.749,7.877,5.445,1.754,6.137,6.694l-2.071,3.6" transform="translate(10.387 6.43)" fill="#fff"/>
      <path id="Path_119676" data-name="Path 119676" d="M136.41,46.376h6.1c1.4.205,3.273-.81,4.015,1.358s-1.756,1.374-1.982,3.064c-2.067.205-4.465-2.471-6.1,1.475.339-2.7-.924-4.245-2.033-5.9" transform="translate(8.45 5.728)" fill="#fff"/>
      <path id="Path_119677" data-name="Path 119677" d="M38.395,52.593c-.2-2.51-1.368-3.02-2.848-2.907-6.747.513-7.035.036-6.29-10.363,1.435-4.028,3.38-2.58,5.334-1.062.969,2.892,1.571,6.445,4.691,5.555.456.318,1.134.8,1.1,1.349-.343,4.956,1.543.411,2.17,1.094a10.676,10.676,0,0,1,3.5-.05c2.675,1.717,4.718-1.143,7.034-2.06a2.186,2.186,0,0,1,2.025,1c1.6,4.365-.157,9.625,1.794,13.9a21.645,21.645,0,0,1,.089,4.956c-2.309,7.1-3.734,7.906-8.41,4.784V62.9c-2.075-.864-1.859-6.072-4.745-5.275-.651-.481-.049,1.339-.018.357,4.066,2.514,3.334,5.777.692,9.337H43.488c-.682.715-1.152.119-1.617-.539-1-1.492-2.527-1.01-3.654-2.036a6.642,6.642,0,0,1-.956-3.631,12.308,12.308,0,0,1,.141-1.9,17.445,17.445,0,0,1,.355-1.747,8.442,8.442,0,0,0,.13-3.386,2.333,2.333,0,0,1,.507-1.492" transform="translate(-11.501 3.945)" fill="#fff"/>
      <path id="Path_119678" data-name="Path 119678" d="M41.878,76.428c-.334-4.2-3.313,1.339-4.016-2.4C36.816,68.47,39.923,68.9,41.89,67.6a3.641,3.641,0,0,0,3.046,1.456c3.642,3.255,7.035,2.869,10.157-1.463q.292-.276.581-.554c3.578,3.671.255,8.337.752,12.509.244,2.039-1.23,3.982-2.994,3.761-1.232-.154-2.213.82-3.351.949-1.524-.777-2.02-3.94-4.426-3.046-2.13.792-2.636-2.923-3.776-4.781" transform="translate(-9.889 9.576)" fill="#fff"/>
      <path id="Path_119679" data-name="Path 119679" d="M37.881,61.429c1.605-.95,3.089-1.193,4.068,1.479-.424,1.222-1.475.627-2.031,1.47-1.624.217-2.59,1.758-2.428,3.863.624,8.08-1.786,3.933-3.678,2.03-.824-2.32.947-5.383-1-7.381.92-1.482.288-2.952-.018-4.425l-1.007-4.408c1.107-1.2,2.324-1.771,3.715-1.362a4.034,4.034,0,0,1,2.387,2.842q0,.738,0,1.476a3.8,3.8,0,0,0,0,4.417" transform="translate(-10.979 6.889)" fill="#fff"/>
      <path id="Path_119680" data-name="Path 119680" d="M22.517,53.81c4.271,3.64,8.83,6.862,10.161,14.756A27.857,27.857,0,0,1,21.49,59.728c3.147-.95,1.6-3.61,1.027-5.918" transform="translate(-12.89 7.12)" fill="#fff"/>
      <path id="Path_119681" data-name="Path 119681" d="M41.353,74.957c2.1.116,2.869,5.048,5.931,2.828,1.522-1.1,1.215,3.173,2.205,4.545,1.29.864,3.029-.875,4.063,1.473q-1.024,1.53-2.048,3.061A2.271,2.271,0,0,1,49.38,87.91c-1.629-.995-3.494-1.064-4.979-2.637H42.37c-2.18-.506-.279-4.1-1.837-5.091a5.1,5.1,0,0,1,.818-3.75q0-.738,0-1.475" transform="translate(-9.364 11.047)" fill="#fff"/>
      <path id="Path_119682" data-name="Path 119682" d="M41.873,86.064,37.8,91.956c-1.348-.926-1.876-2.544-2.086-4.627-.334-3.319-1.756-1.981-2.987-1.282-1.228-2.228-.1-3.31,1.017-4.4,2.047-.913,4.614.414,6.087-2.968q.512.74,1.023,1.48.475-.777,1.138-.384c1.272,2.15-.205,4.187-.124,6.289" transform="translate(-10.902 11.739)" fill="#fff"/>
      <path id="Path_119683" data-name="Path 119683" d="M42.521,64.825c1.342-2.746.185-5.416.045-8.666-.8,1.52-1.358,2.58-2.527,4.8.081-4.2-.946-6.991.042-10.823,1.941,4.426,6.6,3.939,6.511,10.268-.784,1.737-1.5,3.542-2.365,5.192-.93,1.782-1.5,1.186-1.705-.774" transform="translate(-9.518 6.439)" fill="#fff"/>
      <path id="Path_119684" data-name="Path 119684" d="M45.554,64.69c3.162.038,6.7,1.036,7.122-5.894,3.889,2.707,2.779,6.444,1.013,10.318l0,.006a9.334,9.334,0,0,0-5.3-.456c-1.3.35-4.1.607-2.829-3.973" transform="translate(-8.481 8.046)" fill="#fff"/>
      <path id="Path_119685" data-name="Path 119685" d="M20.993,63.12c2.927-.153,3.982.834,4.73,3.34C23.438,67.524,23,65.1,20.993,63.12" transform="translate(-12.983 8.846)" fill="#fff"/>
      <path id="Path_119686" data-name="Path 119686" d="M40.506,80.622c-.334,0-.669,0-1,0-.019-2.145.084-4.17,2.031-4.418q0,2.2,0,4.4-.51.8-1.033.018" transform="translate(-9.546 11.278)" fill="#fff"/>
      <path id="Path_119687" data-name="Path 119687" d="M38.645,62.757l2.03-1.47,1.017,1.47c-1.015,5.147-2.032.44-3.047,0" transform="translate(-9.705 8.509)" fill="#fff"/>
      <path id="Path_119688" data-name="Path 119688" d="M44.272,68.965c-1.681,2.44-2.292.171-3.047-1.457,1.126,0,2.275-.1,3.047,1.457" transform="translate(-9.226 9.664)" fill="#fff"/>
      <path id="Path_119689" data-name="Path 119689" d="M35.578,81.284l-1.017,4.4-1.029,1.488c-2.708-7.336-5.42-1.717-8.13-.006-1.484.027-2.882-.135-3.052-2.957A6.465,6.465,0,0,1,25.4,81.275c2.714-1.843,5.428,1.039,8.141,0l2.042.011" transform="translate(-12.731 12.103)" fill="#fff"/>
      <path id="Path_119690" data-name="Path 119690" d="M25.4,81.636c-.588,1.909-1.607,2.881-3.046,2.935-.076-2.507.235-4.731,2.03-5.877q.509,1.471,1.016,2.943" transform="translate(-12.732 11.741)" fill="#fff"/>
      <path id="Path_119691" data-name="Path 119691" d="M34.4,41.54c-1.693-.308-3.388-1.948-5.08,0l-.007-.013c-1.129-1.475-.5-2.948,0-4.42a6.827,6.827,0,0,1,0-5.888,1,1,0,0,1,1.226-.26,1.841,1.841,0,0,0,.554.812c.039-.5-.293-.736-.4-1.173-.909-1.668-1.448-3.359-.365-5.275,1.923-1.185,3.589-.494,5.083,1.462,2.26,1.385,1.834,6.045,4.229,7.262a4.813,4.813,0,0,1,1.277,2.258c.289,2.4.1,4.579-1.43,6.094-1.824,1.3-3.453.149-5.093-.863" transform="translate(-11.562 1.723)" fill="#fff"/>
      <path id="Path_119692" data-name="Path 119692" d="M35.9,54.663l-4.065-.012A7.692,7.692,0,0,1,31.5,53.6c-.018-.09.216-.281.333-.424,1.765-.722,2.322-5.832,5.082-2.943.632,1.943,1.442,3.972-1.015,4.426" transform="translate(-11.032 6.294)" fill="#fff"/>
      <path id="Path_119693" data-name="Path 119693" d="M29.754,35.173c1.028,1.475-.221,2.948,0,4.421-1.553,1.305-3.127,1.436-3.434-1.571-.449-4.385,2.137-2.235,3.436-2.85" transform="translate(-12.003 3.659)" fill="#fff"/>
      <path id="Path_119694" data-name="Path 119694" d="M30.391,31.134l-1.024,0c-1.086-1.113-1-2.791-1.015-4.423l2.033-1.473q.509,2.942,1.016,5.885c-.333.51-.67.539-1.01.013" transform="translate(-11.616 1.814)" fill="#fff"/>
      <path id="Path_119695" data-name="Path 119695" d="M24.927,45.351q-.007-.735-.017-1.469c1.452.409,3,.606,3.614,3.179-1.98,2.559-2.466-.975-3.6-1.71" transform="translate(-12.255 5.277)" fill="#fff"/>
      <path id="Path_119696" data-name="Path 119696" d="M19.777,24.091c1.383-1.119,2.437-.8,3.042,1.466-1.323.858-2.739,2.124-3.042-1.466" transform="translate(-13.208 1.485)" fill="#fff"/>
      <path id="Path_119697" data-name="Path 119697" d="M24.064,30.208c1.065.235,1.993.7,1.777,2.663-.023.212-.6.561-.765.433C24.238,32.664,24.146,31.421,24.064,30.208Z" transform="translate(-12.412 2.738)" fill="#fff"/>
      <path id="Path_119698" data-name="Path 119698" d="M35.211,54.525c1.09-1.113,1-2.793,1.015-4.426q.505,0,1.01.007c.006.487.008.975.011,1.462a4.4,4.4,0,0,1,0,4.424h0l-2.037-1.468" transform="translate(-10.342 6.431)" fill="#fff"/>
      <path id="Path_119699" data-name="Path 119699" d="M32.745,57.54a2.056,2.056,0,0,1,1.79,2.549c-.123,1.456-.979,1.649-1.774,1.876-.359-1.473-1.456-2.938-.017-4.425" transform="translate(-10.934 7.813)" fill="#fff"/>
      <path id="Path_119700" data-name="Path 119700" d="M155.436,61.746q-.509-.738-1.015-1.477l1.015-1.471c.939.26,2.133.16,2.133,2.084,0,.288-1.387.576-2.133.864" transform="translate(11.794 8.046)" fill="#fff"/>
      <path id="Path_119701" data-name="Path 119701" d="M105.54,76.709c2.456,1.783,2.641-4.66,5.077-2.944,1.524-.127,2.15,1.706,3.052,2.937,3.405-2.5,4.865.649,6.1,4.429,2.373-2.284,4.745,1.71,7.118,0,1.768-.989,6.517,6.681,5.2-3.8-.1-.806,2.392-.708,3.658-.43,1.776.389,2.023,2.067,1.313,4.228-.862,1.831-.521,4.533-2.031,5.893l-2.035.007c-2.671,2.533-5.05,2.088-7.12-1.476l-2.032-.006c-.681-1.259-1.794-1.94-2.6-1.251-2.779,2.386-5.749.65-8.59,1.25-4.118.008-6.3-3.262-7.112-8.837" transform="translate(2.717 10.771)" fill="#fff"/>
      <path id="Path_119702" data-name="Path 119702" d="M153.067,77.194c-1.375-2.4,1.36-6.878-2.25-8.672-.651-.324,3.125-1.981,2.606-5.617,2.265,1.508,1.434,3.734,1.682,5.444q.884,2.865,3.048,2.951c-2.06,1.474-2.082,2.944,0,4.41l-.011.019c-1.181,1.489-2.526,2.03-4.06,1.467h-1.021" transform="translate(11.111 8.809)" fill="#fff"/>
      <path id="Path_119703" data-name="Path 119703" d="M124.661,80.635q-3.559,3.413-7.118,0c.159-6.908,3.846-3.59,6.1-4.424.275,1.5-1.48,3.989,1.016,4.421" transform="translate(4.946 11.265)" fill="#fff"/>
      <path id="Path_119704" data-name="Path 119704" d="M122.686,83.661c2.338.85,4.657,1.892,7.12,1.476-.359,2.158,1.029,6.955-2.853,3.723-1.055-.88-1.712.918-2.231,2.166-1.582-1.93-2.077-4.493-2.036-7.366" transform="translate(5.901 12.664)" fill="#fff"/>
      <path id="Path_119705" data-name="Path 119705" d="M130.407,85.823c.14-2.354-.537-5.3,2.032-5.893q.507.738,1.016,1.474c1.07,2.153.324,3.429-1.016,4.417l-2.032,0" transform="translate(7.335 11.971)" fill="#fff"/>
      <path id="Path_119706" data-name="Path 119706" d="M146.318,81.685l-2.031-.006c-.107-.982-1.757-1.948-.577-2.626s3.077-1.321,3.965,1.125c.317.871-.711,1.314-1.356,1.507" transform="translate(9.726 11.693)" fill="#fff"/>
      <path id="Path_119707" data-name="Path 119707" d="M132.121,85.59q.509-2.209,1.016-4.417c1.327.267,2.22,1.105,1.755,3.287-.5,2.324-1.639,1.82-2.771,1.13" transform="translate(7.653 12.202)" fill="#fff"/>
      <path id="Path_119708" data-name="Path 119708" d="M153.564,75.192a5.425,5.425,0,0,1,4.06-1.467q0,1.466,0,2.93c-1.417-.123-2.968.542-4.062-1.463" transform="translate(11.635 10.812)" fill="#fff"/>
      <path id="Path_119709" data-name="Path 119709" d="M53.161,70.374c-.345-3.437.847-7.192-1.014-10.317q0-2.214,0-4.427c-.179-1.672-.622-3.545,1.307-3.623a3.207,3.207,0,0,1,1.713,1.705c2.258,3.765,5.24,6.858,5.553,12.446-.579,3.379-4.574,6.135-.883,10.307a11.033,11.033,0,0,1,.436,7.177c-.264,3.249-.27,2.989-2.166,3.078-2,.094-3.71,3.271-5.97,1.343-1.415-.141-2.968.518-4.063-1.473.3-.563.6-1.609.913-1.618,7.666-.242,2.741-9.984,5.121-14.171l-.951-.427" transform="translate(-7.953 6.785)" fill="#fff"/>
      <path id="Path_119710" data-name="Path 119710" d="M57.964,75.242c-1.192-.241-4.091,2.177-2.4-2.713.914-2.643.816-6.49,3.417-7.606.34-1.305.889-2.075,1.889-1.6.369.069.53.364.443.86.26-.839-.557-.875-.539-1.573a2.184,2.184,0,0,1,2.148-1.832c2.365,2.24,1.259-2.258,2.33-2.54,2.14-1.462,3.937-.327,5.634,1.547a2.651,2.651,0,0,1,.036,2.617c-3.326,5.455-3.05,9.007,1.147,12.973.844.8,1.794,1.281,2.163,2.795l.006.018c-.828,8.835-4.385,3.8-7.12,2.943-1.5-.044-2.272-1.577-3.244-2.949-1.22-1.723-1.6-.018-1.844,1.479-2.6.93-2.175-3.984-4.067-4.419" transform="translate(-6.659 7.819)" fill="#fff"/>
      <path id="Path_119711" data-name="Path 119711" d="M65.228,77.9c.7-1.283,1.7-1.864,2.574-.866,2.33,2.668,3.5.742,4.546-2.077,2.3,2.324,3.453,5.72,4.367,8.9-.391,2.413-5.771-1.965-2.333,4.378a1.082,1.082,0,0,1,.254.981c-.087.324-.174.486-.261.486l-2.026-1.479c-3.193,3.082-5,1.934-5.645-3.622a63.067,63.067,0,0,0-1.475-6.7" transform="translate(-4.768 11.048)" fill="#fff"/>
      <path id="Path_119712" data-name="Path 119712" d="M57.509,72.6c3.676-3.013,2.335,3.674,4.067,4.419-.588,1.91-1.608,2.884-3.046,2.948-1.579-2.1-.826-4.868-1.021-7.367" transform="translate(-6.204 10.465)" fill="#fff"/>
      <path id="Path_119713" data-name="Path 119713" d="M43.787,83.662c1.725.274,3.637-.822,5.085,1.464.658,1.716-.464,2.135-1.026,2.964-1.493-1.207-3.284-1.839-4.06-4.429" transform="translate(-8.75 12.658)" fill="#fff"/>
      <path id="Path_119714" data-name="Path 119714" d="M40.454,79.933l1.033-.018c2.082.643.7,2.948,1.013,4.437q-.512.742-1.023,1.482l-.505,0-.506,0c-1.647-1.961.24-3.935-.011-5.9" transform="translate(-9.493 11.968)" fill="#fff"/>
      <path id="Path_119715" data-name="Path 119715" d="M65.373,89.5c-1.8,2.02-2.754,1.455-3.533-.159-.306-.633-.391-1.5.242-1.7,1.246-.4,2.1.762,3.291,1.862" transform="translate(-5.441 13.387)" fill="#fff"/>
      <path id="Path_119716" data-name="Path 119716" d="M47.211,87.856q.512-1.482,1.026-2.963c.672.042,1.346.082,2.018.125.736,4.892-1.953,2.063-3.044,2.839" transform="translate(-8.114 12.892)" fill="#fff"/>
      <path id="Path_119717" data-name="Path 119717" d="M77.24,43.881c.679,1.34,1.173,3.34,2.079,3.875,1.687,1,2.971,1.276,2.215,4.884-.875,4.172-2.836,2.025-4.914,2.288,3.858,5.519,7.559,6.884,11.8,2.22h0c1.249,1.318,3.037,2.073,2.591,5.171a2.9,2.9,0,0,1-.74,1.355,1.575,1.575,0,0,0-.245,1.9c1.126,7.578.55,9.116-3.2,8.637-1.237-1.186-2.005-3.3-4.091-3.959-1.4,5.4,1.2,6.945,3.74,8.526a4.621,4.621,0,0,1,.551,1.808c-.2,2.316-1.952,4.163-1,6.849-3.87,2.631-4.751-2.836-6.766-5.234-1.913-3.124-5.336-4.06-6.1-8.848-1.093-2.3.238-5.12-.778-7.434a15.921,15.921,0,0,1-.537-2.805,32.572,32.572,0,0,1-.1-3.865c-.008-.954,0-1.91.026-2.865-.007-.636.025-1.27.063-1.9a24.086,24.086,0,0,1,.337-2.816,14.6,14.6,0,0,1,.409-1.814A10.612,10.612,0,0,1,75.346,44.6a2.691,2.691,0,0,1,1.894-.716" transform="translate(-3.559 5.277)" fill="#fff"/>
      <path id="Path_119718" data-name="Path 119718" d="M74.715,56.425l0,4.434a8.9,8.9,0,0,0-.953,2.432c-.121.486-.845.912-.242,1.455.127.114.742-.752,1.213-.964,2.681,2.466.4,4.922-.008,7.381q-1.019,3.68-2.037,7.36c-3.989.541-5.574-6.034-9.347-6.134-.133-2.644,5.062-2.527,1.343-6.909-.673-.794,3.415-2.555,4.954-4.628.056-.33.113-.659.165-.99,1.215-2.407,2.147-5.672,4.909-3.437" transform="translate(-5.119 7.467)" fill="#fff"/>
      <path id="Path_119719" data-name="Path 119719" d="M78.088,76.2c2.74.238,3.842,6.015,7.122,4.424,1.04-.146,2.084-.134,3.129-.19a6.3,6.3,0,0,1,1.937.094A9.868,9.868,0,0,1,94.018,82.4a3.892,3.892,0,0,1,.86,1.469,3.286,3.286,0,0,1-.511,2.636c-2.9,1.967-6.365-.04-9.264,4.023-1.744,2.446-6.072-3.682-6.649-9.314-.171-1.662-.247-3.345-.365-5.018" transform="translate(-2.38 11.278)" fill="#fff"/>
      <path id="Path_119720" data-name="Path 119720" d="M98.6,88.011q-.509,2.211-1.019,4.424l-3.048-1.476a6.587,6.587,0,0,1-.294-6.087c1.148-1.247,2.258-1.033,3.341.183l0,.012A15.344,15.344,0,0,1,98.6,88.011" transform="translate(0.505 12.733)" fill="#fff"/>
      <path id="Path_119721" data-name="Path 119721" d="M97.913,85.625l-3.061.03q-1.008,1.282-2.016,0l-1.019-.025q0-1.467,0-2.936c.372-1.377.949-2.163,2.033-1.476.768,1.581,1.927,1.451,3.053,1.463q.512-.761,1.009.023,0,1.464,0,2.926" transform="translate(0.169 12.162)" fill="#fff"/>
      <path id="Path_119722" data-name="Path 119722" d="M92.781,84.916l2.016,0q.007,2.938.014,5.875c-4.943,1.135-1.471-3.833-2.03-5.879" transform="translate(0.224 12.897)" fill="#fff"/>
      <path id="Path_119723" data-name="Path 119723" d="M72.942,87.622q.007-.735.007-1.467a2.3,2.3,0,0,1,2.387,1.889,2.047,2.047,0,0,1-.671,1.53c-.981.286-1.346-.918-1.723-1.952" transform="translate(-3.336 13.127)" fill="#fff"/>
      <path id="Path_119724" data-name="Path 119724" d="M155.518,90.5c-.452-1.169-.9-2.338-1.541-4,2.064.331,3.335,1.182,3.575,3.995h-2.033" transform="translate(11.712 13.192)" fill="#fff"/>
      <path id="Path_119725" data-name="Path 119725" d="M85.168,70.817c1.581-.766,2.1-4.513,1.017-7.369-.47-1.567.056-2.415,1.015-2.948h1.017c2.718,2.716,2.261-1.47,3.051-2.948H93.3c.438,3.641,1.981,4.081,4.067,2.949,2.341,6.029-2.967,3.307-3.429,6.761.662,2.724,4.38-.945,4.445,3.556-2.7,5.8,1.355,6.891,3.524,9.27-2.227,2.14-3.8-.515-5.556-.427-1.4,1.024-2.754-.79-4.153-.135-1.559.1-2.906-.958-4.331-1.613a7.271,7.271,0,0,1-2.314-1.841,7.448,7.448,0,0,1-1.75-4.06c.213-.973.481-1.824,1.365-1.2" transform="translate(-1.319 7.816)" fill="#fff"/>
      <path id="Path_119726" data-name="Path 119726" d="M105.7,76.2c2.061,3.471,3.94,7.245,7.112,8.837,1.9,1.1,2.8,5.031,5.6,3.366-.8,5.042-4.831,1.4-5.6,5.479-.829-.17-2.368-.25-2.383-.522-.406-6.82-5.585-10.253-5.751-17.163l1.021,0" transform="translate(2.557 11.278)" fill="#fff"/>
      <path id="Path_119727" data-name="Path 119727" d="M97.114,83.121q-.505-.012-1.008-.021c.7-4.227,3.092-4.819,5.312-4.214,1.89.517-.232,1.764-.231,2.751-.86,3.364-2.616,1.563-4.073,1.484" transform="translate(0.965 11.74)" fill="#fff"/>
      <path id="Path_119728" data-name="Path 119728" d="M91.2,75.058c1.742-1.757,2.777.6,4.067,1.471,1,3.41-.745,2.85-2.032,2.951a1.9,1.9,0,0,1-2.007,1.051,2.65,2.65,0,0,1-1.539-2.12c-.2-1.783.692-2.534,1.512-3.353" transform="translate(-0.232 10.948)" fill="#fff"/>
      <path id="Path_119729" data-name="Path 119729" d="M91.036,78.692c.679,0,1.359,0,2.038,0q.507,1.474,1.015,2.946l-2.032,1.476,0-.009c-1.105-1.1-2.223-2.191-1.016-4.41" transform="translate(-0.073 11.74)" fill="#fff"/>
      <path id="Path_119730" data-name="Path 119730" d="M98.031,87.849c-1.665-.019-1.522-1.351-1.017-2.945,2.1.014,4.274-.25,5.656,2.955-1.7,2.651-3.142-.382-4.638-.009" transform="translate(1.071 12.894)" fill="#fff"/>
      <path id="Path_119731" data-name="Path 119731" d="M60.36,34.2a5.737,5.737,0,0,0,0-4.442,3.106,3.106,0,0,1,4.26-.747c2.918,1.588.064-2.213,1.071-2.444a4.225,4.225,0,0,1,.811-1.786c3.705-.71,4.708,2.16,4.341,6.856a4.587,4.587,0,0,1-1.929,3.25c-1.618.849-5.887-1.368-2.7,5.033a2.492,2.492,0,0,1-1.047,3.43c-2.7,1.135-2.93,5.1-4.468,7.532a3.3,3.3,0,0,1-1.334.829,2.524,2.524,0,0,1-2.1-.614c-1.584-2.491-2.48-5.618-3.7-8.449-.582-3.141-2.48-3.359-4.209-3.955A3.646,3.646,0,0,1,47.7,34.668a36.9,36.9,0,0,0,5.593-6.845c2.1-.173,3.555,1.653,5.033,3.41v1.479c-.4.7-1.064,1.518-.419,2.364.986,1.3,1.8.4,2.452-.876" transform="translate(-8.036 1.71)" fill="#fff"/>
      <path id="Path_119732" data-name="Path 119732" d="M50.23,34.217q.14,2.753,2.041,2.924a1.812,1.812,0,0,1,.27,1.226c-.062.426-.129.638-.2.639a2.745,2.745,0,0,1-2.662,1.043c-1.075-.092-2.109-.941-3.225-.372-2.132.893-1.76,3.984-2.526,6.064-.735,1.818-2.178,2.731-2.837,4.655-2.558,2.383-3.065.287-3.056-2.938q-3.194-2.949,0-5.9l1.017-4.419A5.432,5.432,0,0,1,41.165,34.9c2.014-.825,1.43-4.3,2.792-5.791,1.751-1.263,4.006-1.029,5.262-3.749,1.017-1.5,2.037.315,3.056-.007a1.367,1.367,0,0,1,2.054-.446,3.661,3.661,0,0,1,.491,2.862c-.945,3.018-2.26,5.492-4.589,6.453" transform="translate(-10.115 1.699)" fill="#fff"/>
      <path id="Path_119733" data-name="Path 119733" d="M64.841,28.006q0,.74,0,1.479c-1.694,2.1-3.389,1.994-5.08-.006a8.748,8.748,0,0,1-3.052-4.419,1.28,1.28,0,0,1-.34-1c.037-.387.092-.579.167-.579a.831.831,0,0,1,1.19.1c3.485-.293,6.326-5.246,10.169-2.95,1.074-1.9,1.084-4.962,3.05-5.893.014-1.632-.071-3.31,1.019-4.421.713,5.7,3.664.32,5.176,2.146a5.273,5.273,0,0,1-.225,1.285C76.2,15.2,73.945,15.432,74.644,17.8c.755,2.566,2.277.24,3.465.115.662-.069,1.322-.148,1.984-.224A9.983,9.983,0,0,1,78.057,28c-6.573-5.808-9.418-5.806-13.216.006" transform="translate(-6.415 -0.956)" fill="#fff"/>
      <path id="Path_119734" data-name="Path 119734" d="M44.543,29.447c-.391,2.622,1.047,6.315-2.051,7.349-1.161-1.616-2.164-4.15-4.065-1.47-4.534.116-2.931-5.7-4.074-8.856l3.05-.006,4.075,1.467,2.028.012c1.068-.545,1.268.168,1.037,1.5" transform="translate(-10.502 2.042)" fill="#fff"/>
      <path id="Path_119735" data-name="Path 119735" d="M51.6,28.873l0-2.968a4.194,4.194,0,0,1,0-4.4c1.914,3.587,5.6,4.967,6.1,10.316-2.094.466-3.767-.609-5.095-2.937q-.507.758-1-.012" transform="translate(-7.414 1.122)" fill="#fff"/>
      <path id="Path_119736" data-name="Path 119736" d="M58.307,22.829l-1.015,0c-1.441.018-2.869-.042-4.066-1.46.152-.687.212-1.884.468-1.979,1.848-.69.312-6.032,2.652-4.839s2.988,4.665,1.96,8.281" transform="translate(-6.997 -0.202)" fill="#fff"/>
      <path id="Path_119737" data-name="Path 119737" d="M59.193,32.944c.793,2.581,1.291,5.076-1.719,3.736a5.29,5.29,0,0,1-3.562-4.318c.966-1.457,2.17-.7,3.248-.906l2.033,1.488" transform="translate(-6.87 2.966)" fill="#fff"/>
      <path id="Path_119738" data-name="Path 119738" d="M59.385,26.477l5.081.006c.908,2.8,1.541,5.33-1.839,4.225-1.415-.462-2.839-.858-4.259-1.284l1.017-2.946" transform="translate(-6.042 2.045)" fill="#fff"/>
      <path id="Path_119739" data-name="Path 119739" d="M69.3,14.143c-.806,2.192-.014,6.124-3.05,5.893a14.149,14.149,0,0,1-1.015-5.888c1.354-.129,2.709-1.321,4.065,0" transform="translate(-4.771 -0.359)" fill="#fff"/>
      <path id="Path_119740" data-name="Path 119740" d="M43.109,29.675l-1.037-1.5a8.066,8.066,0,0,1,6.1-2.931c.123,5.821-2.91,4.073-5.063,4.436" transform="translate(-9.068 1.815)" fill="#fff"/>
      <path id="Path_119741" data-name="Path 119741" d="M49.729,15.764l-5.082-1.486q0-.731,0-1.464c2.045.394,4.3-1.053,6.1,1.471l-1.019,1.479" transform="translate(-8.59 -0.504)" fill="#fff"/>
      <path id="Path_119742" data-name="Path 119742" d="M53.226,20.273c1.418.119,2.965-.524,4.066,1.46l0,1.481c-1.729.108-3.261-.356-4.062-2.941" transform="translate(-6.997 0.891)" fill="#fff"/>
      <path id="Path_119743" data-name="Path 119743" d="M51.826,21.506q0,2.2,0,4.4l-2.028.019c-.024-2.151.083-4.175,2.032-4.419" transform="translate(-7.635 1.122)" fill="#fff"/>
      <path id="Path_119744" data-name="Path 119744" d="M63.635,26.284c-1.361-3.684-1.138-5.708,2.271-5.99,4.361-.363,9.155-3.23,10.945,5.984l-2.026,1.486C73.57,30.9,73.5,35.552,69.947,35.74c-1.506-.378-2.241-2.241-3.257-3.563C67.83,27.861,65.8,27,63.635,26.284" transform="translate(-5.209 0.766)" fill="#fff"/>
      <path id="Path_119745" data-name="Path 119745" d="M77.507,48.385l-3.052,5.891a2.983,2.983,0,0,1-1-1.544c-.858-4.854-1.137-10.191-6.257-9.51-1.316.174-2.635-1.956-2.331-4.674,1.278-3.169,3.52-2.421,5.472-2.83a8.58,8.58,0,0,1,2.626-.111c1.311-.44,1.739-2.535,2.89-3.268.212-.064.426-.122.638-.181.768-2.422,1.151-5.859,3.876-4.088,3,1.943.539,4.087,0,6.172a11.109,11.109,0,0,0,1.213.869c1.066-.566,1.237.165,1.013,1.469l-.011.028c-3.2,2.565-7.293,4.312-5.076,11.779" transform="translate(-4.844 2.25)" fill="#fff"/>
      <path id="Path_119746" data-name="Path 119746" d="M72.734,38.266,70.7,36.795c-1.718.524-2.3-.594-2.026-2.948,2.515-1.265,2.792-5.777,5.085-7.364-.07,2.5,1.406,3.881,2.031,5.877v.012c-1.974.924-2.231,3.716-3.052,5.894" transform="translate(-4.141 2.046)" fill="#fff"/>
      <path id="Path_119747" data-name="Path 119747" d="M79.97,35.813l-1.014-1.469c1.905-1.628,3.71-4.142,6.105-1.458-.74,4.477-3.264,2.428-5.091,2.927" transform="translate(-2.219 3.016)" fill="#fff"/>
      <path id="Path_119748" data-name="Path 119748" d="M84.073,25.4q.507,1.471,1.013,2.943c-2.324-.269-5.091,1.091-6.347-3.637,1.953-1.334,3.548,1.38,5.334.694" transform="translate(-2.26 1.647)" fill="#fff"/>
      <path id="Path_119749" data-name="Path 119749" d="M36.947,11.562c1.87,3.125.671,6.885,1.016,10.326-2.17-3.063-.511-6.919-1.016-10.326" transform="translate(-10.045 -0.725)" fill="#fff"/>
      <path id="Path_119750" data-name="Path 119750" d="M75.685,46.972c-2.018-8.026-1.562-9.086,5.076-11.78.42,4.469,3.516,3.508,5.536,5.55-1.978,2.553-3.613,2.055-5.318-.1-.924-1.169-1.783-3.3-3.267-1.056-.331.513-.666.544-1.007.019-1.724,1.962-.561,3.927,0,5.892q-.51.738-1.019,1.477" transform="translate(-3.023 3.663)" fill="#fff"/>
      <path id="Path_119751" data-name="Path 119751" d="M89.6,23.991a3.042,3.042,0,0,1-.007.729c-.687,2.5,1.87,5.868-.957,7.734-.319.21-.875-.338-1.321-.535.931-2.541,0-6.209,2.285-7.93Z" transform="translate(-0.667 1.583)" fill="#fff"/>
      <path id="Path_119752" data-name="Path 119752" d="M81.524,46.367c1.285.306,2.674.461,3.192,2.565.063.257-.879,1.48-1.372,1.5C81.349,50.525,81.641,48.2,81.524,46.367Z" transform="translate(-1.742 5.738)" fill="#fff"/>
      <path id="Path_119753" data-name="Path 119753" d="M81.948,46.983c-1.194-.254-2.829.373-2.7-2.6.019-.484.575-1.288.908-1.317C82.2,42.882,81.772,45.253,81.948,46.983Z" transform="translate(-2.167 5.123)" fill="#fff"/>
      <path id="Path_119754" data-name="Path 119754" d="M76.381,38.916c.336,0,.671-.012,1.008-.019.413.624.836,1.234,1.212,1.9.021.038-.346.779-.547.794-1.272.1-1.53-1.237-1.673-2.678" transform="translate(-2.697 4.351)" fill="#fff"/>
      <path id="Path_119755" data-name="Path 119755" d="M112.873,76.992c-1.444-.047-2.454-1.042-3.052-2.937,1.016-2.849,2.035-2.866,3.054-.006q0,1.471,0,2.943" transform="translate(3.512 10.482)" fill="#fff"/>
      <path id="Path_119756" data-name="Path 119756" d="M124.169,68.426a11.776,11.776,0,0,1,.366,2.344c-.025,1.014-.528,2-1.241,1.294-.384-.381-.438-1.7-.435-2.587,0-.709.337-1.371,1.31-1.051" transform="translate(5.933 9.819)" fill="#fff"/>
      <path id="Path_119757" data-name="Path 119757" d="M140.059,61.285c.574,1.956,1.508,3.837.483,6.464-2.531-1.89-2.361-4-.481-6.462Z" transform="translate(8.865 8.508)" fill="#fff"/>
      <path id="Path_119758" data-name="Path 119758" d="M99.58,57.559c.334,0,.669.017,1,0,2.092-.115,4.411-.075,4.546,3.819.1,2.82-1.922,1.943-3.133,2.022C98.8,63.6,99.1,60.63,99.58,57.559Z" transform="translate(1.555 7.811)" fill="#fff"/>
      <path id="Path_119759" data-name="Path 119759" d="M90.9,58.028q.144,1.062.286,2.125c.276,2.082,2.49,4.571.065,6.153-2.822,1.841-.8-4.131-2.756-4.278-.228-.018-.432-.685-.646-1.052.069-2.507-1.41-3.889-2.035-5.893,2.109-.521,3.5,1.575,5.085,2.945" transform="translate(-0.946 7.342)" fill="#fff"/>
      <path id="Path_119760" data-name="Path 119760" d="M149.319,58.8l2.044,0c-.157,1.41-.427,2.938-1.643,2.649s-.548-1.662-.4-2.652" transform="translate(10.788 8.048)" fill="#fff"/>
      <path id="Path_119761" data-name="Path 119761" d="M47.755,36.419H50.8c1.522.37,2.194,2.114,2.914,3.781.622,1.756,1.326,3.516,0,5.269-.657.441-1.271-.03-1.9-.2l-2.031-.009c-1.669,1.725-3.233.966-4.774-.411-1.337-2.081-.4-3.682.528-5.286a11.2,11.2,0,0,1,.984-1.173c.439-.618.81-1.334,1.235-1.977" transform="translate(-8.647 3.891)" fill="#fff"/>
      <path id="Path_119762" data-name="Path 119762" d="M50.721,43.976c.343-.742.687-.749,1.032,0,1.844,1.11,2.386,3.3,2.367,5.966a6.5,6.5,0,0,1-1.355,4.343q-.5,1.471-1.009,2.942c-2.86-4-.81-8.813-1.034-13.249" transform="translate(-7.556 5.19)" fill="#fff"/>
      <path id="Path_119763" data-name="Path 119763" d="M47.528,39.086Q46.514,41.3,45.5,43.52c1.059,2.143.311,3.411-1.014,4.4l-4.07,0c-1.145-3.23.918-3.36,2.029-4.412C44,41.7,43.7,35.417,47.528,39.086" transform="translate(-9.438 4.176)" fill="#fff"/>
      <path id="Path_119764" data-name="Path 119764" d="M38.581,39a6.844,6.844,0,0,0,0,5.9C34.988,46.372,34.11,42.925,33.5,39c1.694-1.513,3.39.384,5.085,0" transform="translate(-10.661 4.26)" fill="#fff"/>
      <path id="Path_119765" data-name="Path 119765" d="M43.795,47.05l1.014-4.4,5.074,1.462c-1.512,3.227-3.334,5.106-6.087,2.941" transform="translate(-8.748 5.048)" fill="#fff"/>
      <path id="Path_119766" data-name="Path 119766" d="M37.2,60.732c-2.971-1.471-1.589-2.944,0-4.417q0,2.209,0,4.417" transform="translate(-10.298 7.586)" fill="#fff"/>
      <path id="Path_119767" data-name="Path 119767" d="M32.937,44.755,32,46.38a9.378,9.378,0,0,1-.535-1.654c-.089-.645-.154-1.628.539-1.538.312.04.57.925.934,1.567" transform="translate(-11.048 5.147)" fill="#fff"/>
      <path id="Path_119768" data-name="Path 119768" d="M36.929,55.762q0-2.213,0-4.424c2.983,1.474,1.579,2.949,0,4.424" transform="translate(-10.024 6.661)" fill="#fff"/>
      <path id="Path_119769" data-name="Path 119769" d="M37.788,34.6c.037-2.229.174-4.577,2.279-4.148,2.384.485,1.576,3.474,1.786,5.618H38.8L37.788,34.6" transform="translate(-9.864 2.773)" fill="#fff"/>
      <path id="Path_119770" data-name="Path 119770" d="M30.072,30.364c.337,0,.673,0,1.01-.013.988-.272,2.191-2.335,2.82.534a2.736,2.736,0,0,1-1.045,2.977c-2.186,1.105-2.488-1.263-2.785-3.5" transform="translate(-11.297 2.584)" fill="#fff"/>
      <path id="Path_119771" data-name="Path 119771" d="M61.355,64.809l-2.033,1.479c-1.576-4.429-5.032-6.813-6.1-11.793a10.769,10.769,0,0,1,3.334-3.678,3.812,3.812,0,0,1,1.328-.588c.828-.05,2.21.2,2.146,1-.4,5.051,2.523,2.241,3.685,3.493,1.468,3,1.039,5.849-.327,8.616l-2.032,1.471Z" transform="translate(-6.998 6.454)" fill="#fff"/>
      <path id="Path_119772" data-name="Path 119772" d="M57.449,51.97c-.8,2.59-2.335,3.063-4.069,2.946l-1.015-1.475V49.019c2.624-2.38,4.073-.509,5.084,2.951" transform="translate(-7.157 6.033)" fill="#fff"/>
      <path id="Path_119773" data-name="Path 119773" d="M62,63.523c-.273-2.964.732-6.236-1.013-8.845a4.769,4.769,0,0,1,1.049-4.914c2.154-1.183,3.912-.428,5.257,2.288.237,1.686-.613,3.025-.708,4.615-.267,2.1-1.739,2.542-2.548,3.9-.074,1.863.317,4.4-2.038,2.952" transform="translate(-5.608 6.269)" fill="#fff"/>
      <path id="Path_119774" data-name="Path 119774" d="M63.515,59.512c-.07-2.185,1.342-2.944,2.02-4.41,3.274-.826,4.605,1.179,4.082,5.886l-.007,0-6.1-1.481" transform="translate(-5.087 7.327)" fill="#fff"/>
      <path id="Path_119775" data-name="Path 119775" d="M60.082,62.523c2.007.5,2.635,2.3,2.612,5.329-2.152-.963-1.683-3.81-2.613-5.326v0" transform="translate(-5.724 8.738)" fill="#fff"/>
      <path id="Path_119776" data-name="Path 119776" d="M67.527,56.536c-1.43-1.909-3.275-2.306-5.062-2.911,0,0-.343-.337-.341-.328a2.087,2.087,0,0,1-.132-1.147c-.525.178-.866.883-1.437.918-1.507-.4-2.694-1.148-2.169-3.886.8-3.3-.569-8.826,4.072-8.244.352.044,1.9-.515.3-2.1-1.39-1.381-2.6-4.553-1.636-6.189,1.311-2.22,3.633-1.779,5.4.325a4.184,4.184,0,0,1,0,4.426c.126,2.478,1.48,3.384,2.758,3.415,6.166.151,6.347,6.353,6.392,12.795v0c-1.2.97-2.208-.7-3.833-.4,1.707.836,3.206,1.206,3.832,3.357q0,.736,0,1.475c-3.1,3.849-5.932,4.745-8.143-1.5" transform="translate(-6.062 2.917)" fill="#fff"/>
      <path id="Path_119777" data-name="Path 119777" d="M86.117,69.676,85.1,71.15c-.768.71-.768.71,1.259,3.013-.046,1.167-.345,1.858-1.253,1.411-3.456.229-7.476-5.97-6.161-10.314.9-2.971,3.473-.9,5.059-.242.934.388,1.424,3.031,2.113,4.659" transform="translate(-2.269 8.957)" fill="#fff"/>
      <path id="Path_119778" data-name="Path 119778" d="M66.46,52.564c2.446,3.565,5.247,3.077,8.143,1.5Q74.6,55.534,74.592,57c-2.45-.359-2.8,4.331-5.065,4.424-.74-2.867-2.082-4.854-4.082-5.886-.646-.172-1.551-.377-1.428-1.469.226-2.013,1.545-1.241,2.444-1.508" transform="translate(-4.995 6.889)" fill="#fff"/>
      <path id="Path_119779" data-name="Path 119779" d="M73.928,53.481c-.954-.4-2.115-1.5-2.817-1.056-1.353.848-2.329,1.821-3.114-.875-.27-.932-.66-1.8.076-2.515,1-.962,2.087-1.821,3.307-.883.889.683,1.7,1.577,2.548,2.377v2.952" transform="translate(-4.319 5.994)" fill="#fff"/>
      <path id="Path_119780" data-name="Path 119780" d="M73.681,62.971c-.43,1.556-.608,3.461-1.348,4.587-1.182,1.8-2.1-.02-2.835-1.284A2.18,2.18,0,0,1,70.2,62.96c1.2-.835,2.31-1.93,3.46-2.912q.007,1.462.017,2.923" transform="translate(-4.063 8.279)" fill="#fff"/>
      <path id="Path_119781" data-name="Path 119781" d="M87.409,82.349c-1.384,1.106-2.444.8-3.053-1.473-3.308-1.972-.815-3.937,0-5.9,1.928-.649,2.858,1.147,3.7,3.171a5.3,5.3,0,0,1-.649,4.2" transform="translate(-1.526 11.025)" fill="#fff"/>
      <path id="Path_119782" data-name="Path 119782" d="M87.146,78.444c-1.513.092-2.036-1.96-3.048-2.954,0-.49,0-.981,0-1.469l1.015-1.468q.5-.98,1.008-.011l2.029,1.483c1.085,2.152.387,3.452-1.007,4.418" transform="translate(-1.264 10.509)" fill="#fff"/>
      <path id="Path_119783" data-name="Path 119783" d="M87.086,60.249q-.509,1.474-1.016,2.948c-.881-.863-2.271-1.628-1.34-3.549.695-1.435,1.669-.523,2.356.6" transform="translate(-1.204 8.068)" fill="#fff"/>
      <path id="Path_119784" data-name="Path 119784" d="M86.669,78.2l1.007-4.418c1.711-1.558,2.508,2.214,4.079,1.471q-.512,1.474-1.022,2.951c-.459,1.681-.794,3.482-2.03,4.416H86.67q0-2.211,0-4.421" transform="translate(-0.787 10.758)" fill="#fff"/>
      <path id="Path_119785" data-name="Path 119785" d="M88.384,81.864q.059-3.132,2.03-4.416l1.017,1.474q.509,2.205,1.016,4.41a5.513,5.513,0,0,1-4.063-1.468" transform="translate(-0.469 11.51)" fill="#fff"/>
      <path id="Path_119786" data-name="Path 119786" d="M86.427,72.928l-1.008.011c-1.155-.209-2.674-.375-2.931-2.006-.206-1.309,1.208-.722,1.91-.949l2.029,2.944" transform="translate(-1.567 10.124)" fill="#fff"/>
      <path id="Path_119787" data-name="Path 119787" d="M57.673,53.964c-1.9-.249-2.9-3.747-5.084-2.951a14.514,14.514,0,0,0-1.013-5.887c1.429-1.48.338-2.954,0-4.429-.649-1.462-.592-2.793.633-3.352.951-.434,1.556.261,1.407,1.865,1.224,2.8,3.906,4.535,3.053,8.839,1.12,1.69,2.389,3.328,1.009,5.914Z" transform="translate(-7.381 4.039)" fill="#fff"/>
      <path id="Path_119788" data-name="Path 119788" d="M56.812,52.266q-.505-2.956-1.008-5.914l2.024.02c1.045,3.042,2.907,4.106,5.082,4.417l.011.017L61.9,55.21c-1.591.721-.811,4.909-2.113,4.45-1.946-.684-1.672-3.129-.9-5.834.581-2.03-1.27-1.213-2.074-1.56" transform="translate(-6.518 5.736)" fill="#fff"/>
      <path id="Path_119789" data-name="Path 119789" d="M65.23,37.579q0-2.214,0-4.426.509-1.474,1.019-2.946c1.481-.025,2.876.136,3.051,2.951q1.014,1.473,2.026,2.948c-1.8,2.528-4.053,1.073-6.094,1.474" transform="translate(-4.768 2.737)" fill="#fff"/>
      <path id="Path_119790" data-name="Path 119790" d="M52.145,27.719l1,.012c-.489,4.144-.913,8.405-5.08,5.909,1.352-1.985,1.949-5.058,4.075-5.921" transform="translate(-7.955 2.275)" fill="#fff"/>
      <path id="Path_119791" data-name="Path 119791" d="M53.867,39.589c-1.583-2.107-1.782-.224-2.041,1.487q-1.019-2.213-2.036-4.424,0-.736,0-1.473c1.64.924,4.874-1.249,4.076,4.41" transform="translate(-7.635 3.661)" fill="#fff"/>
      <path id="Path_119792" data-name="Path 119792" d="M62.593,50.788c-2.884,1.4-4.515-.221-5.082-4.418l1.014-.008c.593,1.911,1.61,2.9,3.057,2.945.34-.523.677-.494,1.01.013q0,.735,0,1.468" transform="translate(-6.201 5.737)" fill="#fff"/>
      <path id="Path_119793" data-name="Path 119793" d="M47.167,39.6c-3.072-1.856-2.4,5.345-5.084,4.42-.186-3.82-.152-7.481,3.053-8.841.585,1.563,2.831,1.519,2.032,4.419Z" transform="translate(-9.078 3.661)" fill="#fff"/>
      <path id="Path_119794" data-name="Path 119794" d="M46.68,39.6c-.681-1.47-2.1-2.229-2.032-4.419,1.126.013,2.284-.109,3.051,1.469.506,1.08,1.608,2.638,1.411,3.153-.636,1.661-1.594.082-2.429-.2" transform="translate(-8.591 3.661)" fill="#fff"/>
      <path id="Path_119795" data-name="Path 119795" d="M72.141,37.351c-.876-4.024-.139-6.294,3.052-5.894-1.134,1.839-.783,5.292-3.052,5.894" transform="translate(-3.548 2.961)" fill="#fff"/>
      <path id="Path_119796" data-name="Path 119796" d="M61.954,49.443l-1.01-.013c.151-1.687.347-3.359,1.773-3.721.234-.059.714.3.758.577.289,1.8-.695,2.418-1.52,3.156" transform="translate(-5.564 5.615)" fill="#fff"/>
    </g>
  </g>
</svg>
